2200 0 1 0           
15 SolidWorks 2017 12 ACIS 22.0 NT 24 Sun Dec 31 11:07:31 2017 
1 9.9999999999999995e-007 1e-010 
-0 body $1 -1 -1 $-1 $2 $-1 $-1 F #
-1 name_attrib-gen-attrib $-1 -1 $-1 $-1 $0 2 1 1 1 1 1 1 1 1 1 1 1 1 1 0 1 1 1 @20 bed chassis-end stop #
-2 lump $3 -1 -1 $-1 $-1 $4 $0 F #
-3 rgb_color-st-attrib $-1 -1 $-1 $-1 $2 2 1 2 1 1 1 1 1 1 1 1 1 1 1 0 1 1 1 0.29803921568627451 0.29803921568627451 0.29803921568627451 #
-4 shell $-1 -1 -1 $-1 $-1 $-1 $5 $-1 $2 F #
-5 face $6 -1 -1 $-1 $7 $8 $4 $-1 $9 reversed single F T -0.62853936105471475 -1.395637741052199e-016 -3.1415926535897931 4.3387349787156308e-030 #
-6 integer_attrib-name_attrib-gen-attrib $-1 -1 $-1 $-1 $5 2 1 2 1 1 1 1 1 1 1 1 1 1 1 0 1 1 1 @8 Chamfer1 0 #
-7 face $10 -1 -1 $-1 $11 $12 $4 $-1 $13 reversed single F T -8.7999999999997947 3.1115076389305702e-061 -3.1415926535897931 0 #
-8 loop $-1 -1 -1 $-1 $-1 $14 $5 F unknown #
-9 cone-surface $-1 -1 -1 $-1 7.5000000000007141 -2.9999999999994387 -2.8421709430404007e-014 -5.4234187233944674e-030 -3.1115076389305709e-061 -1 0 -2.2500000000000733 -0 1 I I 0.70710678118654746 0.70710678118654757 2.2500000000000733 forward I I I I #
-10 integer_attrib-name_attrib-gen-attrib $-1 -1 $15 $-1 $7 2 1 2 1 1 1 1 1 1 1 1 1 1 1 0 1 1 1 @8 Chamfer1 0 #
-11 face $16 -1 -1 $-1 $17 $18 $4 $-1 $19 reversed single F T -1.7142857142856647 3.1115076389305691e-061 -3.1415926535897931 9.2972892401045374e-030 #
-12 loop $-1 -1 -1 $-1 $-1 $20 $7 F unknown #
-13 cone-surface $-1 -1 -1 $-1 7.5000000000007141 -2.9999999999994387 12.000000000000028 5.4234187233944674e-030 3.1115076389305709e-061 1 0 1.2500000000000357 0 1 I I 0 1 1.2500000000000357 forward I I I I #
-14 coedge $-1 -1 -1 $-1 $21 $22 $20 $23 reversed $8 $-1 #
-15 rgb_color-st-attrib $-1 -1 $-1 $10 $7 2 1 2 1 1 1 1 1 1 1 1 1 1 1 0 1 1 1 0.792156862745098 0.81960784313725488 0.93333333333333335 #
-16 integer_attrib-name_attrib-gen-attrib $-1 -1 $-1 $-1 $11 2 1 2 1 1 1 1 1 1 1 1 1 1 1 0 1 1 1 @8 Chamfer1 0 #
-17 face $24 -1 -1 $-1 $25 $26 $4 $-1 $27 reversed single F T -1.7142857142856647 3.1115076389305691e-061 -3.1415926535897931 9.2972892401045374e-030 #
-18 loop $-1 -1 -1 $-1 $-1 $28 $11 F unknown #
-19 cone-surface $-1 -1 -1 $-1 3.5000000000007212 -21.000000000000028 -2.8421709430404007e-014 -5.4234187233944674e-030 -3.1115076389305709e-061 -1 0 -1.7500000000000506 -0 1 I I 0 1 1.7500000000000506 forward I I I I #
-20 coedge $-1 -1 -1 $-1 $29 $30 $14 $23 forward $12 $-1 #
-21 coedge $-1 -1 -1 $-1 $31 $14 $32 $33 forward $8 $-1 #
-22 coedge $-1 -1 -1 $-1 $14 $31 $34 $35 reversed $8 $-1 #
-23 edge $-1 -1 -1 $-1 $36 0 $37 3.1415926535897931 $20 $38 forward @7 unknown F #
-24 integer_attrib-name_attrib-gen-attrib $-1 -1 $-1 $-1 $17 2 1 2 1 1 1 1 1 1 1 1 1 1 1 0 1 1 1 @8 Chamfer1 0 #
-25 face $39 -1 -1 $-1 $40 $41 $4 $-1 $42 reversed single F F #
-26 loop $-1 -1 -1 $-1 $-1 $43 $17 F unknown #
-27 cone-surface $-1 -1 -1 $-1 11.500000000000728 -21.000000000000043 -2.8421709430404007e-014 -5.4234187233944674e-030 -3.1115076389305709e-061 -1 0 -1.7500000000000506 -0 1 I I 0 1 1.7500000000000506 forward I I I I #
-28 coedge $-1 -1 -1 $-1 $44 $45 $46 $47 forward $18 $-1 #
-29 coedge $-1 -1 -1 $-1 $48 $20 $49 $50 forward $12 $-1 #
-30 coedge $-1 -1 -1 $-1 $20 $48 $51 $52 reversed $12 $-1 #
-31 coedge $-1 -1 -1 $-1 $22 $21 $53 $54 reversed $8 $-1 #
-32 coedge $-1 -1 -1 $-1 $55 $56 $21 $33 reversed $57 $-1 #
-33 edge $-1 -1 -1 $-1 $36 -0.0014142135623731202 $58 0 $21 $59 forward @7 unknown F #
-34 coedge $-1 -1 -1 $-1 $56 $55 $22 $35 forward $57 $-1 #
-35 edge $-1 -1 -1 $-1 $37 -0.0014142135623731538 $60 -0 $34 $61 forward @7 unknown F #
-36 vertex $-1 -1 -1 $-1 $33 $62 #
-37 vertex $-1 -1 -1 $-1 $35 $63 #
-38 ellipse-curve $-1 -1 -1 $-1 7.5000000000007141 -2.9999999999994387 0.99999999999997158 -5.4234187233944674e-030 -3.1115076389305709e-061 -1 0 1.2500000000000357 0 1 I I #
-39 integer_attrib-name_attrib-gen-attrib $-1 -1 $-1 $-1 $25 2 1 2 1 1 1 1 1 1 1 1 1 1 1 0 1 1 1 @8 Chamfer1 0 #
-40 face $64 -1 -1 $-1 $65 $66 $4 $-1 $67 forward single F F #
-41 loop $-1 -1 -1 $-1 $-1 $68 $25 F unknown #
-42 plane-surface $-1 -1 -1 $-1 15.000000000000721 5.6488147492927965e-013 12.000000000000028 -9.8607613152622937e-031 -1 -0 -1000.0000000000359 9.8607613152626476e-028 -5.5466782398352393e-027 forward_v I I I I #
-43 coedge $-1 -1 -1 $-1 $69 $70 $71 $72 forward $26 $-1 #
-44 coedge $-1 -1 -1 $-1 $73 $28 $74 $75 forward $18 $-1 #
-45 coedge $-1 -1 -1 $-1 $28 $73 $76 $77 reversed $18 $-1 #
-46 coedge $-1 -1 -1 $-1 $78 $78 $28 $47 reversed $79 $-1 #
-47 edge $-1 -1 -1 $-1 $80 -3.1415926535897931 $81 2.8474454701505934e-106 $28 $82 forward @7 unknown F #
-48 coedge $-1 -1 -1 $-1 $30 $29 $83 $84 forward $12 $-1 #
-49 coedge $-1 -1 -1 $-1 $85 $86 $29 $50 reversed $87 $-1 #
-50 edge $-1 -1 -1 $-1 $37 -0.011000000000000057 $88 1.5476014050729245e-077 $29 $89 forward @7 unknown F #
-51 coedge $-1 -1 -1 $-1 $86 $85 $30 $52 forward $87 $-1 #
-52 edge $-1 -1 -1 $-1 $36 -0.011000000000000057 $90 -1.1054295750520889e-078 $51 $91 forward @7 unknown F #
-53 coedge $-1 -1 -1 $-1 $92 $92 $31 $54 forward $93 $-1 #
-54 edge $-1 -1 -1 $-1 $60 -3.1415926535897931 $58 0 $53 $94 forward @7 unknown F #
-55 coedge $-1 -1 -1 $-1 $34 $32 $85 $95 reversed $57 $-1 #
-56 coedge $-1 -1 -1 $-1 $32 $34 $92 $96 reversed $57 $-1 #
-57 loop $-1 -1 -1 $-1 $-1 $32 $97 F unknown #
-58 vertex $-1 -1 -1 $-1 $33 $98 #
-59 straight-curve $-1 -1 -1 $-1 7.5000000000007141 -0.74999999999936762 -2.8421709430404007e-014 -8.6595605623554037e-014 707.10678118656028 -707.10678118653493 I I #
-60 vertex $-1 -1 -1 $-1 $96 $99 #
-61 straight-curve $-1 -1 -1 $-1 7.5000000000007141 -5.2499999999995115 -2.8421709430404007e-014 -4.5321972758946557e-027 -707.10678118656028 -707.10678118653493 I I #
-62 point $-1 -1 -1 $-1 7.5000000000007141 -1.7499999999994031 0.99999999999997158 #
-63 point $-1 -1 -1 $-1 7.5000000000007141 -4.249999999999428 0.99999999999997158 #
-64 integer_attrib-name_attrib-gen-attrib $-1 -1 $-1 $-1 $40 2 1 2 1 1 1 1 1 1 1 1 1 1 1 0 1 1 1 @8 Chamfer1 0 #
-65 face $100 -1 -1 $-1 $101 $102 $4 $-1 $103 forward single F F #
-66 loop $-1 -1 -1 $-1 $-1 $104 $40 F unknown #
-67 plane-surface $-1 -1 -1 $-1 7.1409544943890069e-013 -14.999999999999782 12.000000000000028 -1 9.8607613152622937e-031 -5.5466782398350396e-030 9.8607613152626476e-028 1000.0000000000359 0 forward_v I I I I #
-68 coedge $-1 -1 -1 $-1 $105 $106 $107 $108 forward $41 $-1 #
-69 coedge $-1 -1 -1 $-1 $109 $43 $110 $111 forward $26 $-1 #
-70 coedge $-1 -1 -1 $-1 $43 $109 $112 $113 reversed $26 $-1 #
-71 coedge $-1 -1 -1 $-1 $114 $114 $43 $72 reversed $115 $-1 #
-72 edge $-1 -1 -1 $-1 $116 -3.1415926535897931 $117 2.8474454701505934e-106 $43 $118 forward @7 unknown F #
-73 coedge $-1 -1 -1 $-1 $45 $44 $119 $120 forward $18 $-1 #
-74 coedge $-1 -1 -1 $-1 $121 $122 $44 $75 reversed $123 $-1 #
-75 edge $-1 -1 -1 $-1 $81 -0.0030000000000000001 $124 1.9897732350937599e-077 $44 $125 forward @7 unknown F #
-76 coedge $-1 -1 -1 $-1 $122 $121 $45 $77 forward $123 $-1 #
-77 edge $-1 -1 -1 $-1 $80 -0.0030000000000000001 $126 -0 $76 $127 forward @7 unknown F #
-78 coedge $-1 -1 -1 $-1 $46 $46 $121 $128 reversed $79 $-1 #
-79 loop $-1 -1 -1 $-1 $115 $46 $129 F unknown #
-80 vertex $-1 -1 -1 $-1 $128 $130 #
-81 vertex $-1 -1 -1 $-1 $75 $131 #
-82 ellipse-curve $-1 -1 -1 $-1 3.5000000000007212 -21.000000000000028 2.9999999999999716 5.4234187233944674e-030 3.1115076389305709e-061 1 0 1.7500000000000506 0 1 I I #
-83 coedge $-1 -1 -1 $-1 $132 $132 $48 $84 reversed $133 $-1 #
-84 edge $-1 -1 -1 $-1 $88 -3.1415926535897931 $90 2.790496560747597e-106 $48 $134 forward @7 unknown F #
-85 coedge $-1 -1 -1 $-1 $51 $49 $55 $95 forward $87 $-1 #
-86 coedge $-1 -1 -1 $-1 $49 $51 $132 $135 forward $87 $-1 #
-87 loop $-1 -1 -1 $-1 $-1 $49 $136 F unknown #
-88 vertex $-1 -1 -1 $-1 $50 $137 #
-89 straight-curve $-1 -1 -1 $-1 7.5000000000007141 -4.2499999999994742 12.000000000000028 5.4234187233944676e-027 3.1115076389305709e-058 1000 I I #
-90 vertex $-1 -1 -1 $-1 $84 $138 #
-91 straight-curve $-1 -1 -1 $-1 7.5000000000007141 -1.7499999999994031 12.000000000000028 5.4234187233944676e-027 3.1115076389305709e-058 1000 I I #
-92 coedge $-1 -1 -1 $-1 $53 $53 $56 $96 forward $93 $-1 #
-93 loop $-1 -1 -1 $-1 $139 $53 $140 F unknown #
-94 ellipse-curve $-1 -1 -1 $-1 7.5000000000007141 -2.9999999999994387 -2.8421709430404007e-014 5.4234187233944674e-030 3.1115076389305709e-061 1 0 2.2500000000000715 0 1 I I #
-95 edge $-1 -1 -1 $-1 $37 -3.1415926535897931 $36 0 $85 $141 forward @7 unknown F #
-96 edge $-1 -1 -1 $-1 $58 0 $60 3.1415926535897931 $92 $142 forward @7 unknown F #
-97 face $143 -1 -1 $-1 $-1 $57 $4 $-1 $144 reversed single F T -0.62853936105471475 -1.395637741052199e-016 0 3.1415926535897931 #
-98 point $-1 -1 -1 $-1 7.5000000000007141 -0.74999999999936762 -2.8421709430404007e-014 #
-99 point $-1 -1 -1 $-1 7.5000000000007141 -5.2499999999995115 -2.8421709430404007e-014 #
-100 integer_attrib-name_attrib-gen-attrib $-1 -1 $-1 $-1 $65 2 1 2 1 1 1 1 1 1 1 1 1 1 1 0 1 1 1 @8 Chamfer1 0 #
-101 face $145 -1 -1 $-1 $146 $147 $4 $-1 $148 forward single F F #
-102 loop $-1 -1 -1 $-1 $-1 $149 $65 F unknown #
-103 plane-surface $-1 -1 -1 $-1 15.000000000000721 -14.999999999999629 12.000000000000028 -9.8607613152622937e-031 -1 -0 -1000.0000000000359 9.8607613152626476e-028 -5.5466782398352393e-027 forward_v I I I I #
-104 coedge $-1 -1 -1 $-1 $150 $151 $152 $153 forward $66 $-1 #
-105 coedge $-1 -1 -1 $-1 $152 $68 $154 $155 reversed $41 $-1 #
-106 coedge $-1 -1 -1 $-1 $68 $152 $156 $157 reversed $41 $-1 #
-107 coedge $-1 -1 -1 $-1 $158 $159 $68 $108 reversed $147 $-1 #
-108 edge $-1 -1 -1 $-1 $160 -0 $161 0.012000000000000057 $68 $162 forward @7 unknown F #
-109 coedge $-1 -1 -1 $-1 $70 $69 $163 $164 forward $26 $-1 #
-110 coedge $-1 -1 -1 $-1 $165 $166 $69 $111 reversed $167 $-1 #
-111 edge $-1 -1 -1 $-1 $117 -0.0030000000000000001 $168 1.9897732350937599e-077 $69 $169 forward @7 unknown F #
-112 coedge $-1 -1 -1 $-1 $166 $165 $70 $113 forward $167 $-1 #
-113 edge $-1 -1 -1 $-1 $116 -0.0030000000000000001 $170 -0 $112 $171 forward @7 unknown F #
-114 coedge $-1 -1 -1 $-1 $71 $71 $165 $172 reversed $115 $-1 #
-115 loop $-1 -1 -1 $-1 $173 $71 $129 F unknown #
-116 vertex $-1 -1 -1 $-1 $172 $174 #
-117 vertex $-1 -1 -1 $-1 $111 $175 #
-118 ellipse-curve $-1 -1 -1 $-1 11.500000000000728 -21.000000000000043 2.9999999999999716 5.4234187233944674e-030 3.1115076389305709e-061 1 0 1.7500000000000506 0 1 I I #
-119 coedge $-1 -1 -1 $-1 $176 $176 $73 $120 reversed $139 $-1 #
-120 edge $-1 -1 -1 $-1 $124 -3.1415926535897931 $126 -2.8474454701505934e-106 $73 $177 forward @7 unknown F #
-121 coedge $-1 -1 -1 $-1 $76 $74 $78 $128 forward $123 $-1 #
-122 coedge $-1 -1 -1 $-1 $74 $76 $176 $178 forward $123 $-1 #
-123 loop $-1 -1 -1 $-1 $-1 $74 $179 F unknown #
-124 vertex $-1 -1 -1 $-1 $75 $180 #
-125 straight-curve $-1 -1 -1 $-1 3.5000000000007212 -19.249999999999979 -2.8421709430404007e-014 -5.4234187233944676e-027 -3.1115076389305709e-058 -1000 I I #
-126 vertex $-1 -1 -1 $-1 $120 $181 #
-127 straight-curve $-1 -1 -1 $-1 3.5000000000007212 -22.750000000000078 -2.8421709430404007e-014 -5.4234187233944676e-027 -3.1115076389305709e-058 -1000 I I #
-128 edge $-1 -1 -1 $-1 $81 2.8474454701505934e-106 $80 3.1415926535897931 $121 $182 forward @7 unknown F #
-129 face $183 -1 -1 $-1 $184 $79 $4 $-1 $185 forward single F F #
-130 point $-1 -1 -1 $-1 3.5000000000007212 -22.750000000000018 2.9999999999999716 #
-131 point $-1 -1 -1 $-1 3.5000000000007212 -19.250000000000043 2.9999999999999716 #
-132 coedge $-1 -1 -1 $-1 $83 $83 $86 $135 reversed $133 $-1 #
-133 loop $-1 -1 -1 $-1 $186 $132 $146 F unknown #
-134 ellipse-curve $-1 -1 -1 $-1 7.5000000000007141 -2.9999999999994387 12.000000000000028 5.4234187233944674e-030 3.1115076389305709e-061 1 0 1.2500000000000324 0 1 I I #
-135 edge $-1 -1 -1 $-1 $90 2.790496560747597e-106 $88 3.1415926535897931 $86 $187 forward @7 unknown F #
-136 face $188 -1 -1 $-1 $97 $87 $4 $-1 $189 reversed single F T -8.7999999999997947 3.1115076389305702e-061 -4.7726084765870205e-029 3.1415926535897931 #
-137 point $-1 -1 -1 $-1 7.5000000000007141 -4.2499999999994245 12.000000000000028 #
-138 point $-1 -1 -1 $-1 7.5000000000007141 -1.7499999999994067 12.000000000000028 #
-139 loop $-1 -1 -1 $-1 $190 $176 $140 F unknown #
-140 face $191 -1 -1 $-1 $129 $93 $4 $-1 $192 reversed single F F #
-141 ellipse-curve $-1 -1 -1 $-1 7.5000000000007141 -2.9999999999994387 0.99999999999997158 -5.4234187233944674e-030 -3.1115076389305709e-061 -1 0 1.2500000000000357 0 1 I I #
-142 ellipse-curve $-1 -1 -1 $-1 7.5000000000007141 -2.9999999999994387 -2.8421709430404007e-014 5.4234187233944674e-030 3.1115076389305709e-061 1 0 2.2500000000000715 0 1 I I #
-143 integer_attrib-name_attrib-gen-attrib $-1 -1 $-1 $-1 $97 2 1 2 1 1 1 1 1 1 1 1 1 1 1 0 1 1 1 @8 Chamfer1 0 #
-144 cone-surface $-1 -1 -1 $-1 7.5000000000007141 -2.9999999999994387 -2.8421709430404007e-014 -5.4234187233944674e-030 -3.1115076389305709e-061 -1 0 -2.2500000000000733 -0 1 I I 0.70710678118654746 0.70710678118654757 2.2500000000000733 forward I I I I #
-145 integer_attrib-name_attrib-gen-attrib $-1 -1 $-1 $-1 $101 2 1 2 1 1 1 1 1 1 1 1 1 1 1 0 1 1 1 @8 Chamfer1 0 #
-146 face $193 -1 -1 $-1 $194 $133 $4 $-1 $195 forward single F F #
-147 loop $-1 -1 -1 $-1 $-1 $196 $101 F unknown #
-148 plane-surface $-1 -1 -1 $-1 15.000000000000721 -4.9999999999994387 12.000000000000028 1 -9.8607613152622937e-031 5.5466782398350396e-030 -9.8607613152626476e-028 -1000.0000000000359 -0 forward_v I I I I #
-149 coedge $-1 -1 -1 $-1 $197 $198 $199 $200 reversed $102 $-1 #
-150 coedge $-1 -1 -1 $-1 $201 $104 $202 $203 reversed $66 $-1 #
-151 coedge $-1 -1 -1 $-1 $104 $204 $205 $206 forward $66 $-1 #
-152 coedge $-1 -1 -1 $-1 $106 $105 $104 $153 reversed $41 $-1 #
-153 edge $-1 -1 -1 $-1 $207 -0 $208 0.012000000000000057 $104 $209 forward @7 unknown F #
-154 coedge $-1 -1 -1 $-1 $210 $202 $105 $155 forward $211 $-1 #
-155 edge $-1 -1 -1 $-1 $208 0.029000000000002003 $161 0.044000000000000761 $154 $212 forward @7 unknown F #
-156 coedge $-1 -1 -1 $-1 $205 $213 $106 $157 forward $186 $-1 #
-157 edge $-1 -1 -1 $-1 $160 0 $207 0.014999999999998757 $156 $214 forward @7 unknown F #
-158 coedge $-1 -1 -1 $-1 $196 $107 $213 $215 forward $147 $-1 #
-159 coedge $-1 -1 -1 $-1 $107 $216 $210 $217 reversed $147 $-1 #
-160 vertex $-1 -1 -1 $-1 $108 $218 #
-161 vertex $-1 -1 -1 $-1 $108 $219 #
-162 straight-curve $-1 -1 -1 $-1 15.000000000000721 5.6488147492927965e-013 12.000000000000028 -5.4234187233944676e-027 -3.1115076389305709e-058 -1000 I I #
-163 coedge $-1 -1 -1 $-1 $220 $220 $109 $164 reversed $190 $-1 #
-164 edge $-1 -1 -1 $-1 $168 -3.1415926535897931 $170 -2.8474454701505934e-106 $109 $221 forward @7 unknown F #
-165 coedge $-1 -1 -1 $-1 $112 $110 $114 $172 forward $167 $-1 #
-166 coedge $-1 -1 -1 $-1 $110 $112 $220 $222 forward $167 $-1 #
-167 loop $-1 -1 -1 $-1 $-1 $110 $184 F unknown #
-168 vertex $-1 -1 -1 $-1 $111 $223 #
-169 straight-curve $-1 -1 -1 $-1 11.500000000000728 -19.249999999999993 -2.8421709430404007e-014 -5.4234187233944676e-027 -3.1115076389305709e-058 -1000 I I #
-170 vertex $-1 -1 -1 $-1 $164 $224 #
-171 straight-curve $-1 -1 -1 $-1 11.500000000000728 -22.750000000000092 -2.8421709430404007e-014 -5.4234187233944676e-027 -3.1115076389305709e-058 -1000 I I #
-172 edge $-1 -1 -1 $-1 $117 2.8474454701505934e-106 $116 3.1415926535897931 $165 $225 forward @7 unknown F #
-173 loop $-1 -1 -1 $-1 $-1 $226 $129 F unknown #
-174 point $-1 -1 -1 $-1 11.500000000000728 -22.750000000000032 2.9999999999999716 #
-175 point $-1 -1 -1 $-1 11.500000000000728 -19.250000000000057 2.9999999999999716 #
-176 coedge $-1 -1 -1 $-1 $119 $119 $122 $178 reversed $139 $-1 #
-177 ellipse-curve $-1 -1 -1 $-1 3.5000000000007212 -21.000000000000028 -2.8421709430404007e-014 -5.4234187233944674e-030 -3.1115076389305709e-061 -1 0 -1.7500000000000506 -0 1 I I #
-178 edge $-1 -1 -1 $-1 $126 -2.8474454701505934e-106 $124 3.1415926535897931 $122 $227 forward @7 unknown F #
-179 face $228 -1 -1 $-1 $136 $123 $4 $-1 $229 reversed single F T -1.7142857142856647 3.1115076389305691e-061 0 3.1415926535897931 #
-180 point $-1 -1 -1 $-1 3.5000000000007212 -19.250000000000043 -2.8421709430404007e-014 #
-181 point $-1 -1 -1 $-1 3.5000000000007212 -22.750000000000078 -2.8421709430404007e-014 #
-182 ellipse-curve $-1 -1 -1 $-1 3.5000000000007212 -21.000000000000028 2.9999999999999716 5.4234187233944674e-030 3.1115076389305709e-061 1 0 1.7500000000000506 0 1 I I #
-183 integer_attrib-name_attrib-gen-attrib $-1 -1 $-1 $-1 $129 2 1 2 1 1 1 1 1 1 1 1 1 1 1 0 1 1 1 @8 Chamfer1 0 #
-184 face $230 -1 -1 $-1 $179 $167 $4 $-1 $231 reversed single F T -1.7142857142856647 3.1115076389305691e-061 0 3.1415926535897931 #
-185 plane-surface $-1 -1 -1 $-1 -29.000000000000039 -19.499999999999819 2.9999999999999716 5.4234187233944674e-030 -5.3479037544117374e-060 1 9.8607613152626476e-028 1000.0000000000359 0 forward_v I I I I #
-186 loop $-1 -1 -1 $-1 $-1 $156 $146 F unknown #
-187 ellipse-curve $-1 -1 -1 $-1 7.5000000000007141 -2.9999999999994387 12.000000000000028 5.4234187233944674e-030 3.1115076389305709e-061 1 0 1.2500000000000324 0 1 I I #
-188 integer_attrib-name_attrib-gen-attrib $-1 -1 $232 $-1 $136 2 1 2 1 1 1 1 1 1 1 1 1 1 1 0 1 1 1 @8 Chamfer1 0 #
-189 cone-surface $-1 -1 -1 $-1 7.5000000000007141 -2.9999999999994387 12.000000000000028 5.4234187233944674e-030 3.1115076389305709e-061 1 0 1.2500000000000357 0 1 I I 0 1 1.2500000000000357 forward I I I I #
-190 loop $-1 -1 -1 $-1 $211 $220 $140 F unknown #
-191 integer_attrib-name_attrib-gen-attrib $-1 -1 $-1 $-1 $140 2 1 2 1 1 1 1 1 1 1 1 1 1 1 0 1 1 1 @8 Chamfer1 0 #
-192 plane-surface $-1 -1 -1 $-1 -29.000000000000039 -19.499999999999819 -2.8421709430404007e-014 5.4234187233944674e-030 -5.3479037544117374e-060 1 9.8607613152626476e-028 1000.0000000000359 0 forward_v I I I I #
-193 integer_attrib-name_attrib-gen-attrib $-1 -1 $-1 $-1 $146 2 1 2 1 1 1 1 1 1 1 1 1 1 1 0 1 1 1 @8 Chamfer1 0 #
-194 face $233 -1 -1 $-1 $140 $234 $4 $-1 $235 reversed single F F #
-195 plane-surface $-1 -1 -1 $-1 -29.000000000000039 -179.0000000000054 12.000000000000028 -5.5466782398350396e-030 1.1128501539862045e-059 1 1000.0000000000359 -9.8607613152626476e-028 5.5466782398352393e-027 forward_v I I I I #
-196 coedge $-1 -1 -1 $-1 $236 $158 $197 $237 forward $147 $-1 #
-197 coedge $-1 -1 -1 $-1 $238 $149 $196 $237 reversed $102 $-1 #
-198 coedge $-1 -1 -1 $-1 $149 $238 $204 $239 forward $102 $-1 #
-199 coedge $-1 -1 -1 $-1 $240 $226 $149 $200 forward $173 $-1 #
-200 edge $-1 -1 -1 $-1 $241 0 $242 0.015000000000000006 $199 $243 forward @7 unknown F #
-201 coedge $-1 -1 -1 $-1 $244 $150 $245 $246 forward $66 $-1 #
-202 coedge $-1 -1 -1 $-1 $154 $247 $150 $203 forward $211 $-1 #
-203 edge $-1 -1 -1 $-1 $248 -0.020000000000000594 $208 0.0050000000000000886 $202 $249 forward @7 unknown F #
-204 coedge $-1 -1 -1 $-1 $151 $244 $198 $239 reversed $66 $-1 #
-205 coedge $-1 -1 -1 $-1 $250 $156 $151 $206 reversed $186 $-1 #
-206 edge $-1 -1 -1 $-1 $251 0 $207 0.015000000000000374 $151 $252 forward @7 unknown F #
-207 vertex $-1 -1 -1 $-1 $157 $253 #
-208 vertex $-1 -1 -1 $-1 $153 $254 #
-209 straight-curve $-1 -1 -1 $-1 1.964650664376677e-012 5.9330318435968366e-013 12.000000000000028 -5.4234187233944676e-027 -3.1115076389305709e-058 -1000 I I #
-210 coedge $-1 -1 -1 $-1 $247 $154 $159 $217 forward $211 $-1 #
-211 loop $-1 -1 -1 $-1 $-1 $202 $140 F unknown #
-212 straight-curve $-1 -1 -1 $-1 -29.000000000000039 5.3645976549887564e-013 -2.8421709430404007e-014 1000 -9.8607613152622942e-028 5.5466782398350398e-027 I I #
-213 coedge $-1 -1 -1 $-1 $156 $250 $158 $215 reversed $186 $-1 #
-214 straight-curve $-1 -1 -1 $-1 15.000000000000721 5.6488147492927965e-013 12.000000000000028 -1000 9.8607613152622942e-028 -5.5466782398350398e-027 I I #
-215 edge $-1 -1 -1 $-1 $160 -0.0050000000000000036 $255 0.010000000000000189 $158 $256 forward @7 unknown F #
-216 coedge $-1 -1 -1 $-1 $159 $236 $257 $258 reversed $147 $-1 #
-217 edge $-1 -1 -1 $-1 $161 -0.0050000000000000036 $259 0.020000000000000732 $210 $260 forward @7 unknown F #
-218 point $-1 -1 -1 $-1 15.000000000000721 5.6488147492927965e-013 12.000000000000028 #
-219 point $-1 -1 -1 $-1 15.000000000000721 5.6488147492927965e-013 -2.8421709430404007e-014 #
-220 coedge $-1 -1 -1 $-1 $163 $163 $166 $222 reversed $190 $-1 #
-221 ellipse-curve $-1 -1 -1 $-1 11.500000000000728 -21.000000000000043 -2.8421709430404007e-014 -5.4234187233944674e-030 -3.1115076389305709e-061 -1 0 -1.7500000000000506 -0 1 I I #
-222 edge $-1 -1 -1 $-1 $170 -2.8474454701505934e-106 $168 3.1415926535897931 $166 $261 forward @7 unknown F #
-223 point $-1 -1 -1 $-1 11.500000000000728 -19.250000000000057 -2.8421709430404007e-014 #
-224 point $-1 -1 -1 $-1 11.500000000000728 -22.750000000000092 -2.8421709430404007e-014 #
-225 ellipse-curve $-1 -1 -1 $-1 11.500000000000728 -21.000000000000043 2.9999999999999716 5.4234187233944674e-030 3.1115076389305709e-061 1 0 1.7500000000000506 0 1 I I #
-226 coedge $-1 -1 -1 $-1 $199 $262 $236 $263 reversed $173 $-1 #
-227 ellipse-curve $-1 -1 -1 $-1 3.5000000000007212 -21.000000000000028 -2.8421709430404007e-014 -5.4234187233944674e-030 -3.1115076389305709e-061 -1 0 -1.7500000000000506 -0 1 I I #
-228 integer_attrib-name_attrib-gen-attrib $-1 -1 $-1 $-1 $179 2 1 2 1 1 1 1 1 1 1 1 1 1 1 0 1 1 1 @8 Chamfer1 0 #
-229 cone-surface $-1 -1 -1 $-1 3.5000000000007212 -21.000000000000028 -2.8421709430404007e-014 -5.4234187233944674e-030 -3.1115076389305709e-061 -1 0 -1.7500000000000506 -0 1 I I 0 1 1.7500000000000506 forward I I I I #
-230 integer_attrib-name_attrib-gen-attrib $-1 -1 $-1 $-1 $184 2 1 2 1 1 1 1 1 1 1 1 1 1 1 0 1 1 1 @8 Chamfer1 0 #
-231 cone-surface $-1 -1 -1 $-1 11.500000000000728 -21.000000000000043 -2.8421709430404007e-014 -5.4234187233944674e-030 -3.1115076389305709e-061 -1 0 -1.7500000000000506 -0 1 I I 0 1 1.7500000000000506 forward I I I I #
-232 rgb_color-st-attrib $-1 -1 $-1 $188 $136 2 1 2 1 1 1 1 1 1 1 1 1 1 1 0 1 1 1 0.792156862745098 0.81960784313725488 0.93333333333333335 #
-233 integer_attrib-name_attrib-gen-attrib $-1 -1 $-1 $-1 $194 2 1 2 1 1 1 1 1 1 1 1 1 1 1 0 1 1 1 @8 Chamfer1 0 #
-234 loop $-1 -1 -1 $-1 $-1 $264 $194 F unknown #
-235 plane-surface $-1 -1 -1 $-1 7.1409544943890069e-013 -25.000000000000089 -2.8421709430404007e-014 9.8607613152622937e-031 1 0 1000.0000000000359 -9.8607613152626476e-028 5.5466782398352393e-027 forward_v I I I I #
-236 coedge $-1 -1 -1 $-1 $216 $196 $226 $263 forward $147 $-1 #
-237 edge $-1 -1 -1 $-1 $255 -0 $241 0.0089999999999999993 $196 $265 forward @7 unknown F #
-238 coedge $-1 -1 -1 $-1 $198 $197 $250 $266 forward $102 $-1 #
-239 edge $-1 -1 -1 $-1 $251 -0 $242 0.0090000000000000566 $198 $267 forward @7 unknown F #
-240 coedge $-1 -1 -1 $-1 $262 $199 $244 $268 reversed $173 $-1 #
-241 vertex $-1 -1 -1 $-1 $237 $269 #
-242 vertex $-1 -1 -1 $-1 $239 $270 #
-243 straight-curve $-1 -1 -1 $-1 15.000000000000721 -14.999999999999629 3.0000000000000284 -1000 9.8607613152622942e-028 -5.5466782398350398e-027 I I #
-244 coedge $-1 -1 -1 $-1 $204 $201 $240 $268 forward $66 $-1 #
-245 coedge $-1 -1 -1 $-1 $271 $264 $201 $246 reversed $234 $-1 #
-246 edge $-1 -1 -1 $-1 $248 0 $272 0.0030000000000000001 $201 $273 forward @7 unknown F #
-247 coedge $-1 -1 -1 $-1 $202 $210 $271 $274 forward $211 $-1 #
-248 vertex $-1 -1 -1 $-1 $274 $275 #
-249 straight-curve $-1 -1 -1 $-1 1.964650664376677e-012 -4.9999999999994955 -2.8421709430404007e-014 9.8607613152622942e-028 1000 0 I I #
-250 coedge $-1 -1 -1 $-1 $213 $205 $238 $266 reversed $186 $-1 #
-251 vertex $-1 -1 -1 $-1 $239 $276 #
-252 straight-curve $-1 -1 -1 $-1 7.1409544943890069e-013 -14.999999999999782 12.000000000000028 9.8607613152622942e-028 1000 0 I I #
-253 point $-1 -1 -1 $-1 1.964650664376677e-012 5.9330318435968366e-013 12.000000000000028 #
-254 point $-1 -1 -1 $-1 1.964650664376677e-012 5.9330318435968366e-013 -2.8421709430404007e-014 #
-255 vertex $-1 -1 -1 $-1 $237 $277 #
-256 straight-curve $-1 -1 -1 $-1 15.000000000000721 -4.9999999999994387 12.000000000000028 -9.8607613152622942e-028 -1000 -0 I I #
-257 coedge $-1 -1 -1 $-1 $264 $271 $216 $258 forward $234 $-1 #
-258 edge $-1 -1 -1 $-1 $259 0 $278 0.0030000000000000001 $257 $279 forward @7 unknown F #
-259 vertex $-1 -1 -1 $-1 $217 $280 #
-260 straight-curve $-1 -1 -1 $-1 15.000000000000721 -4.9999999999994387 -2.8421709430404007e-014 -9.8607613152622942e-028 -1000 -0 I I #
-261 ellipse-curve $-1 -1 -1 $-1 11.500000000000728 -21.000000000000043 -2.8421709430404007e-014 -5.4234187233944674e-030 -3.1115076389305709e-061 -1 0 -1.7500000000000506 -0 1 I I #
-262 coedge $-1 -1 -1 $-1 $226 $240 $264 $281 reversed $173 $-1 #
-263 edge $-1 -1 -1 $-1 $241 0.010000000000000189 $278 0.020000000000000732 $236 $282 forward @7 unknown F #
-264 coedge $-1 -1 -1 $-1 $245 $257 $262 $281 forward $234 $-1 #
-265 straight-curve $-1 -1 -1 $-1 15.000000000000721 -14.999999999999629 12.000000000000028 -5.4234187233944676e-027 -3.1115076389305709e-058 -1000 I I #
-266 edge $-1 -1 -1 $-1 $255 0 $251 0.015000000000000006 $238 $283 forward @7 unknown F #
-267 straight-curve $-1 -1 -1 $-1 7.1409544943890069e-013 -14.999999999999782 12.000000000000028 -5.4234187233944676e-027 -3.1115076389305709e-058 -1000 I I #
-268 edge $-1 -1 -1 $-1 $272 -0.020000000000000594 $242 -0.010000000000000286 $244 $284 forward @7 unknown F #
-269 point $-1 -1 -1 $-1 15.000000000000721 -14.999999999999629 3.0000000000000284 #
-270 point $-1 -1 -1 $-1 7.1409544943890069e-013 -14.999999999999782 2.9999999999999716 #
-271 coedge $-1 -1 -1 $-1 $257 $245 $247 $274 reversed $234 $-1 #
-272 vertex $-1 -1 -1 $-1 $281 $285 #
-273 straight-curve $-1 -1 -1 $-1 7.1409544943890069e-013 -25.000000000000089 -2.8421709430404007e-014 5.4234187233944676e-027 3.1115076389305709e-058 1000 I I #
-274 edge $-1 -1 -1 $-1 $259 -0.015000000000000015 $248 0 $247 $286 forward @7 unknown F #
-275 point $-1 -1 -1 $-1 7.1409544943890069e-013 -25.000000000000089 -2.8421709430404007e-014 #
-276 point $-1 -1 -1 $-1 7.1409544943890069e-013 -14.999999999999782 12.000000000000028 #
-277 point $-1 -1 -1 $-1 15.000000000000721 -14.999999999999629 12.000000000000028 #
-278 vertex $-1 -1 -1 $-1 $263 $287 #
-279 straight-curve $-1 -1 -1 $-1 15.000000000000728 -25.000000000000171 -2.8421709430404007e-014 5.4234187233944676e-027 3.1115076389305709e-058 1000 I I #
-280 point $-1 -1 -1 $-1 15.000000000000728 -25.000000000000171 -2.8421709430404007e-014 #
-281 edge $-1 -1 -1 $-1 $278 -0.015000000000000015 $272 0 $264 $288 forward @7 unknown F #
-282 straight-curve $-1 -1 -1 $-1 15.000000000000721 -4.9999999999994387 2.9999999999999716 -9.8607613152622942e-028 -1000 -0 I I #
-283 straight-curve $-1 -1 -1 $-1 15.000000000000721 -14.999999999999629 12.000000000000028 -1000 9.8607613152622942e-028 -5.5466782398350398e-027 I I #
-284 straight-curve $-1 -1 -1 $-1 1.964650664376677e-012 -4.9999999999994955 2.9999999999999716 9.8607613152622942e-028 1000 0 I I #
-285 point $-1 -1 -1 $-1 7.1409544943890069e-013 -25.000000000000089 2.9999999999999716 #
-286 straight-curve $-1 -1 -1 $-1 7.1409544943890069e-013 -25.000000000000089 -2.8421709430404007e-014 -1000 9.8607613152622942e-028 -5.5466782398350398e-027 I I #
-287 point $-1 -1 -1 $-1 15.000000000000728 -25.000000000000171 2.9999999999999716 #
-288 straight-curve $-1 -1 -1 $-1 7.1409544943890069e-013 -25.000000000000089 2.9999999999999716 -1000 9.8607613152622942e-028 -5.5466782398350398e-027 I I #
End-of-ACIS-data 