2200 0 1 0           
15 SolidWorks 2017 12 ACIS 22.0 NT 24 Fri Jan 05 08:36:41 2018 
1 9.9999999999999995e-007 1e-010 
-0 body $1 -1 -1 $-1 $2 $-1 $-1 F #
-1 name_attrib-gen-attrib $-1 -1 $-1 $-1 $0 2 1 1 1 1 1 1 1 1 1 1 1 1 1 0 1 1 1 @26 bed chassis-shaft retainer #
-2 lump $3 -1 -1 $-1 $-1 $4 $0 F #
-3 rgb_color-st-attrib $-1 -1 $-1 $-1 $2 2 1 2 1 1 1 1 1 1 1 1 1 1 1 0 1 1 1 0.29803921568627451 0.29803921568627451 0.29803921568627451 #
-4 shell $-1 -1 -1 $-1 $-1 $-1 $5 $-1 $2 F #
-5 face $6 -1 -1 $-1 $7 $8 $4 $-1 $9 reversed single F T -5.6250000000000338 -1.900000000000021 -3.1415926535897931 0 #
-6 integer_attrib-name_attrib-gen-attrib $-1 -1 $-1 $-1 $5 2 1 2 1 1 1 1 1 1 1 1 1 1 1 0 1 1 1 @19 Stock-bed chassis-1 0 #
-7 face $10 -1 -1 $-1 $11 $12 $4 $-1 $13 reversed single F T -5.6250000000000338 -1.900000000000021 -3.1415926535897931 0 #
-8 loop $-1 -1 -1 $-1 $-1 $14 $5 F unknown #
-9 cone-surface $-1 -1 -1 $-1 -20.000000000000014 4.1566750041965861e-013 4.9999999999999716 0 1 0 -1.5999999999999903 0 0 1 I I 0 1 1.5999999999999903 forward I I I I #
-10 integer_attrib-name_attrib-gen-attrib $-1 -1 $-1 $-1 $7 2 1 2 1 1 1 1 1 1 1 1 1 1 1 0 1 1 1 @19 Stock-bed chassis-1 0 #
-11 face $15 -1 -1 $-1 $16 $17 $4 $-1 $18 reversed single F T -5.6250000000000338 -1.900000000000021 0 3.1415926535897931 #
-12 loop $-1 -1 -1 $-1 $-1 $19 $7 F unknown #
-13 cone-surface $-1 -1 -1 $-1 -5 4.1566750041965861e-013 4.9999999999999716 0 1 0 -1.5999999999999903 0 0 1 I I 0 1 1.5999999999999903 forward I I I I #
-14 coedge $-1 -1 -1 $-1 $20 $21 $22 $23 forward $8 $-1 #
-15 integer_attrib-name_attrib-gen-attrib $-1 -1 $-1 $-1 $11 2 1 2 1 1 1 1 1 1 1 1 1 1 1 0 1 1 1 @19 Stock-bed chassis-1 0 #
-16 face $24 -1 -1 $-1 $25 $26 $4 $-1 $27 reversed single F T -5.6250000000000338 -1.900000000000021 0 3.1415926535897931 #
-17 loop $-1 -1 -1 $-1 $-1 $28 $11 F unknown #
-18 cone-surface $-1 -1 -1 $-1 -5 4.1566750041965861e-013 4.9999999999999716 0 1 0 -1.5999999999999903 0 0 1 I I 0 1 1.5999999999999903 forward I I I I #
-19 coedge $-1 -1 -1 $-1 $29 $30 $31 $32 forward $12 $-1 #
-20 coedge $-1 -1 -1 $-1 $33 $14 $34 $35 forward $8 $-1 #
-21 coedge $-1 -1 -1 $-1 $14 $33 $36 $37 reversed $8 $-1 #
-22 coedge $-1 -1 -1 $-1 $38 $38 $14 $23 reversed $39 $-1 #
-23 edge $-1 -1 -1 $-1 $40 -3.1415926535897931 $41 0 $14 $42 forward @7 unknown F #
-24 integer_attrib-name_attrib-gen-attrib $-1 -1 $-1 $-1 $16 2 1 2 1 1 1 1 1 1 1 1 1 1 1 0 1 1 1 @19 Stock-bed chassis-1 0 #
-25 face $43 -1 -1 $-1 $44 $45 $4 $-1 $46 forward single F F #
-26 loop $-1 -1 -1 $-1 $-1 $34 $16 F unknown #
-27 cone-surface $-1 -1 -1 $-1 -20.000000000000014 4.1566750041965861e-013 4.9999999999999716 0 1 0 -1.5999999999999903 0 0 1 I I 0 1 1.5999999999999903 forward I I I I #
-28 coedge $-1 -1 -1 $-1 $47 $48 $29 $49 reversed $17 $-1 #
-29 coedge $-1 -1 -1 $-1 $50 $19 $28 $49 forward $12 $-1 #
-30 coedge $-1 -1 -1 $-1 $19 $50 $51 $52 reversed $12 $-1 #
-31 coedge $-1 -1 -1 $-1 $53 $53 $19 $32 reversed $54 $-1 #
-32 edge $-1 -1 -1 $-1 $55 -3.1415926535897931 $56 0 $19 $57 forward @7 unknown F #
-33 coedge $-1 -1 -1 $-1 $21 $20 $58 $59 reversed $8 $-1 #
-34 coedge $-1 -1 -1 $-1 $60 $61 $20 $35 reversed $26 $-1 #
-35 edge $-1 -1 -1 $-1 $41 -0.0089999999999999993 $62 -0.0030400000000000153 $20 $63 forward @7 unknown F #
-36 coedge $-1 -1 -1 $-1 $61 $60 $21 $37 forward $26 $-1 #
-37 edge $-1 -1 -1 $-1 $40 -0.0089999999999999993 $64 -0.0030400000000000153 $36 $65 forward @7 unknown F #
-38 coedge $-1 -1 -1 $-1 $22 $22 $60 $66 reversed $39 $-1 #
-39 loop $-1 -1 -1 $-1 $54 $22 $44 F unknown #
-40 vertex $-1 -1 -1 $-1 $66 $67 #
-41 vertex $-1 -1 -1 $-1 $35 $68 #
-42 ellipse-curve $-1 -1 -1 $-1 -20.000000000000014 -8.9999999999995843 4.9999999999999716 0 -1 0 1.5999999999999903 0 0 1 I I #
-43 integer_attrib-name_attrib-gen-attrib $-1 -1 $-1 $-1 $25 2 1 2 1 1 1 1 1 1 1 1 1 1 1 0 1 1 1 @19 Stock-bed chassis-1 0 #
-44 face $69 -1 -1 $-1 $70 $71 $4 $-1 $72 forward single F F #
-45 loop $-1 -1 -1 $-1 $-1 $73 $25 F unknown #
-46 plane-surface $-1 -1 -1 $-1 -9.0949470177292824e-013 -8.9999999999996483 -15.009999999999991 1 0 9.959368928415274e-030 0 1000 0 forward_v I I I I #
-47 coedge $-1 -1 -1 $-1 $51 $28 $53 $74 forward $17 $-1 #
-48 coedge $-1 -1 -1 $-1 $28 $51 $75 $76 reversed $17 $-1 #
-49 edge $-1 -1 -1 $-1 $56 -0.0089999999999999993 $77 -0.0030400000000000153 $29 $78 forward @7 unknown F #
-50 coedge $-1 -1 -1 $-1 $30 $29 $79 $80 reversed $12 $-1 #
-51 coedge $-1 -1 -1 $-1 $48 $47 $30 $52 forward $17 $-1 #
-52 edge $-1 -1 -1 $-1 $55 -0.0089999999999999993 $81 -0.0030400000000000153 $51 $82 forward @7 unknown F #
-53 coedge $-1 -1 -1 $-1 $31 $31 $47 $74 reversed $54 $-1 #
-54 loop $-1 -1 -1 $-1 $-1 $31 $44 F unknown #
-55 vertex $-1 -1 -1 $-1 $74 $83 #
-56 vertex $-1 -1 -1 $-1 $49 $84 #
-57 ellipse-curve $-1 -1 -1 $-1 -5 -8.9999999999995843 4.9999999999999716 0 -1 0 1.5999999999999903 0 0 1 I I #
-58 coedge $-1 -1 -1 $-1 $85 $85 $33 $59 forward $86 $-1 #
-59 edge $-1 -1 -1 $-1 $64 0 $62 3.1415926535897931 $58 $87 forward @7 unknown F #
-60 coedge $-1 -1 -1 $-1 $36 $34 $38 $66 forward $26 $-1 #
-61 coedge $-1 -1 -1 $-1 $34 $36 $85 $88 reversed $26 $-1 #
-62 vertex $-1 -1 -1 $-1 $35 $89 #
-63 straight-curve $-1 -1 -1 $-1 -18.40000000000002 4.1566750041965861e-013 4.9999999999999716 0 1000 0 I I #
-64 vertex $-1 -1 -1 $-1 $88 $90 #
-65 straight-curve $-1 -1 -1 $-1 -21.600000000000009 4.1566750041965861e-013 4.9999999999999716 0 1000 0 I I #
-66 edge $-1 -1 -1 $-1 $41 0 $40 3.1415926535897931 $60 $91 forward @7 unknown F #
-67 point $-1 -1 -1 $-1 -21.600000000000009 -8.9999999999995843 4.9999999999999716 #
-68 point $-1 -1 -1 $-1 -18.40000000000002 -8.9999999999995843 4.9999999999999716 #
-69 integer_attrib-name_attrib-gen-attrib $-1 -1 $-1 $-1 $44 2 1 2 1 1 1 1 1 1 1 1 1 1 1 0 1 1 1 @19 Stock-bed chassis-1 0 #
-70 face $92 -1 -1 $-1 $93 $94 $4 $-1 $95 forward single F F #
-71 loop $-1 -1 -1 $-1 $39 $96 $44 F unknown #
-72 plane-surface $-1 -1 -1 $-1 -9.0949470177292824e-013 -8.9999999999996483 -15.009999999999991 1.0263416486754031e-048 -1 1.0221715125756315e-077 1000 1.0263416486754031e-045 9.959368928415274e-027 forward_v I I I I #
-73 coedge $-1 -1 -1 $-1 $97 $98 $99 $100 reversed $45 $-1 #
-74 edge $-1 -1 -1 $-1 $56 0 $55 3.1415926535897931 $47 $101 forward @7 unknown F #
-75 coedge $-1 -1 -1 $-1 $79 $79 $48 $76 forward $102 $-1 #
-76 edge $-1 -1 -1 $-1 $77 -3.1415926535897931 $81 0 $75 $103 forward @7 unknown F #
-77 vertex $-1 -1 -1 $-1 $49 $104 #
-78 straight-curve $-1 -1 -1 $-1 -3.4000000000000057 4.1566750041965861e-013 4.9999999999999716 0 1000 0 I I #
-79 coedge $-1 -1 -1 $-1 $75 $75 $50 $80 forward $102 $-1 #
-80 edge $-1 -1 -1 $-1 $81 0 $77 3.1415926535897931 $79 $105 forward @7 unknown F #
-81 vertex $-1 -1 -1 $-1 $76 $106 #
-82 straight-curve $-1 -1 -1 $-1 -6.5999999999999943 4.1566750041965861e-013 4.9999999999999716 0 1000 0 I I #
-83 point $-1 -1 -1 $-1 -6.5999999999999943 -8.9999999999995843 4.9999999999999716 #
-84 point $-1 -1 -1 $-1 -3.4000000000000057 -8.9999999999995843 4.9999999999999716 #
-85 coedge $-1 -1 -1 $-1 $58 $58 $61 $88 forward $86 $-1 #
-86 loop $-1 -1 -1 $-1 $-1 $58 $107 F unknown #
-87 ellipse-curve $-1 -1 -1 $-1 -20.000000000000014 -3.0399999999995995 4.9999999999999716 0 -1 0 -1.5999999999999903 0 0 1 I I #
-88 edge $-1 -1 -1 $-1 $62 -3.1415926535897931 $64 0 $85 $108 forward @7 unknown F #
-89 point $-1 -1 -1 $-1 -18.40000000000002 -3.0399999999995995 4.9999999999999716 #
-90 point $-1 -1 -1 $-1 -21.600000000000009 -3.0399999999995995 4.9999999999999716 #
-91 ellipse-curve $-1 -1 -1 $-1 -20.000000000000014 -8.9999999999995843 4.9999999999999716 0 -1 0 1.5999999999999903 0 0 1 I I #
-92 integer_attrib-name_attrib-gen-attrib $-1 -1 $-1 $-1 $70 2 1 2 1 1 1 1 1 1 1 1 1 1 1 0 1 1 1 @19 Stock-bed chassis-1 0 #
-93 face $109 -1 -1 $-1 $110 $111 $4 $-1 $112 reversed single F F #
-94 loop $-1 -1 -1 $-1 $-1 $113 $70 F unknown #
-95 plane-surface $-1 -1 -1 $-1 -24.999999999996959 -6.9999999999995843 3.5811353882309049e-012 -1 -0 -9.959368928415274e-030 0 -1000 0 forward_v I I I I #
-96 coedge $-1 -1 -1 $-1 $114 $115 $116 $117 reversed $71 $-1 #
-97 coedge $-1 -1 -1 $-1 $118 $73 $119 $120 forward $45 $-1 #
-98 coedge $-1 -1 -1 $-1 $73 $118 $121 $122 reversed $45 $-1 #
-99 coedge $-1 -1 -1 $-1 $123 $114 $73 $100 forward $71 $-1 #
-100 edge $-1 -1 -1 $-1 $124 0.015009999999999963 $125 0.025009999999999963 $99 $126 forward @7 unknown F #
-101 ellipse-curve $-1 -1 -1 $-1 -5 -8.9999999999995843 4.9999999999999716 0 -1 0 1.5999999999999903 0 0 1 I I #
-102 loop $-1 -1 -1 $-1 $-1 $79 $127 F unknown #
-103 ellipse-curve $-1 -1 -1 $-1 -5 -3.0399999999995995 4.9999999999999716 0 -1 0 -1.5999999999999903 0 0 1 I I #
-104 point $-1 -1 -1 $-1 -3.4000000000000057 -3.0399999999995995 4.9999999999999716 #
-105 ellipse-curve $-1 -1 -1 $-1 -5 -3.0399999999995995 4.9999999999999716 0 -1 0 -1.5999999999999903 0 0 1 I I #
-106 point $-1 -1 -1 $-1 -6.5999999999999943 -3.0399999999995995 4.9999999999999716 #
-107 face $128 -1 -1 $-1 $127 $86 $4 $-1 $129 reversed single F F #
-108 ellipse-curve $-1 -1 -1 $-1 -20.000000000000014 -3.0399999999995995 4.9999999999999716 0 -1 0 -1.5999999999999903 0 0 1 I I #
-109 integer_attrib-name_attrib-gen-attrib $-1 -1 $-1 $-1 $93 2 1 2 1 1 1 1 1 1 1 1 1 1 1 0 1 1 1 @19 Stock-bed chassis-1 0 #
-110 face $130 -1 -1 $-1 $131 $132 $4 $-1 $133 forward single F F #
-111 loop $-1 -1 -1 $-1 $-1 $134 $93 F unknown #
-112 plane-surface $-1 -1 -1 $-1 87.500000000005585 -15 0 9.959368928415274e-030 0 1 0 -1000 0 forward_v I I I I #
-113 coedge $-1 -1 -1 $-1 $116 $135 $136 $137 forward $94 $-1 #
-114 coedge $-1 -1 -1 $-1 $99 $96 $134 $138 forward $71 $-1 #
-115 coedge $-1 -1 -1 $-1 $96 $139 $140 $141 reversed $71 $-1 #
-116 coedge $-1 -1 -1 $-1 $142 $113 $96 $117 forward $94 $-1 #
-117 edge $-1 -1 -1 $-1 $143 0 $144 0.01 $116 $145 forward @7 unknown F #
-118 coedge $-1 -1 -1 $-1 $98 $97 $146 $147 forward $45 $-1 #
-119 coedge $-1 -1 -1 $-1 $134 $148 $97 $120 reversed $111 $-1 #
-120 edge $-1 -1 -1 $-1 $124 0.0060000000000004156 $149 0.015000000000000416 $97 $150 forward @7 unknown F #
-121 coedge $-1 -1 -1 $-1 $151 $152 $98 $122 forward $153 $-1 #
-122 edge $-1 -1 -1 $-1 $125 0.0060000000000004156 $154 0.015000000000000416 $121 $155 forward @7 unknown F #
-123 coedge $-1 -1 -1 $-1 $156 $99 $152 $157 reversed $71 $-1 #
-124 vertex $-1 -1 -1 $-1 $100 $158 #
-125 vertex $-1 -1 -1 $-1 $100 $159 #
-126 straight-curve $-1 -1 -1 $-1 -9.0949470177292824e-013 -8.9999999999996483 -15.009999999999991 9.959368928415274e-027 0 1000 I I #
-127 face $160 -1 -1 $-1 $-1 $102 $4 $-1 $161 reversed single F F #
-128 integer_attrib-name_attrib-gen-attrib $-1 -1 $-1 $-1 $107 2 1 2 1 1 1 1 1 1 1 1 1 1 1 0 1 1 1 @19 Stock-bed chassis-1 0 #
-129 plane-surface $-1 -1 -1 $-1 -20.000000000000014 -3.0399999999995995 4.9999999999999716 -1.0263416486754031e-048 1 -1.0221715125756315e-077 -1000 -1.0263416486754031e-045 -9.959368928415274e-027 forward_v I I I I #
-130 integer_attrib-name_attrib-gen-attrib $-1 -1 $-1 $-1 $110 2 1 2 1 1 1 1 1 1 1 1 1 1 1 0 1 1 1 @19 Stock-bed chassis-1 0 #
-131 face $162 -1 -1 $-1 $163 $164 $4 $-1 $165 reversed single F T -9.959368928415274e-030 2.0731707317073162 1.5707963267948966 4.7123889803846897 #
-132 loop $-1 -1 -1 $-1 $-1 $166 $110 F unknown #
-133 plane-surface $-1 -1 -1 $-1 -12.499999999997016 -8.9999999999995843 1.4999999999999716 9.959368928415274e-030 0 1 0 -1000 0 forward_v I I I I #
-134 coedge $-1 -1 -1 $-1 $136 $119 $114 $138 reversed $111 $-1 #
-135 coedge $-1 -1 -1 $-1 $113 $142 $167 $168 reversed $94 $-1 #
-136 coedge $-1 -1 -1 $-1 $148 $134 $113 $137 reversed $111 $-1 #
-137 edge $-1 -1 -1 $-1 $169 -0.0070000000000000001 $143 0.002 $113 $170 forward @7 unknown F #
-138 edge $-1 -1 -1 $-1 $143 -0.11250000000000254 $124 -0.087500000000002534 $114 $171 forward @7 unknown F #
-139 coedge $-1 -1 -1 $-1 $115 $172 $173 $174 forward $71 $-1 #
-140 coedge $-1 -1 -1 $-1 $175 $176 $115 $141 forward $153 $-1 #
-141 edge $-1 -1 -1 $-1 $144 -0.11249999999999999 $177 -0.10410000000000003 $140 $178 forward @7 unknown F #
-142 coedge $-1 -1 -1 $-1 $135 $116 $176 $179 reversed $94 $-1 #
-143 vertex $-1 -1 -1 $-1 $138 $180 #
-144 vertex $-1 -1 -1 $-1 $141 $181 #
-145 straight-curve $-1 -1 -1 $-1 -24.999999999996959 -8.9999999999995843 3.5811353882309049e-012 9.959368928415274e-027 0 1000 I I #
-146 coedge $-1 -1 -1 $-1 $182 $183 $118 $147 reversed $184 $-1 #
-147 edge $-1 -1 -1 $-1 $149 0.015009999999999963 $154 0.025009999999999963 $118 $185 forward @7 unknown F #
-148 coedge $-1 -1 -1 $-1 $119 $136 $182 $186 reversed $111 $-1 #
-149 vertex $-1 -1 -1 $-1 $186 $187 #
-150 straight-curve $-1 -1 -1 $-1 3.0553337637684308e-012 -15 -2.8421709430404007e-014 0 1000 0 I I #
-151 coedge $-1 -1 -1 $-1 $176 $121 $183 $188 forward $153 $-1 #
-152 coedge $-1 -1 -1 $-1 $121 $175 $123 $157 forward $153 $-1 #
-153 loop $-1 -1 -1 $-1 $-1 $175 $189 F unknown #
-154 vertex $-1 -1 -1 $-1 $188 $190 #
-155 straight-curve $-1 -1 -1 $-1 0 -15 9.9999999999999716 0 1000 0 I I #
-156 coedge $-1 -1 -1 $-1 $172 $123 $191 $192 forward $71 $-1 #
-157 edge $-1 -1 -1 $-1 $193 -0.095900000000000041 $125 -0.087499999999999967 $152 $194 forward @7 unknown F #
-158 point $-1 -1 -1 $-1 3.0553337637684308e-012 -8.9999999999995843 -2.8421709430404007e-014 #
-159 point $-1 -1 -1 $-1 0 -8.9999999999995843 9.9999999999999716 #
-160 integer_attrib-name_attrib-gen-attrib $-1 -1 $-1 $-1 $127 2 1 2 1 1 1 1 1 1 1 1 1 1 1 0 1 1 1 @19 Stock-bed chassis-1 0 #
-161 plane-surface $-1 -1 -1 $-1 -5 -3.0399999999995995 4.9999999999999716 -1.0263416486754031e-048 1 -1.0221715125756315e-077 -1000 -1.0263416486754031e-045 -9.959368928415274e-027 forward_v I I I I #
-162 integer_attrib-name_attrib-gen-attrib $-1 -1 $-1 $-1 $131 2 1 2 1 1 1 1 1 1 1 1 1 1 1 0 1 1 1 @19 Stock-bed chassis-1 0 #
-163 face $195 -1 -1 $-1 $189 $184 $4 $-1 $196 forward single F F #
-164 loop $-1 -1 -1 $-1 $-1 $191 $131 F unknown #
-165 cone-surface $-1 -1 -1 $-1 -12.499999999997016 -8.9999999999995843 1.4999999999999716 9.959368928415274e-030 0 1 0 -4.1000000000000014 0 1 I I 0 1 4.1000000000000014 forward I I I I #
-166 coedge $-1 -1 -1 $-1 $197 $197 $198 $199 forward $132 $-1 #
-167 coedge $-1 -1 -1 $-1 $183 $182 $135 $168 forward $184 $-1 #
-168 edge $-1 -1 -1 $-1 $169 5.6843418860808016e-017 $200 0.01 $167 $201 forward @7 unknown F #
-169 vertex $-1 -1 -1 $-1 $186 $202 #
-170 straight-curve $-1 -1 -1 $-1 -24.999999999996959 -6.9999999999995843 3.5811353882309049e-012 0 -1000 0 I I #
-171 straight-curve $-1 -1 -1 $-1 87.500000000005585 -8.9999999999995843 0 1000 1.0263416486754031e-045 9.959368928415274e-027 I I #
-172 coedge $-1 -1 -1 $-1 $139 $156 $197 $203 reversed $71 $-1 #
-173 coedge $-1 -1 -1 $-1 $198 $204 $139 $174 reversed $164 $-1 #
-174 edge $-1 -1 -1 $-1 $205 0 $177 0.0085000000000000006 $139 $206 forward @7 unknown F #
-175 coedge $-1 -1 -1 $-1 $152 $140 $204 $207 reversed $153 $-1 #
-176 coedge $-1 -1 -1 $-1 $140 $151 $142 $179 forward $153 $-1 #
-177 vertex $-1 -1 -1 $-1 $207 $208 #
-178 straight-curve $-1 -1 -1 $-1 87.499999999999972 -8.9999999999995843 10 1000 1.0263416486754031e-045 9.959368928415274e-027 I I #
-179 edge $-1 -1 -1 $-1 $200 -0.0070000000000000001 $144 0.002 $176 $209 forward @7 unknown F #
-180 point $-1 -1 -1 $-1 -24.999999999996959 -8.9999999999995843 3.5811353882309049e-012 #
-181 point $-1 -1 -1 $-1 -25.000000000000014 -8.9999999999995843 10.000000000003581 #
-182 coedge $-1 -1 -1 $-1 $167 $146 $148 $186 forward $184 $-1 #
-183 coedge $-1 -1 -1 $-1 $146 $167 $151 $188 reversed $184 $-1 #
-184 loop $-1 -1 -1 $-1 $210 $182 $163 F unknown #
-185 straight-curve $-1 -1 -1 $-1 -9.0949470177292824e-013 4.1566750041965861e-013 -15.009999999999991 9.959368928415274e-027 0 1000 I I #
-186 edge $-1 -1 -1 $-1 $149 0.087500000000002534 $169 0.11250000000000254 $182 $211 forward @7 unknown F #
-187 point $-1 -1 -1 $-1 3.0553337637684308e-012 4.1566750041965861e-013 -2.8421709430404007e-014 #
-188 edge $-1 -1 -1 $-1 $154 0.087499999999999967 $200 0.11249999999999999 $151 $212 forward @7 unknown F #
-189 face $213 -1 -1 $-1 $214 $153 $4 $-1 $215 forward single F F #
-190 point $-1 -1 -1 $-1 0 4.1566750041965861e-013 9.9999999999999716 #
-191 coedge $-1 -1 -1 $-1 $204 $198 $156 $192 reversed $164 $-1 #
-192 edge $-1 -1 -1 $-1 $193 -0.0085000000000000006 $216 0 $156 $217 forward @7 unknown F #
-193 vertex $-1 -1 -1 $-1 $207 $218 #
-194 straight-curve $-1 -1 -1 $-1 87.499999999999972 -8.9999999999995843 10 1000 1.0263416486754031e-045 9.959368928415274e-027 I I #
-195 integer_attrib-name_attrib-gen-attrib $-1 -1 $-1 $-1 $163 2 1 2 1 1 1 1 1 1 1 1 1 1 1 0 1 1 1 @19 Stock-bed chassis-1 0 #
-196 plane-surface $-1 -1 -1 $-1 -24.999999999996959 4.1566750041965861e-013 3.5811353882309049e-012 -1.0263416486754031e-048 1 -1.0221715125756315e-077 -1000 -1.0263416486754031e-045 -9.959368928415274e-027 forward_v I I I I #
-197 coedge $-1 -1 -1 $-1 $166 $166 $172 $203 forward $132 $-1 #
-198 coedge $-1 -1 -1 $-1 $191 $173 $166 $199 reversed $164 $-1 #
-199 edge $-1 -1 -1 $-1 $216 1.5707963267948966 $205 4.7123889803846897 $166 $219 forward @7 unknown F #
-200 vertex $-1 -1 -1 $-1 $188 $220 #
-201 straight-curve $-1 -1 -1 $-1 -24.999999999996959 4.1566750041965861e-013 3.5811353882309049e-012 9.959368928415274e-027 0 1000 I I #
-202 point $-1 -1 -1 $-1 -24.999999999996959 4.1566750041965861e-013 3.637978807091713e-012 #
-203 edge $-1 -1 -1 $-1 $205 -0.0040999999999999804 $216 0.0040999999999999943 $197 $221 forward @7 unknown F #
-204 coedge $-1 -1 -1 $-1 $173 $191 $175 $207 forward $164 $-1 #
-205 vertex $-1 -1 -1 $-1 $203 $222 #
-206 straight-curve $-1 -1 -1 $-1 -16.599999999996996 -8.9999999999995843 1.4999999999999716 9.959368928415274e-027 0 1000 I I #
-207 edge $-1 -1 -1 $-1 $193 1.5707963267948966 $177 4.7123889803846897 $204 $223 forward @7 unknown F #
-208 point $-1 -1 -1 $-1 -16.600000000000051 -8.9999999999995843 9.9999999999999716 #
-209 straight-curve $-1 -1 -1 $-1 -25.000000000000014 -6.9999999999995843 10.000000000003581 0 -1000 0 I I #
-210 loop $-1 -1 -1 $-1 $224 $225 $163 F unknown #
-211 straight-curve $-1 -1 -1 $-1 87.500000000005585 4.1566750041965861e-013 0 -1000 -1.0263416486754031e-045 -9.959368928415274e-027 I I #
-212 straight-curve $-1 -1 -1 $-1 87.499999999999972 4.1566750041965861e-013 10 -1000 -1.0263416486754031e-045 -9.959368928415274e-027 I I #
-213 integer_attrib-name_attrib-gen-attrib $-1 -1 $-1 $-1 $189 2 1 2 1 1 1 1 1 1 1 1 1 1 1 0 1 1 1 @19 Stock-bed chassis-1 0 #
-214 face $226 -1 -1 $-1 $227 $228 $4 $-1 $229 reversed single F F #
-215 plane-surface $-1 -1 -1 $-1 87.499999999999972 -15 10 9.959368928415274e-030 0 1 0 -1000 0 forward_v I I I I #
-216 vertex $-1 -1 -1 $-1 $199 $230 #
-217 straight-curve $-1 -1 -1 $-1 -8.3999999999970214 -8.9999999999995843 1.4999999999999716 -9.959368928415274e-027 0 -1000 I I #
-218 point $-1 -1 -1 $-1 -8.4000000000000625 -8.9999999999995843 9.9999999999999716 #
-219 ellipse-curve $-1 -1 -1 $-1 -12.499999999997016 -8.9999999999995843 1.4999999999999716 9.959368928415274e-030 0 1 0 -4.1000000000000014 0 1 I I #
-220 point $-1 -1 -1 $-1 -25.000000000000014 4.1566750041965861e-013 10.000000000003581 #
-221 straight-curve $-1 -1 -1 $-1 -12.499999999997016 -8.9999999999995843 1.4999999999999716 1000 1.0263416486754031e-045 9.959368928415274e-027 I I #
-222 point $-1 -1 -1 $-1 -16.599999999996996 -8.9999999999995843 1.4999999999999716 #
-223 ellipse-curve $-1 -1 -1 $-1 -12.500000000000057 -8.9999999999995843 9.9999999999999716 9.959368928415274e-030 0 1 0 -4.1000000000000014 0 1 I I #
-224 loop $-1 -1 -1 $-1 $-1 $231 $163 F unknown #
-225 coedge $-1 -1 -1 $-1 $232 $233 $234 $235 reversed $210 $-1 #
-226 integer_attrib-name_attrib-gen-attrib $-1 -1 $-1 $-1 $214 2 1 2 1 1 1 1 1 1 1 1 1 1 1 0 1 1 1 @19 Stock-bed chassis-1 0 #
-227 face $236 -1 -1 $-1 $237 $238 $4 $-1 $239 reversed single F F #
-228 loop $-1 -1 -1 $-1 $-1 $240 $214 F unknown #
-229 plane-surface $-1 -1 -1 $-1 87.499999999999972 -3.0000000000000036 152.5 1.0263416486754031e-048 -1 1.0221715125756315e-077 1000 1.0263416486754031e-045 9.959368928415274e-027 forward_v I I I I #
-230 point $-1 -1 -1 $-1 -8.3999999999970214 -8.9999999999995843 1.4999999999999716 #
-231 coedge $-1 -1 -1 $-1 $241 $242 $243 $244 reversed $224 $-1 #
-232 coedge $-1 -1 -1 $-1 $245 $225 $246 $247 reversed $210 $-1 #
-233 coedge $-1 -1 -1 $-1 $225 $248 $249 $250 reversed $210 $-1 #
-234 coedge $-1 -1 -1 $-1 $251 $252 $225 $235 forward $253 $-1 #
-235 edge $-1 -1 -1 $-1 $254 0 $255 0.0031754264805429651 $234 $256 forward @7 unknown F #
-236 integer_attrib-name_attrib-gen-attrib $-1 -1 $-1 $-1 $227 2 1 2 1 1 1 1 1 1 1 1 1 1 1 0 1 1 1 @19 Stock-bed chassis-1 0 #
-237 face $257 -1 -1 $-1 $258 $259 $4 $-1 $260 reversed single F F #
-238 loop $-1 -1 -1 $-1 $-1 $243 $227 F unknown #
-239 plane-surface $-1 -1 -1 $-1 -18.412286759728602 -2.9999999999995861 7.75 9.959368928415274e-030 0 1 0 -1000 0 forward_v I I I I #
-240 coedge $-1 -1 -1 $-1 $261 $262 $263 $264 forward $228 $-1 #
-241 coedge $-1 -1 -1 $-1 $265 $231 $266 $267 reversed $224 $-1 #
-242 coedge $-1 -1 -1 $-1 $231 $268 $269 $270 reversed $224 $-1 #
-243 coedge $-1 -1 -1 $-1 $271 $272 $231 $244 forward $238 $-1 #
-244 edge $-1 -1 -1 $-1 $273 -0.0031754264805429243 $274 0 $243 $275 forward @7 unknown F #
-245 coedge $-1 -1 -1 $-1 $276 $232 $277 $278 reversed $210 $-1 #
-246 coedge $-1 -1 -1 $-1 $279 $280 $232 $247 forward $281 $-1 #
-247 edge $-1 -1 -1 $-1 $282 0 $254 0.00317542648054291 $246 $283 forward @7 unknown F #
-248 coedge $-1 -1 -1 $-1 $233 $276 $284 $285 reversed $210 $-1 #
-249 coedge $-1 -1 -1 $-1 $286 $287 $233 $250 forward $288 $-1 #
-250 edge $-1 -1 -1 $-1 $255 -0 $289 0.0031754264805414364 $249 $290 forward @7 unknown F #
-251 coedge $-1 -1 -1 $-1 $291 $234 $287 $292 reversed $253 $-1 #
-252 coedge $-1 -1 -1 $-1 $234 $291 $279 $293 forward $253 $-1 #
-253 loop $-1 -1 -1 $-1 $-1 $234 $294 F unknown #
-254 vertex $-1 -1 -1 $-1 $293 $295 #
-255 vertex $-1 -1 -1 $-1 $235 $296 #
-256 straight-curve $-1 -1 -1 $-1 -3.4122867597285449 4.1566750041965861e-013 7.75 499.99999999999989 0 -866.02540378443871 I I #
-257 integer_attrib-name_attrib-gen-attrib $-1 -1 $-1 $-1 $237 2 1 2 1 1 1 1 1 1 1 1 1 1 1 0 1 1 1 @19 Stock-bed chassis-1 0 #
-258 face $297 -1 -1 $-1 $298 $299 $4 $-1 $300 reversed single F F #
-259 loop $-1 -1 -1 $-1 $-1 $266 $237 F unknown #
-260 plane-surface $-1 -1 -1 $-1 -21.587713240271526 -2.9999999999995861 7.75 -0.86602540378444037 0 0.49999999999999711 -499.99999999999716 -0 -866.02540378444053 forward_v I I I I #
-261 coedge $-1 -1 -1 $-1 $301 $240 $302 $303 forward $228 $-1 #
-262 coedge $-1 -1 -1 $-1 $240 $304 $305 $306 forward $228 $-1 #
-263 coedge $-1 -1 -1 $-1 $272 $271 $240 $264 reversed $238 $-1 #
-264 edge $-1 -1 -1 $-1 $307 -0.0031754264805429243 $308 0 $240 $309 forward @7 unknown F #
-265 coedge $-1 -1 -1 $-1 $310 $241 $311 $312 reversed $224 $-1 #
-266 coedge $-1 -1 -1 $-1 $313 $314 $241 $267 forward $259 $-1 #
-267 edge $-1 -1 -1 $-1 $315 -0.0031754264805429382 $273 0 $266 $316 forward @7 unknown F #
-268 coedge $-1 -1 -1 $-1 $242 $310 $317 $318 reversed $224 $-1 #
-269 coedge $-1 -1 -1 $-1 $319 $320 $242 $270 forward $321 $-1 #
-270 edge $-1 -1 -1 $-1 $274 -0.0031754264805429863 $322 0 $269 $323 forward @7 unknown F #
-271 coedge $-1 -1 -1 $-1 $263 $243 $320 $324 reversed $238 $-1 #
-272 coedge $-1 -1 -1 $-1 $243 $263 $313 $325 forward $238 $-1 #
-273 vertex $-1 -1 -1 $-1 $325 $326 #
-274 vertex $-1 -1 -1 $-1 $244 $327 #
-275 straight-curve $-1 -1 -1 $-1 -18.412286759728602 4.1566750041965861e-013 7.75 1000 6.8422776578360224e-046 9.9593689284152769e-027 I I #
-276 coedge $-1 -1 -1 $-1 $248 $245 $328 $329 reversed $210 $-1 #
-277 coedge $-1 -1 -1 $-1 $330 $331 $245 $278 forward $332 $-1 #
-278 edge $-1 -1 -1 $-1 $333 0 $282 0.0031754264805429664 $277 $334 forward @7 unknown F #
-279 coedge $-1 -1 -1 $-1 $335 $246 $252 $293 reversed $281 $-1 #
-280 coedge $-1 -1 -1 $-1 $246 $335 $330 $336 forward $281 $-1 #
-281 loop $-1 -1 -1 $-1 $-1 $246 $337 F unknown #
-282 vertex $-1 -1 -1 $-1 $336 $338 #
-283 straight-curve $-1 -1 -1 $-1 -6.5877132402714551 4.1566750041965861e-013 7.75 1000 6.8422776578360224e-046 9.9593689284152769e-027 I I #
-284 coedge $-1 -1 -1 $-1 $339 $340 $248 $285 forward $341 $-1 #
-285 edge $-1 -1 -1 $-1 $289 -0 $342 0.00317542648054291 $284 $343 forward @7 unknown F #
-286 coedge $-1 -1 -1 $-1 $344 $249 $340 $345 reversed $288 $-1 #
-287 coedge $-1 -1 -1 $-1 $249 $344 $251 $292 forward $288 $-1 #
-288 loop $-1 -1 -1 $-1 $-1 $249 $346 F unknown #
-289 vertex $-1 -1 -1 $-1 $345 $347 #
-290 straight-curve $-1 -1 -1 $-1 -1.8245735194570756 4.1566750041965861e-013 4.9999999999999716 -500.00000000000057 -0 -866.02540378443882 I I #
-291 coedge $-1 -1 -1 $-1 $252 $251 $348 $349 reversed $253 $-1 #
-292 edge $-1 -1 -1 $-1 $350 0 $255 0.0030000000000000018 $287 $351 forward @7 unknown F #
-293 edge $-1 -1 -1 $-1 $352 0 $254 0.0030000000000000018 $252 $353 forward @7 unknown F #
-294 face $354 -1 -1 $-1 $337 $253 $4 $-1 $355 reversed single F F #
-295 point $-1 -1 -1 $-1 -3.4122867597285449 4.1566750041965861e-013 7.75 #
-296 point $-1 -1 -1 $-1 -1.8245735194570756 4.1566750041965861e-013 4.9999999999999716 #
-297 integer_attrib-name_attrib-gen-attrib $-1 -1 $-1 $-1 $258 2 1 2 1 1 1 1 1 1 1 1 1 1 1 0 1 1 1 @19 Stock-bed chassis-1 0 #
-298 face $356 -1 -1 $-1 $357 $358 $4 $-1 $359 reversed single F F #
-299 loop $-1 -1 -1 $-1 $-1 $311 $258 F unknown #
-300 plane-surface $-1 -1 -1 $-1 -23.175426480542939 -2.9999999999995861 4.9999999999999716 -0.86602540378444037 -0 -0.49999999999999711 499.99999999999716 0 -866.02540378444053 forward_v I I I I #
-301 coedge $-1 -1 -1 $-1 $360 $261 $361 $362 forward $228 $-1 #
-302 coedge $-1 -1 -1 $-1 $320 $319 $261 $303 reversed $321 $-1 #
-303 edge $-1 -1 -1 $-1 $308 -0.0031754264805429863 $363 0 $261 $364 forward @7 unknown F #
-304 coedge $-1 -1 -1 $-1 $262 $360 $365 $366 forward $228 $-1 #
-305 coedge $-1 -1 -1 $-1 $314 $313 $262 $306 reversed $259 $-1 #
-306 edge $-1 -1 -1 $-1 $367 -0.0031754264805429382 $307 0 $262 $368 forward @7 unknown F #
-307 vertex $-1 -1 -1 $-1 $325 $369 #
-308 vertex $-1 -1 -1 $-1 $324 $370 #
-309 straight-curve $-1 -1 -1 $-1 -18.412286759728602 -2.9999999999995861 7.75 1000 6.8422776578360224e-046 9.9593689284152769e-027 I I #
-310 coedge $-1 -1 -1 $-1 $268 $265 $371 $372 reversed $224 $-1 #
-311 coedge $-1 -1 -1 $-1 $373 $374 $265 $312 forward $299 $-1 #
-312 edge $-1 -1 -1 $-1 $375 -0.0031754264805444162 $315 0 $311 $376 forward @7 unknown F #
-313 coedge $-1 -1 -1 $-1 $305 $266 $272 $325 reversed $259 $-1 #
-314 coedge $-1 -1 -1 $-1 $266 $305 $373 $377 forward $259 $-1 #
-315 vertex $-1 -1 -1 $-1 $377 $378 #
-316 straight-curve $-1 -1 -1 $-1 -21.587713240271526 4.1566750041965861e-013 7.75 499.99999999999699 0 866.02540378444019 I I #
-317 coedge $-1 -1 -1 $-1 $379 $380 $268 $318 forward $381 $-1 #
-318 edge $-1 -1 -1 $-1 $322 -0.0031754264805413869 $382 -0 $317 $383 forward @7 unknown F #
-319 coedge $-1 -1 -1 $-1 $302 $269 $380 $384 reversed $321 $-1 #
-320 coedge $-1 -1 -1 $-1 $269 $302 $271 $324 forward $321 $-1 #
-321 loop $-1 -1 -1 $-1 $-1 $269 $385 F unknown #
-322 vertex $-1 -1 -1 $-1 $384 $386 #
-323 straight-curve $-1 -1 -1 $-1 -16.82457351945709 4.1566750041965861e-013 4.9999999999999716 500.00000000000693 0 -866.02540378443473 I I #
-324 edge $-1 -1 -1 $-1 $308 0 $274 0.0030000000000000018 $320 $387 forward @7 unknown F #
-325 edge $-1 -1 -1 $-1 $307 0 $273 0.0030000000000000018 $272 $388 forward @7 unknown F #
-326 point $-1 -1 -1 $-1 -21.587713240271526 4.1566750041965861e-013 7.75 #
-327 point $-1 -1 -1 $-1 -18.412286759728602 4.1566750041965861e-013 7.75 #
-328 coedge $-1 -1 -1 $-1 $389 $390 $276 $329 forward $391 $-1 #
-329 edge $-1 -1 -1 $-1 $342 0 $333 0.0031754264805444929 $328 $392 forward @7 unknown F #
-330 coedge $-1 -1 -1 $-1 $393 $277 $280 $336 reversed $332 $-1 #
-331 coedge $-1 -1 -1 $-1 $277 $393 $389 $394 forward $332 $-1 #
-332 loop $-1 -1 -1 $-1 $-1 $277 $395 F unknown #
-333 vertex $-1 -1 -1 $-1 $394 $396 #
-334 straight-curve $-1 -1 -1 $-1 -8.1754264805429244 4.1566750041965861e-013 4.9999999999999716 499.99999999999699 0 866.02540378444019 I I #
-335 coedge $-1 -1 -1 $-1 $280 $279 $397 $398 reversed $281 $-1 #
-336 edge $-1 -1 -1 $-1 $399 0 $282 0.0030000000000000018 $280 $400 forward @7 unknown F #
-337 face $401 -1 -1 $-1 $395 $281 $4 $-1 $402 reversed single F F #
-338 point $-1 -1 -1 $-1 -6.5877132402714551 4.1566750041965861e-013 7.75 #
-339 coedge $-1 -1 -1 $-1 $403 $284 $390 $404 reversed $341 $-1 #
-340 coedge $-1 -1 -1 $-1 $284 $403 $286 $345 forward $341 $-1 #
-341 loop $-1 -1 -1 $-1 $-1 $284 $405 F unknown #
-342 vertex $-1 -1 -1 $-1 $404 $406 #
-343 straight-curve $-1 -1 -1 $-1 -3.4122867597254896 4.1566750041965861e-013 2.2499999999999432 -1000 -1.0263416486754031e-045 -9.959368928415274e-027 I I #
-344 coedge $-1 -1 -1 $-1 $287 $286 $407 $408 reversed $288 $-1 #
-345 edge $-1 -1 -1 $-1 $409 0 $289 0.0030000000000000018 $340 $410 forward @7 unknown F #
-346 face $411 -1 -1 $-1 $107 $288 $4 $-1 $412 reversed single F F #
-347 point $-1 -1 -1 $-1 -3.4122867597254896 4.1566750041965861e-013 2.2499999999999432 #
-348 coedge $-1 -1 -1 $-1 $407 $397 $291 $349 forward $413 $-1 #
-349 edge $-1 -1 -1 $-1 $352 0 $350 0.0031754264805429651 $348 $414 forward @7 unknown F #
-350 vertex $-1 -1 -1 $-1 $292 $415 #
-351 straight-curve $-1 -1 -1 $-1 -1.8245735194570756 -2.9999999999995861 4.9999999999999716 0 1000 0 I I #
-352 vertex $-1 -1 -1 $-1 $293 $416 #
-353 straight-curve $-1 -1 -1 $-1 -3.4122867597285449 -2.9999999999995861 7.75 0 1000 0 I I #
-354 integer_attrib-name_attrib-gen-attrib $-1 -1 $-1 $-1 $294 2 1 2 1 1 1 1 1 1 1 1 1 1 1 0 1 1 1 @19 Stock-bed chassis-1 0 #
-355 plane-surface $-1 -1 -1 $-1 -3.4122867597285449 -2.9999999999995861 7.75 0.86602540378443882 0 0.49999999999999989 -499.99999999999989 0 866.02540378443882 forward_v I I I I #
-356 integer_attrib-name_attrib-gen-attrib $-1 -1 $-1 $-1 $298 2 1 2 1 1 1 1 1 1 1 1 1 1 1 0 1 1 1 @19 Stock-bed chassis-1 0 #
-357 face $417 -1 -1 $-1 $385 $381 $4 $-1 $418 reversed single F F #
-358 loop $-1 -1 -1 $-1 $-1 $371 $298 F unknown #
-359 plane-surface $-1 -1 -1 $-1 -21.587713240268471 -2.9999999999995861 2.25 -9.959368928415274e-030 0 -1 0 1000 0 forward_v I I I I #
-360 coedge $-1 -1 -1 $-1 $304 $301 $419 $420 forward $228 $-1 #
-361 coedge $-1 -1 -1 $-1 $380 $379 $301 $362 reversed $381 $-1 #
-362 edge $-1 -1 -1 $-1 $363 -0.0031754264805413869 $421 -0 $301 $422 forward @7 unknown F #
-363 vertex $-1 -1 -1 $-1 $384 $423 #
-364 straight-curve $-1 -1 -1 $-1 -16.82457351945709 -2.9999999999995861 4.9999999999999716 500.00000000000693 0 -866.02540378443473 I I #
-365 coedge $-1 -1 -1 $-1 $374 $373 $304 $366 reversed $299 $-1 #
-366 edge $-1 -1 -1 $-1 $424 -0.0031754264805444162 $367 0 $304 $425 forward @7 unknown F #
-367 vertex $-1 -1 -1 $-1 $377 $426 #
-368 straight-curve $-1 -1 -1 $-1 -21.587713240271526 -2.9999999999995861 7.75 499.99999999999699 0 866.02540378444019 I I #
-369 point $-1 -1 -1 $-1 -21.587713240271526 -2.9999999999995861 7.75 #
-370 point $-1 -1 -1 $-1 -18.412286759728602 -2.9999999999995861 7.75 #
-371 coedge $-1 -1 -1 $-1 $427 $428 $310 $372 forward $358 $-1 #
-372 edge $-1 -1 -1 $-1 $382 -0.0031754264805429673 $375 -0 $371 $429 forward @7 unknown F #
-373 coedge $-1 -1 -1 $-1 $365 $311 $314 $377 reversed $299 $-1 #
-374 coedge $-1 -1 -1 $-1 $311 $365 $427 $430 forward $299 $-1 #
-375 vertex $-1 -1 -1 $-1 $430 $431 #
-376 straight-curve $-1 -1 -1 $-1 -23.175426480542939 4.1566750041965861e-013 4.9999999999999716 -499.99999999999699 0 866.02540378444019 I I #
-377 edge $-1 -1 -1 $-1 $367 0 $315 0.0030000000000000018 $314 $432 forward @7 unknown F #
-378 point $-1 -1 -1 $-1 -23.175426480542939 4.1566750041965861e-013 4.9999999999999716 #
-379 coedge $-1 -1 -1 $-1 $361 $317 $428 $433 reversed $381 $-1 #
-380 coedge $-1 -1 -1 $-1 $317 $361 $319 $384 forward $381 $-1 #
-381 loop $-1 -1 -1 $-1 $-1 $317 $357 F unknown #
-382 vertex $-1 -1 -1 $-1 $433 $434 #
-383 straight-curve $-1 -1 -1 $-1 -18.412286759725504 4.1566750041965861e-013 2.25 -500.00000000000057 -0 -866.02540378443882 I I #
-384 edge $-1 -1 -1 $-1 $363 0 $322 0.0030000000000000018 $380 $435 forward @7 unknown F #
-385 face $436 -1 -1 $-1 $437 $321 $4 $-1 $438 reversed single F F #
-386 point $-1 -1 -1 $-1 -16.82457351945709 4.1566750041965861e-013 4.9999999999999716 #
-387 straight-curve $-1 -1 -1 $-1 -18.412286759728602 -2.9999999999995861 7.75 0 1000 0 I I #
-388 straight-curve $-1 -1 -1 $-1 -21.587713240271526 -2.9999999999995861 7.75 0 1000 0 I I #
-389 coedge $-1 -1 -1 $-1 $439 $328 $331 $394 reversed $391 $-1 #
-390 coedge $-1 -1 -1 $-1 $328 $439 $339 $404 forward $391 $-1 #
-391 loop $-1 -1 -1 $-1 $-1 $328 $440 F unknown #
-392 straight-curve $-1 -1 -1 $-1 -6.5877132402683998 4.1566750041965861e-013 2.2499999999999432 -499.99999999999989 0 866.02540378443871 I I #
-393 coedge $-1 -1 -1 $-1 $331 $330 $441 $442 reversed $332 $-1 #
-394 edge $-1 -1 -1 $-1 $443 0 $333 0.0030000000000000018 $331 $444 forward @7 unknown F #
-395 face $445 -1 -1 $-1 $440 $332 $4 $-1 $446 reversed single F F #
-396 point $-1 -1 -1 $-1 -8.1754264805429244 4.1566750041965861e-013 4.9999999999999716 #
-397 coedge $-1 -1 -1 $-1 $348 $441 $335 $398 forward $413 $-1 #
-398 edge $-1 -1 -1 $-1 $399 0 $352 0.00317542648054291 $397 $447 forward @7 unknown F #
-399 vertex $-1 -1 -1 $-1 $336 $448 #
-400 straight-curve $-1 -1 -1 $-1 -6.5877132402714551 -2.9999999999995861 7.75 0 1000 0 I I #
-401 integer_attrib-name_attrib-gen-attrib $-1 -1 $-1 $-1 $337 2 1 2 1 1 1 1 1 1 1 1 1 1 1 0 1 1 1 @19 Stock-bed chassis-1 0 #
-402 plane-surface $-1 -1 -1 $-1 -6.5877132402714551 -2.9999999999995861 7.75 9.959368928415274e-030 0 1 0 -1000 0 forward_v I I I I #
-403 coedge $-1 -1 -1 $-1 $340 $339 $449 $450 reversed $341 $-1 #
-404 edge $-1 -1 -1 $-1 $451 0 $342 0.0030000000000000018 $390 $452 forward @7 unknown F #
-405 face $453 -1 -1 $-1 $346 $341 $4 $-1 $454 reversed single F F #
-406 point $-1 -1 -1 $-1 -6.5877132402683998 4.1566750041965861e-013 2.2499999999999432 #
-407 coedge $-1 -1 -1 $-1 $449 $348 $344 $408 forward $413 $-1 #
-408 edge $-1 -1 -1 $-1 $350 -0 $409 0.0031754264805414364 $407 $455 forward @7 unknown F #
-409 vertex $-1 -1 -1 $-1 $345 $456 #
-410 straight-curve $-1 -1 -1 $-1 -3.4122867597254896 -2.9999999999995861 2.2499999999999432 0 1000 0 I I #
-411 integer_attrib-name_attrib-gen-attrib $-1 -1 $-1 $-1 $346 2 1 2 1 1 1 1 1 1 1 1 1 1 1 0 1 1 1 @19 Stock-bed chassis-1 0 #
-412 plane-surface $-1 -1 -1 $-1 -1.8245735194570756 -2.9999999999995861 4.9999999999999716 0.86602540378443849 0 -0.50000000000000044 500.00000000000045 0 866.02540378443848 forward_v I I I I #
-413 loop $-1 -1 -1 $-1 $-1 $348 $437 F unknown #
-414 straight-curve $-1 -1 -1 $-1 -3.4122867597285449 -2.9999999999995861 7.75 499.99999999999989 0 -866.02540378443871 I I #
-415 point $-1 -1 -1 $-1 -1.8245735194570756 -2.9999999999995861 4.9999999999999716 #
-416 point $-1 -1 -1 $-1 -3.4122867597285449 -2.9999999999995861 7.75 #
-417 integer_attrib-name_attrib-gen-attrib $-1 -1 $-1 $-1 $357 2 1 2 1 1 1 1 1 1 1 1 1 1 1 0 1 1 1 @19 Stock-bed chassis-1 0 #
-418 plane-surface $-1 -1 -1 $-1 -18.412286759725504 -2.9999999999995861 2.25 0.86602540378443849 0 -0.50000000000000044 500.00000000000045 0 866.02540378443848 forward_v I I I I #
-419 coedge $-1 -1 -1 $-1 $428 $427 $360 $420 reversed $358 $-1 #
-420 edge $-1 -1 -1 $-1 $421 -0.0031754264805429673 $424 -0 $360 $457 forward @7 unknown F #
-421 vertex $-1 -1 -1 $-1 $433 $458 #
-422 straight-curve $-1 -1 -1 $-1 -18.412286759725504 -2.9999999999995861 2.25 -500.00000000000057 -0 -866.02540378443882 I I #
-423 point $-1 -1 -1 $-1 -16.82457351945709 -2.9999999999995861 4.9999999999999716 #
-424 vertex $-1 -1 -1 $-1 $430 $459 #
-425 straight-curve $-1 -1 -1 $-1 -23.175426480542939 -2.9999999999995861 4.9999999999999716 -499.99999999999699 0 866.02540378444019 I I #
-426 point $-1 -1 -1 $-1 -23.175426480542939 -2.9999999999995861 4.9999999999999716 #
-427 coedge $-1 -1 -1 $-1 $419 $371 $374 $430 reversed $358 $-1 #
-428 coedge $-1 -1 -1 $-1 $371 $419 $379 $433 forward $358 $-1 #
-429 straight-curve $-1 -1 -1 $-1 -21.587713240268471 4.1566750041965861e-013 2.25 -1000 -1.0263416486754031e-045 -9.959368928415274e-027 I I #
-430 edge $-1 -1 -1 $-1 $424 0 $375 0.0030000000000000018 $374 $460 forward @7 unknown F #
-431 point $-1 -1 -1 $-1 -21.587713240268471 4.1566750041965861e-013 2.25 #
-432 straight-curve $-1 -1 -1 $-1 -23.175426480542939 -2.9999999999995861 4.9999999999999716 0 1000 0 I I #
-433 edge $-1 -1 -1 $-1 $421 0 $382 0.0030000000000000018 $428 $461 forward @7 unknown F #
-434 point $-1 -1 -1 $-1 -18.412286759725504 4.1566750041965861e-013 2.25 #
-435 straight-curve $-1 -1 -1 $-1 -16.82457351945709 -2.9999999999995861 4.9999999999999716 0 1000 0 I I #
-436 integer_attrib-name_attrib-gen-attrib $-1 -1 $-1 $-1 $385 2 1 2 1 1 1 1 1 1 1 1 1 1 1 0 1 1 1 @19 Stock-bed chassis-1 0 #
-437 face $462 -1 -1 $-1 $294 $413 $4 $-1 $463 forward single F F #
-438 plane-surface $-1 -1 -1 $-1 -16.82457351945709 -2.9999999999995861 4.9999999999999716 0.86602540378443471 0 0.50000000000000699 -500.00000000000699 0 866.02540378443473 forward_v I I I I #
-439 coedge $-1 -1 -1 $-1 $390 $389 $464 $465 reversed $391 $-1 #
-440 face $466 -1 -1 $-1 $405 $391 $4 $-1 $467 reversed single F F #
-441 coedge $-1 -1 -1 $-1 $397 $464 $393 $442 forward $413 $-1 #
-442 edge $-1 -1 -1 $-1 $443 0 $399 0.0031754264805429664 $441 $468 forward @7 unknown F #
-443 vertex $-1 -1 -1 $-1 $394 $469 #
-444 straight-curve $-1 -1 -1 $-1 -8.1754264805429244 -2.9999999999995861 4.9999999999999716 0 1000 0 I I #
-445 integer_attrib-name_attrib-gen-attrib $-1 -1 $-1 $-1 $395 2 1 2 1 1 1 1 1 1 1 1 1 1 1 0 1 1 1 @19 Stock-bed chassis-1 0 #
-446 plane-surface $-1 -1 -1 $-1 -8.1754264805429244 -2.9999999999995861 4.9999999999999716 -0.86602540378444037 0 0.49999999999999711 -499.99999999999716 -0 -866.02540378444053 forward_v I I I I #
-447 straight-curve $-1 -1 -1 $-1 -6.5877132402714551 -2.9999999999995861 7.75 1000 6.8422776578360224e-046 9.9593689284152769e-027 I I #
-448 point $-1 -1 -1 $-1 -6.5877132402714551 -2.9999999999995861 7.75 #
-449 coedge $-1 -1 -1 $-1 $464 $407 $403 $450 forward $413 $-1 #
-450 edge $-1 -1 -1 $-1 $409 -0 $451 0.00317542648054291 $449 $470 forward @7 unknown F #
-451 vertex $-1 -1 -1 $-1 $404 $471 #
-452 straight-curve $-1 -1 -1 $-1 -6.5877132402683998 -2.9999999999995861 2.2499999999999432 0 1000 0 I I #
-453 integer_attrib-name_attrib-gen-attrib $-1 -1 $-1 $-1 $405 2 1 2 1 1 1 1 1 1 1 1 1 1 1 0 1 1 1 @19 Stock-bed chassis-1 0 #
-454 plane-surface $-1 -1 -1 $-1 -3.4122867597254896 -2.9999999999995861 2.2499999999999432 -9.959368928415274e-030 0 -1 0 1000 0 forward_v I I I I #
-455 straight-curve $-1 -1 -1 $-1 -1.8245735194570756 -2.9999999999995861 4.9999999999999716 -500.00000000000057 -0 -866.02540378443882 I I #
-456 point $-1 -1 -1 $-1 -3.4122867597254896 -2.9999999999995861 2.2499999999999432 #
-457 straight-curve $-1 -1 -1 $-1 -21.587713240268471 -2.9999999999995861 2.25 -1000 -1.0263416486754031e-045 -9.959368928415274e-027 I I #
-458 point $-1 -1 -1 $-1 -18.412286759725504 -2.9999999999995861 2.25 #
-459 point $-1 -1 -1 $-1 -21.587713240268471 -2.9999999999995861 2.25 #
-460 straight-curve $-1 -1 -1 $-1 -21.587713240268471 -2.9999999999995861 2.25 0 1000 0 I I #
-461 straight-curve $-1 -1 -1 $-1 -18.412286759725504 -2.9999999999995861 2.25 0 1000 0 I I #
-462 integer_attrib-name_attrib-gen-attrib $-1 -1 $-1 $-1 $437 2 1 2 1 1 1 1 1 1 1 1 1 1 1 0 1 1 1 @19 Stock-bed chassis-1 0 #
-463 plane-surface $-1 -1 -1 $-1 87.499999999999972 -3.0000000000000036 152.5 -1.0263416486754031e-048 1 -1.0221715125756315e-077 -1000 -1.0263416486754031e-045 -9.959368928415274e-027 forward_v I I I I #
-464 coedge $-1 -1 -1 $-1 $441 $449 $439 $465 forward $413 $-1 #
-465 edge $-1 -1 -1 $-1 $451 0 $443 0.0031754264805444929 $464 $472 forward @7 unknown F #
-466 integer_attrib-name_attrib-gen-attrib $-1 -1 $-1 $-1 $440 2 1 2 1 1 1 1 1 1 1 1 1 1 1 0 1 1 1 @19 Stock-bed chassis-1 0 #
-467 plane-surface $-1 -1 -1 $-1 -6.5877132402683998 -2.9999999999995861 2.2499999999999432 -0.86602540378443882 -0 -0.49999999999999989 499.99999999999989 0 -866.02540378443882 forward_v I I I I #
-468 straight-curve $-1 -1 -1 $-1 -8.1754264805429244 -2.9999999999995861 4.9999999999999716 499.99999999999699 0 866.02540378444019 I I #
-469 point $-1 -1 -1 $-1 -8.1754264805429244 -2.9999999999995861 4.9999999999999716 #
-470 straight-curve $-1 -1 -1 $-1 -3.4122867597254896 -2.9999999999995861 2.2499999999999432 -1000 -1.0263416486754031e-045 -9.959368928415274e-027 I I #
-471 point $-1 -1 -1 $-1 -6.5877132402683998 -2.9999999999995861 2.2499999999999432 #
-472 straight-curve $-1 -1 -1 $-1 -6.5877132402683998 -2.9999999999995861 2.2499999999999432 -499.99999999999989 0 866.02540378443871 I I #
End-of-ACIS-data 