2200 0 1 0           
15 SolidWorks 2017 12 ACIS 22.0 NT 24 Fri Jan 05 08:38:21 2018 
1 9.9999999999999995e-007 1e-010 
-0 body $1 -1 -1 $-1 $2 $-1 $-1 F #
-1 name_attrib-gen-attrib $-1 -1 $-1 $-1 $0 2 1 1 1 1 1 1 1 1 1 1 1 1 1 0 1 1 1 @29 lower cross brace-cover hinge #
-2 lump $3 -1 -1 $-1 $-1 $4 $0 F #
-3 rgb_color-st-attrib $-1 -1 $-1 $-1 $2 2 1 2 1 1 1 1 1 1 1 1 1 1 1 0 1 1 1 0.29803921568627451 0.29803921568627451 0.29803921568627451 #
-4 shell $-1 -1 -1 $-1 $-1 $-1 $5 $-1 $2 F #
-5 face $6 -1 -1 $-1 $7 $8 $4 $-1 $9 reversed single F T -3.8400010204315342 7.441297385485798e-015 -3.1415926535897949 3.0353275716550556e-013 #
-6 integer_attrib-name_attrib-gen-attrib $-1 -1 $-1 $-1 $5 2 1 2 1 1 1 1 1 1 1 1 1 1 1 0 1 1 1 @25 Stock-lower cross brace-1 0 #
-7 face $10 -1 -1 $-1 $11 $12 $4 $-1 $13 reversed single F T -0.9230769230769158 7.4412973854857144e-015 -3.1415926535897949 2.6378472056237442e-015 #
-8 loop $-1 -1 -1 $-1 $-1 $14 $5 F unknown #
-9 cone-surface $-1 -1 -1 $-1 3.9999999999961418 4.8000012755413763 7.9999999999956231 -7.441297385485716e-015 1 -4.3931790588240511e-016 -1.2499999999999942 0 2.168404344970997e-015 1 I I 0 1 1.2499999999999942 forward I I I I #
-10 integer_attrib-name_attrib-gen-attrib $-1 -1 $-1 $-1 $7 2 1 2 1 1 1 1 1 1 1 1 1 1 1 0 1 1 1 @25 Stock-lower cross brace-1 0 #
-11 face $15 -1 -1 $-1 $16 $17 $4 $-1 $18 reversed single F T -2.66666737529961 -1.6666666666666436 -3.1415926535897949 -1.9193732922004861e-015 #
-12 loop $-1 -1 -1 $-1 $-1 $19 $7 F unknown #
-13 cone-surface $-1 -1 -1 $-1 3.9999999999961418 18.70000255107874 7.9999999999960067 -7.441297385485716e-015 1 -4.3931790588240511e-016 -3.2500000000000515 0 5.6378512969247067e-015 1 I I 0 1 3.2500000000000515 forward I I I I #
-14 coedge $-1 -1 -1 $-1 $20 $21 $22 $23 reversed $8 $-1 #
-15 integer_attrib-name_attrib-gen-attrib $-1 -1 $-1 $-1 $11 2 1 2 1 1 1 1 1 1 1 1 1 1 1 0 1 1 1 @25 Stock-lower cross brace-1 0 #
-16 face $24 -1 -1 $-1 $25 $26 $4 $-1 $27 reversed single F T -0.92307692307695843 2.7061686225238108e-015 -3.1415926535897931 1.4104711438552964e-016 #
-17 loop $-1 -1 -1 $-1 $-1 $28 $11 F unknown #
-18 cone-surface $-1 -1 -1 $-1 3.9999999999961418 18.70000255107874 7.9999999999960067 -7.441297385485716e-015 1 -4.3931790588240511e-016 -1.8000000000000169 0 3.1225022567582792e-015 1 I I 0 1 1.8000000000000169 forward I I I I #
-19 coedge $-1 -1 -1 $-1 $29 $30 $31 $32 reversed $12 $-1 #
-20 coedge $-1 -1 -1 $-1 $33 $14 $34 $35 forward $8 $-1 #
-21 coedge $-1 -1 -1 $-1 $14 $33 $36 $37 reversed $8 $-1 #
-22 coedge $-1 -1 -1 $-1 $38 $38 $14 $23 forward $39 $-1 #
-23 edge $-1 -1 -1 $-1 $40 -3.1415926535894876 $41 -1.7347234759768091e-015 $22 $42 forward @7 unknown F #
-24 integer_attrib-name_attrib-gen-attrib $-1 -1 $-1 $-1 $16 2 1 2 1 1 1 1 1 1 1 1 1 1 1 0 1 1 1 @25 Stock-lower cross brace-1 0 #
-25 face $43 -1 -1 $-1 $44 $45 $4 $-1 $46 reversed single F T -2.2222222222222321 -1.8888888888888826 -3.1415926535897931 1.5704219966667672e-016 #
-26 loop $-1 -1 -1 $-1 $-1 $47 $16 F unknown #
-27 cone-surface $-1 -1 -1 $-1 13.599999999998019 9.3500012755411035 3.9999999999959925 2.7061686225238124e-015 -4.3931790588240752e-016 1 3.2500000000000235 0 -5.6378512969246593e-015 1 I I 0 1 3.2500000000000235 forward I I I I #
-28 coedge $-1 -1 -1 $-1 $48 $49 $50 $51 forward $17 $-1 #
-29 coedge $-1 -1 -1 $-1 $52 $19 $53 $54 forward $12 $-1 #
-30 coedge $-1 -1 -1 $-1 $19 $52 $55 $56 reversed $12 $-1 #
-31 coedge $-1 -1 -1 $-1 $57 $57 $19 $32 forward $58 $-1 #
-32 edge $-1 -1 -1 $-1 $59 -3.1415926535897949 $60 2.6378472056237387e-015 $31 $61 forward @7 unknown F #
-33 coedge $-1 -1 -1 $-1 $21 $20 $62 $63 forward $8 $-1 #
-34 coedge $-1 -1 -1 $-1 $64 $65 $20 $35 reversed $66 $-1 #
-35 edge $-1 -1 -1 $-1 $40 -0.0048000012755393872 $67 5.2873598018875018e-032 $20 $68 forward @7 unknown F #
-36 coedge $-1 -1 -1 $-1 $65 $64 $21 $37 forward $66 $-1 #
-37 edge $-1 -1 -1 $-1 $41 -0.0048000012755393872 $69 1.0574719603775004e-031 $36 $70 forward @7 unknown F #
-38 coedge $-1 -1 -1 $-1 $22 $22 $64 $71 forward $39 $-1 #
-39 loop $-1 -1 -1 $-1 $72 $38 $73 F unknown #
-40 vertex $-1 -1 -1 $-1 $35 $74 #
-41 vertex $-1 -1 -1 $-1 $23 $75 #
-42 ellipse-curve $-1 -1 -1 $-1 3.9999999999961418 1.9895196601282805e-012 7.9999999999960067 -7.441297385485716e-015 1 -4.3931790588240511e-016 -1.2499999999999942 0 2.168404344970997e-015 1 I I #
-43 integer_attrib-name_attrib-gen-attrib $-1 -1 $-1 $-1 $25 2 1 2 1 1 1 1 1 1 1 1 1 1 1 0 1 1 1 @25 Stock-lower cross brace-1 0 #
-44 face $76 -1 -1 $-1 $77 $78 $4 $-1 $79 reversed single F T -2.2222222222222321 -1.8888888888888826 -9.7626201307201985e-016 3.141592653589794 #
-45 loop $-1 -1 -1 $-1 $-1 $80 $25 F unknown #
-46 cone-surface $-1 -1 -1 $-1 13.599999999998019 9.3500012755411035 3.9999999999959925 2.7061686225238124e-015 -4.3931790588240752e-016 1 1.8000000000000516 0 -3.1225022567583395e-015 1 I I 0 1 1.8000000000000516 forward I I I I #
-47 coedge $-1 -1 -1 $-1 $81 $82 $83 $84 reversed $26 $-1 #
-48 coedge $-1 -1 -1 $-1 $85 $28 $86 $87 forward $17 $-1 #
-49 coedge $-1 -1 -1 $-1 $28 $85 $88 $89 reversed $17 $-1 #
-50 coedge $-1 -1 -1 $-1 $90 $90 $28 $51 reversed $91 $-1 #
-51 edge $-1 -1 -1 $-1 $92 1.7347234759768087e-015 $93 3.1415926535900081 $28 $94 forward @7 unknown F #
-52 coedge $-1 -1 -1 $-1 $30 $29 $95 $96 forward $12 $-1 #
-53 coedge $-1 -1 -1 $-1 $97 $98 $29 $54 reversed $99 $-1 #
-54 edge $-1 -1 -1 $-1 $59 -0.0030000000000000001 $100 3.7011518613212511e-031 $29 $101 forward @7 unknown F #
-55 coedge $-1 -1 -1 $-1 $98 $97 $30 $56 forward $99 $-1 #
-56 edge $-1 -1 -1 $-1 $60 -0.0030000000000000001 $102 0 $55 $103 forward @7 unknown F #
-57 coedge $-1 -1 -1 $-1 $31 $31 $97 $104 forward $58 $-1 #
-58 loop $-1 -1 -1 $-1 $-1 $57 $105 F unknown #
-59 vertex $-1 -1 -1 $-1 $54 $106 #
-60 vertex $-1 -1 -1 $-1 $32 $107 #
-61 ellipse-curve $-1 -1 -1 $-1 3.9999999999961418 15.70000255107874 7.9999999999960067 -7.441297385485716e-015 1 -4.3931790588240511e-016 -3.2500000000000515 0 5.6378512969247067e-015 1 I I #
-62 coedge $-1 -1 -1 $-1 $108 $108 $33 $63 reversed $109 $-1 #
-63 edge $-1 -1 -1 $-1 $67 -3.1415926535897949 $69 -1.7347234759768083e-015 $33 $110 forward @7 unknown F #
-64 coedge $-1 -1 -1 $-1 $36 $34 $38 $71 reversed $66 $-1 #
-65 coedge $-1 -1 -1 $-1 $34 $36 $108 $111 forward $66 $-1 #
-66 loop $-1 -1 -1 $-1 $-1 $34 $112 F unknown #
-67 vertex $-1 -1 -1 $-1 $35 $113 #
-68 straight-curve $-1 -1 -1 $-1 5.2499999999961346 4.8000012755413763 7.9999999999956231 -7.4412973854857154e-012 1000 -4.393179058824051e-013 I I #
-69 vertex $-1 -1 -1 $-1 $63 $114 #
-70 straight-curve $-1 -1 -1 $-1 2.7499999999961489 4.8000012755413763 7.9999999999956231 -7.4412973854857154e-012 1000 -4.393179058824051e-013 I I #
-71 edge $-1 -1 -1 $-1 $41 -1.7347234759768091e-015 $40 3.1415926535900986 $38 $115 forward @7 unknown F #
-72 loop $-1 -1 -1 $-1 $-1 $116 $73 F unknown #
-73 face $117 -1 -1 $-1 $118 $39 $4 $-1 $119 reversed single F F #
-74 point $-1 -1 -1 $-1 5.2499999999961133 1.9895196601282805e-012 7.9999999999956231 #
-75 point $-1 -1 -1 $-1 2.7499999999961489 1.9895196601282805e-012 7.9999999999960067 #
-76 integer_attrib-name_attrib-gen-attrib $-1 -1 $-1 $-1 $44 2 1 2 1 1 1 1 1 1 1 1 1 1 1 0 1 1 1 @25 Stock-lower cross brace-1 0 #
-77 face $120 -1 -1 $-1 $121 $122 $4 $-1 $123 reversed single F F #
-78 loop $-1 -1 -1 $-1 $-1 $124 $44 F unknown #
-79 cone-surface $-1 -1 -1 $-1 13.599999999998019 9.3500012755411035 3.9999999999959925 2.7061686225238124e-015 -4.3931790588240752e-016 1 1.8000000000000516 0 -3.1225022567583395e-015 1 I I 0 1 1.8000000000000516 forward I I I I #
-80 coedge $-1 -1 -1 $-1 $125 $126 $127 $128 forward $45 $-1 #
-81 coedge $-1 -1 -1 $-1 $129 $47 $130 $131 forward $26 $-1 #
-82 coedge $-1 -1 -1 $-1 $47 $129 $132 $133 reversed $26 $-1 #
-83 coedge $-1 -1 -1 $-1 $134 $134 $47 $84 forward $135 $-1 #
-84 edge $-1 -1 -1 $-1 $136 -3.1415926535897931 $137 -4.2349037632634041e-031 $83 $138 forward @7 unknown F #
-85 coedge $-1 -1 -1 $-1 $49 $48 $139 $140 forward $17 $-1 #
-86 coedge $-1 -1 -1 $-1 $141 $142 $48 $87 reversed $143 $-1 #
-87 edge $-1 -1 -1 $-1 $93 -0.00480000127553933 $144 -0.0030000000000000001 $48 $145 forward @7 unknown F #
-88 coedge $-1 -1 -1 $-1 $142 $141 $49 $89 forward $143 $-1 #
-89 edge $-1 -1 -1 $-1 $92 -0.00480000127553933 $146 -0.0030000000000000001 $88 $147 forward @7 unknown F #
-90 coedge $-1 -1 -1 $-1 $50 $50 $141 $148 reversed $91 $-1 #
-91 loop $-1 -1 -1 $-1 $149 $50 $150 F unknown #
-92 vertex $-1 -1 -1 $-1 $148 $151 #
-93 vertex $-1 -1 -1 $-1 $87 $152 #
-94 ellipse-curve $-1 -1 -1 $-1 3.9999999999961418 13.90000127553941 7.9999999999956231 7.441297385485716e-015 -1 4.3931790588240511e-016 -1.8000000000000169 0 3.1225022567582792e-015 1 I I #
-95 coedge $-1 -1 -1 $-1 $153 $153 $52 $96 reversed $154 $-1 #
-96 edge $-1 -1 -1 $-1 $100 -3.1415926535897949 $102 2.6378472056237387e-015 $52 $155 forward @7 unknown F #
-97 coedge $-1 -1 -1 $-1 $55 $53 $57 $104 reversed $99 $-1 #
-98 coedge $-1 -1 -1 $-1 $53 $55 $153 $156 forward $99 $-1 #
-99 loop $-1 -1 -1 $-1 $-1 $53 $157 F unknown #
-100 vertex $-1 -1 -1 $-1 $54 $158 #
-101 straight-curve $-1 -1 -1 $-1 7.2499999999961915 18.70000255107874 7.9999999999960067 -7.4412973854857154e-012 1000 -4.393179058824051e-013 I I #
-102 vertex $-1 -1 -1 $-1 $96 $159 #
-103 straight-curve $-1 -1 -1 $-1 0.74999999999609201 18.70000255107874 7.999999999996021 -7.4412973854857154e-012 1000 -4.393179058824051e-013 I I #
-104 edge $-1 -1 -1 $-1 $60 2.6378472056237387e-015 $59 3.1415926535897913 $57 $160 forward @7 unknown F #
-105 face $161 -1 -1 $-1 $157 $162 $4 $-1 $163 reversed single F F #
-106 point $-1 -1 -1 $-1 7.2499999999961418 15.70000255107874 7.9999999999960067 #
-107 point $-1 -1 -1 $-1 0.74999999999609201 15.70000255107874 7.999999999996021 #
-108 coedge $-1 -1 -1 $-1 $62 $62 $65 $111 reversed $109 $-1 #
-109 loop $-1 -1 -1 $-1 $164 $108 $165 F unknown #
-110 ellipse-curve $-1 -1 -1 $-1 3.9999999999961418 4.8000012755413763 7.9999999999956231 -7.441297385485716e-015 1 -4.3931790588240511e-016 -1.250000000000008 0 2.1684043449710207e-015 1 I I #
-111 edge $-1 -1 -1 $-1 $69 -1.7347234759768083e-015 $67 3.1415926535897913 $65 $166 forward @7 unknown F #
-112 face $167 -1 -1 $-1 $-1 $66 $4 $-1 $168 reversed single F T -3.8400010204315342 7.441297385485798e-015 -2.0006192113389327e-015 3.1415926535897931 #
-113 point $-1 -1 -1 $-1 5.2499999999961275 4.8000012755413763 7.9999999999956231 #
-114 point $-1 -1 -1 $-1 2.7499999999961346 4.8000012755413763 7.9999999999956231 #
-115 ellipse-curve $-1 -1 -1 $-1 3.9999999999961418 1.9895196601282805e-012 7.9999999999960067 -7.441297385485716e-015 1 -4.3931790588240511e-016 -1.2499999999999942 0 2.168404344970997e-015 1 I I #
-116 coedge $-1 -1 -1 $-1 $169 $170 $171 $172 forward $72 $-1 #
-117 integer_attrib-name_attrib-gen-attrib $-1 -1 $-1 $-1 $73 2 1 2 1 1 1 1 1 1 1 1 1 1 1 0 1 1 1 @25 Stock-lower cross brace-1 0 #
-118 face $173 -1 -1 $-1 $174 $175 $4 $-1 $176 forward single F F #
-119 plane-surface $-1 -1 -1 $-1 23.59999999999803 0 3.9999999999959783 7.4412973854855976e-015 1 -4.3931790588241645e-016 -1000.0000000000156 7.4412973854857121e-012 7.6327832942979553e-013 forward_v I I I I #
-120 integer_attrib-name_attrib-gen-attrib $-1 -1 $-1 $-1 $77 2 1 2 1 1 1 1 1 1 1 1 1 1 1 0 1 1 1 @25 Stock-lower cross brace-1 0 #
-121 face $177 -1 -1 $-1 $178 $179 $4 $-1 $180 forward single F F #
-122 loop $-1 -1 -1 $-1 $181 $182 $77 F unknown #
-123 plane-surface $-1 -1 -1 $-1 54.130000000000031 -449.19999744891589 3.9999999999959357 -7.6327832942978033e-016 4.3931790588239303e-016 -1 -1000.0000000000156 7.4412973854857121e-012 7.6327832942979553e-013 forward_v I I I I #
-124 coedge $-1 -1 -1 $-1 $183 $184 $125 $185 reversed $78 $-1 #
-125 coedge $-1 -1 -1 $-1 $186 $80 $124 $185 forward $45 $-1 #
-126 coedge $-1 -1 -1 $-1 $80 $186 $187 $188 reversed $45 $-1 #
-127 coedge $-1 -1 -1 $-1 $189 $189 $80 $128 reversed $175 $-1 #
-128 edge $-1 -1 -1 $-1 $190 -3.1415926535897931 $191 4.2677324746062785e-031 $80 $192 forward @7 unknown F #
-129 coedge $-1 -1 -1 $-1 $82 $81 $193 $194 forward $26 $-1 #
-130 coedge $-1 -1 -1 $-1 $195 $196 $81 $131 reversed $197 $-1 #
-131 edge $-1 -1 -1 $-1 $136 -0.003000000000000128 $198 1.3459939195333481e-031 $81 $199 forward @7 unknown F #
-132 coedge $-1 -1 -1 $-1 $196 $195 $82 $133 forward $197 $-1 #
-133 edge $-1 -1 -1 $-1 $137 -0.003000000000000128 $200 0 $132 $201 forward @7 unknown F #
-134 coedge $-1 -1 -1 $-1 $83 $83 $195 $202 forward $135 $-1 #
-135 loop $-1 -1 -1 $-1 $-1 $134 $203 F unknown #
-136 vertex $-1 -1 -1 $-1 $131 $204 #
-137 vertex $-1 -1 -1 $-1 $84 $205 #
-138 ellipse-curve $-1 -1 -1 $-1 13.599999999998012 9.3500012755411035 0.99999999999586464 2.7061686225238124e-015 -4.3931790588240752e-016 1 3.2500000000000235 0 -5.6378512969246593e-015 1 I I #
-139 coedge $-1 -1 -1 $-1 $206 $206 $85 $140 reversed $162 $-1 #
-140 edge $-1 -1 -1 $-1 $144 -3.1415926535897949 $146 -1.7347234759768087e-015 $85 $207 forward @7 unknown F #
-141 coedge $-1 -1 -1 $-1 $88 $86 $90 $148 forward $143 $-1 #
-142 coedge $-1 -1 -1 $-1 $86 $88 $206 $208 forward $143 $-1 #
-143 loop $-1 -1 -1 $-1 $-1 $86 $209 F unknown #
-144 vertex $-1 -1 -1 $-1 $87 $210 #
-145 straight-curve $-1 -1 -1 $-1 5.7999999999961602 18.70000255107874 7.9999999999960067 -7.4412973854857154e-012 1000 -4.393179058824051e-013 I I #
-146 vertex $-1 -1 -1 $-1 $140 $211 #
-147 straight-curve $-1 -1 -1 $-1 2.1999999999961233 18.70000255107874 7.9999999999960067 -7.4412973854857154e-012 1000 -4.393179058824051e-013 I I #
-148 edge $-1 -1 -1 $-1 $93 -3.1415926535895782 $92 1.7347234759768087e-015 $141 $212 forward @7 unknown F #
-149 loop $-1 -1 -1 $-1 $-1 $213 $150 F unknown #
-150 face $214 -1 -1 $-1 $203 $91 $4 $-1 $215 reversed single F F #
-151 point $-1 -1 -1 $-1 2.1999999999961233 13.90000127553941 7.9999999999956231 #
-152 point $-1 -1 -1 $-1 5.7999999999961318 13.90000127553941 7.9999999999960067 #
-153 coedge $-1 -1 -1 $-1 $95 $95 $98 $156 reversed $154 $-1 #
-154 loop $-1 -1 -1 $-1 $216 $153 $217 F unknown #
-155 ellipse-curve $-1 -1 -1 $-1 3.9999999999961418 18.70000255107874 7.9999999999960067 -7.441297385485716e-015 1 -4.3931790588240511e-016 -3.2500000000000515 0 5.6378512969247067e-015 1 I I #
-156 edge $-1 -1 -1 $-1 $102 2.6378472056237387e-015 $100 3.1415926535897913 $98 $218 forward @7 unknown F #
-157 face $219 -1 -1 $-1 $220 $99 $4 $-1 $221 reversed single F T -0.9230769230769158 7.4412973854857144e-015 2.2323229848092087e-015 3.1415926535897931 #
-158 point $-1 -1 -1 $-1 7.2499999999961418 18.70000255107874 7.9999999999960067 #
-159 point $-1 -1 -1 $-1 0.74999999999609201 18.70000255107874 7.999999999996021 #
-160 ellipse-curve $-1 -1 -1 $-1 3.9999999999961418 15.70000255107874 7.9999999999960067 -7.441297385485716e-015 1 -4.3931790588240511e-016 -3.2500000000000515 0 5.6378512969247067e-015 1 I I #
-161 integer_attrib-name_attrib-gen-attrib $-1 -1 $-1 $-1 $105 2 1 2 1 1 1 1 1 1 1 1 1 1 1 0 1 1 1 @25 Stock-lower cross brace-1 0 #
-162 loop $-1 -1 -1 $-1 $58 $206 $105 F unknown #
-163 plane-surface $-1 -1 -1 $-1 3.9999999999961489 15.70000255107874 9.7999999999960323 -7.4412973854855976e-015 -1 4.3931790588241645e-016 1000.0000000000156 -7.4412973854857121e-012 -7.6327832942979553e-013 forward_v I I I I #
-164 loop $-1 -1 -1 $-1 $-1 $222 $165 F unknown #
-165 face $223 -1 -1 $-1 $150 $109 $4 $-1 $224 reversed single F F #
-166 ellipse-curve $-1 -1 -1 $-1 3.9999999999961418 4.8000012755413763 7.9999999999956231 -7.441297385485716e-015 1 -4.3931790588240511e-016 -1.250000000000008 0 2.1684043449710207e-015 1 I I #
-167 integer_attrib-name_attrib-gen-attrib $-1 -1 $-1 $-1 $112 2 1 2 1 1 1 1 1 1 1 1 1 1 1 0 1 1 1 @25 Stock-lower cross brace-1 0 #
-168 cone-surface $-1 -1 -1 $-1 3.9999999999961418 4.8000012755413763 7.9999999999956231 -7.441297385485716e-015 1 -4.3931790588240511e-016 -1.2499999999999942 0 2.168404344970997e-015 1 I I 0 1 1.2499999999999942 forward I I I I #
-169 coedge $-1 -1 -1 $-1 $225 $116 $226 $227 reversed $72 $-1 #
-170 coedge $-1 -1 -1 $-1 $116 $228 $229 $230 forward $72 $-1 #
-171 coedge $-1 -1 -1 $-1 $231 $232 $116 $172 reversed $233 $-1 #
-172 edge $-1 -1 -1 $-1 $234 -0.023599999999999954 $235 0 $116 $236 forward @7 unknown F #
-173 integer_attrib-name_attrib-gen-attrib $-1 -1 $-1 $-1 $118 2 1 2 1 1 1 1 1 1 1 1 1 1 1 0 1 1 1 @25 Stock-lower cross brace-1 0 #
-174 face $237 -1 -1 $-1 $238 $239 $4 $-1 $240 forward single F F #
-175 loop $-1 -1 -1 $-1 $233 $127 $118 F unknown #
-176 plane-surface $-1 -1 -1 $-1 54.130000000000024 -449.19999744891589 -4.2064129956997931e-012 -7.6327832942978033e-016 4.3931790588239303e-016 -1 -1000.0000000000156 7.4412973854857121e-012 7.6327832942979553e-013 forward_v I I I I #
-177 integer_attrib-name_attrib-gen-attrib $-1 -1 $-1 $-1 $121 2 1 2 1 1 1 1 1 1 1 1 1 1 1 0 1 1 1 @25 Stock-lower cross brace-1 0 #
-178 face $241 -1 -1 $-1 $242 $243 $4 $-1 $244 forward single F T -2.1319085193299903e-014 1.2000003188848483 2.3451718299743138e-015 3.1415926535899157 #
-179 loop $-1 -1 -1 $-1 $-1 $245 $121 F unknown #
-180 plane-surface $-1 -1 -1 $-1 7.9999999999967031 1.9895196601282805e-012 7.9999999999956231 1 -7.4412973854855976e-015 -2.7061686225238159e-015 -2.7061686225238962e-012 4.393179058824212e-013 -1000.000000000031 forward_v I I I I #
-181 loop $-1 -1 -1 $-1 $-1 $246 $77 F unknown #
-182 coedge $-1 -1 -1 $-1 $247 $248 $249 $250 reversed $122 $-1 #
-183 coedge $-1 -1 -1 $-1 $187 $124 $189 $251 forward $78 $-1 #
-184 coedge $-1 -1 -1 $-1 $124 $187 $252 $253 reversed $78 $-1 #
-185 edge $-1 -1 -1 $-1 $191 -0.0040000000000001276 $254 -0.0034000000000000909 $125 $255 forward @7 unknown F #
-186 coedge $-1 -1 -1 $-1 $126 $125 $256 $257 reversed $45 $-1 #
-187 coedge $-1 -1 -1 $-1 $184 $183 $126 $188 forward $78 $-1 #
-188 edge $-1 -1 -1 $-1 $190 -0.0040000000000001276 $258 -0.0034000000000000909 $187 $259 forward @7 unknown F #
-189 coedge $-1 -1 -1 $-1 $127 $127 $183 $251 reversed $175 $-1 #
-190 vertex $-1 -1 -1 $-1 $251 $260 #
-191 vertex $-1 -1 -1 $-1 $185 $261 #
-192 ellipse-curve $-1 -1 -1 $-1 13.599999999998012 9.3500012755411035 -4.1353587221237831e-012 -2.7061686225238124e-015 4.3931790588240752e-016 -1 -1.8000000000000516 0 3.1225022567583395e-015 1 I I #
-193 coedge $-1 -1 -1 $-1 $246 $246 $129 $194 reversed $181 $-1 #
-194 edge $-1 -1 -1 $-1 $198 -3.1415926535897931 $200 -4.3849778722605575e-031 $129 $262 forward @7 unknown F #
-195 coedge $-1 -1 -1 $-1 $132 $130 $134 $202 reversed $197 $-1 #
-196 coedge $-1 -1 -1 $-1 $130 $132 $246 $263 forward $197 $-1 #
-197 loop $-1 -1 -1 $-1 $-1 $130 $264 F unknown #
-198 vertex $-1 -1 -1 $-1 $131 $265 #
-199 straight-curve $-1 -1 -1 $-1 10.349999999997998 9.3500012755411035 3.9999999999959925 2.7061686225238122e-012 -4.3931790588240752e-013 1000 I I #
-200 vertex $-1 -1 -1 $-1 $194 $266 #
-201 straight-curve $-1 -1 -1 $-1 16.84999999999804 9.3500012755411035 3.9999999999959925 2.7061686225238122e-012 -4.3931790588240752e-013 1000 I I #
-202 edge $-1 -1 -1 $-1 $137 -4.2349037632634041e-031 $136 3.1415926535897931 $134 $267 forward @7 unknown F #
-203 face $268 -1 -1 $-1 $264 $135 $4 $-1 $269 reversed single F F #
-204 point $-1 -1 -1 $-1 10.34999999999804 9.3500012755411035 0.99999999999586464 #
-205 point $-1 -1 -1 $-1 16.849999999998033 9.3500012755411035 0.99999999999586464 #
-206 coedge $-1 -1 -1 $-1 $139 $139 $142 $208 reversed $162 $-1 #
-207 ellipse-curve $-1 -1 -1 $-1 3.9999999999961418 15.70000255107874 7.9999999999960067 -7.441297385485716e-015 1 -4.3931790588240511e-016 -1.80000000000001 0 3.122502256758267e-015 1 I I #
-208 edge $-1 -1 -1 $-1 $146 -1.7347234759768087e-015 $144 3.1415926535897913 $142 $270 forward @7 unknown F #
-209 face $271 -1 -1 $-1 $105 $143 $4 $-1 $272 reversed single F T -2.66666737529961 -1.6666666666666436 -2.1606905893100643e-013 3.1415926535897931 #
-210 point $-1 -1 -1 $-1 5.7999999999961247 15.70000255107874 7.9999999999960067 #
-211 point $-1 -1 -1 $-1 2.1999999999961304 15.70000255107874 7.9999999999960067 #
-212 ellipse-curve $-1 -1 -1 $-1 3.9999999999961418 13.90000127553941 7.9999999999956231 7.441297385485716e-015 -1 4.3931790588240511e-016 -1.8000000000000169 0 3.1225022567582792e-015 1 I I #
-213 coedge $-1 -1 -1 $-1 $273 $274 $275 $276 forward $149 $-1 #
-214 integer_attrib-name_attrib-gen-attrib $-1 -1 $-1 $-1 $150 2 1 2 1 1 1 1 1 1 1 1 1 1 1 0 1 1 1 @25 Stock-lower cross brace-1 0 #
-215 plane-surface $-1 -1 -1 $-1 152.12999999999863 13.90000127553941 3.9999999999958362 7.4412973854855976e-015 1 -4.3931790588241645e-016 -1000.0000000000156 7.4412973854857121e-012 7.6327832942979553e-013 forward_v I I I I #
-216 loop $-1 -1 -1 $-1 $-1 $277 $217 F unknown #
-217 face $278 -1 -1 $-1 $279 $154 $4 $-1 $280 reversed single F F #
-218 ellipse-curve $-1 -1 -1 $-1 3.9999999999961418 18.70000255107874 7.9999999999960067 -7.441297385485716e-015 1 -4.3931790588240511e-016 -3.2500000000000515 0 5.6378512969247067e-015 1 I I #
-219 integer_attrib-name_attrib-gen-attrib $-1 -1 $-1 $-1 $157 2 1 2 1 1 1 1 1 1 1 1 1 1 1 0 1 1 1 @25 Stock-lower cross brace-1 0 #
-220 face $281 -1 -1 $-1 $282 $283 $4 $-1 $284 reversed single F F #
-221 cone-surface $-1 -1 -1 $-1 3.9999999999961418 18.70000255107874 7.9999999999960067 -7.441297385485716e-015 1 -4.3931790588240511e-016 -3.2500000000000515 0 5.6378512969247067e-015 1 I I 0 1 3.2500000000000515 forward I I I I #
-222 coedge $-1 -1 -1 $-1 $285 $286 $245 $287 forward $164 $-1 #
-223 integer_attrib-name_attrib-gen-attrib $-1 -1 $-1 $-1 $165 2 1 2 1 1 1 1 1 1 1 1 1 1 1 0 1 1 1 @25 Stock-lower cross brace-1 0 #
-224 plane-surface $-1 -1 -1 $-1 152.12999999999863 4.8000012755393868 3.9999999999958362 -7.4412973854855976e-015 -1 4.3931790588241645e-016 1000.0000000000156 -7.4412973854857121e-012 -7.6327832942979553e-013 forward_v I I I I #
-225 coedge $-1 -1 -1 $-1 $288 $169 $289 $290 reversed $72 $-1 #
-226 coedge $-1 -1 -1 $-1 $291 $292 $169 $227 forward $293 $-1 #
-227 edge $-1 -1 -1 $-1 $294 0 $235 0.004000000000000014 $226 $295 forward @7 unknown F #
-228 coedge $-1 -1 -1 $-1 $170 $288 $296 $297 reversed $72 $-1 #
-229 coedge $-1 -1 -1 $-1 $298 $299 $170 $230 reversed $300 $-1 #
-230 edge $-1 -1 -1 $-1 $301 -0.0040000000000003271 $234 0.0040000000000000712 $170 $302 forward @7 unknown F #
-231 coedge $-1 -1 -1 $-1 $303 $171 $299 $304 reversed $233 $-1 #
-232 coedge $-1 -1 -1 $-1 $171 $303 $291 $305 reversed $233 $-1 #
-233 loop $-1 -1 -1 $-1 $-1 $232 $118 F unknown #
-234 vertex $-1 -1 -1 $-1 $304 $306 #
-235 vertex $-1 -1 -1 $-1 $172 $307 #
-236 straight-curve $-1 -1 -1 $-1 23.599999999998023 0 -4.0358827391173691e-012 1000 -7.4412973854855942e-012 -7.632783294297825e-013 I I #
-237 integer_attrib-name_attrib-gen-attrib $-1 -1 $-1 $-1 $174 2 1 2 1 1 1 1 1 1 1 1 1 1 1 0 1 1 1 @25 Stock-lower cross brace-1 0 #
-238 face $308 -1 -1 $-1 $165 $309 $4 $-1 $310 forward single F T 3.4750003188842764 4.6750006377691324 3.3446200658564603e-015 3.1415926535899148 #
-239 loop $-1 -1 -1 $-1 $-1 $275 $174 F unknown #
-240 plane-surface $-1 -1 -1 $-1 7.9999999999967031 1.9895196601282805e-012 7.9999999999956231 1 -7.4412973854855976e-015 -2.7061686225238159e-015 -2.7061686225238962e-012 4.393179058824212e-013 -1000.000000000031 forward_v I I I I #
-241 integer_attrib-name_attrib-gen-attrib $-1 -1 $-1 $-1 $178 2 1 2 1 1 1 1 1 1 1 1 1 1 1 0 1 1 1 @25 Stock-lower cross brace-1 0 #
-242 face $311 -1 -1 $-1 $217 $293 $4 $-1 $312 reversed single F F #
-243 loop $-1 -1 -1 $-1 $-1 $313 $178 F unknown #
-244 cone-surface $-1 -1 -1 $-1 3.9999999999961418 1.9895196601282805e-012 7.9999999999960067 -7.441297385485716e-015 1 -4.3931790588240511e-016 -4.0000000000000657 5.5511151231257827e-014 6.9388939039073365e-015 1 I I 0 1 4.0000000000000657 forward I I I I #
-245 coedge $-1 -1 -1 $-1 $314 $315 $222 $287 reversed $179 $-1 #
-246 coedge $-1 -1 -1 $-1 $193 $193 $196 $263 reversed $181 $-1 #
-247 coedge $-1 -1 -1 $-1 $316 $182 $317 $318 reversed $122 $-1 #
-248 coedge $-1 -1 -1 $-1 $182 $319 $320 $321 forward $122 $-1 #
-249 coedge $-1 -1 -1 $-1 $322 $275 $182 $250 forward $239 $-1 #
-250 edge $-1 -1 -1 $-1 $323 0.013900001275537704 $324 0.018700002551077035 $249 $325 forward @7 unknown F #
-251 edge $-1 -1 -1 $-1 $191 4.2677324746062785e-031 $190 3.1415926535897931 $183 $326 forward @7 unknown F #
-252 coedge $-1 -1 -1 $-1 $256 $256 $184 $253 forward $327 $-1 #
-253 edge $-1 -1 -1 $-1 $254 -3.1415926535897931 $258 4.3016033672618986e-031 $252 $328 forward @7 unknown F #
-254 vertex $-1 -1 -1 $-1 $185 $329 #
-255 straight-curve $-1 -1 -1 $-1 11.799999999997965 9.3500012755411035 3.9999999999959925 2.7061686225238122e-012 -4.3931790588240752e-013 1000 I I #
-256 coedge $-1 -1 -1 $-1 $252 $252 $186 $257 forward $327 $-1 #
-257 edge $-1 -1 -1 $-1 $258 4.3016033672618986e-031 $254 3.1415926535897931 $256 $330 forward @7 unknown F #
-258 vertex $-1 -1 -1 $-1 $253 $331 #
-259 straight-curve $-1 -1 -1 $-1 15.399999999998073 9.3500012755411035 3.9999999999959925 2.7061686225238122e-012 -4.3931790588240752e-013 1000 I I #
-260 point $-1 -1 -1 $-1 15.399999999998037 9.3500012755411035 -4.1353587221237831e-012 #
-261 point $-1 -1 -1 $-1 11.799999999997986 9.3500012755411035 -4.1353587221237831e-012 #
-262 ellipse-curve $-1 -1 -1 $-1 13.599999999998019 9.3500012755411035 3.9999999999959925 2.7061686225238124e-015 -4.3931790588240752e-016 1 3.2500000000000235 0 -5.6378512969246593e-015 1 I I #
-263 edge $-1 -1 -1 $-1 $200 -4.3849778722605575e-031 $198 3.1415926535897931 $196 $332 forward @7 unknown F #
-264 face $333 -1 -1 $-1 $209 $197 $4 $-1 $334 reversed single F T -0.92307692307695843 2.7061686225238108e-015 -4.055242208145444e-016 3.141592653589794 #
-265 point $-1 -1 -1 $-1 10.349999999998047 9.3500012755411035 3.9999999999959925 #
-266 point $-1 -1 -1 $-1 16.84999999999804 9.3500012755411035 3.9999999999959925 #
-267 ellipse-curve $-1 -1 -1 $-1 13.599999999998012 9.3500012755411035 0.99999999999586464 2.7061686225238124e-015 -4.3931790588240752e-016 1 3.2500000000000235 0 -5.6378512969246593e-015 1 I I #
-268 integer_attrib-name_attrib-gen-attrib $-1 -1 $-1 $-1 $203 2 1 2 1 1 1 1 1 1 1 1 1 1 1 0 1 1 1 @25 Stock-lower cross brace-1 0 #
-269 plane-surface $-1 -1 -1 $-1 13.599999999998012 11.150001275541342 0.99999999999586464 -7.6327832942978033e-016 4.3931790588239303e-016 -1 -1000.0000000000156 7.4412973854857121e-012 7.6327832942979553e-013 forward_v I I I I #
-270 ellipse-curve $-1 -1 -1 $-1 3.9999999999961418 15.70000255107874 7.9999999999960067 -7.441297385485716e-015 1 -4.3931790588240511e-016 -1.80000000000001 0 3.122502256758267e-015 1 I I #
-271 integer_attrib-name_attrib-gen-attrib $-1 -1 $-1 $-1 $209 2 1 2 1 1 1 1 1 1 1 1 1 1 1 0 1 1 1 @25 Stock-lower cross brace-1 0 #
-272 cone-surface $-1 -1 -1 $-1 3.9999999999961418 18.70000255107874 7.9999999999960067 -7.441297385485716e-015 1 -4.3931790588240511e-016 -1.8000000000000169 0 3.1225022567582792e-015 1 I I 0 1 1.8000000000000169 forward I I I I #
-273 coedge $-1 -1 -1 $-1 $335 $213 $336 $337 forward $149 $-1 #
-274 coedge $-1 -1 -1 $-1 $213 $338 $339 $340 forward $149 $-1 #
-275 coedge $-1 -1 -1 $-1 $249 $341 $213 $276 reversed $239 $-1 #
-276 edge $-1 -1 -1 $-1 $323 -0.004000000000000014 $342 0 $213 $343 forward @7 unknown F #
-277 coedge $-1 -1 -1 $-1 $344 $345 $303 $346 forward $216 $-1 #
-278 integer_attrib-name_attrib-gen-attrib $-1 -1 $-1 $-1 $217 2 1 2 1 1 1 1 1 1 1 1 1 1 1 0 1 1 1 @25 Stock-lower cross brace-1 0 #
-279 face $347 -1 -1 $-1 $73 $300 $4 $-1 $348 reversed single F F #
-280 plane-surface $-1 -1 -1 $-1 -3.3111291486420669e-012 18.70000255107874 3.9999999999957794 -7.4412973854855976e-015 -1 4.3931790588241645e-016 1000.0000000000156 -7.4412973854857121e-012 -7.6327832942979553e-013 forward_v I I I I #
-281 integer_attrib-name_attrib-gen-attrib $-1 -1 $-1 $-1 $220 2 1 2 1 1 1 1 1 1 1 1 1 1 1 0 1 1 1 @25 Stock-lower cross brace-1 0 #
-282 face $349 -1 -1 $-1 $350 $351 $4 $-1 $352 forward single F F #
-283 loop $-1 -1 -1 $-1 $-1 $317 $220 F unknown #
-284 plane-surface $-1 -1 -1 $-1 7.9999999999980815 13.90000127553941 2.4999999999953104 1 -7.4412973854855976e-015 -2.7061686225238159e-015 -2.7061686225238962e-012 4.393179058824212e-013 -1000.000000000031 forward_v I I I I #
-285 coedge $-1 -1 -1 $-1 $353 $222 $354 $355 reversed $164 $-1 #
-286 coedge $-1 -1 -1 $-1 $222 $356 $313 $357 forward $164 $-1 #
-287 edge $-1 -1 -1 $-1 $358 0 $359 0.004000000000000014 $222 $360 forward @7 unknown F #
-288 coedge $-1 -1 -1 $-1 $228 $225 $361 $362 reversed $72 $-1 #
-289 coedge $-1 -1 -1 $-1 $319 $316 $225 $290 forward $122 $-1 #
-290 edge $-1 -1 -1 $-1 $363 -0.015600000000000004 $294 0 $289 $364 forward @7 unknown F #
-291 coedge $-1 -1 -1 $-1 $365 $226 $232 $305 forward $293 $-1 #
-292 coedge $-1 -1 -1 $-1 $226 $365 $319 $366 reversed $293 $-1 #
-293 loop $-1 -1 -1 $-1 $-1 $291 $242 F unknown #
-294 vertex $-1 -1 -1 $-1 $290 $367 #
-295 straight-curve $-1 -1 -1 $-1 23.59999999999803 0 3.9999999999959783 -2.7061686225238122e-012 4.3931790588240752e-013 -1000 I I #
-296 coedge $-1 -1 -1 $-1 $368 $369 $228 $297 forward $243 $-1 #
-297 edge $-1 -1 -1 $-1 $301 2.3134272275626283e-014 $370 3.1415926535898873 $296 $371 forward @7 unknown F #
-298 coedge $-1 -1 -1 $-1 $372 $229 $369 $373 forward $300 $-1 #
-299 coedge $-1 -1 -1 $-1 $229 $374 $231 $304 forward $300 $-1 #
-300 loop $-1 -1 -1 $-1 $-1 $375 $279 F unknown #
-301 vertex $-1 -1 -1 $-1 $230 $376 #
-302 straight-curve $-1 -1 -1 $-1 -3.3111291486420669e-012 1.7053025658242404e-012 3.9999999999957794 -2.7061686225238122e-012 4.3931790588240752e-013 -1000 I I #
-303 coedge $-1 -1 -1 $-1 $232 $231 $277 $346 reversed $233 $-1 #
-304 edge $-1 -1 -1 $-1 $377 0 $234 0.018700002551077035 $299 $378 forward @7 unknown F #
-305 edge $-1 -1 -1 $-1 $235 -0.018700002551078738 $379 0 $291 $380 forward @7 unknown F #
-306 point $-1 -1 -1 $-1 -1.9326762412674725e-012 1.7053025658242404e-012 -4.2916781239910051e-012 #
-307 point $-1 -1 -1 $-1 23.599999999998023 0 -4.0358827391173691e-012 #
-308 integer_attrib-name_attrib-gen-attrib $-1 -1 $-1 $-1 $238 2 1 2 1 1 1 1 1 1 1 1 1 1 1 0 1 1 1 @25 Stock-lower cross brace-1 0 #
-309 loop $-1 -1 -1 $-1 $-1 $336 $238 F unknown #
-310 cone-surface $-1 -1 -1 $-1 3.9999999999961418 1.9895196601282805e-012 7.9999999999960067 -7.441297385485716e-015 1 -4.3931790588240511e-016 -4.0000000000000657 5.5511151231257827e-014 6.9388939039073365e-015 1 I I 0 1 4.0000000000000657 forward I I I I #
-311 integer_attrib-name_attrib-gen-attrib $-1 -1 $-1 $-1 $242 2 1 2 1 1 1 1 1 1 1 1 1 1 1 0 1 1 1 @25 Stock-lower cross brace-1 0 #
-312 plane-surface $-1 -1 -1 $-1 23.59999999999803 18.70000255107874 3.9999999999959783 -1 -7.2557654882318543e-015 7.6327832942979039e-016 7.2557654882318542e-012 -1000 4.3931790588240858e-013 forward_v I I I I #
-313 coedge $-1 -1 -1 $-1 $369 $368 $286 $357 reversed $243 $-1 #
-314 coedge $-1 -1 -1 $-1 $361 $245 $368 $381 reversed $179 $-1 #
-315 coedge $-1 -1 -1 $-1 $245 $361 $316 $382 forward $179 $-1 #
-316 coedge $-1 -1 -1 $-1 $289 $247 $315 $382 reversed $122 $-1 #
-317 coedge $-1 -1 -1 $-1 $339 $354 $247 $318 forward $283 $-1 #
-318 edge $-1 -1 -1 $-1 $359 -0.009099999999998375 $323 0 $317 $383 forward @7 unknown F #
-319 coedge $-1 -1 -1 $-1 $248 $289 $292 $366 forward $122 $-1 #
-320 coedge $-1 -1 -1 $-1 $345 $384 $248 $321 reversed $216 $-1 #
-321 edge $-1 -1 -1 $-1 $385 -0.023600000000001342 $324 -0.0080000000000013359 $248 $386 forward @7 unknown F #
-322 coedge $-1 -1 -1 $-1 $341 $249 $384 $387 reversed $239 $-1 #
-323 vertex $-1 -1 -1 $-1 $318 $388 #
-324 vertex $-1 -1 -1 $-1 $250 $389 #
-325 straight-curve $-1 -1 -1 $-1 7.9999999999980247 1.7053025658242404e-012 3.9999999999956231 -7.4412973854857154e-012 1000 -4.393179058824051e-013 I I #
-326 ellipse-curve $-1 -1 -1 $-1 13.599999999998012 9.3500012755411035 -4.1353587221237831e-012 -2.7061686225238124e-015 4.3931790588240752e-016 -1 -1.8000000000000516 0 3.1225022567583395e-015 1 I I #
-327 loop $-1 -1 -1 $-1 $-1 $256 $350 F unknown #
-328 ellipse-curve $-1 -1 -1 $-1 13.599999999998012 9.3500012755411035 0.59999999999590159 -2.7061686225238124e-015 4.3931790588240752e-016 -1 1.8000000000000516 0 -3.1225022567583395e-015 1 I I #
-329 point $-1 -1 -1 $-1 11.799999999997986 9.3500012755411035 0.59999999999590159 #
-330 ellipse-curve $-1 -1 -1 $-1 13.599999999998012 9.3500012755411035 0.59999999999590159 -2.7061686225238124e-015 4.3931790588240752e-016 -1 1.8000000000000516 0 -3.1225022567583395e-015 1 I I #
-331 point $-1 -1 -1 $-1 15.399999999998066 9.3500012755411035 0.59999999999590159 #
-332 ellipse-curve $-1 -1 -1 $-1 13.599999999998019 9.3500012755411035 3.9999999999959925 2.7061686225238124e-015 -4.3931790588240752e-016 1 3.2500000000000235 0 -5.6378512969246593e-015 1 I I #
-333 integer_attrib-name_attrib-gen-attrib $-1 -1 $-1 $-1 $264 2 1 2 1 1 1 1 1 1 1 1 1 1 1 0 1 1 1 @25 Stock-lower cross brace-1 0 #
-334 cone-surface $-1 -1 -1 $-1 13.599999999998019 9.3500012755411035 3.9999999999959925 2.7061686225238124e-015 -4.3931790588240752e-016 1 3.2500000000000235 0 -5.6378512969246593e-015 1 I I 0 1 3.2500000000000235 forward I I I I #
-335 coedge $-1 -1 -1 $-1 $338 $273 $390 $391 forward $149 $-1 #
-336 coedge $-1 -1 -1 $-1 $392 $393 $273 $337 reversed $309 $-1 #
-337 edge $-1 -1 -1 $-1 $342 -3.1415926535899139 $394 -1.9141632723318162e-013 $273 $395 forward @7 unknown F #
-338 coedge $-1 -1 -1 $-1 $274 $335 $396 $397 reversed $149 $-1 #
-339 coedge $-1 -1 -1 $-1 $398 $317 $274 $340 reversed $283 $-1 #
-340 edge $-1 -1 -1 $-1 $399 0 $323 0.0015000000000001848 $274 $400 forward @7 unknown F #
-341 coedge $-1 -1 -1 $-1 $275 $322 $392 $401 reversed $239 $-1 #
-342 vertex $-1 -1 -1 $-1 $337 $402 #
-343 straight-curve $-1 -1 -1 $-1 7.9999999999967031 13.90000127553941 7.9999999999955094 2.7061686225238122e-012 -4.3931790588240752e-013 1000 I I #
-344 coedge $-1 -1 -1 $-1 $403 $277 $374 $404 reversed $216 $-1 #
-345 coedge $-1 -1 -1 $-1 $277 $320 $365 $405 forward $216 $-1 #
-346 edge $-1 -1 -1 $-1 $379 -0.023600000000000013 $377 0 $277 $406 forward @7 unknown F #
-347 integer_attrib-name_attrib-gen-attrib $-1 -1 $-1 $-1 $279 2 1 2 1 1 1 1 1 1 1 1 1 1 1 0 1 1 1 @25 Stock-lower cross brace-1 0 #
-348 plane-surface $-1 -1 -1 $-1 -3.3111291486420669e-012 18.70000255107874 3.9999999999957794 1 7.8123611799934378e-015 -7.6327832942979039e-016 -7.8123611799934376e-012 1000 -4.3931790588240803e-013 forward_v I I I I #
-349 integer_attrib-name_attrib-gen-attrib $-1 -1 $-1 $-1 $282 2 1 2 1 1 1 1 1 1 1 1 1 1 1 0 1 1 1 @25 Stock-lower cross brace-1 0 #
-350 face $407 -1 -1 $-1 $112 $327 $4 $-1 $408 reversed single F F #
-351 loop $-1 -1 -1 $-1 $-1 $409 $282 F unknown #
-352 plane-surface $-1 -1 -1 $-1 54.130000000000024 -449.19999744891589 2.4999999999958504 7.6327832942978033e-016 -4.3931790588239303e-016 1 1000.0000000000156 -7.4412973854857121e-012 -7.6327832942979553e-013 forward_v I I I I #
-353 coedge $-1 -1 -1 $-1 $356 $285 $410 $411 reversed $164 $-1 #
-354 coedge $-1 -1 -1 $-1 $317 $398 $285 $355 forward $283 $-1 #
-355 edge $-1 -1 -1 $-1 $412 0 $359 0.0015000000000001848 $354 $413 forward @7 unknown F #
-356 coedge $-1 -1 -1 $-1 $286 $353 $372 $414 forward $164 $-1 #
-357 edge $-1 -1 -1 $-1 $415 -3.1415926535896643 $358 5.7912008522008718e-014 $286 $416 forward @7 unknown F #
-358 vertex $-1 -1 -1 $-1 $357 $417 #
-359 vertex $-1 -1 -1 $-1 $355 $418 #
-360 straight-curve $-1 -1 -1 $-1 7.9999999999967031 4.8000012755413763 7.9999999999955094 -2.7061686225238122e-012 4.3931790588240752e-013 -1000 I I #
-361 coedge $-1 -1 -1 $-1 $315 $314 $288 $362 forward $179 $-1 #
-362 edge $-1 -1 -1 $-1 $370 0 $363 0.0040000000000000001 $361 $419 forward @7 unknown F #
-363 vertex $-1 -1 -1 $-1 $382 $420 #
-364 straight-curve $-1 -1 -1 $-1 23.59999999999803 0 3.9999999999959783 1000 -7.4412973854855942e-012 -7.632783294297825e-013 I I #
-365 coedge $-1 -1 -1 $-1 $292 $291 $345 $405 reversed $293 $-1 #
-366 edge $-1 -1 -1 $-1 $294 -0.018700002551078738 $385 0 $319 $421 forward @7 unknown F #
-367 point $-1 -1 -1 $-1 23.59999999999803 0 3.9999999999959783 #
-368 coedge $-1 -1 -1 $-1 $313 $296 $314 $381 forward $243 $-1 #
-369 coedge $-1 -1 -1 $-1 $296 $313 $298 $373 reversed $243 $-1 #
-370 vertex $-1 -1 -1 $-1 $381 $422 #
-371 ellipse-curve $-1 -1 -1 $-1 3.9999999999961418 1.9895196601282805e-012 7.9999999999960067 -7.441297385485716e-015 1 -4.3931790588240511e-016 -4.0000000000000657 5.5511151231257827e-014 6.9388939039073365e-015 1 I I #
-372 coedge $-1 -1 -1 $-1 $375 $298 $356 $414 reversed $300 $-1 #
-373 edge $-1 -1 -1 $-1 $301 0 $415 0.0048000012755393872 $298 $423 forward @7 unknown F #
-374 coedge $-1 -1 -1 $-1 $299 $424 $344 $404 forward $300 $-1 #
-375 coedge $-1 -1 -1 $-1 $390 $372 $409 $425 reversed $300 $-1 #
-376 point $-1 -1 -1 $-1 -3.858247055177344e-012 1.9895196601282805e-012 7.9999999999961062 #
-377 vertex $-1 -1 -1 $-1 $346 $426 #
-378 straight-curve $-1 -1 -1 $-1 -1.9895196601282805e-012 18.70000255107874 -4.2916781239910051e-012 7.8123611799934376e-012 -1000 4.3931790588240803e-013 I I #
-379 vertex $-1 -1 -1 $-1 $346 $427 #
-380 straight-curve $-1 -1 -1 $-1 23.599999999998023 18.70000255107874 -4.0358827391173691e-012 -7.2557654882318542e-012 1000 -4.3931790588240858e-013 I I #
-381 edge $-1 -1 -1 $-1 $370 0 $358 0.0048000012755393872 $368 $428 forward @7 unknown F #
-382 edge $-1 -1 -1 $-1 $363 0 $359 0.00480000127553933 $315 $429 forward @7 unknown F #
-383 straight-curve $-1 -1 -1 $-1 7.9999999999980815 13.90000127553941 3.9999999999954952 -7.4412973854857154e-012 1000 -4.393179058824051e-013 I I #
-384 coedge $-1 -1 -1 $-1 $320 $403 $322 $387 forward $216 $-1 #
-385 vertex $-1 -1 -1 $-1 $366 $430 #
-386 straight-curve $-1 -1 -1 $-1 -3.3111291486420669e-012 18.70000255107874 3.9999999999957794 -1000 7.4412973854855974e-012 7.6327832942978371e-013 I I #
-387 edge $-1 -1 -1 $-1 $431 0 $324 0.0040000000000000001 $384 $432 forward @7 unknown F #
-388 point $-1 -1 -1 $-1 7.9999999999980815 13.90000127553941 3.9999999999954952 #
-389 point $-1 -1 -1 $-1 7.9999999999980247 18.70000255107874 3.9999999999956231 #
-390 coedge $-1 -1 -1 $-1 $424 $375 $335 $391 reversed $300 $-1 #
-391 edge $-1 -1 -1 $-1 $394 -0.0040000000000003835 $433 0.0014999999999999432 $335 $434 forward @7 unknown F #
-392 coedge $-1 -1 -1 $-1 $435 $336 $341 $401 forward $309 $-1 #
-393 coedge $-1 -1 -1 $-1 $336 $435 $424 $436 reversed $309 $-1 #
-394 vertex $-1 -1 -1 $-1 $337 $437 #
-395 ellipse-curve $-1 -1 -1 $-1 3.9999999999961418 13.90000127553941 7.9999999999956231 7.441297385485716e-015 -1 4.3931790588240511e-016 -4.0000000000000657 5.5511151231257827e-014 -3.67761376907083e-013 1 I I #
-396 coedge $-1 -1 -1 $-1 $409 $438 $338 $397 forward $351 $-1 #
-397 edge $-1 -1 -1 $-1 $399 -0.0080000000000011728 $433 0 $396 $439 forward @7 unknown F #
-398 coedge $-1 -1 -1 $-1 $354 $339 $438 $440 reversed $283 $-1 #
-399 vertex $-1 -1 -1 $-1 $340 $441 #
-400 straight-curve $-1 -1 -1 $-1 7.9999999999980815 13.90000127553941 2.4999999999953104 2.7061686225238122e-012 -4.3931790588240752e-013 1000 I I #
-401 edge $-1 -1 -1 $-1 $342 0.01390000127553742 $431 0.01870000255107675 $392 $442 forward @7 unknown F #
-402 point $-1 -1 -1 $-1 7.9999999999967031 13.90000127553941 7.9999999999955094 #
-403 coedge $-1 -1 -1 $-1 $384 $344 $435 $443 forward $216 $-1 #
-404 edge $-1 -1 -1 $-1 $444 -0.0040000000000003271 $377 0.0040000000000000712 $374 $445 forward @7 unknown F #
-405 edge $-1 -1 -1 $-1 $385 0 $379 0.004000000000000014 $345 $446 forward @7 unknown F #
-406 straight-curve $-1 -1 -1 $-1 -1.9895196601282805e-012 18.70000255107874 -4.2916781239910051e-012 -1000 7.4412973854855974e-012 7.6327832942978371e-013 I I #
-407 integer_attrib-name_attrib-gen-attrib $-1 -1 $-1 $-1 $350 2 1 2 1 1 1 1 1 1 1 1 1 1 1 0 1 1 1 @25 Stock-lower cross brace-1 0 #
-408 plane-surface $-1 -1 -1 $-1 13.599999999998012 9.3500012755411035 0.59999999999590159 7.6327832942978033e-016 -4.3931790588239303e-016 1 1000.0000000000156 -7.4412973854857121e-012 -7.6327832942979553e-013 forward_v I I I I #
-409 coedge $-1 -1 -1 $-1 $410 $396 $375 $425 forward $351 $-1 #
-410 coedge $-1 -1 -1 $-1 $438 $409 $353 $411 forward $351 $-1 #
-411 edge $-1 -1 -1 $-1 $447 0 $412 0.0080000000000011728 $410 $448 forward @7 unknown F #
-412 vertex $-1 -1 -1 $-1 $355 $449 #
-413 straight-curve $-1 -1 -1 $-1 7.9999999999980815 4.8000012755410353 2.4999999999953104 2.7061686225238122e-012 -4.3931790588240752e-013 1000 I I #
-414 edge $-1 -1 -1 $-1 $447 -0.0014999999999999432 $415 0.0040000000000003835 $356 $450 forward @7 unknown F #
-415 vertex $-1 -1 -1 $-1 $357 $451 #
-416 ellipse-curve $-1 -1 -1 $-1 3.9999999999961418 4.8000012755413763 7.9999999999956231 -7.441297385485716e-015 1 -4.3931790588240511e-016 4.0000000000000657 -5.5511151231257827e-014 1.1796119636642278e-013 1 I I #
-417 point $-1 -1 -1 $-1 7.9999999999967031 4.8000012755413763 7.9999999999955094 #
-418 point $-1 -1 -1 $-1 7.9999999999980815 4.8000012755410353 3.9999999999954952 #
-419 straight-curve $-1 -1 -1 $-1 7.9999999999967031 1.9895196601282805e-012 7.9999999999956231 -2.7061686225238122e-012 4.3931790588240752e-013 -1000 I I #
-420 point $-1 -1 -1 $-1 7.9999999999980247 1.7053025658242404e-012 3.9999999999956231 #
-421 straight-curve $-1 -1 -1 $-1 23.59999999999803 18.70000255107874 3.9999999999959783 -7.2557654882318542e-012 1000 -4.3931790588240858e-013 I I #
-422 point $-1 -1 -1 $-1 7.9999999999967031 1.9895196601282805e-012 7.9999999999956231 #
-423 straight-curve $-1 -1 -1 $-1 -3.858247055177344e-012 1.9895196601282805e-012 7.9999999999961062 -7.4412973854857154e-012 1000 -4.393179058824051e-013 I I #
-424 coedge $-1 -1 -1 $-1 $374 $390 $393 $436 forward $300 $-1 #
-425 edge $-1 -1 -1 $-1 $433 0 $447 0.009099999999998375 $409 $452 forward @7 unknown F #
-426 point $-1 -1 -1 $-1 -1.9895196601282805e-012 18.70000255107874 -4.2916781239910051e-012 #
-427 point $-1 -1 -1 $-1 23.599999999998023 18.70000255107874 -4.0358827391173691e-012 #
-428 straight-curve $-1 -1 -1 $-1 7.9999999999967031 1.9895196601282805e-012 7.9999999999956231 -7.4412973854857154e-012 1000 -4.393179058824051e-013 I I #
-429 straight-curve $-1 -1 -1 $-1 7.9999999999980247 1.7053025658242404e-012 3.9999999999956231 -7.4412973854857154e-012 1000 -4.393179058824051e-013 I I #
-430 point $-1 -1 -1 $-1 23.59999999999803 18.70000255107874 3.9999999999959783 #
-431 vertex $-1 -1 -1 $-1 $401 $453 #
-432 straight-curve $-1 -1 -1 $-1 7.9999999999967031 18.70000255107874 7.9999999999956231 -2.7061686225238122e-012 4.3931790588240752e-013 -1000 I I #
-433 vertex $-1 -1 -1 $-1 $391 $454 #
-434 straight-curve $-1 -1 -1 $-1 -3.0908609005564358e-012 13.90000127553941 3.9999999999956373 -2.7061686225238122e-012 4.3931790588240752e-013 -1000 I I #
-435 coedge $-1 -1 -1 $-1 $393 $392 $403 $443 reversed $309 $-1 #
-436 edge $-1 -1 -1 $-1 $394 0.01390000127553742 $444 0.01870000255107675 $424 $455 forward @7 unknown F #
-437 point $-1 -1 -1 $-1 -3.694822225952521e-012 13.90000127553941 7.999999999996021 #
-438 coedge $-1 -1 -1 $-1 $396 $410 $398 $440 forward $351 $-1 #
-439 straight-curve $-1 -1 -1 $-1 -3.0908609005564358e-012 13.90000127553941 2.4999999999956941 -1000 7.4412973854855974e-012 7.6327832942978371e-013 I I #
-440 edge $-1 -1 -1 $-1 $412 -0.009099999999998375 $399 0 $438 $456 forward @7 unknown F #
-441 point $-1 -1 -1 $-1 7.9999999999980815 13.90000127553941 2.4999999999953104 #
-442 straight-curve $-1 -1 -1 $-1 7.9999999999967031 1.9895196601282805e-012 7.9999999999956231 -7.4412973854857154e-012 1000 -4.393179058824051e-013 I I #
-443 edge $-1 -1 -1 $-1 $444 2.3134272275626283e-014 $431 3.1415926535898873 $403 $457 forward @7 unknown F #
-444 vertex $-1 -1 -1 $-1 $436 $458 #
-445 straight-curve $-1 -1 -1 $-1 -3.3111291486420669e-012 18.70000255107874 3.9999999999957794 -2.7061686225238122e-012 4.3931790588240752e-013 -1000 I I #
-446 straight-curve $-1 -1 -1 $-1 23.59999999999803 18.70000255107874 3.9999999999959783 -2.7061686225238122e-012 4.3931790588240752e-013 -1000 I I #
-447 vertex $-1 -1 -1 $-1 $414 $459 #
-448 straight-curve $-1 -1 -1 $-1 -3.0908609005564358e-012 4.8000012755410353 2.4999999999956941 1000 -7.4412973854855974e-012 -7.6327832942978371e-013 I I #
-449 point $-1 -1 -1 $-1 7.9999999999980815 4.8000012755410353 2.4999999999953104 #
-450 straight-curve $-1 -1 -1 $-1 -3.0908609005564358e-012 4.8000012755410353 3.9999999999956373 2.7061686225238122e-012 -4.3931790588240752e-013 1000 I I #
-451 point $-1 -1 -1 $-1 -3.694822225952521e-012 4.8000012755413763 7.999999999996021 #
-452 straight-curve $-1 -1 -1 $-1 -3.0908609005564358e-012 13.90000127553941 2.4999999999956941 7.4412973854857154e-012 -1000 4.393179058824051e-013 I I #
-453 point $-1 -1 -1 $-1 7.9999999999967031 18.70000255107874 7.9999999999956231 #
-454 point $-1 -1 -1 $-1 -3.0908609005564358e-012 13.90000127553941 2.4999999999956941 #
-455 straight-curve $-1 -1 -1 $-1 -3.858247055177344e-012 1.9895196601282805e-012 7.9999999999961062 -7.4412973854857154e-012 1000 -4.393179058824051e-013 I I #
-456 straight-curve $-1 -1 -1 $-1 7.9999999999980815 13.90000127553941 2.4999999999953104 -7.4412973854857154e-012 1000 -4.393179058824051e-013 I I #
-457 ellipse-curve $-1 -1 -1 $-1 3.9999999999961418 18.70000255107874 7.9999999999960067 -7.441297385485716e-015 1 -4.3931790588240511e-016 -4.0000000000000657 5.5511151231257827e-014 6.9388939039073365e-015 1 I I #
-458 point $-1 -1 -1 $-1 -3.858247055177344e-012 18.70000255107874 7.9999999999961062 #
-459 point $-1 -1 -1 $-1 -3.0908609005564358e-012 4.8000012755410353 2.4999999999956941 #
End-of-ACIS-data 