2200 0 1 0           
15 SolidWorks 2017 12 ACIS 22.0 NT 24 Sun Dec 31 11:06:54 2017 
1 9.9999999999999995e-007 1e-010 
-0 body $1 -1 -1 $-1 $2 $-1 $-1 F #
-1 name_attrib-gen-attrib $-1 -1 $-1 $-1 $0 2 1 1 1 1 1 1 1 1 1 1 1 1 1 0 1 1 1 @12 control knob #
-2 lump $3 -1 -1 $-1 $-1 $4 $0 F #
-3 rgb_color-st-attrib $-1 -1 $-1 $-1 $2 2 1 2 1 1 1 1 1 1 1 1 1 1 1 0 1 1 1 1 0.93725490196078431 0.13725490196078433 #
-4 shell $-1 -1 -1 $-1 $-1 $-1 $5 $-1 $2 F #
-5 face $6 -1 -1 $-1 $7 $8 $4 $-1 $9 reversed single F T -3.5839901429208855e-016 4.2833607907741911 -3.1415926535897931 7.6571373978541355e-016 #
-6 integer_attrib-name_attrib-gen-attrib $-1 -1 $-1 $-1 $5 2 1 2 1 1 1 1 1 1 1 1 1 1 1 0 1 1 1 @6 Draft1 0 #
-7 face $10 -1 -1 $-1 $11 $12 $4 $-1 $13 forward single F T -3.9907105883899214e-016 2.3622961331982113 -3.6925142476360035e-016 3.1415926535897931 #
-8 loop $-1 -1 -1 $-1 $-1 $14 $5 F unknown #
-9 cone-surface $-1 -1 -1 $-1 -7.2164496600635175e-013 -5.8286708792820718e-013 12.999999999999456 9.4368957093139016e-016 3.6082248300317859e-016 -1 -3.0349999999999504 1.6321145823728979e-016 -1.7347234759768071e-015 1 I I 0 1 3.0349999999999504 forward I I I I #
-10 integer_attrib-name_attrib-gen-attrib $-1 -1 $-1 $-1 $7 2 1 2 1 1 1 1 1 1 1 1 1 1 1 0 1 1 1 @6 Draft1 0 #
-11 face $15 -1 -1 $-1 $16 $17 $4 $-1 $18 reversed single F F #
-12 loop $-1 -1 -1 $-1 $-1 $19 $7 F unknown #
-13 cone-surface $-1 -1 -1 $-1 -3.3306690738754696e-013 -8.6042284408449632e-013 15.399999999999913 9.4368957093139016e-016 3.6082248300317859e-016 -1 -6.5349999999998634 3.5142895538075995e-016 -3.4694469519536142e-015 1 I I 0.069756473744125469 0.99756405025982431 6.5349999999998634 forward I I I I #
-14 coedge $-1 -1 -1 $-1 $20 $21 $22 $23 forward $8 $-1 #
-15 integer_attrib-name_attrib-gen-attrib $-1 -1 $-1 $-1 $11 2 1 2 1 1 1 1 1 1 1 1 1 1 1 0 1 1 1 @6 Draft1 0 #
-16 face $24 -1 -1 $-1 $25 $26 $4 $-1 $27 forward single F T -3.9907105883899214e-016 2.3622961331982113 -3.1415926535897931 1.0052651794400328e-029 #
-17 loop $-1 -1 -1 $-1 $28 $29 $11 F unknown #
-18 plane-surface $-1 -1 -1 $-1 0 0 0 -4.7184478546570169e-016 -3.6082248300317859e-016 1 999.99999999997851 -5.377642775528102e-014 4.7184478546569153e-013 forward_v I I I I #
-19 coedge $-1 -1 -1 $-1 $30 $31 $32 $33 forward $12 $-1 #
-20 coedge $-1 -1 -1 $-1 $34 $14 $35 $36 forward $8 $-1 #
-21 coedge $-1 -1 -1 $-1 $14 $34 $37 $38 reversed $8 $-1 #
-22 coedge $-1 -1 -1 $-1 $39 $39 $14 $23 reversed $40 $-1 #
-23 edge $-1 -1 -1 $-1 $41 -3.141592653589794 $42 8.9523111797751126e-016 $14 $43 forward @7 unknown F #
-24 integer_attrib-name_attrib-gen-attrib $-1 -1 $-1 $-1 $16 2 1 2 1 1 1 1 1 1 1 1 1 1 1 0 1 1 1 @6 Draft1 0 #
-25 face $44 -1 -1 $-1 $45 $46 $4 $-1 $47 reversed single F T -3.5839901429208845e-016 4.2833607907741911 -3.32964534467069e-016 3.141592653589794 #
-26 loop $-1 -1 -1 $-1 $-1 $48 $16 F unknown #
-27 cone-surface $-1 -1 -1 $-1 -3.3306690738754696e-013 -8.6042284408449632e-013 15.399999999999913 9.4368957093139016e-016 3.6082248300317859e-016 -1 -6.5349999999998634 3.5142895538075995e-016 -3.4694469519536142e-015 1 I I 0.069756473744125469 0.99756405025982431 6.5349999999998634 forward I I I I #
-28 loop $-1 -1 -1 $-1 $-1 $49 $11 F unknown #
-29 coedge $-1 -1 -1 $-1 $50 $50 $51 $52 reversed $17 $-1 #
-30 coedge $-1 -1 -1 $-1 $53 $19 $48 $54 forward $12 $-1 #
-31 coedge $-1 -1 -1 $-1 $19 $53 $55 $56 reversed $12 $-1 #
-32 coedge $-1 -1 -1 $-1 $57 $57 $19 $33 reversed $58 $-1 #
-33 edge $-1 -1 -1 $-1 $59 5.6905387312911289e-030 $60 3.1415926535897922 $19 $61 forward @7 unknown F #
-34 coedge $-1 -1 -1 $-1 $21 $20 $49 $62 reversed $8 $-1 #
-35 coedge $-1 -1 -1 $-1 $63 $64 $20 $36 reversed $46 $-1 #
-36 edge $-1 -1 -1 $-1 $42 -1.7763568394001877e-018 $65 0.012999999999999455 $20 $66 forward @7 unknown F #
-37 coedge $-1 -1 -1 $-1 $64 $63 $21 $38 forward $46 $-1 #
-38 edge $-1 -1 -1 $-1 $41 1.7763568394001893e-018 $67 0.012999999999999458 $37 $68 forward @7 unknown F #
-39 coedge $-1 -1 -1 $-1 $22 $22 $63 $69 reversed $40 $-1 #
-40 loop $-1 -1 -1 $-1 $-1 $22 $45 F unknown #
-41 vertex $-1 -1 -1 $-1 $69 $70 #
-42 vertex $-1 -1 -1 $-1 $36 $71 #
-43 ellipse-curve $-1 -1 -1 $-1 -7.2164496600635175e-013 -5.8286708792820718e-013 12.999999999999456 -9.4368957093139016e-016 -3.6082248300317859e-016 1 3.0349999999999504 -1.6321145823728979e-016 1.7347234759768071e-015 1 I I #
-44 integer_attrib-name_attrib-gen-attrib $-1 -1 $-1 $-1 $25 2 1 2 1 1 1 1 1 1 1 1 1 1 1 0 1 1 1 @6 Draft1 0 #
-45 face $72 -1 -1 $-1 $73 $40 $4 $-1 $74 forward single F F #
-46 loop $-1 -1 -1 $-1 $-1 $35 $25 F unknown #
-47 cone-surface $-1 -1 -1 $-1 -7.2164496600635175e-013 -5.8286708792820718e-013 12.999999999999456 9.4368957093139016e-016 3.6082248300317859e-016 -1 -3.0349999999999504 1.6321145823728979e-016 -1.7347234759768071e-015 1 I I 0 1 3.0349999999999504 forward I I I I #
-48 coedge $-1 -1 -1 $-1 $75 $51 $30 $54 reversed $26 $-1 #
-49 coedge $-1 -1 -1 $-1 $76 $76 $34 $62 forward $28 $-1 #
-50 coedge $-1 -1 -1 $-1 $29 $29 $53 $77 reversed $17 $-1 #
-51 coedge $-1 -1 -1 $-1 $48 $55 $29 $52 forward $26 $-1 #
-52 edge $-1 -1 -1 $-1 $78 -3.1415926535896803 $79 -1.1218447851732748e-013 $51 $80 forward @7 unknown F #
-53 coedge $-1 -1 -1 $-1 $31 $30 $50 $77 forward $12 $-1 #
-54 edge $-1 -1 -1 $-1 $60 6.2450193021601646e-018 $79 0.015437605230449953 $30 $81 forward @7 unknown F #
-55 coedge $-1 -1 -1 $-1 $51 $75 $31 $56 forward $26 $-1 #
-56 edge $-1 -1 -1 $-1 $59 0 $78 0.015437605230449966 $55 $82 forward @7 unknown F #
-57 coedge $-1 -1 -1 $-1 $32 $32 $75 $83 reversed $58 $-1 #
-58 loop $-1 -1 -1 $-1 $-1 $32 $73 F unknown #
-59 vertex $-1 -1 -1 $-1 $83 $84 #
-60 vertex $-1 -1 -1 $-1 $54 $85 #
-61 ellipse-curve $-1 -1 -1 $-1 -3.3306690738754696e-013 -8.6042284408449632e-013 15.399999999999913 9.4368957093139016e-016 3.6082248300317859e-016 -1 -6.5349999999998634 3.5142895538075995e-016 -3.4694469519536142e-015 1 I I #
-62 edge $-1 -1 -1 $-1 $67 -3.1415926535896022 $65 -1.9115323277933835e-013 $49 $86 forward @7 unknown F #
-63 coedge $-1 -1 -1 $-1 $37 $35 $39 $69 forward $46 $-1 #
-64 coedge $-1 -1 -1 $-1 $35 $37 $76 $87 reversed $46 $-1 #
-65 vertex $-1 -1 -1 $-1 $36 $88 #
-66 straight-curve $-1 -1 -1 $-1 3.0349999999992288 -5.8265861908290331e-013 12.999999999999458 9.4368957093139013e-013 3.608224830031786e-013 -1000 I I #
-67 vertex $-1 -1 -1 $-1 $87 $89 #
-68 straight-curve $-1 -1 -1 $-1 -3.035000000000672 -5.8270387646996987e-013 12.999999999999455 9.4368957093139013e-013 3.608224830031786e-013 -1000 I I #
-69 edge $-1 -1 -1 $-1 $42 8.9523111797751126e-016 $41 3.1415926535897922 $63 $90 forward @7 unknown F #
-70 point $-1 -1 -1 $-1 -3.0350000000007378 -5.8035853033044933e-013 12.999999999999453 #
-71 point $-1 -1 -1 $-1 3.0349999999992945 -5.8031327294338267e-013 12.99999999999946 #
-72 integer_attrib-name_attrib-gen-attrib $-1 -1 $-1 $-1 $45 2 1 2 1 1 1 1 1 1 1 1 1 1 1 0 1 1 1 @6 Draft1 0 #
-73 face $91 -1 -1 $-1 $-1 $58 $4 $-1 $92 reversed single F F #
-74 plane-surface $-1 -1 -1 $-1 -7.2164496600635175e-013 -5.8286708792820718e-013 12.999999999999456 4.7184478546570169e-016 3.6082248300317859e-016 -1 -999.99999999997851 5.377642775528102e-014 -4.7184478546569153e-013 forward_v I I I I #
-75 coedge $-1 -1 -1 $-1 $55 $48 $57 $83 forward $26 $-1 #
-76 coedge $-1 -1 -1 $-1 $49 $49 $64 $87 forward $28 $-1 #
-77 edge $-1 -1 -1 $-1 $79 -1.1218447851732748e-013 $78 3.1415926535899059 $53 $93 forward @7 unknown F #
-78 vertex $-1 -1 -1 $-1 $77 $94 #
-79 vertex $-1 -1 -1 $-1 $54 $95 #
-80 ellipse-curve $-1 -1 -1 $-1 0 0 0 -9.4368957093139016e-016 -3.6082248300317859e-016 1 7.6118729039299016 -4.0933933330057631e-016 3.5916225373469923e-015 1 I I #
-81 straight-curve $-1 -1 -1 $-1 6.5349999999995303 -8.5997396635663427e-013 15.399999999999917 69.756473744125458 3.6473498782774821e-013 -997.56405025982463 I I #
-82 straight-curve $-1 -1 -1 $-1 -6.5350000000001964 -8.6007141512911552e-013 15.39999999999991 -69.756473744123554 3.6369479154022166e-013 -997.5640502598244 I I #
-83 edge $-1 -1 -1 $-1 $60 -3.141592653589794 $59 5.6905387312911289e-030 $75 $96 forward @7 unknown F #
-84 point $-1 -1 -1 $-1 -6.5350000000001964 -8.6007141512911552e-013 15.39999999999991 #
-85 point $-1 -1 -1 $-1 6.5349999999996706 -8.5715864897872536e-013 15.39999999999992 #
-86 ellipse-curve $-1 -1 -1 $-1 0 0 0 -9.4368957093139016e-016 -3.6082248300317859e-016 1 3.0349999999999504 -1.6321145823727877e-016 1.4320489238883815e-015 1 I I #
-87 edge $-1 -1 -1 $-1 $65 -1.9115323277933835e-013 $67 3.1415926535899841 $76 $97 forward @7 unknown F #
-88 point $-1 -1 -1 $-1 3.0350000000000161 -5.8031327294353221e-013 2.8640978477780302e-015 #
-89 point $-1 -1 -1 $-1 -3.0350000000000161 -5.8035853033039409e-013 -2.8640978477754672e-015 #
-90 ellipse-curve $-1 -1 -1 $-1 -7.2164496600635175e-013 -5.8286708792820718e-013 12.999999999999456 -9.4368957093139016e-016 -3.6082248300317859e-016 1 3.0349999999999504 -1.6321145823728979e-016 1.7347234759768071e-015 1 I I #
-91 integer_attrib-name_attrib-gen-attrib $-1 -1 $-1 $-1 $73 2 1 2 1 1 1 1 1 1 1 1 1 1 1 0 1 1 1 @6 Draft1 0 #
-92 plane-surface $-1 -1 -1 $-1 -3.3306690738754696e-013 -8.6042284408449632e-013 15.399999999999913 4.7184478546570169e-016 3.6082248300317859e-016 -1 -999.99999999997851 5.377642775528102e-014 -4.7184478546569153e-013 forward_v I I I I #
-93 ellipse-curve $-1 -1 -1 $-1 0 0 0 -9.4368957093139016e-016 -3.6082248300317859e-016 1 7.6118729039299016 -4.0933933330057631e-016 3.5916225373469923e-015 1 I I #
-94 point $-1 -1 -1 $-1 -7.611872903930224 -8.5445683851294685e-013 -1.0408340855860843e-014 #
-95 point $-1 -1 -1 $-1 7.6118729039295863 -8.5434333160081654e-013 6.9388939039072284e-015 #
-96 ellipse-curve $-1 -1 -1 $-1 -3.3306690738754696e-013 -8.6042284408449632e-013 15.399999999999913 9.4368957093139016e-016 3.6082248300317859e-016 -1 -6.5349999999998634 3.5142895538075995e-016 -3.4694469519536142e-015 1 I I #
-97 ellipse-curve $-1 -1 -1 $-1 0 0 0 -9.4368957093139016e-016 -3.6082248300317859e-016 1 3.0349999999999504 -1.6321145823727877e-016 1.4320489238883815e-015 1 I I #
End-of-ACIS-data 