2200 0 1 0           
15 SolidWorks 2017 12 ACIS 22.0 NT 24 Sun Dec 31 11:06:53 2017 
1 9.9999999999999995e-007 1e-010 
-0 body $1 -1 -1 $-1 $2 $-1 $-1 F #
-1 name_attrib-gen-attrib $-1 -1 $-1 $-1 $0 2 1 1 1 1 1 1 1 1 1 1 1 1 1 0 1 1 1 @24 display mount-rear cover #
-2 lump $3 -1 -1 $-1 $-1 $4 $0 F #
-3 rgb_color-st-attrib $-1 -1 $-1 $-1 $2 2 1 2 1 1 1 1 1 1 1 1 1 1 1 0 1 1 1 0.29803921568627451 0.29803921568627451 0.29803921568627451 #
-4 shell $-1 -1 -1 $-1 $-1 $-1 $5 $-1 $2 F #
-5 face $6 -1 -1 $-1 $7 $8 $4 $-1 $9 reversed single F T -0.9230769230767577 4.7016109951172698e-028 -3.1415926535897931 5.4657133519997213e-013 #
-6 integer_attrib-name_attrib-gen-attrib $-1 -1 $-1 $-1 $5 2 1 2 1 1 1 1 1 1 1 1 1 1 1 0 1 1 1 @21 Stock-display mount-1 0 #
-7 face $10 -1 -1 $-1 $11 $12 $4 $-1 $13 reversed single F T -2.941176470587858 -1.7647058823526314 -3.1415926535897931 1.044915787882176e-012 #
-8 loop $-1 -1 -1 $-1 $-1 $14 $5 F unknown #
-9 cone-surface $-1 -1 -1 $-1 -115.50000000000244 -7.0000000000002558 7.8870243669371121e-013 -4.7016109951172671e-028 3.202775275197333e-028 -1 -3.2500000000001972 0 0 1 I I 0 1 3.2500000000001972 forward I I I I #
-10 integer_attrib-name_attrib-gen-attrib $-1 -1 $-1 $-1 $7 2 1 2 1 1 1 1 1 1 1 1 1 1 1 0 1 1 1 @21 Stock-display mount-1 0 #
-11 face $15 -1 -1 $-1 $16 $17 $4 $-1 $18 reversed single F T -0.92307692307686706 4.7016109951172698e-028 -3.1415926535897931 2.9564079463358183e-028 #
-12 loop $-1 -1 -1 $-1 $-1 $19 $7 F unknown #
-13 cone-surface $-1 -1 -1 $-1 -115.50000000000244 -7.0000000000002558 7.8870243669371121e-013 -4.7016109951172671e-028 3.202775275197333e-028 -1 -1.7000000000000972 0 0 1 I I 0 1 1.7000000000000972 forward I I I I #
-14 coedge $-1 -1 -1 $-1 $20 $21 $22 $23 reversed $8 $-1 #
-15 integer_attrib-name_attrib-gen-attrib $-1 -1 $-1 $-1 $11 2 1 2 1 1 1 1 1 1 1 1 1 1 1 0 1 1 1 @21 Stock-display mount-1 0 #
-16 face $24 -1 -1 $-1 $25 $26 $4 $-1 $27 reversed single F T -2.9411764705880672 -1.7647058823528403 -3.1415926535897931 9.4199272799915898e-028 #
-17 loop $-1 -1 -1 $-1 $-1 $28 $11 F unknown #
-18 cone-surface $-1 -1 -1 $-1 -115.50000000000315 -93.250000184189631 7.1054273576010019e-013 -4.7016109951172671e-028 3.202775275197333e-028 -1 -3.2500000000001972 0 0 1 I I 0 1 3.2500000000001972 forward I I I I #
-19 coedge $-1 -1 -1 $-1 $29 $30 $31 $32 reversed $12 $-1 #
-20 coedge $-1 -1 -1 $-1 $33 $14 $34 $35 forward $8 $-1 #
-21 coedge $-1 -1 -1 $-1 $14 $33 $36 $37 reversed $8 $-1 #
-22 coedge $-1 -1 -1 $-1 $38 $38 $14 $23 forward $39 $-1 #
-23 edge $-1 -1 -1 $-1 $40 -3.1415926535892469 $41 0 $22 $42 forward @7 unknown F #
-24 integer_attrib-name_attrib-gen-attrib $-1 -1 $-1 $-1 $16 2 1 2 1 1 1 1 1 1 1 1 1 1 1 0 1 1 1 @21 Stock-display mount-1 0 #
-25 face $43 -1 -1 $-1 $44 $45 $4 $-1 $46 reversed single F T -0.92307692307686706 4.7016109951172671e-028 -3.1415926535897931 2.9564079463358246e-028 #
-26 loop $-1 -1 -1 $-1 $-1 $47 $16 F unknown #
-27 cone-surface $-1 -1 -1 $-1 -115.50000000000315 -93.250000184189631 7.1054273576010019e-013 -4.7016109951172671e-028 3.202775275197333e-028 -1 -1.7000000000000972 0 0 1 I I 0 1 1.7000000000000972 forward I I I I #
-28 coedge $-1 -1 -1 $-1 $48 $49 $50 $51 reversed $17 $-1 #
-29 coedge $-1 -1 -1 $-1 $52 $19 $53 $54 forward $12 $-1 #
-30 coedge $-1 -1 -1 $-1 $19 $52 $55 $56 reversed $12 $-1 #
-31 coedge $-1 -1 -1 $-1 $57 $57 $19 $32 forward $58 $-1 #
-32 edge $-1 -1 -1 $-1 $59 -3.1415926535896928 $60 0 $31 $61 forward @7 unknown F #
-33 coedge $-1 -1 -1 $-1 $21 $20 $62 $63 forward $8 $-1 #
-34 coedge $-1 -1 -1 $-1 $64 $65 $20 $35 reversed $66 $-1 #
-35 edge $-1 -1 -1 $-1 $40 -0.0029999999999996449 $67 9.3539475090610919e-044 $20 $68 forward @7 unknown F #
-36 coedge $-1 -1 -1 $-1 $65 $64 $21 $37 forward $66 $-1 #
-37 edge $-1 -1 -1 $-1 $41 -0.0029999999999996449 $69 0 $36 $70 forward @7 unknown F #
-38 coedge $-1 -1 -1 $-1 $22 $22 $64 $71 forward $39 $-1 #
-39 loop $-1 -1 -1 $-1 $-1 $38 $72 F unknown #
-40 vertex $-1 -1 -1 $-1 $35 $73 #
-41 vertex $-1 -1 -1 $-1 $23 $74 #
-42 ellipse-curve $-1 -1 -1 $-1 -115.50000000000287 -6.9999999999984794 3.0000000000004334 -4.7016109951172671e-028 3.202775275197333e-028 -1 -3.2500000000001972 0 0 1 I I #
-43 integer_attrib-name_attrib-gen-attrib $-1 -1 $-1 $-1 $25 2 1 2 1 1 1 1 1 1 1 1 1 1 1 0 1 1 1 @21 Stock-display mount-1 0 #
-44 face $75 -1 -1 $-1 $76 $77 $4 $-1 $78 reversed single F T -2.9411764705880672 -1.7647058823528403 -3.1415926535897931 9.4199272799916293e-028 #
-45 loop $-1 -1 -1 $-1 $-1 $79 $25 F unknown #
-46 cone-surface $-1 -1 -1 $-1 -3.4999999999965112 -93.250000184189972 3.765876499528531e-013 -4.7016109951172671e-028 3.202775275197333e-028 -1 -3.2500000000001972 0 0 1 I I 0 1 3.2500000000001972 forward I I I I #
-47 coedge $-1 -1 -1 $-1 $80 $81 $82 $83 reversed $26 $-1 #
-48 coedge $-1 -1 -1 $-1 $84 $28 $85 $86 forward $17 $-1 #
-49 coedge $-1 -1 -1 $-1 $28 $84 $87 $88 reversed $17 $-1 #
-50 coedge $-1 -1 -1 $-1 $89 $89 $28 $51 forward $90 $-1 #
-51 edge $-1 -1 -1 $-1 $91 -3.1415926535901342 $92 0 $50 $93 forward @7 unknown F #
-52 coedge $-1 -1 -1 $-1 $30 $29 $94 $95 forward $12 $-1 #
-53 coedge $-1 -1 -1 $-1 $96 $97 $29 $54 reversed $98 $-1 #
-54 edge $-1 -1 -1 $-1 $59 -0.0049999999999996445 $99 -0.0029999999999996449 $29 $100 forward @7 unknown F #
-55 coedge $-1 -1 -1 $-1 $97 $96 $30 $56 forward $98 $-1 #
-56 edge $-1 -1 -1 $-1 $60 -0.0049999999999996445 $101 -0.0029999999999996449 $55 $102 forward @7 unknown F #
-57 coedge $-1 -1 -1 $-1 $31 $31 $96 $103 forward $58 $-1 #
-58 loop $-1 -1 -1 $-1 $104 $57 $105 F unknown #
-59 vertex $-1 -1 -1 $-1 $54 $106 #
-60 vertex $-1 -1 -1 $-1 $32 $107 #
-61 ellipse-curve $-1 -1 -1 $-1 -115.50000000000244 -7.0000000000000853 5.0000000000004334 -4.7016109951172671e-028 3.202775275197333e-028 -1 -1.7000000000000972 0 0 1 I I #
-62 coedge $-1 -1 -1 $-1 $108 $108 $33 $63 reversed $109 $-1 #
-63 edge $-1 -1 -1 $-1 $67 -3.1415926535897931 $69 1.4926045751994025e-055 $33 $110 forward @7 unknown F #
-64 coedge $-1 -1 -1 $-1 $36 $34 $38 $71 reversed $66 $-1 #
-65 coedge $-1 -1 -1 $-1 $34 $36 $108 $111 forward $66 $-1 #
-66 loop $-1 -1 -1 $-1 $-1 $34 $112 F unknown #
-67 vertex $-1 -1 -1 $-1 $35 $113 #
-68 straight-curve $-1 -1 -1 $-1 -112.25000000000225 -7.0000000000002558 7.8870243669371121e-013 -4.7016109951172671e-025 3.2027752751973332e-025 -1000 I I #
-69 vertex $-1 -1 -1 $-1 $63 $114 #
-70 straight-curve $-1 -1 -1 $-1 -118.75000000000264 -7.0000000000002558 7.8870243669371121e-013 -4.7016109951172671e-025 3.2027752751973332e-025 -1000 I I #
-71 edge $-1 -1 -1 $-1 $41 0 $40 3.1415926535903393 $38 $115 forward @7 unknown F #
-72 face $116 -1 -1 $-1 $112 $117 $4 $-1 $118 reversed single F F #
-73 point $-1 -1 -1 $-1 -112.25000000000287 -7.0000000000002558 3.0000000000004334 #
-74 point $-1 -1 -1 $-1 -118.75000000000307 -6.9999999999984794 3.0000000000004334 #
-75 integer_attrib-name_attrib-gen-attrib $-1 -1 $-1 $-1 $44 2 1 2 1 1 1 1 1 1 1 1 1 1 1 0 1 1 1 @21 Stock-display mount-1 0 #
-76 face $119 -1 -1 $-1 $120 $121 $4 $-1 $122 reversed single F T -0.92307692307686706 4.7016109951172671e-028 -3.1415926535897931 6.9961130905603356e-013 #
-77 loop $-1 -1 -1 $-1 $-1 $123 $44 F unknown #
-78 cone-surface $-1 -1 -1 $-1 -3.4999999999965112 -93.250000184189972 3.765876499528531e-013 -4.7016109951172671e-028 3.202775275197333e-028 -1 -1.7000000000000972 0 0 1 I I 0 1 1.7000000000000972 forward I I I I #
-79 coedge $-1 -1 -1 $-1 $124 $125 $126 $127 reversed $45 $-1 #
-80 coedge $-1 -1 -1 $-1 $128 $47 $129 $130 forward $26 $-1 #
-81 coedge $-1 -1 -1 $-1 $47 $128 $131 $132 reversed $26 $-1 #
-82 coedge $-1 -1 -1 $-1 $133 $133 $47 $83 forward $104 $-1 #
-83 edge $-1 -1 -1 $-1 $134 -3.141592653590445 $135 0 $82 $136 forward @7 unknown F #
-84 coedge $-1 -1 -1 $-1 $49 $48 $137 $138 forward $17 $-1 #
-85 coedge $-1 -1 -1 $-1 $139 $140 $48 $86 reversed $141 $-1 #
-86 edge $-1 -1 -1 $-1 $91 -0.0030000000000000001 $142 9.3539475090610919e-044 $48 $143 forward @7 unknown F #
-87 coedge $-1 -1 -1 $-1 $140 $139 $49 $88 forward $141 $-1 #
-88 edge $-1 -1 -1 $-1 $92 -0.0030000000000000001 $144 0 $87 $145 forward @7 unknown F #
-89 coedge $-1 -1 -1 $-1 $50 $50 $139 $146 forward $90 $-1 #
-90 loop $-1 -1 -1 $-1 $-1 $89 $147 F unknown #
-91 vertex $-1 -1 -1 $-1 $86 $148 #
-92 vertex $-1 -1 -1 $-1 $51 $149 #
-93 ellipse-curve $-1 -1 -1 $-1 -115.50000000000283 -93.250000184190739 3.0000000000007105 -4.7016109951172671e-028 3.202775275197333e-028 -1 -3.2500000000001972 0 0 1 I I #
-94 coedge $-1 -1 -1 $-1 $150 $150 $52 $95 reversed $117 $-1 #
-95 edge $-1 -1 -1 $-1 $99 -3.1415926535887477 $101 0 $52 $151 forward @7 unknown F #
-96 coedge $-1 -1 -1 $-1 $55 $53 $57 $103 reversed $98 $-1 #
-97 coedge $-1 -1 -1 $-1 $53 $55 $150 $152 forward $98 $-1 #
-98 loop $-1 -1 -1 $-1 $-1 $53 $153 F unknown #
-99 vertex $-1 -1 -1 $-1 $54 $154 #
-100 straight-curve $-1 -1 -1 $-1 -113.80000000000234 -7.0000000000002558 7.8870243669371121e-013 -4.7016109951172671e-025 3.2027752751973332e-025 -1000 I I #
-101 vertex $-1 -1 -1 $-1 $95 $155 #
-102 straight-curve $-1 -1 -1 $-1 -117.20000000000253 -7.0000000000002558 7.8870243669371121e-013 -4.7016109951172671e-025 3.2027752751973332e-025 -1000 I I #
-103 edge $-1 -1 -1 $-1 $60 0 $59 3.1415926535898935 $57 $156 forward @7 unknown F #
-104 loop $-1 -1 -1 $-1 $157 $133 $105 F unknown #
-105 face $158 -1 -1 $-1 $159 $58 $4 $-1 $160 reversed single F F #
-106 point $-1 -1 -1 $-1 -113.80000000000243 -7.0000000000002558 5.0000000000004334 #
-107 point $-1 -1 -1 $-1 -117.20000000000253 -7.0000000000000853 5.0000000000004334 #
-108 coedge $-1 -1 -1 $-1 $62 $62 $65 $111 reversed $109 $-1 #
-109 loop $-1 -1 -1 $-1 $161 $108 $162 F unknown #
-110 ellipse-curve $-1 -1 -1 $-1 -115.50000000000244 -7.0000000000002558 7.8870243669371121e-013 -4.7016109951172671e-028 3.202775275197333e-028 -1 -3.2500000000001972 0 0 1 I I #
-111 edge $-1 -1 -1 $-1 $69 1.4926045751994025e-055 $67 3.1415926535897931 $65 $163 forward @7 unknown F #
-112 face $164 -1 -1 $-1 $165 $66 $4 $-1 $166 reversed single F T -0.9230769230767577 4.7016109951172698e-028 0 3.1415926535897931 #
-113 point $-1 -1 -1 $-1 -112.25000000000244 -7.0000000000002558 7.8870243669371121e-013 #
-114 point $-1 -1 -1 $-1 -118.75000000000264 -7.0000000000002558 7.8870243669371121e-013 #
-115 ellipse-curve $-1 -1 -1 $-1 -115.50000000000287 -6.9999999999984794 3.0000000000004334 -4.7016109951172671e-028 3.202775275197333e-028 -1 -3.2500000000001972 0 0 1 I I #
-116 integer_attrib-name_attrib-gen-attrib $-1 -1 $-1 $-1 $72 2 1 2 1 1 1 1 1 1 1 1 1 1 1 0 1 1 1 @21 Stock-display mount-1 0 #
-117 loop $-1 -1 -1 $-1 $39 $150 $72 F unknown #
-118 plane-surface $-1 -1 -1 $-1 -113.80000000000285 -6.9999999999994174 3.0000000000000995 -3.3095180164348306e-028 -3.202775275197333e-028 1 1000.0000000000591 -2.0305992834346743e-025 3.3095180164350261e-025 forward_v I I I I #
-119 integer_attrib-name_attrib-gen-attrib $-1 -1 $-1 $-1 $76 2 1 2 1 1 1 1 1 1 1 1 1 1 1 0 1 1 1 @21 Stock-display mount-1 0 #
-120 face $167 -1 -1 $-1 $168 $169 $4 $-1 $170 reversed single F T -2.9411764705880672 -1.7647058823528403 -3.1415926535897931 1.3374922084894405e-012 #
-121 loop $-1 -1 -1 $-1 $-1 $171 $76 F unknown #
-122 cone-surface $-1 -1 -1 $-1 -3.4999999999962341 -7.0000000000026432 9.9475983006414026e-014 -4.7016109951172671e-028 3.202775275197333e-028 -1 -3.2500000000001972 0 0 1 I I 0 1 3.2500000000001972 forward I I I I #
-123 coedge $-1 -1 -1 $-1 $172 $173 $174 $175 reversed $77 $-1 #
-124 coedge $-1 -1 -1 $-1 $176 $79 $177 $178 forward $45 $-1 #
-125 coedge $-1 -1 -1 $-1 $79 $176 $179 $180 reversed $45 $-1 #
-126 coedge $-1 -1 -1 $-1 $181 $181 $79 $127 forward $182 $-1 #
-127 edge $-1 -1 -1 $-1 $183 -3.1415926535899592 $184 2.7434956735850374e-071 $126 $185 forward @7 unknown F #
-128 coedge $-1 -1 -1 $-1 $81 $80 $186 $187 forward $26 $-1 #
-129 coedge $-1 -1 -1 $-1 $188 $189 $80 $130 reversed $190 $-1 #
-130 edge $-1 -1 -1 $-1 $134 -0.0050000000000000001 $191 -0.0030000000000000001 $80 $192 forward @7 unknown F #
-131 coedge $-1 -1 -1 $-1 $189 $188 $81 $132 forward $190 $-1 #
-132 edge $-1 -1 -1 $-1 $135 -0.0050000000000000001 $193 -0.0030000000000000001 $131 $194 forward @7 unknown F #
-133 coedge $-1 -1 -1 $-1 $82 $82 $188 $195 forward $104 $-1 #
-134 vertex $-1 -1 -1 $-1 $130 $196 #
-135 vertex $-1 -1 -1 $-1 $83 $197 #
-136 ellipse-curve $-1 -1 -1 $-1 -115.50000000000283 -93.250000184190739 5.0000000000007105 -4.7016109951172671e-028 3.202775275197333e-028 -1 -1.7000000000000972 0 0 1 I I #
-137 coedge $-1 -1 -1 $-1 $198 $198 $84 $138 reversed $161 $-1 #
-138 edge $-1 -1 -1 $-1 $142 -3.1415926535897931 $144 1.4926045751994025e-055 $84 $199 forward @7 unknown F #
-139 coedge $-1 -1 -1 $-1 $87 $85 $89 $146 reversed $141 $-1 #
-140 coedge $-1 -1 -1 $-1 $85 $87 $198 $200 forward $141 $-1 #
-141 loop $-1 -1 -1 $-1 $-1 $85 $201 F unknown #
-142 vertex $-1 -1 -1 $-1 $86 $202 #
-143 straight-curve $-1 -1 -1 $-1 -112.25000000000296 -93.250000184189631 7.1054273576010019e-013 -4.7016109951172671e-025 3.2027752751973332e-025 -1000 I I #
-144 vertex $-1 -1 -1 $-1 $138 $203 #
-145 straight-curve $-1 -1 -1 $-1 -118.75000000000335 -93.250000184189631 7.1054273576010019e-013 -4.7016109951172671e-025 3.2027752751973332e-025 -1000 I I #
-146 edge $-1 -1 -1 $-1 $92 0 $91 3.1415926535894521 $89 $204 forward @7 unknown F #
-147 face $205 -1 -1 $-1 $201 $206 $4 $-1 $207 reversed single F F #
-148 point $-1 -1 -1 $-1 -112.25000000000281 -93.250000184189631 3.0000000000007105 #
-149 point $-1 -1 -1 $-1 -118.75000000000301 -93.250000184190739 3.0000000000007105 #
-150 coedge $-1 -1 -1 $-1 $94 $94 $97 $152 reversed $117 $-1 #
-151 ellipse-curve $-1 -1 -1 $-1 -115.50000000000287 -6.9999999999984794 3.0000000000004334 -4.7016109951172671e-028 3.202775275197333e-028 -1 -1.7000000000000972 0 0 1 I I #
-152 edge $-1 -1 -1 $-1 $101 0 $99 3.1415926535908385 $97 $208 forward @7 unknown F #
-153 face $209 -1 -1 $-1 $72 $98 $4 $-1 $210 reversed single F T -2.941176470587858 -1.7647058823526314 5.6519563679943311e-028 3.141592653589794 #
-154 point $-1 -1 -1 $-1 -113.80000000000288 -7.0000000000002558 3.0000000000004334 #
-155 point $-1 -1 -1 $-1 -117.20000000000297 -6.9999999999984794 3.0000000000004334 #
-156 ellipse-curve $-1 -1 -1 $-1 -115.50000000000244 -7.0000000000000853 5.0000000000004334 -4.7016109951172671e-028 3.202775275197333e-028 -1 -1.7000000000000972 0 0 1 I I #
-157 loop $-1 -1 -1 $-1 $211 $212 $105 F unknown #
-158 integer_attrib-name_attrib-gen-attrib $-1 -1 $-1 $-1 $105 2 1 2 1 1 1 1 1 1 1 1 1 1 1 0 1 1 1 @21 Stock-display mount-1 0 #
-159 face $213 -1 -1 $-1 $214 $215 $4 $-1 $216 reversed single F T -2.9411764705880672 -1.7647058823528403 5.6519563679949769e-028 3.1415926535897931 #
-160 plane-surface $-1 -1 -1 $-1 -59.549999999999606 107.99999999999937 5.000000000000405 3.3095180164348306e-028 3.202775275197333e-028 -1 -1000.0000000000591 2.0305992834346743e-025 -3.3095180164350261e-025 forward_v I I I I #
-161 loop $-1 -1 -1 $-1 $217 $198 $162 F unknown #
-162 face $218 -1 -1 $-1 $105 $109 $4 $-1 $219 forward single F F #
-163 ellipse-curve $-1 -1 -1 $-1 -115.50000000000244 -7.0000000000002558 7.8870243669371121e-013 -4.7016109951172671e-028 3.202775275197333e-028 -1 -3.2500000000001972 0 0 1 I I #
-164 integer_attrib-name_attrib-gen-attrib $-1 -1 $-1 $-1 $112 2 1 2 1 1 1 1 1 1 1 1 1 1 1 0 1 1 1 @21 Stock-display mount-1 0 #
-165 face $220 -1 -1 $-1 $221 $222 $4 $-1 $223 reversed single F F #
-166 cone-surface $-1 -1 -1 $-1 -115.50000000000244 -7.0000000000002558 7.8870243669371121e-013 -4.7016109951172671e-028 3.202775275197333e-028 -1 -3.2500000000001972 0 0 1 I I 0 1 3.2500000000001972 forward I I I I #
-167 integer_attrib-name_attrib-gen-attrib $-1 -1 $-1 $-1 $120 2 1 2 1 1 1 1 1 1 1 1 1 1 1 0 1 1 1 @21 Stock-display mount-1 0 #
-168 face $224 -1 -1 $-1 $225 $226 $4 $-1 $227 reversed single F F #
-169 loop $-1 -1 -1 $-1 $-1 $228 $120 F unknown #
-170 cone-surface $-1 -1 -1 $-1 -3.4999999999962341 -7.0000000000026432 9.9475983006414026e-014 -4.7016109951172671e-028 3.202775275197333e-028 -1 -1.7000000000000972 0 0 1 I I 0 1 1.7000000000000972 forward I I I I #
-171 coedge $-1 -1 -1 $-1 $229 $230 $231 $232 reversed $121 $-1 #
-172 coedge $-1 -1 -1 $-1 $233 $123 $234 $235 forward $77 $-1 #
-173 coedge $-1 -1 -1 $-1 $123 $233 $236 $237 reversed $77 $-1 #
-174 coedge $-1 -1 -1 $-1 $212 $212 $123 $175 forward $157 $-1 #
-175 edge $-1 -1 -1 $-1 $238 -3.1415926535901111 $239 0 $174 $240 forward @7 unknown F #
-176 coedge $-1 -1 -1 $-1 $125 $124 $241 $242 forward $45 $-1 #
-177 coedge $-1 -1 -1 $-1 $243 $244 $124 $178 reversed $245 $-1 #
-178 edge $-1 -1 -1 $-1 $183 -0.0030000000000000001 $246 9.0198779551660535e-044 $124 $247 forward @7 unknown F #
-179 coedge $-1 -1 -1 $-1 $244 $243 $125 $180 forward $245 $-1 #
-180 edge $-1 -1 -1 $-1 $184 -0.0030000000000000001 $248 0 $179 $249 forward @7 unknown F #
-181 coedge $-1 -1 -1 $-1 $126 $126 $243 $250 forward $182 $-1 #
-182 loop $-1 -1 -1 $-1 $-1 $181 $251 F unknown #
-183 vertex $-1 -1 -1 $-1 $178 $252 #
-184 vertex $-1 -1 -1 $-1 $127 $253 #
-185 ellipse-curve $-1 -1 -1 $-1 -3.4999999999968949 -93.250000184190512 3.0000000000003766 -4.7016109951172671e-028 3.202775275197333e-028 -1 -3.2500000000001972 0 0 1 I I #
-186 coedge $-1 -1 -1 $-1 $254 $254 $128 $187 reversed $206 $-1 #
-187 edge $-1 -1 -1 $-1 $191 -3.141592653590445 $193 0 $128 $255 forward @7 unknown F #
-188 coedge $-1 -1 -1 $-1 $131 $129 $133 $195 reversed $190 $-1 #
-189 coedge $-1 -1 -1 $-1 $129 $131 $254 $256 forward $190 $-1 #
-190 loop $-1 -1 -1 $-1 $-1 $129 $257 F unknown #
-191 vertex $-1 -1 -1 $-1 $130 $258 #
-192 straight-curve $-1 -1 -1 $-1 -113.80000000000305 -93.250000184189631 7.1054273576010019e-013 -4.7016109951172671e-025 3.2027752751973332e-025 -1000 I I #
-193 vertex $-1 -1 -1 $-1 $187 $259 #
-194 straight-curve $-1 -1 -1 $-1 -117.20000000000326 -93.250000184189631 7.1054273576010019e-013 -4.7016109951172671e-025 3.2027752751973332e-025 -1000 I I #
-195 edge $-1 -1 -1 $-1 $135 0 $134 3.1415926535891412 $133 $260 forward @7 unknown F #
-196 point $-1 -1 -1 $-1 -113.80000000000283 -93.250000184189631 5.0000000000007105 #
-197 point $-1 -1 -1 $-1 -117.20000000000292 -93.250000184190739 5.0000000000007105 #
-198 coedge $-1 -1 -1 $-1 $137 $137 $140 $200 reversed $161 $-1 #
-199 ellipse-curve $-1 -1 -1 $-1 -115.50000000000315 -93.250000184189631 7.1054273576010019e-013 -4.7016109951172671e-028 3.202775275197333e-028 -1 -3.2500000000001972 0 0 1 I I #
-200 edge $-1 -1 -1 $-1 $144 1.4926045751994025e-055 $142 3.1415926535897931 $140 $261 forward @7 unknown F #
-201 face $262 -1 -1 $-1 $153 $141 $4 $-1 $263 reversed single F T -0.92307692307686706 4.7016109951172698e-028 -3.4106051316486122e-013 3.1415926535897931 #
-202 point $-1 -1 -1 $-1 -112.25000000000315 -93.250000184189631 7.1054273576010019e-013 #
-203 point $-1 -1 -1 $-1 -118.75000000000335 -93.250000184189631 7.1054273576010019e-013 #
-204 ellipse-curve $-1 -1 -1 $-1 -115.50000000000283 -93.250000184190739 3.0000000000007105 -4.7016109951172671e-028 3.202775275197333e-028 -1 -3.2500000000001972 0 0 1 I I #
-205 integer_attrib-name_attrib-gen-attrib $-1 -1 $-1 $-1 $147 2 1 2 1 1 1 1 1 1 1 1 1 1 1 0 1 1 1 @21 Stock-display mount-1 0 #
-206 loop $-1 -1 -1 $-1 $90 $254 $147 F unknown #
-207 plane-surface $-1 -1 -1 $-1 -113.8000000000028 -93.250000184190739 3.0000000000008242 -3.3095180164348306e-028 -3.202775275197333e-028 1 1000.0000000000591 -2.0305992834346743e-025 3.3095180164350261e-025 forward_v I I I I #
-208 ellipse-curve $-1 -1 -1 $-1 -115.50000000000287 -6.9999999999984794 3.0000000000004334 -4.7016109951172671e-028 3.202775275197333e-028 -1 -1.7000000000000972 0 0 1 I I #
-209 integer_attrib-name_attrib-gen-attrib $-1 -1 $-1 $-1 $153 2 1 2 1 1 1 1 1 1 1 1 1 1 1 0 1 1 1 @21 Stock-display mount-1 0 #
-210 cone-surface $-1 -1 -1 $-1 -115.50000000000244 -7.0000000000002558 7.8870243669371121e-013 -4.7016109951172671e-028 3.202775275197333e-028 -1 -1.7000000000000972 0 0 1 I I 0 1 1.7000000000000972 forward I I I I #
-211 loop $-1 -1 -1 $-1 $264 $265 $105 F unknown #
-212 coedge $-1 -1 -1 $-1 $174 $174 $266 $267 forward $157 $-1 #
-213 integer_attrib-name_attrib-gen-attrib $-1 -1 $-1 $-1 $159 2 1 2 1 1 1 1 1 1 1 1 1 1 1 0 1 1 1 @21 Stock-display mount-1 0 #
-214 face $268 -1 -1 $-1 $269 $270 $4 $-1 $271 reversed single F F #
-215 loop $-1 -1 -1 $-1 $-1 $272 $159 F unknown #
-216 cone-surface $-1 -1 -1 $-1 -3.4999999999962341 -7.0000000000026432 9.9475983006414026e-014 -4.7016109951172671e-028 3.202775275197333e-028 -1 -1.7000000000000972 0 0 1 I I 0 1 1.7000000000000972 forward I I I I #
-217 loop $-1 -1 -1 $-1 $273 $274 $162 F unknown #
-218 integer_attrib-name_attrib-gen-attrib $-1 -1 $-1 $-1 $162 2 1 2 1 1 1 1 1 1 1 1 1 1 1 0 1 1 1 @21 Stock-display mount-1 0 #
-219 plane-surface $-1 -1 -1 $-1 -59.549999999999606 108.00000000000226 4.0500935938325711e-013 3.3095180164348306e-028 3.202775275197333e-028 -1 -1000.0000000000591 2.0305992834346743e-025 -3.3095180164350261e-025 forward_v I I I I #
-220 integer_attrib-name_attrib-gen-attrib $-1 -1 $-1 $-1 $165 2 1 2 1 1 1 1 1 1 1 1 1 1 1 0 1 1 1 @21 Stock-display mount-1 0 #
-221 face $275 -1 -1 $-1 $276 $277 $4 $-1 $278 reversed single F F #
-222 loop $-1 -1 -1 $-1 $-1 $279 $165 F unknown #
-223 plane-surface $-1 -1 -1 $-1 -9.9999999999961275 -90.250000184190512 2.0000000000004903 1 -2.0305992834345547e-028 -4.7016109951172671e-028 -4.7016109951172304e-025 3.2027752751973079e-025 -999.99999999999227 forward_v I I I I #
-224 integer_attrib-name_attrib-gen-attrib $-1 -1 $-1 $-1 $168 2 1 2 1 1 1 1 1 1 1 1 1 1 1 0 1 1 1 @21 Stock-display mount-1 0 #
-225 face $280 -1 -1 $-1 $281 $282 $4 $-1 $283 reversed single F F #
-226 loop $-1 -1 -1 $-1 $-1 $284 $168 F unknown #
-227 plane-surface $-1 -1 -1 $-1 -119.00000000000094 -100.25000018418596 1.5987211554602254e-012 1 -2.0305992834345547e-028 -4.7016109951172671e-028 -4.7016109951172304e-025 3.2027752751973079e-025 -999.99999999999227 forward_v I I I I #
-228 coedge $-1 -1 -1 $-1 $285 $286 $287 $288 reversed $169 $-1 #
-229 coedge $-1 -1 -1 $-1 $289 $171 $290 $291 forward $121 $-1 #
-230 coedge $-1 -1 -1 $-1 $171 $289 $292 $293 reversed $121 $-1 #
-231 coedge $-1 -1 -1 $-1 $294 $294 $171 $232 forward $295 $-1 #
-232 edge $-1 -1 -1 $-1 $296 -3.1415926535890932 $297 2.7434956735850374e-071 $231 $298 forward @7 unknown F #
-233 coedge $-1 -1 -1 $-1 $173 $172 $299 $300 forward $77 $-1 #
-234 coedge $-1 -1 -1 $-1 $266 $301 $172 $235 reversed $302 $-1 #
-235 edge $-1 -1 -1 $-1 $238 -0.0050000000000000001 $303 -0.0030000000000000001 $172 $304 forward @7 unknown F #
-236 coedge $-1 -1 -1 $-1 $301 $266 $173 $237 forward $302 $-1 #
-237 edge $-1 -1 -1 $-1 $239 -0.0050000000000000001 $305 -0.0030000000000000001 $236 $306 forward @7 unknown F #
-238 vertex $-1 -1 -1 $-1 $235 $307 #
-239 vertex $-1 -1 -1 $-1 $175 $308 #
-240 ellipse-curve $-1 -1 -1 $-1 -3.4999999999965112 -93.250000184190512 5.0000000000003766 -4.7016109951172671e-028 3.202775275197333e-028 -1 -1.7000000000000972 0 0 1 I I #
-241 coedge $-1 -1 -1 $-1 $274 $274 $176 $242 reversed $217 $-1 #
-242 edge $-1 -1 -1 $-1 $246 -3.1415926535897931 $248 1.4926045751994032e-055 $176 $309 forward @7 unknown F #
-243 coedge $-1 -1 -1 $-1 $179 $177 $181 $250 reversed $245 $-1 #
-244 coedge $-1 -1 -1 $-1 $177 $179 $274 $310 forward $245 $-1 #
-245 loop $-1 -1 -1 $-1 $-1 $177 $311 F unknown #
-246 vertex $-1 -1 -1 $-1 $178 $312 #
-247 straight-curve $-1 -1 -1 $-1 -0.24999999999631228 -93.250000184189972 3.765876499528531e-013 -4.7016109951172671e-025 3.2027752751973332e-025 -1000 I I #
-248 vertex $-1 -1 -1 $-1 $242 $313 #
-249 straight-curve $-1 -1 -1 $-1 -6.7499999999967031 -93.250000184189972 3.765876499528531e-013 -4.7016109951172671e-025 3.2027752751973332e-025 -1000 I I #
-250 edge $-1 -1 -1 $-1 $184 2.7434956735850374e-071 $183 3.141592653589627 $181 $314 forward @7 unknown F #
-251 face $315 -1 -1 $-1 $311 $316 $4 $-1 $317 reversed single F F #
-252 point $-1 -1 -1 $-1 -0.24999999999689493 -93.250000184189972 3.0000000000003766 #
-253 point $-1 -1 -1 $-1 -6.7499999999970939 -93.250000184190512 3.0000000000003766 #
-254 coedge $-1 -1 -1 $-1 $186 $186 $189 $256 reversed $206 $-1 #
-255 ellipse-curve $-1 -1 -1 $-1 -115.50000000000283 -93.250000184190739 3.0000000000007105 -4.7016109951172671e-028 3.202775275197333e-028 -1 -1.7000000000000972 0 0 1 I I #
-256 edge $-1 -1 -1 $-1 $193 0 $191 3.1415926535891412 $189 $318 forward @7 unknown F #
-257 face $319 -1 -1 $-1 $147 $190 $4 $-1 $320 reversed single F T -2.9411764705880672 -1.7647058823528403 -6.520274516387657e-013 3.1415926535897931 #
-258 point $-1 -1 -1 $-1 -113.80000000000283 -93.250000184189631 3.0000000000007105 #
-259 point $-1 -1 -1 $-1 -117.20000000000292 -93.250000184190739 3.0000000000007105 #
-260 ellipse-curve $-1 -1 -1 $-1 -115.50000000000283 -93.250000184190739 5.0000000000007105 -4.7016109951172671e-028 3.202775275197333e-028 -1 -1.7000000000000972 0 0 1 I I #
-261 ellipse-curve $-1 -1 -1 $-1 -115.50000000000315 -93.250000184189631 7.1054273576010019e-013 -4.7016109951172671e-028 3.202775275197333e-028 -1 -3.2500000000001972 0 0 1 I I #
-262 integer_attrib-name_attrib-gen-attrib $-1 -1 $-1 $-1 $201 2 1 2 1 1 1 1 1 1 1 1 1 1 1 0 1 1 1 @21 Stock-display mount-1 0 #
-263 cone-surface $-1 -1 -1 $-1 -115.50000000000315 -93.250000184189631 7.1054273576010019e-013 -4.7016109951172671e-028 3.202775275197333e-028 -1 -3.2500000000001972 0 0 1 I I 0 1 3.2500000000001972 forward I I I I #
-264 loop $-1 -1 -1 $-1 $-1 $321 $105 F unknown #
-265 coedge $-1 -1 -1 $-1 $287 $287 $322 $323 forward $211 $-1 #
-266 coedge $-1 -1 -1 $-1 $236 $234 $212 $267 reversed $302 $-1 #
-267 edge $-1 -1 -1 $-1 $239 0 $238 3.1415926535894751 $212 $324 forward @7 unknown F #
-268 integer_attrib-name_attrib-gen-attrib $-1 -1 $-1 $-1 $214 2 1 2 1 1 1 1 1 1 1 1 1 1 1 0 1 1 1 @21 Stock-display mount-1 0 #
-269 face $325 -1 -1 $-1 $326 $327 $4 $-1 $328 reversed single F T -0.92307692307686706 4.7016109951172671e-028 0 3.1415926535897931 #
-270 loop $-1 -1 -1 $-1 $295 $329 $214 F unknown #
-271 plane-surface $-1 -1 -1 $-1 -1.7999999999963094 -6.9999999999974278 3.0000000000004334 -3.3095180164348306e-028 -3.202775275197333e-028 1 1000.0000000000591 -2.0305992834346743e-025 3.3095180164350261e-025 forward_v I I I I #
-272 coedge $-1 -1 -1 $-1 $322 $330 $285 $331 reversed $215 $-1 #
-273 loop $-1 -1 -1 $-1 $332 $333 $162 F unknown #
-274 coedge $-1 -1 -1 $-1 $241 $241 $244 $310 reversed $217 $-1 #
-275 integer_attrib-name_attrib-gen-attrib $-1 -1 $-1 $-1 $221 2 1 2 1 1 1 1 1 1 1 1 1 1 1 0 1 1 1 @21 Stock-display mount-1 0 #
-276 face $334 -1 -1 $-1 $335 $336 $4 $-1 $337 reversed single F F #
-277 loop $-1 -1 -1 $-1 $-1 $338 $221 F unknown #
-278 plane-surface $-1 -1 -1 $-1 -9.9999999999961275 -90.250000184190512 2.0000000000004903 1.9891840859105576e-028 -1 -3.202775275197333e-028 -4.7016109951172304e-025 3.2027752751973079e-025 -999.99999999999227 forward_v I I I I #
-279 coedge $-1 -1 -1 $-1 $339 $340 $341 $342 forward $222 $-1 #
-280 integer_attrib-name_attrib-gen-attrib $-1 -1 $-1 $-1 $225 2 1 2 1 1 1 1 1 1 1 1 1 1 1 0 1 1 1 @21 Stock-display mount-1 0 #
-281 face $343 -1 -1 $-1 $344 $345 $4 $-1 $346 reversed single F F #
-282 loop $-1 -1 -1 $-1 $-1 $347 $225 F unknown #
-283 plane-surface $-1 -1 -1 $-1 -119.0000000000025 -2.4726887204451486e-012 1.5134560271690134e-012 -1.1662006561208255e-016 -1 3.1002233575185764e-028 1000.0000000000591 -1.1662006561208944e-013 3.3095180164350261e-025 forward_v I I I I #
-284 coedge $-1 -1 -1 $-1 $348 $349 $350 $351 forward $226 $-1 #
-285 coedge $-1 -1 -1 $-1 $352 $228 $272 $331 forward $169 $-1 #
-286 coedge $-1 -1 -1 $-1 $228 $352 $353 $354 reversed $169 $-1 #
-287 coedge $-1 -1 -1 $-1 $265 $265 $228 $288 forward $211 $-1 #
-288 edge $-1 -1 -1 $-1 $355 -3.1415926535888152 $356 0 $287 $357 forward @7 unknown F #
-289 coedge $-1 -1 -1 $-1 $230 $229 $358 $359 forward $121 $-1 #
-290 coedge $-1 -1 -1 $-1 $360 $361 $229 $291 reversed $327 $-1 #
-291 edge $-1 -1 -1 $-1 $296 -0.0030000000000000001 $362 9.0198779551660535e-044 $229 $363 forward @7 unknown F #
-292 coedge $-1 -1 -1 $-1 $361 $360 $230 $293 forward $327 $-1 #
-293 edge $-1 -1 -1 $-1 $297 -0.0030000000000000001 $364 0 $292 $365 forward @7 unknown F #
-294 coedge $-1 -1 -1 $-1 $231 $231 $360 $366 forward $295 $-1 #
-295 loop $-1 -1 -1 $-1 $-1 $294 $214 F unknown #
-296 vertex $-1 -1 -1 $-1 $291 $367 #
-297 vertex $-1 -1 -1 $-1 $232 $368 #
-298 ellipse-curve $-1 -1 -1 $-1 -3.4999999999963407 -7.0000000000003695 3.0000000000000995 -4.7016109951172671e-028 3.202775275197333e-028 -1 -3.2500000000001972 0 0 1 I I #
-299 coedge $-1 -1 -1 $-1 $369 $369 $233 $300 reversed $316 $-1 #
-300 edge $-1 -1 -1 $-1 $303 -3.1415926535901111 $305 0 $233 $370 forward @7 unknown F #
-301 coedge $-1 -1 -1 $-1 $234 $236 $369 $371 forward $302 $-1 #
-302 loop $-1 -1 -1 $-1 $-1 $234 $326 F unknown #
-303 vertex $-1 -1 -1 $-1 $235 $372 #
-304 straight-curve $-1 -1 -1 $-1 -1.7999999999964089 -93.250000184189972 3.765876499528531e-013 -4.7016109951172671e-025 3.2027752751973332e-025 -1000 I I #
-305 vertex $-1 -1 -1 $-1 $300 $373 #
-306 straight-curve $-1 -1 -1 $-1 -5.1999999999966064 -93.250000184189972 3.765876499528531e-013 -4.7016109951172671e-025 3.2027752751973332e-025 -1000 I I #
-307 point $-1 -1 -1 $-1 -1.7999999999965084 -93.250000184189972 5.0000000000003766 #
-308 point $-1 -1 -1 $-1 -5.1999999999966064 -93.250000184190512 5.0000000000003766 #
-309 ellipse-curve $-1 -1 -1 $-1 -3.4999999999965112 -93.250000184189972 3.765876499528531e-013 -4.7016109951172671e-028 3.202775275197333e-028 -1 -3.2500000000001972 0 0 1 I I #
-310 edge $-1 -1 -1 $-1 $248 1.4926045751994032e-055 $246 3.1415926535897931 $244 $374 forward @7 unknown F #
-311 face $375 -1 -1 $-1 $257 $245 $4 $-1 $376 reversed single F T -0.92307692307686706 4.7016109951172671e-028 -1.661576859007934e-013 3.1415926535897931 #
-312 point $-1 -1 -1 $-1 -0.24999999999650413 -93.250000184189972 3.765876499528531e-013 #
-313 point $-1 -1 -1 $-1 -6.7499999999967031 -93.250000184189972 3.765876499528531e-013 #
-314 ellipse-curve $-1 -1 -1 $-1 -3.4999999999968949 -93.250000184190512 3.0000000000003766 -4.7016109951172671e-028 3.202775275197333e-028 -1 -3.2500000000001972 0 0 1 I I #
-315 integer_attrib-name_attrib-gen-attrib $-1 -1 $-1 $-1 $251 2 1 2 1 1 1 1 1 1 1 1 1 1 1 0 1 1 1 @21 Stock-display mount-1 0 #
-316 loop $-1 -1 -1 $-1 $182 $369 $251 F unknown #
-317 plane-surface $-1 -1 -1 $-1 -1.7999999999969205 -93.250000184187414 3.000000000001485 -3.3095180164348306e-028 -3.202775275197333e-028 1 1000.0000000000591 -2.0305992834346743e-025 3.3095180164350261e-025 forward_v I I I I #
-318 ellipse-curve $-1 -1 -1 $-1 -115.50000000000283 -93.250000184190739 3.0000000000007105 -4.7016109951172671e-028 3.202775275197333e-028 -1 -1.7000000000000972 0 0 1 I I #
-319 integer_attrib-name_attrib-gen-attrib $-1 -1 $-1 $-1 $257 2 1 2 1 1 1 1 1 1 1 1 1 1 1 0 1 1 1 @21 Stock-display mount-1 0 #
-320 cone-surface $-1 -1 -1 $-1 -115.50000000000315 -93.250000184189631 7.1054273576010019e-013 -4.7016109951172671e-028 3.202775275197333e-028 -1 -1.7000000000000972 0 0 1 I I 0 1 1.7000000000000972 forward I I I I #
-321 coedge $-1 -1 -1 $-1 $341 $377 $378 $379 reversed $264 $-1 #
-322 coedge $-1 -1 -1 $-1 $353 $272 $265 $323 reversed $215 $-1 #
-323 edge $-1 -1 -1 $-1 $356 0 $355 3.141592653590771 $265 $380 forward @7 unknown F #
-324 ellipse-curve $-1 -1 -1 $-1 -3.4999999999965112 -93.250000184190512 5.0000000000003766 -4.7016109951172671e-028 3.202775275197333e-028 -1 -1.7000000000000972 0 0 1 I I #
-325 integer_attrib-name_attrib-gen-attrib $-1 -1 $-1 $-1 $269 2 1 2 1 1 1 1 1 1 1 1 1 1 1 0 1 1 1 @21 Stock-display mount-1 0 #
-326 face $381 -1 -1 $-1 $251 $302 $4 $-1 $382 reversed single F T -2.9411764705880672 -1.7647058823528403 -3.1765439951626098e-013 3.1415926535897931 #
-327 loop $-1 -1 -1 $-1 $-1 $290 $269 F unknown #
-328 cone-surface $-1 -1 -1 $-1 -3.4999999999962341 -7.0000000000026432 9.9475983006414026e-014 -4.7016109951172671e-028 3.202775275197333e-028 -1 -3.2500000000001972 0 0 1 I I 0 1 3.2500000000001972 forward I I I I #
-329 coedge $-1 -1 -1 $-1 $383 $383 $330 $384 reversed $270 $-1 #
-330 coedge $-1 -1 -1 $-1 $272 $353 $329 $384 forward $215 $-1 #
-331 edge $-1 -1 -1 $-1 $355 -0.0050000000000000001 $385 -0.0030000000000000001 $285 $386 forward @7 unknown F #
-332 loop $-1 -1 -1 $-1 $-1 $387 $162 F unknown #
-333 coedge $-1 -1 -1 $-1 $358 $358 $361 $388 reversed $273 $-1 #
-334 integer_attrib-name_attrib-gen-attrib $-1 -1 $-1 $-1 $276 2 1 2 1 1 1 1 1 1 1 1 1 1 1 0 1 1 1 @21 Stock-display mount-1 0 #
-335 face $389 -1 -1 $-1 $-1 $390 $4 $-1 $391 forward single F F #
-336 loop $-1 -1 -1 $-1 $-1 $392 $276 F unknown #
-337 plane-surface $-1 -1 -1 $-1 -109.00000000000193 -90.250000184190739 2.0000000000004334 -1 -3.0754100342383257e-016 -3.3065597880402518e-028 3.0754100342383257e-013 -1000 2.942451176474374e-025 forward_v I I I I #
-338 coedge $-1 -1 -1 $-1 $393 $394 $395 $396 forward $277 $-1 #
-339 coedge $-1 -1 -1 $-1 $397 $279 $398 $399 reversed $222 $-1 #
-340 coedge $-1 -1 -1 $-1 $279 $397 $393 $400 forward $222 $-1 #
-341 coedge $-1 -1 -1 $-1 $395 $321 $279 $342 reversed $264 $-1 #
-342 edge $-1 -1 -1 $-1 $401 0 $402 0.09025000018419016 $279 $403 forward @7 unknown F #
-343 integer_attrib-name_attrib-gen-attrib $-1 -1 $-1 $-1 $281 2 1 2 1 1 1 1 1 1 1 1 1 1 1 0 1 1 1 @21 Stock-display mount-1 0 #
-344 face $404 -1 -1 $-1 $162 $405 $4 $-1 $406 reversed single F F #
-345 loop $-1 -1 -1 $-1 $-1 $407 $281 F unknown #
-346 plane-surface $-1 -1 -1 $-1 4.4408920985006262e-012 -100.25000018419051 5.6843418860808015e-013 -1 2.0305992834345547e-028 4.7016109951172671e-028 4.7016109951172304e-025 -3.2027752751973079e-025 999.99999999999227 forward_v I I I I #
-347 coedge $-1 -1 -1 $-1 $398 $408 $409 $410 reversed $282 $-1 #
-348 coedge $-1 -1 -1 $-1 $411 $284 $412 $413 reversed $226 $-1 #
-349 coedge $-1 -1 -1 $-1 $284 $411 $414 $415 forward $226 $-1 #
-350 coedge $-1 -1 -1 $-1 $416 $417 $284 $351 reversed $264 $-1 #
-351 edge $-1 -1 -1 $-1 $418 0 $419 0.10025000018418823 $284 $420 forward @7 unknown F #
-352 coedge $-1 -1 -1 $-1 $286 $285 $383 $421 forward $169 $-1 #
-353 coedge $-1 -1 -1 $-1 $330 $322 $286 $354 forward $215 $-1 #
-354 edge $-1 -1 -1 $-1 $356 -0.0050000000000000001 $422 -0.0030000000000000001 $353 $423 forward @7 unknown F #
-355 vertex $-1 -1 -1 $-1 $331 $424 #
-356 vertex $-1 -1 -1 $-1 $288 $425 #
-357 ellipse-curve $-1 -1 -1 $-1 -3.4999999999962341 -7.0000000000009805 5.0000000000000995 -4.7016109951172671e-028 3.202775275197333e-028 -1 -1.7000000000000972 0 0 1 I I #
-358 coedge $-1 -1 -1 $-1 $333 $333 $289 $359 reversed $273 $-1 #
-359 edge $-1 -1 -1 $-1 $362 -3.1415926535897931 $364 1.5050429466593983e-055 $289 $426 forward @7 unknown F #
-360 coedge $-1 -1 -1 $-1 $292 $290 $294 $366 reversed $327 $-1 #
-361 coedge $-1 -1 -1 $-1 $290 $292 $333 $388 forward $327 $-1 #
-362 vertex $-1 -1 -1 $-1 $291 $427 #
-363 straight-curve $-1 -1 -1 $-1 -0.24999999999603517 -7.0000000000026432 9.9475983006414026e-014 -4.7016109951172671e-025 3.2027752751973332e-025 -1000 I I #
-364 vertex $-1 -1 -1 $-1 $359 $428 #
-365 straight-curve $-1 -1 -1 $-1 -6.749999999996426 -7.0000000000026432 9.9475983006414026e-014 -4.7016109951172671e-025 3.2027752751973332e-025 -1000 I I #
-366 edge $-1 -1 -1 $-1 $297 2.7434956735850374e-071 $296 3.141592653590493 $294 $429 forward @7 unknown F #
-367 point $-1 -1 -1 $-1 -0.2499999999963407 -7.0000000000026432 3.0000000000000995 #
-368 point $-1 -1 -1 $-1 -6.7499999999965397 -7.0000000000003695 3.0000000000000995 #
-369 coedge $-1 -1 -1 $-1 $299 $299 $301 $371 reversed $316 $-1 #
-370 ellipse-curve $-1 -1 -1 $-1 -3.4999999999968949 -93.250000184190512 3.0000000000003766 -4.7016109951172671e-028 3.202775275197333e-028 -1 -1.7000000000000972 0 0 1 I I #
-371 edge $-1 -1 -1 $-1 $305 0 $303 3.1415926535894751 $301 $430 forward @7 unknown F #
-372 point $-1 -1 -1 $-1 -1.7999999999968992 -93.250000184189972 3.0000000000003766 #
-373 point $-1 -1 -1 $-1 -5.1999999999969972 -93.250000184190512 3.0000000000003766 #
-374 ellipse-curve $-1 -1 -1 $-1 -3.4999999999965112 -93.250000184189972 3.765876499528531e-013 -4.7016109951172671e-028 3.202775275197333e-028 -1 -3.2500000000001972 0 0 1 I I #
-375 integer_attrib-name_attrib-gen-attrib $-1 -1 $-1 $-1 $311 2 1 2 1 1 1 1 1 1 1 1 1 1 1 0 1 1 1 @21 Stock-display mount-1 0 #
-376 cone-surface $-1 -1 -1 $-1 -3.4999999999965112 -93.250000184189972 3.765876499528531e-013 -4.7016109951172671e-028 3.202775275197333e-028 -1 -3.2500000000001972 0 0 1 I I 0 1 3.2500000000001972 forward I I I I #
-377 coedge $-1 -1 -1 $-1 $321 $416 $407 $431 reversed $264 $-1 #
-378 coedge $-1 -1 -1 $-1 $432 $398 $321 $379 forward $282 $-1 #
-379 edge $-1 -1 -1 $-1 $402 0.10900000000000577 $433 0.11900000000000588 $378 $434 forward @7 unknown F #
-380 ellipse-curve $-1 -1 -1 $-1 -3.4999999999962341 -7.0000000000009805 5.0000000000000995 -4.7016109951172671e-028 3.202775275197333e-028 -1 -1.7000000000000972 0 0 1 I I #
-381 integer_attrib-name_attrib-gen-attrib $-1 -1 $-1 $-1 $326 2 1 2 1 1 1 1 1 1 1 1 1 1 1 0 1 1 1 @21 Stock-display mount-1 0 #
-382 cone-surface $-1 -1 -1 $-1 -3.4999999999965112 -93.250000184189972 3.765876499528531e-013 -4.7016109951172671e-028 3.202775275197333e-028 -1 -1.7000000000000972 0 0 1 I I 0 1 1.7000000000000972 forward I I I I #
-383 coedge $-1 -1 -1 $-1 $329 $329 $352 $421 reversed $270 $-1 #
-384 edge $-1 -1 -1 $-1 $422 0 $385 3.1415926535911307 $330 $435 forward @7 unknown F #
-385 vertex $-1 -1 -1 $-1 $331 $436 #
-386 straight-curve $-1 -1 -1 $-1 -1.7999999999961318 -7.0000000000026432 9.9475983006414026e-014 -4.7016109951172671e-025 3.2027752751973332e-025 -1000 I I #
-387 coedge $-1 -1 -1 $-1 $437 $438 $411 $439 forward $332 $-1 #
-388 edge $-1 -1 -1 $-1 $364 1.5050429466593983e-055 $362 3.1415926535897931 $361 $440 forward @7 unknown F #
-389 integer_attrib-name_attrib-gen-attrib $-1 -1 $-1 $-1 $335 2 1 2 1 1 1 1 1 1 1 1 1 1 1 0 1 1 1 @21 Stock-display mount-1 0 #
-390 loop $-1 -1 -1 $-1 $-1 $441 $335 F unknown #
-391 plane-surface $-1 -1 -1 $-1 -59.549999999999606 108.00000000000074 2.000000000000405 -3.3095180164348306e-028 -3.202775275197333e-028 1 1000.0000000000591 -2.0305992834346743e-025 3.3095180164350261e-025 forward_v I I I I #
-392 coedge $-1 -1 -1 $-1 $442 $443 $444 $445 forward $336 $-1 #
-393 coedge $-1 -1 -1 $-1 $446 $338 $340 $400 reversed $277 $-1 #
-394 coedge $-1 -1 -1 $-1 $338 $446 $442 $447 forward $277 $-1 #
-395 coedge $-1 -1 -1 $-1 $444 $341 $338 $396 reversed $264 $-1 #
-396 edge $-1 -1 -1 $-1 $448 -0.099000000000006139 $401 0 $338 $449 forward @7 unknown F #
-397 coedge $-1 -1 -1 $-1 $340 $339 $441 $450 reversed $222 $-1 #
-398 coedge $-1 -1 -1 $-1 $378 $347 $339 $399 forward $282 $-1 #
-399 edge $-1 -1 -1 $-1 $451 0 $402 0.0029999999999999858 $398 $452 forward @7 unknown F #
-400 edge $-1 -1 -1 $-1 $453 0 $401 0.0030000000000000001 $340 $454 forward @7 unknown F #
-401 vertex $-1 -1 -1 $-1 $400 $455 #
-402 vertex $-1 -1 -1 $-1 $342 $456 #
-403 straight-curve $-1 -1 -1 $-1 -9.9999999999957936 -90.250000184190512 5.0000000000004903 -1.9891840859105577e-025 1000 -3.1002233575185764e-025 I I #
-404 integer_attrib-name_attrib-gen-attrib $-1 -1 $-1 $-1 $344 2 1 2 1 1 1 1 1 1 1 1 1 1 1 0 1 1 1 @21 Stock-display mount-1 0 #
-405 loop $-1 -1 -1 $-1 $-1 $457 $344 F unknown #
-406 plane-surface $-1 -1 -1 $-1 -119.00000000000094 -100.25000018418596 1.5987211554602254e-012 -1.9891840859105576e-028 1 3.202775275197333e-028 4.7016109951172304e-025 -3.2027752751973079e-025 999.99999999999227 forward_v I I I I #
-407 coedge $-1 -1 -1 $-1 $458 $459 $377 $431 forward $345 $-1 #
-408 coedge $-1 -1 -1 $-1 $347 $460 $443 $461 reversed $282 $-1 #
-409 coedge $-1 -1 -1 $-1 $462 $441 $347 $410 forward $390 $-1 #
-410 edge $-1 -1 -1 $-1 $451 -0 $463 0.099000000000006194 $409 $464 forward @7 unknown F #
-411 coedge $-1 -1 -1 $-1 $349 $348 $387 $439 reversed $226 $-1 #
-412 coedge $-1 -1 -1 $-1 $460 $465 $348 $413 forward $282 $-1 #
-413 edge $-1 -1 -1 $-1 $466 0 $419 0.0050000000000000001 $412 $467 forward @7 unknown F #
-414 coedge $-1 -1 -1 $-1 $468 $457 $349 $415 reversed $405 $-1 #
-415 edge $-1 -1 -1 $-1 $469 0 $418 0.0050000000000000001 $349 $470 forward @7 unknown F #
-416 coedge $-1 -1 -1 $-1 $377 $350 $457 $471 reversed $264 $-1 #
-417 coedge $-1 -1 -1 $-1 $350 $444 $460 $472 reversed $264 $-1 #
-418 vertex $-1 -1 -1 $-1 $471 $473 #
-419 vertex $-1 -1 -1 $-1 $472 $474 #
-420 straight-curve $-1 -1 -1 $-1 -119.00000000000139 -100.25000018418886 5.0000000000015987 -1.9891840859105577e-025 1000 -3.1002233575185764e-025 I I #
-421 edge $-1 -1 -1 $-1 $385 -3.1415926535884555 $422 0 $352 $475 forward @7 unknown F #
-422 vertex $-1 -1 -1 $-1 $421 $476 #
-423 straight-curve $-1 -1 -1 $-1 -5.1999999999963293 -7.0000000000026432 9.9475983006414026e-014 -4.7016109951172671e-025 3.2027752751973332e-025 -1000 I I #
-424 point $-1 -1 -1 $-1 -1.7999999999962313 -7.0000000000026432 5.0000000000000995 #
-425 point $-1 -1 -1 $-1 -5.1999999999963293 -7.0000000000009805 5.0000000000000995 #
-426 ellipse-curve $-1 -1 -1 $-1 -3.4999999999962341 -7.0000000000026432 9.9475983006414026e-014 -4.7016109951172671e-028 3.202775275197333e-028 -1 -3.2500000000001972 0 0 1 I I #
-427 point $-1 -1 -1 $-1 -0.24999999999622702 -7.0000000000026432 9.9475983006414026e-014 #
-428 point $-1 -1 -1 $-1 -6.749999999996426 -7.0000000000026432 9.9475983006414026e-014 #
-429 ellipse-curve $-1 -1 -1 $-1 -3.4999999999963407 -7.0000000000003695 3.0000000000000995 -4.7016109951172671e-028 3.202775275197333e-028 -1 -3.2500000000001972 0 0 1 I I #
-430 ellipse-curve $-1 -1 -1 $-1 -3.4999999999968949 -93.250000184190512 3.0000000000003766 -4.7016109951172671e-028 3.202775275197333e-028 -1 -1.7000000000000972 0 0 1 I I #
-431 edge $-1 -1 -1 $-1 $433 -0.1002500001841956 $477 0 $407 $478 forward @7 unknown F #
-432 coedge $-1 -1 -1 $-1 $465 $378 $459 $479 reversed $282 $-1 #
-433 vertex $-1 -1 -1 $-1 $379 $480 #
-434 straight-curve $-1 -1 -1 $-1 -119.00000000000294 -6.3948846218409017e-013 5.0000000000015135 1000 -1.1662006561208255e-013 3.3095180164348305e-025 I I #
-435 ellipse-curve $-1 -1 -1 $-1 -3.4999999999963407 -7.0000000000003695 3.0000000000000995 -4.7016109951172671e-028 3.202775275197333e-028 -1 -1.7000000000000972 0 0 1 I I #
-436 point $-1 -1 -1 $-1 -1.799999999996345 -7.0000000000026432 3.0000000000000995 #
-437 coedge $-1 -1 -1 $-1 $481 $387 $465 $482 forward $332 $-1 #
-438 coedge $-1 -1 -1 $-1 $387 $481 $468 $483 forward $332 $-1 #
-439 edge $-1 -1 -1 $-1 $469 0 $466 0.10025000018418349 $387 $484 forward @7 unknown F #
-440 ellipse-curve $-1 -1 -1 $-1 -3.4999999999962341 -7.0000000000026432 9.9475983006414026e-014 -4.7016109951172671e-028 3.202775275197333e-028 -1 -3.2500000000001972 0 0 1 I I #
-441 coedge $-1 -1 -1 $-1 $409 $485 $397 $450 forward $390 $-1 #
-442 coedge $-1 -1 -1 $-1 $486 $392 $394 $447 reversed $336 $-1 #
-443 coedge $-1 -1 -1 $-1 $392 $486 $408 $461 forward $336 $-1 #
-444 coedge $-1 -1 -1 $-1 $417 $395 $392 $445 reversed $264 $-1 #
-445 edge $-1 -1 -1 $-1 $487 -0.090250000184190105 $448 0 $392 $488 forward @7 unknown F #
-446 coedge $-1 -1 -1 $-1 $394 $393 $485 $489 reversed $277 $-1 #
-447 edge $-1 -1 -1 $-1 $490 0 $448 0.0030000000000000001 $394 $491 forward @7 unknown F #
-448 vertex $-1 -1 -1 $-1 $447 $492 #
-449 straight-curve $-1 -1 -1 $-1 -9.9999999999957936 -90.250000184190512 5.0000000000004903 1000 -2.0305992834345547e-025 3.3095180164348305e-025 I I #
-450 edge $-1 -1 -1 $-1 $453 0 $451 0.090250000184191145 $441 $493 forward @7 unknown F #
-451 vertex $-1 -1 -1 $-1 $399 $494 #
-452 straight-curve $-1 -1 -1 $-1 -9.9999999999972928 6.3948846218409017e-013 2.0000000000016129 4.7016109951172671e-025 -3.2027752751973332e-025 1000 I I #
-453 vertex $-1 -1 -1 $-1 $400 $495 #
-454 straight-curve $-1 -1 -1 $-1 -9.9999999999961275 -90.250000184190512 2.0000000000004903 4.7016109951172671e-025 -3.2027752751973332e-025 1000 I I #
-455 point $-1 -1 -1 $-1 -9.9999999999957936 -90.250000184190512 5.0000000000004903 #
-456 point $-1 -1 -1 $-1 -9.9999999999971791 -3.5527136788005009e-013 5.0000000000015987 #
-457 coedge $-1 -1 -1 $-1 $414 $496 $416 $471 forward $405 $-1 #
-458 coedge $-1 -1 -1 $-1 $497 $407 $496 $498 reversed $345 $-1 #
-459 coedge $-1 -1 -1 $-1 $407 $497 $432 $479 forward $345 $-1 #
-460 coedge $-1 -1 -1 $-1 $408 $412 $417 $472 forward $282 $-1 #
-461 edge $-1 -1 -1 $-1 $463 0 $487 0.003000000000000007 $443 $499 forward @7 unknown F #
-462 coedge $-1 -1 -1 $-1 $485 $409 $486 $500 forward $390 $-1 #
-463 vertex $-1 -1 -1 $-1 $500 $501 #
-464 straight-curve $-1 -1 -1 $-1 -9.9999999999972928 6.3948846218409017e-013 2.0000000000016129 -1000 -1.4017967482619883e-013 -3.3065597880402517e-025 I I #
-465 coedge $-1 -1 -1 $-1 $412 $432 $437 $482 reversed $282 $-1 #
-466 vertex $-1 -1 -1 $-1 $482 $502 #
-467 straight-curve $-1 -1 -1 $-1 -119.0000000000025 -2.4726887204451486e-012 1.5134560271690134e-012 4.7016109951172671e-025 -3.2027752751973332e-025 1000 I I #
-468 coedge $-1 -1 -1 $-1 $496 $414 $438 $483 reversed $405 $-1 #
-469 vertex $-1 -1 -1 $-1 $483 $503 #
-470 straight-curve $-1 -1 -1 $-1 -119.00000000000094 -100.25000018418596 1.5987211554602254e-012 4.7016109951172671e-025 -3.2027752751973332e-025 1000 I I #
-471 edge $-1 -1 -1 $-1 $477 -0.11900000000000582 $418 0 $457 $504 forward @7 unknown F #
-472 edge $-1 -1 -1 $-1 $419 0 $487 0.0099999999999996723 $460 $505 forward @7 unknown F #
-473 point $-1 -1 -1 $-1 -119.00000000000139 -100.25000018418886 5.0000000000015987 #
-474 point $-1 -1 -1 $-1 -119.00000000000294 -6.3948846218409017e-013 5.0000000000015135 #
-475 ellipse-curve $-1 -1 -1 $-1 -3.4999999999963407 -7.0000000000003695 3.0000000000000995 -4.7016109951172671e-028 3.202775275197333e-028 -1 -1.7000000000000972 0 0 1 I I #
-476 point $-1 -1 -1 $-1 -5.199999999996443 -7.0000000000003695 3.0000000000000995 #
-477 vertex $-1 -1 -1 $-1 $431 $506 #
-478 straight-curve $-1 -1 -1 $-1 4.4408920985006262e-012 -100.25000018419296 5.0000000000005755 1.9891840859105577e-025 -1000 3.1002233575185764e-025 I I #
-479 edge $-1 -1 -1 $-1 $507 0 $433 0.0049999999999999507 $459 $508 forward @7 unknown F #
-480 point $-1 -1 -1 $-1 2.9416469260468148e-012 2.6432189770275727e-012 5.0000000000018758 #
-481 coedge $-1 -1 -1 $-1 $438 $437 $497 $509 forward $332 $-1 #
-482 edge $-1 -1 -1 $-1 $466 0 $507 0.11900000000000545 $437 $510 forward @7 unknown F #
-483 edge $-1 -1 -1 $-1 $511 -0.11900000000000537 $469 0 $438 $512 forward @7 unknown F #
-484 straight-curve $-1 -1 -1 $-1 -119.00000000000094 -100.25000018418596 1.5987211554602254e-012 -1.9891840859105577e-025 1000 -3.1002233575185764e-025 I I #
-485 coedge $-1 -1 -1 $-1 $441 $462 $446 $489 forward $390 $-1 #
-486 coedge $-1 -1 -1 $-1 $443 $442 $462 $500 reversed $336 $-1 #
-487 vertex $-1 -1 -1 $-1 $461 $513 #
-488 straight-curve $-1 -1 -1 $-1 -109.00000000000193 -90.250000184190739 5.0000000000004334 3.0754100342383257e-013 -1000 2.942451176474374e-025 I I #
-489 edge $-1 -1 -1 $-1 $490 -0.099000000000005792 $453 0 $485 $514 forward @7 unknown F #
-490 vertex $-1 -1 -1 $-1 $447 $515 #
-491 straight-curve $-1 -1 -1 $-1 -109.00000000000193 -90.250000184190739 2.0000000000004334 4.7016109951172671e-025 -3.2027752751973332e-025 1000 I I #
-492 point $-1 -1 -1 $-1 -109.00000000000193 -90.250000184190739 5.0000000000004334 #
-493 straight-curve $-1 -1 -1 $-1 -9.9999999999961275 -90.250000184190512 2.0000000000004903 -1.9891840859105577e-025 1000 -3.1002233575185764e-025 I I #
-494 point $-1 -1 -1 $-1 -9.9999999999972928 6.3948846218409017e-013 2.0000000000016129 #
-495 point $-1 -1 -1 $-1 -9.9999999999961275 -90.250000184190512 2.0000000000004903 #
-496 coedge $-1 -1 -1 $-1 $457 $468 $458 $498 forward $405 $-1 #
-497 coedge $-1 -1 -1 $-1 $459 $458 $481 $509 reversed $345 $-1 #
-498 edge $-1 -1 -1 $-1 $511 0 $477 0.005000000000000007 $496 $516 forward @7 unknown F #
-499 straight-curve $-1 -1 -1 $-1 -109.0000000000035 5.8264504332328215e-013 2.0000000000008455 4.7016109951172671e-025 -3.2027752751973332e-025 1000 I I #
-500 edge $-1 -1 -1 $-1 $463 -0.090250000184191326 $490 0 $462 $517 forward @7 unknown F #
-501 point $-1 -1 -1 $-1 -109.0000000000035 5.8264504332328215e-013 2.0000000000008455 #
-502 point $-1 -1 -1 $-1 -119.0000000000025 -2.4726887204451486e-012 1.5134560271690134e-012 #
-503 point $-1 -1 -1 $-1 -119.00000000000094 -100.25000018418596 1.5987211554602254e-012 #
-504 straight-curve $-1 -1 -1 $-1 -119.00000000000139 -100.25000018418886 5.0000000000015987 -1000 2.0305992834345547e-025 -3.3095180164348305e-025 I I #
-505 straight-curve $-1 -1 -1 $-1 -119.00000000000294 -6.3948846218409017e-013 5.0000000000015135 1000 -1.1662006561208255e-013 3.3095180164348305e-025 I I #
-506 point $-1 -1 -1 $-1 4.4408920985006262e-012 -100.25000018419296 5.0000000000005755 #
-507 vertex $-1 -1 -1 $-1 $482 $518 #
-508 straight-curve $-1 -1 -1 $-1 2.9416469260468148e-012 1.4210854715202004e-013 1.9255708139098715e-012 4.7016109951172671e-025 -3.2027752751973332e-025 1000 I I #
-509 edge $-1 -1 -1 $-1 $507 -0.10025000018419065 $511 0 $481 $519 forward @7 unknown F #
-510 straight-curve $-1 -1 -1 $-1 -119.0000000000025 -2.4726887204451486e-012 1.5134560271690134e-012 1000 -1.1662006561208255e-013 3.3095180164348305e-025 I I #
-511 vertex $-1 -1 -1 $-1 $509 $520 #
-512 straight-curve $-1 -1 -1 $-1 -119.00000000000094 -100.25000018418596 1.5987211554602254e-012 -1000 2.0305992834345547e-025 -3.3095180164348305e-025 I I #
-513 point $-1 -1 -1 $-1 -109.00000000000327 -6.3948846218409017e-013 5.0000000000008527 #
-514 straight-curve $-1 -1 -1 $-1 -9.9999999999961275 -90.250000184190512 2.0000000000004903 1000 -2.0305992834345547e-025 3.3095180164348305e-025 I I #
-515 point $-1 -1 -1 $-1 -109.00000000000193 -90.250000184190739 2.0000000000004334 #
-516 straight-curve $-1 -1 -1 $-1 4.4408920985006262e-012 -100.25000018419051 5.6843418860808015e-013 4.7016109951172671e-025 -3.2027752751973332e-025 1000 I I #
-517 straight-curve $-1 -1 -1 $-1 -109.00000000000193 -90.250000184190739 2.0000000000004334 3.0754100342383257e-013 -1000 2.942451176474374e-025 I I #
-518 point $-1 -1 -1 $-1 2.9416469260468148e-012 1.4210854715202004e-013 1.9255708139098715e-012 #
-519 straight-curve $-1 -1 -1 $-1 4.4408920985006262e-012 -100.25000018419051 5.6843418860808015e-013 1.9891840859105577e-025 -1000 3.1002233575185764e-025 I I #
-520 point $-1 -1 -1 $-1 4.4408920985006262e-012 -100.25000018419051 5.6843418860808015e-013 #
End-of-ACIS-data 