2200 0 1 0           
15 SolidWorks 2017 12 ACIS 22.0 NT 24 Fri Jan 05 08:35:43 2018 
1 9.9999999999999995e-007 1e-010 
-0 body $1 -1 -1 $-1 $2 $-1 $-1 F #
-1 name_attrib-gen-attrib $-1 -1 $-1 $-1 $0 2 1 1 1 1 1 1 1 1 1 1 1 1 1 0 1 1 1 @29 Filament Drive BL Touch Mount #
-2 lump $3 -1 -1 $-1 $-1 $4 $0 F #
-3 rgb_color-st-attrib $-1 -1 $-1 $-1 $2 2 1 2 1 1 1 1 1 1 1 1 1 1 1 0 1 1 1 1 0.93725490196078431 0.13725490196078433 #
-4 shell $-1 -1 -1 $-1 $-1 $-1 $5 $-1 $2 F #
-5 face $6 -1 -1 $-1 $7 $8 $4 $-1 $9 reversed single F T -4.0000000000000444 0 -3.1415926535897931 -1.9902563262814405e-030 #
-6 integer_attrib-name_attrib-gen-attrib $-1 -1 $10 $-1 $5 2 1 2 1 1 1 1 1 1 1 1 1 1 1 0 1 1 1 @11 Stock-BL2-1 0 #
-7 face $11 -1 -1 $-1 $12 $13 $4 $-1 $14 reversed single F T -4.0000000000000417 0 -3.1415926535897931 -1.9902563262814391e-030 #
-8 loop $-1 -1 -1 $-1 $-1 $15 $5 F unknown #
-9 cone-surface $-1 -1 -1 $-1 23.999999999999993 15.699999999999999 5 0 2.407331992566545e-033 1 1.2499999999999871 2.4998570678146083e-030 0 1 I I 0 1 1.2499999999999871 forward I I I I #
-10 rgb_color-st-attrib $-1 -1 $-1 $6 $5 2 1 2 1 1 1 1 1 1 1 1 1 1 1 0 1 1 1 0.792156862745098 0.81960784313725488 0.93333333333333335 #
-11 integer_attrib-name_attrib-gen-attrib $-1 -1 $16 $-1 $7 2 1 2 1 1 1 1 1 1 1 1 1 1 1 0 1 1 1 @11 Stock-BL2-1 0 #
-12 face $17 -1 -1 $-1 $18 $19 $4 $-1 $20 reversed single F T -4.0000000000000453 2.4073319925668224e-033 -3.1415926535897931 7.9995426170069097e-030 #
-13 loop $-1 -1 -1 $-1 $-1 $21 $7 F unknown #
-14 cone-surface $-1 -1 -1 $-1 6.0000000000000018 15.699999999999999 4.9999999999984732 0 2.407331992566545e-033 1 1.249999999999988 2.4998570678146083e-030 0 1 I I 0 1 1.249999999999988 forward I I I I #
-15 coedge $-1 -1 -1 $-1 $22 $23 $24 $25 forward $8 $-1 #
-16 rgb_color-st-attrib $-1 -1 $-1 $11 $7 2 1 2 1 1 1 1 1 1 1 1 1 1 1 0 1 1 1 0.792156862745098 0.81960784313725488 0.93333333333333335 #
-17 integer_attrib-name_attrib-gen-attrib $-1 -1 $26 $-1 $12 2 1 2 1 1 1 1 1 1 1 1 1 1 1 0 1 1 1 @11 Stock-BL2-1 0 #
-18 face $27 -1 -1 $-1 $28 $29 $4 $-1 $30 reversed single F F #
-19 loop $-1 -1 -1 $-1 $-1 $31 $12 F unknown #
-20 cone-surface $-1 -1 -1 $-1 6.0000000000000018 7.1054273576010019e-015 12.131933580906384 -1.9998856542517057e-030 -1 -2.407331992566818e-033 0 0 1.2499999999999871 1 I I 0 1 1.2499999999999871 forward I I I I #
-21 coedge $-1 -1 -1 $-1 $32 $33 $34 $35 forward $13 $-1 #
-22 coedge $-1 -1 -1 $-1 $36 $15 $37 $38 forward $8 $-1 #
-23 coedge $-1 -1 -1 $-1 $15 $36 $39 $40 reversed $8 $-1 #
-24 coedge $-1 -1 -1 $-1 $41 $41 $15 $25 reversed $42 $-1 #
-25 edge $-1 -1 -1 $-1 $43 -3.1415926535897931 $44 1.9998856542517057e-030 $15 $45 forward @7 unknown F #
-26 rgb_color-st-attrib $-1 -1 $-1 $17 $12 2 1 2 1 1 1 1 1 1 1 1 1 1 1 0 1 1 1 0.792156862745098 0.81960784313725488 0.93333333333333335 #
-27 integer_attrib-name_attrib-gen-attrib $-1 -1 $-1 $-1 $18 2 1 2 1 1 1 1 1 1 1 1 1 1 1 0 1 1 1 @11 Stock-BL2-1 0 #
-28 face $46 -1 -1 $-1 $47 $48 $4 $-1 $49 reversed single F F #
-29 loop $-1 -1 -1 $-1 $50 $51 $18 F unknown #
-30 plane-surface $-1 -1 -1 $-1 29.999999999999996 7.1054273576010019e-015 -4.4408920985006262e-015 1.9998856542517057e-030 1 -2.407331992566545e-033 0 -2.4073319925665451e-030 -1000 forward_v I I I I #
-31 coedge $-1 -1 -1 $-1 $52 $53 $54 $55 reversed $19 $-1 #
-32 coedge $-1 -1 -1 $-1 $56 $21 $57 $58 forward $13 $-1 #
-33 coedge $-1 -1 -1 $-1 $21 $56 $59 $60 reversed $13 $-1 #
-34 coedge $-1 -1 -1 $-1 $61 $61 $21 $35 reversed $62 $-1 #
-35 edge $-1 -1 -1 $-1 $63 -3.1415926535897931 $64 1.9998856542517071e-030 $21 $65 forward @7 unknown F #
-36 coedge $-1 -1 -1 $-1 $23 $22 $66 $67 forward $8 $-1 #
-37 coedge $-1 -1 -1 $-1 $68 $69 $22 $38 reversed $70 $-1 #
-38 edge $-1 -1 -1 $-1 $44 -0.0050000000000000044 $71 0 $22 $72 forward @7 unknown F #
-39 coedge $-1 -1 -1 $-1 $69 $68 $23 $40 forward $70 $-1 #
-40 edge $-1 -1 -1 $-1 $43 -0.0050000000000000044 $73 0 $39 $74 forward @7 unknown F #
-41 coedge $-1 -1 -1 $-1 $24 $24 $68 $75 reversed $42 $-1 #
-42 loop $-1 -1 -1 $-1 $62 $24 $76 F unknown #
-43 vertex $-1 -1 -1 $-1 $75 $77 #
-44 vertex $-1 -1 -1 $-1 $38 $78 #
-45 ellipse-curve $-1 -1 -1 $-1 24.000000000000004 15.699999999999999 -4.4408920985006262e-015 0 -2.407331992566545e-033 -1 -1.249999999999988 -2.4998570678146083e-030 0 1 I I #
-46 integer_attrib-name_attrib-gen-attrib $-1 -1 $-1 $-1 $28 2 1 2 1 1 1 1 1 1 1 1 1 1 1 0 1 1 1 @11 Stock-BL2-1 0 #
-47 face $79 -1 -1 $-1 $80 $81 $4 $-1 $82 reversed single F F #
-48 loop $-1 -1 -1 $-1 $83 $84 $28 F unknown #
-49 plane-surface $-1 -1 -1 $-1 14.999999999999996 15.699999999999999 5 4.8143887169550074e-063 -2.407331992566545e-033 -1 -1000 -1.9998856542517057e-027 0 forward_v I I I I #
-50 loop $-1 -1 -1 $-1 $-1 $85 $18 F unknown #
-51 coedge $-1 -1 -1 $-1 $86 $86 $87 $88 reversed $29 $-1 #
-52 coedge $-1 -1 -1 $-1 $89 $31 $90 $91 forward $19 $-1 #
-53 coedge $-1 -1 -1 $-1 $31 $89 $92 $93 reversed $19 $-1 #
-54 coedge $-1 -1 -1 $-1 $94 $94 $31 $55 forward $95 $-1 #
-55 edge $-1 -1 -1 $-1 $96 -3.1415926535897931 $97 0 $54 $98 forward @7 unknown F #
-56 coedge $-1 -1 -1 $-1 $33 $32 $99 $100 forward $13 $-1 #
-57 coedge $-1 -1 -1 $-1 $101 $102 $32 $58 reversed $103 $-1 #
-58 edge $-1 -1 -1 $-1 $64 -0.0050000000000000044 $104 0 $32 $105 forward @7 unknown F #
-59 coedge $-1 -1 -1 $-1 $102 $101 $33 $60 forward $103 $-1 #
-60 edge $-1 -1 -1 $-1 $63 -0.0050000000000000044 $106 0 $59 $107 forward @7 unknown F #
-61 coedge $-1 -1 -1 $-1 $34 $34 $101 $108 reversed $62 $-1 #
-62 loop $-1 -1 -1 $-1 $109 $34 $76 F unknown #
-63 vertex $-1 -1 -1 $-1 $108 $110 #
-64 vertex $-1 -1 -1 $-1 $58 $111 #
-65 ellipse-curve $-1 -1 -1 $-1 6.0000000000000018 15.699999999999999 -1.5312195955630159e-012 0 -2.407331992566545e-033 -1 -1.2499999999999871 -2.4998570678146083e-030 0 1 I I #
-66 coedge $-1 -1 -1 $-1 $84 $84 $36 $67 reversed $48 $-1 #
-67 edge $-1 -1 -1 $-1 $71 -3.1415926535897931 $73 -1.9998856542517057e-030 $36 $112 forward @7 unknown F #
-68 coedge $-1 -1 -1 $-1 $39 $37 $41 $75 forward $70 $-1 #
-69 coedge $-1 -1 -1 $-1 $37 $39 $84 $113 forward $70 $-1 #
-70 loop $-1 -1 -1 $-1 $-1 $37 $114 F unknown #
-71 vertex $-1 -1 -1 $-1 $38 $115 #
-72 straight-curve $-1 -1 -1 $-1 22.750000000000004 15.699999999999999 5 0 2.4073319925665451e-030 1000 I I #
-73 vertex $-1 -1 -1 $-1 $67 $116 #
-74 straight-curve $-1 -1 -1 $-1 25.249999999999979 15.699999999999999 5 0 2.4073319925665451e-030 1000 I I #
-75 edge $-1 -1 -1 $-1 $44 1.9998856542517057e-030 $43 3.1415926535897931 $68 $117 forward @7 unknown F #
-76 face $118 -1 -1 $-1 $119 $42 $4 $-1 $120 forward single F F #
-77 point $-1 -1 -1 $-1 25.249999999999993 15.699999999999999 -4.4408920985006262e-015 #
-78 point $-1 -1 -1 $-1 22.750000000000014 15.699999999999999 -4.4408920985006262e-015 #
-79 integer_attrib-name_attrib-gen-attrib $-1 -1 $-1 $-1 $47 2 1 2 1 1 1 1 1 1 1 1 1 1 1 0 1 1 1 @11 Stock-BL2-1 0 #
-80 face $121 -1 -1 $-1 $122 $123 $4 $-1 $124 reversed single F F #
-81 loop $-1 -1 -1 $-1 $-1 $125 $47 F unknown #
-82 plane-surface $-1 -1 -1 $-1 29.999999999999996 23.700000000000006 -4.4408920985006262e-015 -1 1.463901667490991e-016 -5.6213761054898009e-063 1.4639016674909909e-013 1000 -1.9288545826443467e-030 forward_v I I I I #
-83 loop $-1 -1 -1 $-1 $126 $127 $28 F unknown #
-84 coedge $-1 -1 -1 $-1 $66 $66 $69 $113 reversed $48 $-1 #
-85 coedge $-1 -1 -1 $-1 $128 $129 $130 $131 forward $50 $-1 #
-86 coedge $-1 -1 -1 $-1 $51 $51 $89 $132 reversed $29 $-1 #
-87 coedge $-1 -1 -1 $-1 $90 $92 $51 $88 forward $133 $-1 #
-88 edge $-1 -1 -1 $-1 $134 -6.9089348440756745e-079 $135 3.1415926535897931 $87 $136 forward @7 unknown F #
-89 coedge $-1 -1 -1 $-1 $53 $52 $86 $132 forward $19 $-1 #
-90 coedge $-1 -1 -1 $-1 $137 $87 $52 $91 reversed $133 $-1 #
-91 edge $-1 -1 -1 $-1 $96 -0.0050000000000000053 $135 4.2762806497031003e-051 $52 $138 forward @7 unknown F #
-92 coedge $-1 -1 -1 $-1 $87 $137 $53 $93 forward $133 $-1 #
-93 edge $-1 -1 -1 $-1 $97 -0.0050000000000000053 $134 -4.2762806497031003e-051 $92 $139 forward @7 unknown F #
-94 coedge $-1 -1 -1 $-1 $54 $54 $137 $140 forward $95 $-1 #
-95 loop $-1 -1 -1 $-1 $141 $94 $119 F unknown #
-96 vertex $-1 -1 -1 $-1 $91 $142 #
-97 vertex $-1 -1 -1 $-1 $55 $143 #
-98 ellipse-curve $-1 -1 -1 $-1 6.0000000000000018 5.0000000000000124 12.131933580906384 -1.9998856542517057e-030 -1 -2.407331992566818e-033 0 0 1.2499999999999871 1 I I #
-99 coedge $-1 -1 -1 $-1 $127 $127 $56 $100 reversed $83 $-1 #
-100 edge $-1 -1 -1 $-1 $104 -3.1415926535897931 $106 -1.9998856542517057e-030 $56 $144 forward @7 unknown F #
-101 coedge $-1 -1 -1 $-1 $59 $57 $61 $108 forward $103 $-1 #
-102 coedge $-1 -1 -1 $-1 $57 $59 $127 $145 forward $103 $-1 #
-103 loop $-1 -1 -1 $-1 $-1 $57 $146 F unknown #
-104 vertex $-1 -1 -1 $-1 $58 $147 #
-105 straight-curve $-1 -1 -1 $-1 4.7500000000000142 15.699999999999999 4.9999999999984732 0 2.4073319925665451e-030 1000 I I #
-106 vertex $-1 -1 -1 $-1 $100 $148 #
-107 straight-curve $-1 -1 -1 $-1 7.2499999999999902 15.699999999999999 4.9999999999984732 0 2.4073319925665451e-030 1000 I I #
-108 edge $-1 -1 -1 $-1 $64 1.9998856542517071e-030 $63 3.1415926535897931 $101 $149 forward @7 unknown F #
-109 loop $-1 -1 -1 $-1 $-1 $150 $76 F unknown #
-110 point $-1 -1 -1 $-1 7.2499999999999902 15.699999999999999 -1.5312195955630159e-012 #
-111 point $-1 -1 -1 $-1 4.7500000000000142 15.699999999999999 -1.5312195955630159e-012 #
-112 ellipse-curve $-1 -1 -1 $-1 23.999999999999993 15.699999999999999 5 0 2.407331992566545e-033 1 1.2499999999999889 2.4998570678146101e-030 0 1 I I #
-113 edge $-1 -1 -1 $-1 $73 -1.9998856542517057e-030 $71 3.1415926535897931 $69 $151 forward @7 unknown F #
-114 face $152 -1 -1 $-1 $153 $70 $4 $-1 $154 reversed single F T -4.0000000000000444 0 -1.9998856542517071e-030 3.1415926535897931 #
-115 point $-1 -1 -1 $-1 22.75 15.699999999999999 5 #
-116 point $-1 -1 -1 $-1 25.249999999999979 15.699999999999999 5 #
-117 ellipse-curve $-1 -1 -1 $-1 24.000000000000004 15.699999999999999 -4.4408920985006262e-015 0 -2.407331992566545e-033 -1 -1.249999999999988 -2.4998570678146083e-030 0 1 I I #
-118 integer_attrib-name_attrib-gen-attrib $-1 -1 $-1 $-1 $76 2 1 2 1 1 1 1 1 1 1 1 1 1 1 0 1 1 1 @11 Stock-BL2-1 0 #
-119 face $155 -1 -1 $-1 $156 $95 $4 $-1 $157 reversed single F F #
-120 plane-surface $-1 -1 -1 $-1 14.999999999999996 15.699999999999999 -4.4408920985006262e-015 4.8143887169550074e-063 -2.407331992566545e-033 -1 -1000 -1.9998856542517057e-027 0 forward_v I I I I #
-121 integer_attrib-name_attrib-gen-attrib $-1 -1 $-1 $-1 $80 2 1 2 1 1 1 1 1 1 1 1 1 1 1 0 1 1 1 @11 Stock-BL2-1 0 #
-122 face $158 -1 -1 $-1 $76 $159 $4 $-1 $160 reversed single F F #
-123 loop $-1 -1 -1 $-1 $-1 $161 $80 F unknown #
-124 plane-surface $-1 -1 -1 $-1 -3.5527136788005009e-015 23.700000000000006 -1.5312195955630159e-012 1 1.4639016674909619e-016 -1.9598851827248225e-062 1.4639016674909618e-013 -1000 -6.7435185677778321e-030 forward_v I I I I #
-125 coedge $-1 -1 -1 $-1 $162 $163 $164 $165 forward $81 $-1 #
-126 loop $-1 -1 -1 $-1 $-1 $166 $28 F unknown #
-127 coedge $-1 -1 -1 $-1 $99 $99 $102 $145 reversed $83 $-1 #
-128 coedge $-1 -1 -1 $-1 $167 $85 $168 $169 forward $50 $-1 #
-129 coedge $-1 -1 -1 $-1 $85 $170 $171 $172 reversed $50 $-1 #
-130 coedge $-1 -1 -1 $-1 $173 $174 $85 $131 reversed $175 $-1 #
-131 edge $-1 -1 -1 $-1 $176 0.0064819319519389433 $177 0.01119908923946457 $85 $178 forward @7 unknown F #
-132 edge $-1 -1 -1 $-1 $135 -3.1415926535897931 $134 -6.9089348440756745e-079 $89 $179 forward @7 unknown F #
-133 loop $-1 -1 -1 $-1 $-1 $90 $180 F unknown #
-134 vertex $-1 -1 -1 $-1 $132 $181 #
-135 vertex $-1 -1 -1 $-1 $91 $182 #
-136 ellipse-curve $-1 -1 -1 $-1 6.0000000000000018 7.1054273576010019e-015 12.131933580906384 -1.9998856542517057e-030 -1 -2.407331992566818e-033 0 0 1.2499999999999889 1 I I #
-137 coedge $-1 -1 -1 $-1 $92 $90 $94 $140 reversed $133 $-1 #
-138 straight-curve $-1 -1 -1 $-1 6.0000000000000018 7.1054273576010019e-015 10.881933580906399 -1.9998856542517057e-027 -1000 -2.407331992566818e-030 I I #
-139 straight-curve $-1 -1 -1 $-1 6.0000000000000018 7.1054273576010019e-015 13.381933580906372 -1.9998856542517057e-027 -1000 -2.407331992566818e-030 I I #
-140 edge $-1 -1 -1 $-1 $97 0 $96 3.1415926535897931 $94 $183 forward @7 unknown F #
-141 loop $-1 -1 -1 $-1 $-1 $184 $119 F unknown #
-142 point $-1 -1 -1 $-1 6.0000000000000018 5.0000000000000124 10.881933580906399 #
-143 point $-1 -1 -1 $-1 6.0000000000000018 5.0000000000000124 13.381933580906372 #
-144 ellipse-curve $-1 -1 -1 $-1 6.0000000000000018 15.699999999999999 4.9999999999984732 0 2.407331992566545e-033 1 1.2499999999999889 2.4998570678146101e-030 0 1 I I #
-145 edge $-1 -1 -1 $-1 $106 -1.9998856542517057e-030 $104 3.1415926535897931 $102 $185 forward @7 unknown F #
-146 face $186 -1 -1 $-1 $114 $103 $4 $-1 $187 reversed single F T -4.0000000000000417 0 -1.9998856542517057e-030 3.1415926535897931 #
-147 point $-1 -1 -1 $-1 4.7500000000000142 15.699999999999999 4.9999999999984732 #
-148 point $-1 -1 -1 $-1 7.2499999999999911 15.699999999999999 4.9999999999984732 #
-149 ellipse-curve $-1 -1 -1 $-1 6.0000000000000018 15.699999999999999 -1.5312195955630159e-012 0 -2.407331992566545e-033 -1 -1.2499999999999871 -2.4998570678146083e-030 0 1 I I #
-150 coedge $-1 -1 -1 $-1 $188 $189 $190 $191 forward $109 $-1 #
-151 ellipse-curve $-1 -1 -1 $-1 23.999999999999993 15.699999999999999 5 0 2.407331992566545e-033 1 1.2499999999999889 2.4998570678146101e-030 0 1 I I #
-152 integer_attrib-name_attrib-gen-attrib $-1 -1 $192 $-1 $114 2 1 2 1 1 1 1 1 1 1 1 1 1 1 0 1 1 1 @11 Stock-BL2-1 0 #
-153 face $193 -1 -1 $-1 $194 $195 $4 $-1 $196 forward single F F #
-154 cone-surface $-1 -1 -1 $-1 23.999999999999993 15.699999999999999 5 0 2.407331992566545e-033 1 1.2499999999999871 2.4998570678146083e-030 0 1 I I 0 1 1.2499999999999871 forward I I I I #
-155 integer_attrib-name_attrib-gen-attrib $-1 -1 $-1 $-1 $119 2 1 2 1 1 1 1 1 1 1 1 1 1 1 0 1 1 1 @11 Stock-BL2-1 0 #
-156 face $197 -1 -1 $-1 $180 $198 $4 $-1 $199 forward single F F #
-157 plane-surface $-1 -1 -1 $-1 29.999999999999996 5.0000000000000124 24.999999999999989 -1.9998856542517057e-030 -1 2.407331992566545e-033 0 2.4073319925665451e-030 1000 forward_v I I I I #
-158 integer_attrib-name_attrib-gen-attrib $-1 -1 $-1 $-1 $122 2 1 2 1 1 1 1 1 1 1 1 1 1 1 0 1 1 1 @11 Stock-BL2-1 0 #
-159 loop $-1 -1 -1 $-1 $-1 $200 $122 F unknown #
-160 plane-surface $-1 -1 -1 $-1 29.999999999999996 23.700000000000006 -4.4408920985006262e-015 -1.9998856542517057e-030 -1 2.407331992566545e-033 0 2.4073319925665451e-030 1000 forward_v I I I I #
-161 coedge $-1 -1 -1 $-1 $201 $202 $203 $204 forward $123 $-1 #
-162 coedge $-1 -1 -1 $-1 $205 $125 $206 $207 reversed $81 $-1 #
-163 coedge $-1 -1 -1 $-1 $125 $190 $208 $209 forward $81 $-1 #
-164 coedge $-1 -1 -1 $-1 $210 $166 $125 $165 reversed $126 $-1 #
-165 edge $-1 -1 -1 $-1 $211 0 $212 0.018699999999999994 $125 $213 forward @7 unknown F #
-166 coedge $-1 -1 -1 $-1 $164 $214 $184 $215 reversed $126 $-1 #
-167 coedge $-1 -1 -1 $-1 $203 $128 $216 $217 forward $50 $-1 #
-168 coedge $-1 -1 -1 $-1 $218 $219 $128 $169 reversed $220 $-1 #
-169 edge $-1 -1 -1 $-1 $177 -0.0043301270189222973 $221 0.011999999999999983 $128 $222 forward @7 unknown F #
-170 coedge $-1 -1 -1 $-1 $129 $223 $224 $225 forward $50 $-1 #
-171 coedge $-1 -1 -1 $-1 $226 $227 $129 $172 forward $195 $-1 #
-172 edge $-1 -1 -1 $-1 $176 -0.0043301270189222973 $228 0.011999999999999983 $171 $229 forward @7 unknown F #
-173 coedge $-1 -1 -1 $-1 $174 $130 $227 $230 reversed $175 $-1 #
-174 coedge $-1 -1 -1 $-1 $130 $173 $218 $231 reversed $175 $-1 #
-175 loop $-1 -1 -1 $-1 $-1 $130 $232 F unknown #
-176 vertex $-1 -1 -1 $-1 $172 $233 #
-177 vertex $-1 -1 -1 $-1 $169 $234 #
-178 straight-curve $-1 -1 -1 $-1 29.999999999999996 7.1054273576010019e-015 8.6698729810777095 -1000 -1.9998856542517057e-027 0 I I #
-179 ellipse-curve $-1 -1 -1 $-1 6.0000000000000018 7.1054273576010019e-015 12.131933580906384 -1.9998856542517057e-030 -1 -2.407331992566818e-033 0 0 1.2499999999999889 1 I I #
-180 face $235 -1 -1 $-1 $146 $133 $4 $-1 $236 reversed single F T -4.0000000000000453 2.4073319925668224e-033 0 3.1415926535897931 #
-181 point $-1 -1 -1 $-1 6.0000000000000018 7.1054273576010019e-015 13.381933580906374 #
-182 point $-1 -1 -1 $-1 6.0000000000000018 7.1054273576010019e-015 10.881933580906397 #
-183 ellipse-curve $-1 -1 -1 $-1 6.0000000000000018 5.0000000000000124 12.131933580906384 -1.9998856542517057e-030 -1 -2.407331992566818e-033 0 0 1.2499999999999871 1 I I #
-184 coedge $-1 -1 -1 $-1 $237 $206 $166 $215 forward $141 $-1 #
-185 ellipse-curve $-1 -1 -1 $-1 6.0000000000000018 15.699999999999999 4.9999999999984732 0 2.407331992566545e-033 1 1.2499999999999889 2.4998570678146101e-030 0 1 I I #
-186 integer_attrib-name_attrib-gen-attrib $-1 -1 $238 $-1 $146 2 1 2 1 1 1 1 1 1 1 1 1 1 1 0 1 1 1 @11 Stock-BL2-1 0 #
-187 cone-surface $-1 -1 -1 $-1 6.0000000000000018 15.699999999999999 4.9999999999984732 0 2.407331992566545e-033 1 1.249999999999988 2.4998570678146083e-030 0 1 I I 0 1 1.249999999999988 forward I I I I #
-188 coedge $-1 -1 -1 $-1 $239 $150 $240 $241 forward $109 $-1 #
-189 coedge $-1 -1 -1 $-1 $150 $239 $242 $243 forward $109 $-1 #
-190 coedge $-1 -1 -1 $-1 $163 $244 $150 $191 reversed $81 $-1 #
-191 edge $-1 -1 -1 $-1 $245 0 $246 0.023699999999999999 $150 $247 forward @7 unknown F #
-192 rgb_color-st-attrib $-1 -1 $-1 $152 $114 2 1 2 1 1 1 1 1 1 1 1 1 1 1 0 1 1 1 0.792156862745098 0.81960784313725488 0.93333333333333335 #
-193 integer_attrib-name_attrib-gen-attrib $-1 -1 $-1 $-1 $153 2 1 2 1 1 1 1 1 1 1 1 1 1 1 0 1 1 1 @11 Stock-BL2-1 0 #
-194 face $248 -1 -1 $-1 $232 $220 $4 $-1 $249 forward single F F #
-195 loop $-1 -1 -1 $-1 $-1 $226 $153 F unknown #
-196 plane-surface $-1 -1 -1 $-1 21.159489404298249 -2.3585786437628151 13.000000000000007 0.70710678118654813 -0.70710678118654691 -0 -707.10678118654687 -707.10678118654812 0 forward_v I I I I #
-197 integer_attrib-name_attrib-gen-attrib $-1 -1 $-1 $-1 $156 2 1 2 1 1 1 1 1 1 1 1 1 1 1 0 1 1 1 @11 Stock-BL2-1 0 #
-198 loop $-1 -1 -1 $-1 $-1 $250 $156 F unknown #
-199 plane-surface $-1 -1 -1 $-1 15.000000000000011 15.699999999999999 24.999999999999989 -4.8143887169550074e-063 2.407331992566545e-033 1 1000 1.9998856542517057e-027 0 forward_v I I I I #
-200 coedge $-1 -1 -1 $-1 $208 $251 $210 $252 forward $159 $-1 #
-201 coedge $-1 -1 -1 $-1 $253 $161 $254 $255 forward $123 $-1 #
-202 coedge $-1 -1 -1 $-1 $161 $256 $239 $257 reversed $123 $-1 #
-203 coedge $-1 -1 -1 $-1 $240 $167 $161 $204 reversed $50 $-1 #
-204 edge $-1 -1 -1 $-1 $258 0 $259 0.025000000000000022 $161 $260 forward @7 unknown F #
-205 coedge $-1 -1 -1 $-1 $244 $162 $261 $262 forward $81 $-1 #
-206 coedge $-1 -1 -1 $-1 $184 $263 $162 $207 forward $141 $-1 #
-207 edge $-1 -1 -1 $-1 $264 0 $212 0.01999999999999999 $206 $265 forward @7 unknown F #
-208 coedge $-1 -1 -1 $-1 $242 $200 $163 $209 reversed $159 $-1 #
-209 edge $-1 -1 -1 $-1 $245 0 $211 0.0050000000000000044 $163 $266 forward @7 unknown F #
-210 coedge $-1 -1 -1 $-1 $214 $164 $200 $252 reversed $126 $-1 #
-211 vertex $-1 -1 -1 $-1 $252 $267 #
-212 vertex $-1 -1 -1 $-1 $215 $268 #
-213 straight-curve $-1 -1 -1 $-1 29.999999999999996 23.700000000000006 5 -1.4639016674909909e-013 -1000 1.9288545826443467e-030 I I #
-214 coedge $-1 -1 -1 $-1 $166 $210 $269 $270 reversed $126 $-1 #
-215 edge $-1 -1 -1 $-1 $212 0 $271 0.029999999999999999 $184 $272 forward @7 unknown F #
-216 coedge $-1 -1 -1 $-1 $273 $254 $167 $217 reversed $198 $-1 #
-217 edge $-1 -1 -1 $-1 $221 0.011199089239464541 $259 0.029999999999999985 $167 $274 forward @7 unknown F #
-218 coedge $-1 -1 -1 $-1 $275 $168 $174 $231 forward $220 $-1 #
-219 coedge $-1 -1 -1 $-1 $168 $275 $273 $276 reversed $220 $-1 #
-220 loop $-1 -1 -1 $-1 $-1 $219 $194 F unknown #
-221 vertex $-1 -1 -1 $-1 $276 $277 #
-222 straight-curve $-1 -1 -1 $-1 18.800910760535441 7.1054273576010019e-015 13.000000000000007 0 2.4073319925665451e-030 1000 I I #
-223 coedge $-1 -1 -1 $-1 $170 $240 $244 $278 forward $50 $-1 #
-224 coedge $-1 -1 -1 $-1 $261 $279 $170 $225 reversed $198 $-1 #
-225 edge $-1 -1 -1 $-1 $280 0 $228 0.0064819319519389147 $170 $281 forward @7 unknown F #
-226 coedge $-1 -1 -1 $-1 $282 $171 $279 $283 reversed $195 $-1 #
-227 coedge $-1 -1 -1 $-1 $171 $282 $173 $230 forward $195 $-1 #
-228 vertex $-1 -1 -1 $-1 $172 $284 #
-229 straight-curve $-1 -1 -1 $-1 23.518068048061068 7.1054273576010019e-015 13.000000000000007 0 2.4073319925665451e-030 1000 I I #
-230 edge $-1 -1 -1 $-1 $285 -0.0081727502717456116 $176 -0.0028988080940126563 $227 $286 forward @7 unknown F #
-231 edge $-1 -1 -1 $-1 $177 -0.0050083849651057985 $285 0.00026555721262716406 $218 $287 forward @7 unknown F #
-232 face $288 -1 -1 $-1 $-1 $175 $4 $-1 $289 reversed single F F #
-233 point $-1 -1 -1 $-1 23.518068048061053 7.1054273576010019e-015 8.6698729810777095 #
-234 point $-1 -1 -1 $-1 18.800910760535427 7.1054273576010019e-015 8.6698729810777095 #
-235 integer_attrib-name_attrib-gen-attrib $-1 -1 $290 $-1 $180 2 1 2 1 1 1 1 1 1 1 1 1 1 1 0 1 1 1 @11 Stock-BL2-1 0 #
-236 cone-surface $-1 -1 -1 $-1 6.0000000000000018 7.1054273576010019e-015 12.131933580906384 -1.9998856542517057e-030 -1 -2.407331992566818e-033 0 0 1.2499999999999871 1 I I 0 1 1.2499999999999871 forward I I I I #
-237 coedge $-1 -1 -1 $-1 $263 $184 $253 $291 reversed $141 $-1 #
-238 rgb_color-st-attrib $-1 -1 $-1 $186 $146 2 1 2 1 1 1 1 1 1 1 1 1 1 1 0 1 1 1 0.792156862745098 0.81960784313725488 0.93333333333333335 #
-239 coedge $-1 -1 -1 $-1 $189 $188 $202 $257 forward $109 $-1 #
-240 coedge $-1 -1 -1 $-1 $223 $203 $188 $241 reversed $50 $-1 #
-241 edge $-1 -1 -1 $-1 $246 0 $258 0.029999999999999985 $188 $292 forward @7 unknown F #
-242 coedge $-1 -1 -1 $-1 $251 $208 $189 $243 reversed $159 $-1 #
-243 edge $-1 -1 -1 $-1 $293 -0.029999999999999999 $245 0 $189 $294 forward @7 unknown F #
-244 coedge $-1 -1 -1 $-1 $190 $205 $223 $278 reversed $81 $-1 #
-245 vertex $-1 -1 -1 $-1 $243 $295 #
-246 vertex $-1 -1 -1 $-1 $241 $296 #
-247 straight-curve $-1 -1 -1 $-1 29.999999999999996 23.700000000000006 -4.4408920985006262e-015 -1.4639016674909909e-013 -1000 1.9288545826443467e-030 I I #
-248 integer_attrib-name_attrib-gen-attrib $-1 -1 $-1 $-1 $194 2 1 2 1 1 1 1 1 1 1 1 1 1 1 0 1 1 1 @11 Stock-BL2-1 0 #
-249 plane-surface $-1 -1 -1 $-1 18.800910760535441 7.1054273576010019e-015 13.000000000000007 -0.70710678118654879 -0.70710678118654635 0 -707.10678118654641 707.10678118654891 -1.2325951644078309e-029 forward_v I I I I #
-250 coedge $-1 -1 -1 $-1 $254 $261 $263 $297 forward $198 $-1 #
-251 coedge $-1 -1 -1 $-1 $200 $242 $256 $298 forward $159 $-1 #
-252 edge $-1 -1 -1 $-1 $299 -0.029999999999999999 $211 0 $200 $300 forward @7 unknown F #
-253 coedge $-1 -1 -1 $-1 $269 $201 $237 $291 forward $123 $-1 #
-254 coedge $-1 -1 -1 $-1 $216 $250 $201 $255 reversed $198 $-1 #
-255 edge $-1 -1 -1 $-1 $259 0 $301 0.0050000000000000053 $201 $302 forward @7 unknown F #
-256 coedge $-1 -1 -1 $-1 $202 $269 $251 $298 reversed $123 $-1 #
-257 edge $-1 -1 -1 $-1 $258 -0.023699999999999999 $293 0 $239 $303 forward @7 unknown F #
-258 vertex $-1 -1 -1 $-1 $241 $304 #
-259 vertex $-1 -1 -1 $-1 $217 $305 #
-260 straight-curve $-1 -1 -1 $-1 1.0658141036401503e-014 7.1054273576010019e-015 -1.5312195955630159e-012 0 2.4073319925665451e-030 1000 I I #
-261 coedge $-1 -1 -1 $-1 $250 $224 $205 $262 reversed $198 $-1 #
-262 edge $-1 -1 -1 $-1 $264 -0 $280 0.0050000000000000053 $205 $306 forward @7 unknown F #
-263 coedge $-1 -1 -1 $-1 $206 $237 $250 $297 reversed $141 $-1 #
-264 vertex $-1 -1 -1 $-1 $207 $307 #
-265 straight-curve $-1 -1 -1 $-1 29.999999999999996 5.0000000000000124 24.999999999999989 0 -2.4073319925665451e-030 -1000 I I #
-266 straight-curve $-1 -1 -1 $-1 29.999999999999996 23.700000000000006 -4.4408920985006262e-015 0 2.4073319925665451e-030 1000 I I #
-267 point $-1 -1 -1 $-1 29.999999999999996 23.700000000000006 5 #
-268 point $-1 -1 -1 $-1 29.999999999999996 5.0000000000000124 5 #
-269 coedge $-1 -1 -1 $-1 $256 $253 $214 $270 forward $123 $-1 #
-270 edge $-1 -1 -1 $-1 $271 -0.018699999999999994 $299 0 $269 $308 forward @7 unknown F #
-271 vertex $-1 -1 -1 $-1 $270 $309 #
-272 straight-curve $-1 -1 -1 $-1 29.999999999999996 5.0000000000000124 5 -1000 -1.9998856542517057e-027 0 I I #
-273 coedge $-1 -1 -1 $-1 $279 $216 $219 $276 forward $198 $-1 #
-274 straight-curve $-1 -1 -1 $-1 29.999999999999996 7.1054273576010019e-015 24.999999999999989 -1000 -1.9998856542517057e-027 0 I I #
-275 coedge $-1 -1 -1 $-1 $219 $218 $282 $310 forward $220 $-1 #
-276 edge $-1 -1 -1 $-1 $221 0 $311 0.0033355339059329145 $273 $312 forward @7 unknown F #
-277 point $-1 -1 -1 $-1 18.800910760535455 7.1054273576010019e-015 24.999999999999989 #
-278 edge $-1 -1 -1 $-1 $246 0 $280 0.024999999999999994 $223 $313 forward @7 unknown F #
-279 coedge $-1 -1 -1 $-1 $224 $273 $226 $283 forward $198 $-1 #
-280 vertex $-1 -1 -1 $-1 $278 $314 #
-281 straight-curve $-1 -1 -1 $-1 29.999999999999996 7.1054273576010019e-015 24.999999999999989 -1000 -1.9998856542517057e-027 0 I I #
-282 coedge $-1 -1 -1 $-1 $227 $226 $275 $310 reversed $195 $-1 #
-283 edge $-1 -1 -1 $-1 $311 0 $228 0.0033355339059329215 $279 $315 forward @7 unknown F #
-284 point $-1 -1 -1 $-1 23.518068048061082 7.1054273576010019e-015 24.999999999999989 #
-285 vertex $-1 -1 -1 $-1 $310 $316 #
-286 straight-curve $-1 -1 -1 $-1 24.814454438448827 1.2963863903877684 6.4244658866852387 447.21359549995708 447.21359549995782 -774.59666924148394 I I #
-287 straight-curve $-1 -1 -1 $-1 21.040728608428314 -2.2398178478928905 12.549351293327788 447.21359549995418 -447.21359549995572 774.59666924148689 I I #
-288 integer_attrib-name_attrib-gen-attrib $-1 -1 $-1 $-1 $232 2 1 2 1 1 1 1 1 1 1 1 1 1 1 0 1 1 1 @11 Stock-BL2-1 0 #
-289 plane-surface $-1 -1 -1 $-1 29.999999999999996 7.1054273576010019e-015 8.6698729810777095 -1.7319517812460439e-030 0.86602540378444071 0.49999999999999645 -1000 -1.9998856542517057e-027 0 forward_v I I I I #
-290 rgb_color-st-attrib $-1 -1 $-1 $235 $180 2 1 2 1 1 1 1 1 1 1 1 1 1 1 0 1 1 1 0.792156862745098 0.81960784313725488 0.93333333333333335 #
-291 edge $-1 -1 -1 $-1 $301 0 $271 0.020000000000000018 $253 $317 forward @7 unknown F #
-292 straight-curve $-1 -1 -1 $-1 29.999999999999996 7.1054273576010019e-015 -4.4408920985006262e-015 -1000 -1.9998856542517057e-027 0 I I #
-293 vertex $-1 -1 -1 $-1 $257 $318 #
-294 straight-curve $-1 -1 -1 $-1 29.999999999999996 23.700000000000006 -4.4408920985006262e-015 1000 1.9998856542517057e-027 0 I I #
-295 point $-1 -1 -1 $-1 29.999999999999996 23.700000000000006 -4.4408920985006262e-015 #
-296 point $-1 -1 -1 $-1 29.999999999999996 7.1054273576010019e-015 -4.4408920985006262e-015 #
-297 edge $-1 -1 -1 $-1 $264 0 $301 0.029999999999999985 $250 $319 forward @7 unknown F #
-298 edge $-1 -1 -1 $-1 $293 0 $299 0.0050000000000000044 $251 $320 forward @7 unknown F #
-299 vertex $-1 -1 -1 $-1 $270 $321 #
-300 straight-curve $-1 -1 -1 $-1 29.999999999999996 23.700000000000006 5 1000 1.9998856542517057e-027 0 I I #
-301 vertex $-1 -1 -1 $-1 $297 $322 #
-302 straight-curve $-1 -1 -1 $-1 1.0658141036401503e-014 7.1054273576010019e-015 24.99999999999849 1.9998856542517057e-027 1000 2.407331992566818e-030 I I #
-303 straight-curve $-1 -1 -1 $-1 -3.5527136788005009e-015 23.700000000000006 -1.5312195955630159e-012 -1.4639016674909618e-013 1000 6.7435185677778321e-030 I I #
-304 point $-1 -1 -1 $-1 1.0658141036401503e-014 7.1054273576010019e-015 -1.5312195955630159e-012 #
-305 point $-1 -1 -1 $-1 1.0658141036401503e-014 7.1054273576010019e-015 24.99999999999849 #
-306 straight-curve $-1 -1 -1 $-1 29.999999999999996 5.0000000000000124 24.999999999999989 -1.9998856542517057e-027 -1000 -2.407331992566818e-030 I I #
-307 point $-1 -1 -1 $-1 29.999999999999996 5.0000000000000124 24.999999999999989 #
-308 straight-curve $-1 -1 -1 $-1 -3.5527136788005009e-015 23.700000000000006 4.9999999999984732 -1.4639016674909618e-013 1000 6.7435185677778321e-030 I I #
-309 point $-1 -1 -1 $-1 -3.5527136788005009e-015 5.0000000000000124 4.9999999999984732 #
-310 edge $-1 -1 -1 $-1 $285 -0.00024494897427815234 $311 0.011999999999999983 $275 $323 forward @7 unknown F #
-311 vertex $-1 -1 -1 $-1 $310 $324 #
-312 straight-curve $-1 -1 -1 $-1 18.800910760535455 7.1054273576010019e-015 24.999999999999989 707.10678118654619 -707.1067811865488 -0 I I #
-313 straight-curve $-1 -1 -1 $-1 29.999999999999996 7.1054273576010019e-015 -4.4408920985006262e-015 0 2.4073319925665451e-030 1000 I I #
-314 point $-1 -1 -1 $-1 29.999999999999996 7.1054273576010019e-015 24.999999999999989 #
-315 straight-curve $-1 -1 -1 $-1 21.159489404298263 -2.3585786437628151 24.999999999999989 707.10678118654687 707.10678118654823 0 I I #
-316 point $-1 -1 -1 $-1 21.159489404298249 -2.3585786437628151 12.755051025721855 #
-317 straight-curve $-1 -1 -1 $-1 1.0658141036401503e-014 5.0000000000000124 24.99999999999849 0 -2.4073319925665451e-030 -1000 I I #
-318 point $-1 -1 -1 $-1 -3.5527136788005009e-015 23.700000000000006 -1.5312195955630159e-012 #
-319 straight-curve $-1 -1 -1 $-1 29.999999999999996 5.0000000000000124 24.999999999999989 -1000 -1.9998856542517057e-027 0 I I #
-320 straight-curve $-1 -1 -1 $-1 -3.5527136788005009e-015 23.700000000000006 -1.5312195955630159e-012 0 2.4073319925665451e-030 1000 I I #
-321 point $-1 -1 -1 $-1 -3.5527136788005009e-015 23.700000000000006 4.9999999999984732 #
-322 point $-1 -1 -1 $-1 1.0658141036401503e-014 5.0000000000000124 24.99999999999849 #
-323 straight-curve $-1 -1 -1 $-1 21.159489404298249 -2.3585786437628151 13.000000000000007 0 2.4073319925665451e-030 1000 I I #
-324 point $-1 -1 -1 $-1 21.159489404298263 -2.3585786437628151 24.999999999999989 #
End-of-ACIS-data 