2200 0 1 0           
15 SolidWorks 2017 12 ACIS 22.0 NT 24 Fri Jan 05 08:35:50 2018 
1 9.9999999999999995e-007 1e-010 
-0 body $1 -1 -1 $-1 $2 $-1 $-1 F #
-1 name_attrib-gen-attrib $-1 -1 $-1 $-1 $0 2 1 1 1 1 1 1 1 1 1 1 1 1 1 0 1 1 1 @16 hot end retainer #
-2 lump $3 -1 -1 $-1 $-1 $4 $0 F #
-3 rgb_color-st-attrib $-1 -1 $-1 $-1 $2 2 1 2 1 1 1 1 1 1 1 1 1 1 1 0 1 1 1 0.69411764705882351 0.098039215686274508 0.098039215686274508 #
-4 shell $-1 -1 -1 $-1 $-1 $-1 $5 $-1 $2 F #
-5 face $6 -1 -1 $-1 $7 $8 $4 $-1 $9 reversed single F T -0.92307692307691547 0.76923076923076306 -3.1415926535897931 2.5789683439917385e-030 #
-6 integer_attrib-name_attrib-gen-attrib $-1 -1 $-1 $-1 $5 2 1 2 1 1 1 1 1 1 1 1 1 1 1 0 1 1 1 @10 Move Face1 0 #
-7 face $10 -1 -1 $-1 $11 $12 $4 $-1 $13 reversed single F T -0.92307692307691547 0.76923076923076195 -3.1415926535897931 2.5789683439917469e-030 #
-8 loop $-1 -1 -1 $-1 $-1 $14 $5 F unknown #
-9 cone-surface $-1 -1 -1 $-1 3.9999999999995026 -4.299999999999816 2.4999999999997016 7.5513625610604631e-030 3.3526588471893002e-030 -1 3.2500000000000306 0 -0 1 I I 0 1 3.2500000000000306 forward I I I I #
-10 integer_attrib-name_attrib-gen-attrib $-1 -1 $-1 $-1 $7 2 1 2 1 1 1 1 1 1 1 1 1 1 1 0 1 1 1 @10 Move Face1 0 #
-11 face $15 -1 -1 $-1 $16 $17 $4 $-1 $18 reversed single F T -6.2222222222221806 -1.6666666666666594 -3.1415926535897931 -5.5877647453154321e-030 #
-12 loop $-1 -1 -1 $-1 $-1 $19 $7 F unknown #
-13 cone-surface $-1 -1 -1 $-1 3.9999999999991473 -26.299999999999795 2.5000000000000604 7.5513625610604631e-030 3.3526588471893002e-030 -1 3.2500000000000306 0 -0 1 I I 0 1 3.2500000000000306 forward I I I I #
-14 coedge $-1 -1 -1 $-1 $20 $21 $22 $23 reversed $8 $-1 #
-15 integer_attrib-name_attrib-gen-attrib $-1 -1 $-1 $-1 $11 2 1 2 1 1 1 1 1 1 1 1 1 1 1 0 1 1 1 @10 Move Face1 0 #
-16 face $24 -1 -1 $-1 $25 $26 $4 $-1 $27 reversed single F T -6.2222222222221815 -1.6666666666666594 -3.1415926535897931 -5.5877647453154321e-030 #
-17 loop $-1 -1 -1 $-1 $-1 $28 $11 F unknown #
-18 cone-surface $-1 -1 -1 $-1 3.9999999999995026 -4.299999999999816 2.4999999999997016 7.5513625610604631e-030 3.3526588471893002e-030 -1 1.80000000000001 0 -0 1 I I 0 1 1.80000000000001 forward I I I I #
-19 coedge $-1 -1 -1 $-1 $29 $30 $31 $32 reversed $12 $-1 #
-20 coedge $-1 -1 -1 $-1 $33 $14 $34 $35 forward $8 $-1 #
-21 coedge $-1 -1 -1 $-1 $14 $33 $36 $37 reversed $8 $-1 #
-22 coedge $-1 -1 -1 $-1 $38 $38 $14 $23 forward $39 $-1 #
-23 edge $-1 -1 -1 $-1 $40 -3.1415926535897931 $41 0 $22 $42 forward @7 unknown F #
-24 integer_attrib-name_attrib-gen-attrib $-1 -1 $-1 $-1 $16 2 1 2 1 1 1 1 1 1 1 1 1 1 1 0 1 1 1 @10 Move Face1 0 #
-25 face $43 -1 -1 $-1 $44 $45 $4 $-1 $46 reversed single F F #
-26 loop $-1 -1 -1 $-1 $-1 $47 $16 F unknown #
-27 cone-surface $-1 -1 -1 $-1 3.9999999999991473 -26.299999999999795 2.5000000000000604 7.5513625610604631e-030 3.3526588471893002e-030 -1 1.80000000000001 0 -0 1 I I 0 1 1.80000000000001 forward I I I I #
-28 coedge $-1 -1 -1 $-1 $48 $49 $50 $51 reversed $17 $-1 #
-29 coedge $-1 -1 -1 $-1 $52 $19 $53 $54 forward $12 $-1 #
-30 coedge $-1 -1 -1 $-1 $19 $52 $55 $56 reversed $12 $-1 #
-31 coedge $-1 -1 -1 $-1 $57 $57 $19 $32 forward $58 $-1 #
-32 edge $-1 -1 -1 $-1 $59 -3.1415926535897931 $60 0 $31 $61 forward @7 unknown F #
-33 coedge $-1 -1 -1 $-1 $21 $20 $62 $63 forward $8 $-1 #
-34 coedge $-1 -1 -1 $-1 $64 $65 $20 $35 reversed $66 $-1 #
-35 edge $-1 -1 -1 $-1 $40 -0.0030000000000000035 $67 0.0025000000000000035 $20 $68 forward @7 unknown F #
-36 coedge $-1 -1 -1 $-1 $65 $64 $21 $37 forward $66 $-1 #
-37 edge $-1 -1 -1 $-1 $41 -0.0030000000000000035 $69 0.0025000000000000035 $36 $70 forward @7 unknown F #
-38 coedge $-1 -1 -1 $-1 $22 $22 $64 $71 forward $39 $-1 #
-39 loop $-1 -1 -1 $-1 $-1 $38 $44 F unknown #
-40 vertex $-1 -1 -1 $-1 $35 $72 #
-41 vertex $-1 -1 -1 $-1 $23 $73 #
-42 ellipse-curve $-1 -1 -1 $-1 3.9999999999995026 -4.299999999999816 5.4999999999997051 7.5513625610604631e-030 3.3526588471893002e-030 -1 3.2500000000000306 0 -0 1 I I #
-43 integer_attrib-name_attrib-gen-attrib $-1 -1 $-1 $-1 $25 2 1 2 1 1 1 1 1 1 1 1 1 1 1 0 1 1 1 @10 Move Face1 0 #
-44 face $74 -1 -1 $-1 $75 $76 $4 $-1 $77 reversed single F F #
-45 loop $-1 -1 -1 $-1 $58 $78 $25 F unknown #
-46 plane-surface $-1 -1 -1 $-1 5.7999999999994998 -26.299999999999795 5.5000000000000639 7.5513625610604056e-030 -3.3526588471893002e-030 1 -1000.0000000000075 -2.2186712959340957e-028 7.5513625610604627e-027 forward_v I I I I #
-47 coedge $-1 -1 -1 $-1 $79 $80 $81 $82 reversed $26 $-1 #
-48 coedge $-1 -1 -1 $-1 $83 $28 $84 $85 forward $17 $-1 #
-49 coedge $-1 -1 -1 $-1 $28 $83 $86 $87 reversed $17 $-1 #
-50 coedge $-1 -1 -1 $-1 $88 $88 $28 $51 forward $89 $-1 #
-51 edge $-1 -1 -1 $-1 $90 -1.5707963267950111 $91 1.5707963267950111 $50 $92 forward @7 unknown F #
-52 coedge $-1 -1 -1 $-1 $30 $29 $93 $94 forward $12 $-1 #
-53 coedge $-1 -1 -1 $-1 $95 $96 $29 $54 reversed $97 $-1 #
-54 edge $-1 -1 -1 $-1 $59 -0.0030000000000000035 $98 0.0025000000000000001 $29 $99 forward @7 unknown F #
-55 coedge $-1 -1 -1 $-1 $96 $95 $30 $56 forward $97 $-1 #
-56 edge $-1 -1 -1 $-1 $60 -0.0030000000000000035 $100 0.0025000000000000001 $55 $101 forward @7 unknown F #
-57 coedge $-1 -1 -1 $-1 $31 $31 $95 $102 forward $58 $-1 #
-58 loop $-1 -1 -1 $-1 $-1 $57 $25 F unknown #
-59 vertex $-1 -1 -1 $-1 $54 $103 #
-60 vertex $-1 -1 -1 $-1 $32 $104 #
-61 ellipse-curve $-1 -1 -1 $-1 3.9999999999991473 -26.299999999999795 5.5000000000000639 7.5513625610604631e-030 3.3526588471893002e-030 -1 3.2500000000000306 0 -0 1 I I #
-62 coedge $-1 -1 -1 $-1 $105 $105 $33 $63 reversed $106 $-1 #
-63 edge $-1 -1 -1 $-1 $67 -3.1415926535898482 $69 0 $33 $107 forward @7 unknown F #
-64 coedge $-1 -1 -1 $-1 $36 $34 $38 $71 reversed $66 $-1 #
-65 coedge $-1 -1 -1 $-1 $34 $36 $105 $108 forward $66 $-1 #
-66 loop $-1 -1 -1 $-1 $-1 $34 $109 F unknown #
-67 vertex $-1 -1 -1 $-1 $35 $110 #
-68 straight-curve $-1 -1 -1 $-1 0.7499999999994742 -4.299999999999816 2.4999999999997016 7.5513625610604627e-027 3.3526588471893002e-027 -1000 I I #
-69 vertex $-1 -1 -1 $-1 $63 $111 #
-70 straight-curve $-1 -1 -1 $-1 7.2499999999995453 -4.299999999999816 2.4999999999997016 7.5513625610604627e-027 3.3526588471893002e-027 -1000 I I #
-71 edge $-1 -1 -1 $-1 $41 0 $40 3.1415926535897931 $38 $112 forward @7 unknown F #
-72 point $-1 -1 -1 $-1 0.74999999999950262 -4.299999999999816 5.4999999999997051 #
-73 point $-1 -1 -1 $-1 7.2499999999995453 -4.299999999999816 5.4999999999997051 #
-74 integer_attrib-name_attrib-gen-attrib $-1 -1 $-1 $-1 $44 2 1 2 1 1 1 1 1 1 1 1 1 1 1 0 1 1 1 @10 Move Face1 0 #
-75 face $113 -1 -1 $-1 $114 $115 $4 $-1 $116 reversed single F T -6.2222222222221815 -1.6666666666666594 -2.0860988382512629e-029 3.1415926535897931 #
-76 loop $-1 -1 -1 $-1 $39 $117 $44 F unknown #
-77 plane-surface $-1 -1 -1 $-1 5.7999999999998693 -4.2999999999996383 5.4999999999997051 7.5513625610604056e-030 -3.3526588471893002e-030 1 -1000.0000000000075 -2.2186712959340957e-028 7.5513625610604627e-027 forward_v I I I I #
-78 coedge $-1 -1 -1 $-1 $118 $118 $119 $120 reversed $45 $-1 #
-79 coedge $-1 -1 -1 $-1 $121 $47 $122 $123 forward $26 $-1 #
-80 coedge $-1 -1 -1 $-1 $47 $121 $124 $125 reversed $26 $-1 #
-81 coedge $-1 -1 -1 $-1 $126 $126 $47 $82 forward $127 $-1 #
-82 edge $-1 -1 -1 $-1 $128 -1.5707963267949974 $129 1.5707963267949974 $81 $130 forward @7 unknown F #
-83 coedge $-1 -1 -1 $-1 $49 $48 $131 $132 forward $17 $-1 #
-84 coedge $-1 -1 -1 $-1 $133 $134 $48 $85 reversed $135 $-1 #
-85 edge $-1 -1 -1 $-1 $90 -0.011199999999999986 $136 -0.0030000000000000035 $48 $137 forward @7 unknown F #
-86 coedge $-1 -1 -1 $-1 $134 $133 $49 $87 forward $135 $-1 #
-87 edge $-1 -1 -1 $-1 $91 -0.011199999999999986 $138 -0.0030000000000000035 $86 $139 forward @7 unknown F #
-88 coedge $-1 -1 -1 $-1 $50 $50 $133 $140 forward $89 $-1 #
-89 loop $-1 -1 -1 $-1 $141 $88 $142 F unknown #
-90 vertex $-1 -1 -1 $-1 $85 $143 #
-91 vertex $-1 -1 -1 $-1 $51 $144 #
-92 ellipse-curve $-1 -1 -1 $-1 3.9999999999990337 -4.2999999999996099 13.699999999999688 7.4368644368155321e-030 -1.1450319973444102e-016 -1 0 1.8000000000000169 0 1 I I #
-93 coedge $-1 -1 -1 $-1 $145 $145 $52 $94 reversed $146 $-1 #
-94 edge $-1 -1 -1 $-1 $98 -3.1415926535897931 $100 -2.6040925470434073e-059 $52 $147 forward @7 unknown F #
-95 coedge $-1 -1 -1 $-1 $55 $53 $57 $102 reversed $97 $-1 #
-96 coedge $-1 -1 -1 $-1 $53 $55 $145 $148 forward $97 $-1 #
-97 loop $-1 -1 -1 $-1 $-1 $53 $149 F unknown #
-98 vertex $-1 -1 -1 $-1 $54 $150 #
-99 straight-curve $-1 -1 -1 $-1 0.74999999999911893 -26.299999999999795 2.5000000000000604 7.5513625610604627e-027 3.3526588471893002e-027 -1000 I I #
-100 vertex $-1 -1 -1 $-1 $94 $151 #
-101 straight-curve $-1 -1 -1 $-1 7.2499999999991758 -26.299999999999795 2.5000000000000604 7.5513625610604627e-027 3.3526588471893002e-027 -1000 I I #
-102 edge $-1 -1 -1 $-1 $60 0 $59 3.1415926535897931 $57 $152 forward @7 unknown F #
-103 point $-1 -1 -1 $-1 0.74999999999914735 -26.299999999999795 5.5000000000000639 #
-104 point $-1 -1 -1 $-1 7.2499999999991758 -26.299999999999795 5.5000000000000639 #
-105 coedge $-1 -1 -1 $-1 $62 $62 $65 $108 reversed $106 $-1 #
-106 loop $-1 -1 -1 $-1 $146 $105 $153 F unknown #
-107 ellipse-curve $-1 -1 -1 $-1 3.9999999999995026 -4.2999999999996383 -3.0198066269804258e-013 7.5513625610604631e-030 3.3526588471893002e-030 -1 3.2500000000000306 0 -0 1 I I #
-108 edge $-1 -1 -1 $-1 $69 0 $67 3.141592653589738 $65 $154 forward @7 unknown F #
-109 face $155 -1 -1 $-1 $153 $66 $4 $-1 $156 reversed single F T -0.92307692307691547 0.76923076923076306 -5.4657133520007197e-014 3.1415926535897931 #
-110 point $-1 -1 -1 $-1 0.74999999999950262 -4.299999999999816 -3.0198066269804258e-013 #
-111 point $-1 -1 -1 $-1 7.2499999999995453 -4.2999999999996383 -3.0198066269804258e-013 #
-112 ellipse-curve $-1 -1 -1 $-1 3.9999999999995026 -4.299999999999816 5.4999999999997051 7.5513625610604631e-030 3.3526588471893002e-030 -1 3.2500000000000306 0 -0 1 I I #
-113 integer_attrib-name_attrib-gen-attrib $-1 -1 $-1 $-1 $75 2 1 2 1 1 1 1 1 1 1 1 1 1 1 0 1 1 1 @10 Move Face1 0 #
-114 face $157 -1 -1 $-1 $158 $159 $4 $-1 $160 forward single F T -0.62499999999999512 2.7999999999999754 -4.529709940470443e-014 1.5707963267948966 #
-115 loop $-1 -1 -1 $-1 $-1 $122 $75 F unknown #
-116 cone-surface $-1 -1 -1 $-1 3.9999999999991473 -26.299999999999795 2.5000000000000604 7.5513625610604631e-030 3.3526588471893002e-030 -1 1.80000000000001 0 -0 1 I I 0 1 1.80000000000001 forward I I I I #
-117 coedge $-1 -1 -1 $-1 $131 $131 $134 $161 reversed $76 $-1 #
-118 coedge $-1 -1 -1 $-1 $78 $78 $121 $162 reversed $45 $-1 #
-119 coedge $-1 -1 -1 $-1 $122 $124 $78 $120 forward $115 $-1 #
-120 edge $-1 -1 -1 $-1 $163 0 $164 3.1415926535897931 $119 $165 forward @7 unknown F #
-121 coedge $-1 -1 -1 $-1 $80 $79 $118 $162 forward $26 $-1 #
-122 coedge $-1 -1 -1 $-1 $166 $119 $79 $123 reversed $115 $-1 #
-123 edge $-1 -1 -1 $-1 $128 -0.011199999999999989 $164 -0.0030000000000000035 $79 $167 forward @7 unknown F #
-124 coedge $-1 -1 -1 $-1 $119 $166 $80 $125 forward $115 $-1 #
-125 edge $-1 -1 -1 $-1 $129 -0.011199999999999989 $163 -0.0030000000000000035 $124 $168 forward @7 unknown F #
-126 coedge $-1 -1 -1 $-1 $81 $81 $166 $169 forward $127 $-1 #
-127 loop $-1 -1 -1 $-1 $170 $126 $171 F unknown #
-128 vertex $-1 -1 -1 $-1 $123 $172 #
-129 vertex $-1 -1 -1 $-1 $82 $173 #
-130 ellipse-curve $-1 -1 -1 $-1 3.9999999999990052 -26.299999999999613 13.700000000000049 7.4368644368155321e-030 -1.1450319973444102e-016 -1 0 1.8000000000000169 0 1 I I #
-131 coedge $-1 -1 -1 $-1 $117 $117 $83 $132 reversed $76 $-1 #
-132 edge $-1 -1 -1 $-1 $136 -3.1415926535897931 $138 0 $83 $174 forward @7 unknown F #
-133 coedge $-1 -1 -1 $-1 $86 $84 $88 $140 reversed $135 $-1 #
-134 coedge $-1 -1 -1 $-1 $84 $86 $117 $161 forward $135 $-1 #
-135 loop $-1 -1 -1 $-1 $-1 $84 $175 F unknown #
-136 vertex $-1 -1 -1 $-1 $85 $176 #
-137 straight-curve $-1 -1 -1 $-1 2.1999999999995055 -4.299999999999816 2.4999999999997016 7.5513625610604627e-027 3.3526588471893002e-027 -1000 I I #
-138 vertex $-1 -1 -1 $-1 $132 $177 #
-139 straight-curve $-1 -1 -1 $-1 5.799999999999514 -4.299999999999816 2.4999999999997016 7.5513625610604627e-027 3.3526588471893002e-027 -1000 I I #
-140 edge $-1 -1 -1 $-1 $91 1.5707963267950111 $90 4.7123889803845751 $88 $178 forward @7 unknown F #
-141 loop $-1 -1 -1 $-1 $-1 $179 $142 F unknown #
-142 face $180 -1 -1 $-1 $149 $89 $4 $-1 $181 reversed single F F #
-143 point $-1 -1 -1 $-1 2.1999999999990365 -4.299999999999816 13.699999999999688 #
-144 point $-1 -1 -1 $-1 5.7999999999990308 -4.299999999999816 13.699999999999688 #
-145 coedge $-1 -1 -1 $-1 $93 $93 $96 $148 reversed $146 $-1 #
-146 loop $-1 -1 -1 $-1 $182 $145 $153 F unknown #
-147 ellipse-curve $-1 -1 -1 $-1 3.9999999999991473 -26.299999999999795 6.0396132539608516e-014 7.5513625610604631e-030 3.3526588471893002e-030 -1 3.2500000000000306 0 -0 1 I I #
-148 edge $-1 -1 -1 $-1 $100 -2.6040925470434073e-059 $98 3.1415926535897931 $96 $183 forward @7 unknown F #
-149 face $184 -1 -1 $-1 $109 $97 $4 $-1 $185 reversed single F T -0.92307692307691547 0.76923076923076195 -3.0947620127900996e-030 3.1415926535897931 #
-150 point $-1 -1 -1 $-1 0.74999999999914735 -26.299999999999795 6.0396132539608516e-014 #
-151 point $-1 -1 -1 $-1 7.2499999999991758 -26.299999999999795 6.0396132539608516e-014 #
-152 ellipse-curve $-1 -1 -1 $-1 3.9999999999991473 -26.299999999999795 5.5000000000000639 7.5513625610604631e-030 3.3526588471893002e-030 -1 3.2500000000000306 0 -0 1 I I #
-153 face $186 -1 -1 $-1 $187 $106 $4 $-1 $188 forward single F F #
-154 ellipse-curve $-1 -1 -1 $-1 3.9999999999995026 -4.2999999999996383 -3.0198066269804258e-013 7.5513625610604631e-030 3.3526588471893002e-030 -1 3.2500000000000306 0 -0 1 I I #
-155 integer_attrib-name_attrib-gen-attrib $-1 -1 $-1 $-1 $109 2 1 2 1 1 1 1 1 1 1 1 1 1 1 0 1 1 1 @10 Move Face1 0 #
-156 cone-surface $-1 -1 -1 $-1 3.9999999999995026 -4.299999999999816 2.4999999999997016 7.5513625610604631e-030 3.3526588471893002e-030 -1 3.2500000000000306 0 -0 1 I I 0 1 3.2500000000000306 forward I I I I #
-157 integer_attrib-name_attrib-gen-attrib $-1 -1 $-1 $-1 $114 2 1 2 1 1 1 1 1 1 1 1 1 1 1 0 1 1 1 @10 Move Face1 0 #
-158 face $189 -1 -1 $-1 $171 $190 $4 $-1 $191 reversed single F F #
-159 loop $-1 -1 -1 $-1 $-1 $192 $114 F unknown #
-160 cone-surface $-1 -1 -1 $-1 3.9999999999991473 -26.299999999999795 2.5000000000000604 -7.5513625610604631e-030 -3.3526588471893002e-030 1 -4.0000000000000311 0 0 1 I I 0 1 4.0000000000000311 forward I I I I #
-161 edge $-1 -1 -1 $-1 $138 0 $136 3.1415926535897931 $134 $193 forward @7 unknown F #
-162 edge $-1 -1 -1 $-1 $164 -3.1415926535897931 $163 0 $121 $194 forward @7 unknown F #
-163 vertex $-1 -1 -1 $-1 $162 $195 #
-164 vertex $-1 -1 -1 $-1 $123 $196 #
-165 ellipse-curve $-1 -1 -1 $-1 3.9999999999991473 -26.299999999999795 5.5000000000000639 7.5513625610604631e-030 3.3526588471893002e-030 -1 1.8000000000000238 0 -0 1 I I #
-166 coedge $-1 -1 -1 $-1 $124 $122 $126 $169 reversed $115 $-1 #
-167 straight-curve $-1 -1 -1 $-1 2.199999999999136 -26.299999999999795 2.5000000000000604 7.5513625610604627e-027 3.3526588471893002e-027 -1000 I I #
-168 straight-curve $-1 -1 -1 $-1 5.7999999999991587 -26.299999999999795 2.5000000000000604 7.5513625610604627e-027 3.3526588471893002e-027 -1000 I I #
-169 edge $-1 -1 -1 $-1 $129 1.5707963267949974 $128 4.7123889803845884 $126 $197 forward @7 unknown F #
-170 loop $-1 -1 -1 $-1 $-1 $198 $171 F unknown #
-171 face $199 -1 -1 $-1 $200 $127 $4 $-1 $201 reversed single F F #
-172 point $-1 -1 -1 $-1 2.1999999999990081 -26.299999999999795 13.700000000000049 #
-173 point $-1 -1 -1 $-1 5.7999999999990024 -26.299999999999795 13.700000000000049 #
-174 ellipse-curve $-1 -1 -1 $-1 3.9999999999995026 -4.299999999999816 5.4999999999997051 7.5513625610604631e-030 3.3526588471893002e-030 -1 1.8000000000000238 0 -0 1 I I #
-175 face $202 -1 -1 $-1 $142 $135 $4 $-1 $203 reversed single F T -6.2222222222221806 -1.6666666666666594 -2.0860988382516418e-029 3.1415926535897931 #
-176 point $-1 -1 -1 $-1 2.1999999999995055 -4.299999999999816 5.4999999999997051 #
-177 point $-1 -1 -1 $-1 5.7999999999995282 -4.299999999999816 5.4999999999997051 #
-178 ellipse-curve $-1 -1 -1 $-1 3.9999999999990337 -4.2999999999996099 13.699999999999688 7.4368644368155321e-030 -1.1450319973444102e-016 -1 0 1.8000000000000169 0 1 I I #
-179 coedge $-1 -1 -1 $-1 $204 $205 $206 $207 reversed $141 $-1 #
-180 integer_attrib-name_attrib-gen-attrib $-1 -1 $-1 $-1 $142 2 1 2 1 1 1 1 1 1 1 1 1 1 1 0 1 1 1 @10 Move Face1 0 #
-181 plane-surface $-1 -1 -1 $-1 49.000000000001378 -30.300000000000018 13.700000000000049 7.4368644368155321e-030 -1.1450319973444514e-016 -1 6.1629758220391547e-028 1000.0000000000075 -1.1450319973444601e-013 forward_v I I I I #
-182 loop $-1 -1 -1 $-1 $-1 $208 $153 F unknown #
-183 ellipse-curve $-1 -1 -1 $-1 3.9999999999991473 -26.299999999999795 6.0396132539608516e-014 7.5513625610604631e-030 3.3526588471893002e-030 -1 3.2500000000000306 0 -0 1 I I #
-184 integer_attrib-name_attrib-gen-attrib $-1 -1 $-1 $-1 $149 2 1 2 1 1 1 1 1 1 1 1 1 1 1 0 1 1 1 @10 Move Face1 0 #
-185 cone-surface $-1 -1 -1 $-1 3.9999999999991473 -26.299999999999795 2.5000000000000604 7.5513625610604631e-030 3.3526588471893002e-030 -1 3.2500000000000306 0 -0 1 I I 0 1 3.2500000000000306 forward I I I I #
-186 integer_attrib-name_attrib-gen-attrib $-1 -1 $-1 $-1 $153 2 1 2 1 1 1 1 1 1 1 1 1 1 1 0 1 1 1 @10 Move Face1 0 #
-187 face $209 -1 -1 $-1 $210 $211 $4 $-1 $212 forward single F F #
-188 plane-surface $-1 -1 -1 $-1 44.000000000000767 5.7000000000009976 -4.1211478674085811e-013 -7.5513625610604056e-030 3.3526588471893002e-030 -1 1000.0000000000075 2.2186712959340957e-028 -7.5513625610604627e-027 forward_v I I I I #
-189 integer_attrib-name_attrib-gen-attrib $-1 -1 $-1 $-1 $158 2 1 2 1 1 1 1 1 1 1 1 1 1 1 0 1 1 1 @10 Move Face1 0 #
-190 loop $-1 -1 -1 $-1 $-1 $213 $158 F unknown #
-191 plane-surface $-1 -1 -1 $-1 13.000000000000384 -30.299999999999979 2.5000000000000604 4.1969116354277547e-016 1 -2.4158865222393304e-030 1000.0000000000075 -4.1969116354277861e-013 -8.3645033252656063e-027 forward_v I I I I #
-192 coedge $-1 -1 -1 $-1 $214 $215 $216 $217 reversed $159 $-1 #
-193 ellipse-curve $-1 -1 -1 $-1 3.9999999999995026 -4.299999999999816 5.4999999999997051 7.5513625610604631e-030 3.3526588471893002e-030 -1 1.8000000000000238 0 -0 1 I I #
-194 ellipse-curve $-1 -1 -1 $-1 3.9999999999991473 -26.299999999999795 5.5000000000000639 7.5513625610604631e-030 3.3526588471893002e-030 -1 1.8000000000000238 0 -0 1 I I #
-195 point $-1 -1 -1 $-1 5.7999999999991729 -26.299999999999795 5.5000000000000639 #
-196 point $-1 -1 -1 $-1 2.199999999999136 -26.299999999999795 5.5000000000000639 #
-197 ellipse-curve $-1 -1 -1 $-1 3.9999999999990052 -26.299999999999613 13.700000000000049 7.4368644368155321e-030 -1.1450319973444102e-016 -1 0 1.8000000000000169 0 1 I I #
-198 coedge $-1 -1 -1 $-1 $218 $219 $220 $221 reversed $170 $-1 #
-199 integer_attrib-name_attrib-gen-attrib $-1 -1 $-1 $-1 $171 2 1 2 1 1 1 1 1 1 1 1 1 1 1 0 1 1 1 @10 Move Face1 0 #
-200 face $222 -1 -1 $-1 $223 $224 $4 $-1 $225 reversed single F T -4.7183842088419768e-016 0.84337349397598005 0.096535409271747835 3.0450572443180883 #
-201 plane-surface $-1 -1 -1 $-1 49.000000000001378 -30.300000000000018 13.700000000000049 7.4368644368155321e-030 -1.1450319973444514e-016 -1 6.1629758220391547e-028 1000.0000000000075 -1.1450319973444601e-013 forward_v I I I I #
-202 integer_attrib-name_attrib-gen-attrib $-1 -1 $-1 $-1 $175 2 1 2 1 1 1 1 1 1 1 1 1 1 1 0 1 1 1 @10 Move Face1 0 #
-203 cone-surface $-1 -1 -1 $-1 3.9999999999995026 -4.299999999999816 2.4999999999997016 7.5513625610604631e-030 3.3526588471893002e-030 -1 1.80000000000001 0 -0 1 I I 0 1 1.80000000000001 forward I I I I #
-204 coedge $-1 -1 -1 $-1 $226 $179 $227 $228 forward $141 $-1 #
-205 coedge $-1 -1 -1 $-1 $179 $229 $230 $231 reversed $141 $-1 #
-206 coedge $-1 -1 -1 $-1 $232 $233 $179 $207 forward $234 $-1 #
-207 edge $-1 -1 -1 $-1 $235 -0.048705515088130792 $236 -0.044462874401011487 $206 $237 forward @7 unknown F #
-208 coedge $-1 -1 -1 $-1 $238 $216 $239 $240 forward $182 $-1 #
-209 integer_attrib-name_attrib-gen-attrib $-1 -1 $-1 $-1 $187 2 1 2 1 1 1 1 1 1 1 1 1 1 1 0 1 1 1 @10 Move Face1 0 #
-210 face $241 -1 -1 $-1 $242 $243 $4 $-1 $244 forward single F F #
-211 loop $-1 -1 -1 $-1 $-1 $245 $187 F unknown #
-212 plane-surface $-1 -1 -1 $-1 13.419999999999774 -2.9999999999996021 22.410024999999756 1 2.2186712959340791e-031 7.5513625610604631e-030 -7.5513625610604627e-027 -3.3526588471893002e-027 1000 forward_v I I I I #
-213 coedge $-1 -1 -1 $-1 $246 $247 $248 $249 reversed $190 $-1 #
-214 coedge $-1 -1 -1 $-1 $250 $192 $251 $252 reversed $159 $-1 #
-215 coedge $-1 -1 -1 $-1 $192 $250 $253 $254 reversed $159 $-1 #
-216 coedge $-1 -1 -1 $-1 $208 $255 $192 $217 forward $182 $-1 #
-217 edge $-1 -1 -1 $-1 $256 1.5707963267948966 $257 3.1415926535897931 $216 $258 forward @7 unknown F #
-218 coedge $-1 -1 -1 $-1 $259 $198 $260 $261 reversed $170 $-1 #
-219 coedge $-1 -1 -1 $-1 $198 $262 $246 $263 reversed $170 $-1 #
-220 coedge $-1 -1 -1 $-1 $248 $245 $198 $221 forward $211 $-1 #
-221 edge $-1 -1 -1 $-1 $264 -0.006738644179071095 $265 -2.8421709430404008e-017 $220 $266 forward @7 unknown F #
-222 integer_attrib-name_attrib-gen-attrib $-1 -1 $-1 $-1 $200 2 1 2 1 1 1 1 1 1 1 1 1 1 1 0 1 1 1 @10 Move Face1 0 #
-223 face $267 -1 -1 $-1 $268 $269 $4 $-1 $270 reversed single F F #
-224 loop $-1 -1 -1 $-1 $-1 $271 $200 F unknown #
-225 cone-surface $-1 -1 -1 $-1 13.419999999999774 -15.299999999999631 14.499999999999712 -1 1.2372709187362438e-015 -9.1325644118790407e-017 1.3877787807814457e-014 8.3000000000000611 0 1 I I 0 1 8.3000000000000611 forward I I I I #
-226 coedge $-1 -1 -1 $-1 $272 $204 $273 $274 forward $141 $-1 #
-227 coedge $-1 -1 -1 $-1 $275 $276 $204 $228 reversed $243 $-1 #
-228 edge $-1 -1 -1 $-1 $235 0 $277 0.010420000000000684 $204 $278 forward @7 unknown F #
-229 coedge $-1 -1 -1 $-1 $205 $279 $280 $281 reversed $141 $-1 #
-230 coedge $-1 -1 -1 $-1 $245 $282 $205 $231 forward $211 $-1 #
-231 edge $-1 -1 -1 $-1 $236 -0.027300000000000282 $283 -0.023261355820929419 $230 $284 forward @7 unknown F #
-232 coedge $-1 -1 -1 $-1 $285 $206 $282 $286 forward $234 $-1 #
-233 coedge $-1 -1 -1 $-1 $206 $285 $275 $287 reversed $234 $-1 #
-234 loop $-1 -1 -1 $-1 $-1 $233 $242 F unknown #
-235 vertex $-1 -1 -1 $-1 $287 $288 #
-236 vertex $-1 -1 -1 $-1 $286 $289 #
-237 straight-curve $-1 -1 -1 $-1 44.860000000000404 -34.4400000000009 13.699999999999994 707.10678118654755 -707.10678118654755 8.0965988999777974e-014 I I #
-238 coedge $-1 -1 -1 $-1 $290 $208 $291 $292 forward $182 $-1 #
-239 coedge $-1 -1 -1 $-1 $253 $293 $208 $240 reversed $294 $-1 #
-240 edge $-1 -1 -1 $-1 $257 -0.032000000000001125 $295 -0.0057000000000009404 $208 $296 forward @7 unknown F #
-241 integer_attrib-name_attrib-gen-attrib $-1 -1 $-1 $-1 $210 2 1 2 1 1 1 1 1 1 1 1 1 1 1 0 1 1 1 @10 Move Face1 0 #
-242 face $297 -1 -1 $-1 $-1 $234 $4 $-1 $298 forward single F F #
-243 loop $-1 -1 -1 $-1 $-1 $276 $210 F unknown #
-244 plane-surface $-1 -1 -1 $-1 10.419999999999774 4.0500935938325711e-013 22.410024999999699 1.3318414402892922e-015 1 -3.2540512340366492e-030 1000.0000000000075 -1.3318414402893022e-012 -7.5449140163092101e-027 forward_v I I I I #
-245 coedge $-1 -1 -1 $-1 $220 $230 $299 $300 forward $211 $-1 #
-246 coedge $-1 -1 -1 $-1 $251 $213 $219 $263 forward $190 $-1 #
-247 coedge $-1 -1 -1 $-1 $213 $251 $255 $301 reversed $190 $-1 #
-248 coedge $-1 -1 -1 $-1 $302 $220 $213 $249 forward $211 $-1 #
-249 edge $-1 -1 -1 $-1 $265 -0.011199999999999989 $303 0.0025000000000000001 $248 $304 forward @7 unknown F #
-250 coedge $-1 -1 -1 $-1 $215 $214 $262 $305 reversed $159 $-1 #
-251 coedge $-1 -1 -1 $-1 $247 $246 $214 $252 forward $190 $-1 #
-252 edge $-1 -1 -1 $-1 $306 -0.011199999999999989 $256 0.0025000000000000001 $251 $307 forward @7 unknown F #
-253 coedge $-1 -1 -1 $-1 $308 $239 $215 $254 forward $294 $-1 #
-254 edge $-1 -1 -1 $-1 $257 -0.0025000000000000001 $309 0.011199999999999989 $253 $310 forward @7 unknown F #
-255 coedge $-1 -1 -1 $-1 $216 $311 $247 $301 forward $182 $-1 #
-256 vertex $-1 -1 -1 $-1 $301 $312 #
-257 vertex $-1 -1 -1 $-1 $217 $313 #
-258 ellipse-curve $-1 -1 -1 $-1 3.9999999999991473 -26.299999999999795 6.0396132539608516e-014 7.5513625610604631e-030 3.3526588471893002e-030 -1 4.0000000000000311 0 -0 1 I I #
-259 coedge $-1 -1 -1 $-1 $314 $218 $315 $316 reversed $170 $-1 #
-260 coedge $-1 -1 -1 $-1 $299 $271 $218 $261 forward $224 $-1 #
-261 edge $-1 -1 -1 $-1 $317 0 $264 0.0070000000000000001 $260 $318 forward @7 unknown F #
-262 coedge $-1 -1 -1 $-1 $219 $319 $250 $305 forward $170 $-1 #
-263 edge $-1 -1 -1 $-1 $265 -0.00041999999999914903 $306 0.0090000000000009239 $246 $320 forward @7 unknown F #
-264 vertex $-1 -1 -1 $-1 $261 $321 #
-265 vertex $-1 -1 -1 $-1 $263 $322 #
-266 straight-curve $-1 -1 -1 $-1 13.419999999999078 -30.299999999999855 13.700000000000049 -6.1629758220391081e-028 -1000 1.1450319973444513e-013 I I #
-267 integer_attrib-name_attrib-gen-attrib $-1 -1 $-1 $-1 $223 2 1 2 1 1 1 1 1 1 1 1 1 1 1 0 1 1 1 @10 Move Face1 0 #
-268 face $323 -1 -1 $-1 $324 $325 $4 $-1 $326 reversed single F T -8.758587155589566e-016 0.86031746031756495 0.12732789652073384 3.0142647570690579 #
-269 loop $-1 -1 -1 $-1 $-1 $327 $223 F unknown #
-270 plane-surface $-1 -1 -1 $-1 6.4199999999997601 -15.299999999999631 14.499999999999712 -1 1.2372709187362465e-015 -9.1325644118790309e-017 1.2372709187362558e-012 1000.0000000000075 -3.2540512340366737e-027 forward_v I I I I #
-271 coedge $-1 -1 -1 $-1 $260 $280 $327 $328 forward $224 $-1 #
-272 coedge $-1 -1 -1 $-1 $329 $226 $330 $331 reversed $141 $-1 #
-273 coedge $-1 -1 -1 $-1 $293 $332 $226 $274 reversed $294 $-1 #
-274 edge $-1 -1 -1 $-1 $277 -0.030300000000000233 $333 -0.023261355820929419 $226 $334 forward @7 unknown F #
-275 coedge $-1 -1 -1 $-1 $291 $227 $233 $287 forward $243 $-1 #
-276 coedge $-1 -1 -1 $-1 $227 $291 $293 $335 forward $243 $-1 #
-277 vertex $-1 -1 -1 $-1 $228 $336 #
-278 straight-curve $-1 -1 -1 $-1 10.419999999999774 4.6185277824406512e-013 13.699999999999578 -1000 1.3318414402892921e-012 7.4956102097328409e-027 I I #
-279 coedge $-1 -1 -1 $-1 $229 $337 $338 $339 reversed $141 $-1 #
-280 coedge $-1 -1 -1 $-1 $271 $299 $229 $281 forward $224 $-1 #
-281 edge $-1 -1 -1 $-1 $283 0 $340 0.007000000000000014 $280 $341 forward @7 unknown F #
-282 coedge $-1 -1 -1 $-1 $230 $302 $232 $286 reversed $211 $-1 #
-283 vertex $-1 -1 -1 $-1 $281 $342 #
-284 straight-curve $-1 -1 -1 $-1 13.419999999999078 -30.299999999999855 13.700000000000049 -6.1629758220391081e-028 -1000 1.1450319973444513e-013 I I #
-285 coedge $-1 -1 -1 $-1 $233 $232 $290 $343 reversed $234 $-1 #
-286 edge $-1 -1 -1 $-1 $236 0.0087100250000000674 $344 0.022410024999999695 $232 $345 forward @7 unknown F #
-287 edge $-1 -1 -1 $-1 $235 0.0087100250000001211 $346 0.022410024999999695 $275 $347 forward @7 unknown F #
-288 point $-1 -1 -1 $-1 10.419999999999774 4.6185277824406512e-013 13.699999999999578 #
-289 point $-1 -1 -1 $-1 13.419999999999774 -2.9999999999995737 13.699999999999688 #
-290 coedge $-1 -1 -1 $-1 $311 $238 $285 $343 forward $182 $-1 #
-291 coedge $-1 -1 -1 $-1 $276 $275 $238 $292 reversed $243 $-1 #
-292 edge $-1 -1 -1 $-1 $295 -0.04400000000000124 $346 -0.033580000000000894 $238 $348 forward @7 unknown F #
-293 coedge $-1 -1 -1 $-1 $239 $273 $276 $335 reversed $294 $-1 #
-294 loop $-1 -1 -1 $-1 $-1 $293 $349 F unknown #
-295 vertex $-1 -1 -1 $-1 $292 $350 #
-296 straight-curve $-1 -1 -1 $-1 -4.6895820560166612e-013 5.7000000000013316 -4.1211478674085811e-013 8.9534114889125684e-013 1000 -3.2540512340366493e-027 I I #
-297 integer_attrib-name_attrib-gen-attrib $-1 -1 $-1 $-1 $242 2 1 2 1 1 1 1 1 1 1 1 1 1 1 0 1 1 1 @10 Move Face1 0 #
-298 plane-surface $-1 -1 -1 $-1 13.419999999999774 -2.9999999999996021 22.410024999999756 0.70710678118654757 0.70710678118654757 -6.6560138878022507e-030 707.1067811865513 -707.1067811865513 -3.6977854932234928e-027 forward_v I I I I #
-299 coedge $-1 -1 -1 $-1 $280 $260 $245 $300 reversed $224 $-1 #
-300 edge $-1 -1 -1 $-1 $283 0.096535409271747918 $264 3.0450572443180874 $245 $351 forward @7 unknown F #
-301 edge $-1 -1 -1 $-1 $303 -0.00041999999999913482 $256 0.0090000000000012362 $255 $352 forward @7 unknown F #
-302 coedge $-1 -1 -1 $-1 $282 $248 $311 $353 reversed $211 $-1 #
-303 vertex $-1 -1 -1 $-1 $353 $354 #
-304 straight-curve $-1 -1 -1 $-1 13.419999999999519 -30.299999999999979 2.5000000000000604 7.5513625610604627e-027 3.3526588471893002e-027 -1000 I I #
-305 edge $-1 -1 -1 $-1 $309 1.5707963267948966 $306 3.1415926535897931 $262 $355 forward @7 unknown F #
-306 vertex $-1 -1 -1 $-1 $263 $356 #
-307 straight-curve $-1 -1 -1 $-1 3.9999999999991473 -30.299999999999979 2.5000000000000604 7.5513625610604627e-027 3.3526588471893002e-027 -1000 I I #
-308 coedge $-1 -1 -1 $-1 $332 $253 $319 $357 reversed $294 $-1 #
-309 vertex $-1 -1 -1 $-1 $305 $358 #
-310 straight-curve $-1 -1 -1 $-1 -8.5265128291212022e-013 -26.299999999999795 2.5000000000000604 -7.5513625610604627e-027 -3.3526588471893002e-027 1000 I I #
-311 coedge $-1 -1 -1 $-1 $255 $290 $302 $353 forward $182 $-1 #
-312 point $-1 -1 -1 $-1 3.9999999999991473 -30.299999999999979 6.0396132539608516e-014 #
-313 point $-1 -1 -1 $-1 -8.5265128291212022e-013 -26.299999999999795 6.0396132539608516e-014 #
-314 coedge $-1 -1 -1 $-1 $359 $259 $360 $361 reversed $170 $-1 #
-315 coedge $-1 -1 -1 $-1 $327 $362 $259 $316 forward $269 $-1 #
-316 edge $-1 -1 -1 $-1 $363 0.0062489999199872416 $317 0.0082613558209291681 $315 $364 forward @7 unknown F #
-317 vertex $-1 -1 -1 $-1 $261 $365 #
-318 straight-curve $-1 -1 -1 $-1 6.419999999999078 -23.561355820928775 13.700000000000049 1000 -1.2372709187362438e-012 9.1325644118790413e-014 I I #
-319 coedge $-1 -1 -1 $-1 $262 $366 $308 $357 forward $170 $-1 #
-320 straight-curve $-1 -1 -1 $-1 12.999999999999929 -30.299999999999827 13.700000000000049 -1000 4.1969116354277548e-013 8.4138071318418564e-027 I I #
-321 point $-1 -1 -1 $-1 13.419999999999078 -23.56135582092876 13.700000000000049 #
-322 point $-1 -1 -1 $-1 13.419999999999078 -30.299999999999827 13.700000000000049 #
-323 integer_attrib-name_attrib-gen-attrib $-1 -1 $-1 $-1 $268 2 1 2 1 1 1 1 1 1 1 1 1 1 1 0 1 1 1 @10 Move Face1 0 #
-324 face $367 -1 -1 $-1 $368 $369 $4 $-1 $370 forward single F F #
-325 loop $-1 -1 -1 $-1 $-1 $371 $268 F unknown #
-326 cone-surface $-1 -1 -1 $-1 6.4199999999997601 -15.299999999999617 14.499999999999712 -1 1.2372709187362438e-015 -9.1325644118790407e-017 1.3877787807814457e-014 6.3000000000000691 0 1 I I 0 1 6.3000000000000691 forward I I I I #
-327 coedge $-1 -1 -1 $-1 $338 $315 $271 $328 reversed $269 $-1 #
-328 edge $-1 -1 -1 $-1 $340 0.096535409271747918 $317 3.0450572443180874 $271 $372 forward @7 unknown F #
-329 coedge $-1 -1 -1 $-1 $337 $272 $373 $374 forward $141 $-1 #
-330 coedge $-1 -1 -1 $-1 $375 $376 $272 $331 forward $377 $-1 #
-331 edge $-1 -1 -1 $-1 $378 0 $333 0.001 $330 $379 forward @7 unknown F #
-332 coedge $-1 -1 -1 $-1 $273 $308 $375 $380 forward $294 $-1 #
-333 vertex $-1 -1 -1 $-1 $274 $381 #
-334 straight-curve $-1 -1 -1 $-1 -9.9475983006414026e-013 -30.299999999999812 13.700000000000049 -8.9534114889125684e-013 -1000 1.1450319973444513e-013 I I #
-335 edge $-1 -1 -1 $-1 $295 -0.0025000000000000035 $277 0.011199999999999986 $276 $382 forward @7 unknown F #
-336 point $-1 -1 -1 $-1 -9.0949470177292824e-013 4.1922021409845911e-013 13.699999999999578 #
-337 coedge $-1 -1 -1 $-1 $279 $329 $383 $384 reversed $141 $-1 #
-338 coedge $-1 -1 -1 $-1 $362 $327 $279 $339 forward $269 $-1 #
-339 edge $-1 -1 -1 $-1 $340 -0.0082613558209291716 $385 -0.0062489999199872451 $338 $386 forward @7 unknown F #
-340 vertex $-1 -1 -1 $-1 $339 $387 #
-341 straight-curve $-1 -1 -1 $-1 13.419999999999774 -7.0386441790704346 13.699999999999688 -1000 1.2372709187362438e-012 -9.1325644118790413e-014 I I #
-342 point $-1 -1 -1 $-1 13.419999999999774 -7.0386441790704346 13.699999999999688 #
-343 edge $-1 -1 -1 $-1 $346 -0.019714137059481017 $344 -0.015471496372361716 $290 $388 forward @7 unknown F #
-344 vertex $-1 -1 -1 $-1 $286 $389 #
-345 straight-curve $-1 -1 -1 $-1 13.419999999999774 -2.9999999999996021 22.410024999999756 7.5513625610604627e-027 3.3526588471893002e-027 -1000 I I #
-346 vertex $-1 -1 -1 $-1 $287 $390 #
-347 straight-curve $-1 -1 -1 $-1 10.419999999999774 4.0500935938325711e-013 22.410024999999699 7.5513625610604627e-027 3.3526588471893002e-027 -1000 I I #
-348 straight-curve $-1 -1 -1 $-1 44.000000000000767 3.6237679523765109e-013 -4.1211478674085811e-013 1000 -1.3318414402892921e-012 -7.5449140163091527e-027 I I #
-349 face $391 -1 -1 $-1 $175 $294 $4 $-1 $392 reversed single F F #
-350 point $-1 -1 -1 $-1 -4.6895820560166612e-013 3.907985046680551e-013 -4.1211478674085811e-013 #
-351 ellipse-curve $-1 -1 -1 $-1 13.419999999999774 -15.299999999999631 14.499999999999712 -1 1.2372709187362438e-015 -9.1325644118790309e-017 1.3877787807814457e-014 8.3000000000000611 0 1 I I #
-352 straight-curve $-1 -1 -1 $-1 13.000000000000384 -30.299999999999979 6.0396132539608516e-014 -1000 4.1969116354277548e-013 8.3645033252655431e-027 I I #
-353 edge $-1 -1 -1 $-1 $344 0.0087000000000011686 $303 0.036000000000001565 $311 $393 forward @7 unknown F #
-354 point $-1 -1 -1 $-1 13.419999999999519 -30.299999999999979 6.0396132539608516e-014 #
-355 ellipse-curve $-1 -1 -1 $-1 3.9999999999990052 -26.299999999999613 13.700000000000049 -7.4368644368155321e-030 1.1450319973444102e-016 1 0 4.0000000000000311 0 1 I I #
-356 point $-1 -1 -1 $-1 3.9999999999990052 -30.299999999999812 13.700000000000049 #
-357 edge $-1 -1 -1 $-1 $394 -0.0067386441790710377 $309 -0.0040000000000001987 $319 $395 forward @7 unknown F #
-358 point $-1 -1 -1 $-1 -9.9475983006414026e-013 -26.299999999999613 13.700000000000049 #
-359 coedge $-1 -1 -1 $-1 $366 $314 $396 $397 forward $170 $-1 #
-360 coedge $-1 -1 -1 $-1 $398 $371 $314 $361 forward $325 $-1 #
-361 edge $-1 -1 -1 $-1 $399 -0.0054200000000006699 $363 0 $360 $400 forward @7 unknown F #
-362 coedge $-1 -1 -1 $-1 $315 $338 $398 $401 reversed $269 $-1 #
-363 vertex $-1 -1 -1 $-1 $316 $402 #
-364 straight-curve $-1 -1 -1 $-1 6.4199999999997601 -15.299999999999606 13.699999999999688 -1.2372709187362465e-012 -1000 1.1450319973444513e-013 I I #
-365 point $-1 -1 -1 $-1 6.419999999999078 -23.561355820928775 13.700000000000049 #
-366 coedge $-1 -1 -1 $-1 $319 $359 $403 $404 reversed $170 $-1 #
-367 integer_attrib-name_attrib-gen-attrib $-1 -1 $-1 $-1 $324 2 1 2 1 1 1 1 1 1 1 1 1 1 1 0 1 1 1 @10 Move Face1 0 #
-368 face $405 -1 -1 $-1 $349 $377 $4 $-1 $406 reversed single F T -5.9574321745418586e-015 0.12048192771084502 0.096535409271744033 3.045057244318091 #
-369 loop $-1 -1 -1 $-1 $-1 $373 $324 F unknown #
-370 plane-surface $-1 -1 -1 $-1 0.99999999999903366 -15.299999999999617 14.499999999999684 -1 8.9534114889125685e-016 7.5275604234762065e-030 8.953411488912635e-013 1000.0000000000075 -3.2540512340366737e-027 forward_v I I I I #
-371 coedge $-1 -1 -1 $-1 $360 $383 $407 $408 forward $325 $-1 #
-372 ellipse-curve $-1 -1 -1 $-1 6.4199999999997601 -15.299999999999631 14.499999999999712 -1 1.2372709187362438e-015 -9.1325644118790309e-017 1.3877787807814457e-014 8.3000000000000611 0 1 I I #
-373 coedge $-1 -1 -1 $-1 $409 $407 $329 $374 reversed $369 $-1 #
-374 edge $-1 -1 -1 $-1 $378 -0.0082613558209291994 $410 -0.0062489999199872737 $329 $411 forward @7 unknown F #
-375 coedge $-1 -1 -1 $-1 $403 $330 $332 $380 reversed $377 $-1 #
-376 coedge $-1 -1 -1 $-1 $330 $403 $409 $412 reversed $377 $-1 #
-377 loop $-1 -1 -1 $-1 $-1 $375 $368 F unknown #
-378 vertex $-1 -1 -1 $-1 $331 $413 #
-379 straight-curve $-1 -1 -1 $-1 0.99999999999909051 -7.038644179070392 13.699999999999688 -1000 8.9534114889125522e-013 7.5275604234762045e-027 I I #
-380 edge $-1 -1 -1 $-1 $394 0.096535409271701678 $333 3.0450572443180492 $332 $414 forward @7 unknown F #
-381 point $-1 -1 -1 $-1 -9.0949470177292824e-013 -7.038644179070392 13.699999999999688 #
-382 straight-curve $-1 -1 -1 $-1 -4.6895820560166612e-013 2.0605739337042905e-013 2.4999999999995914 -7.5513625610604627e-027 -3.3526588471893002e-027 1000 I I #
-383 coedge $-1 -1 -1 $-1 $371 $398 $337 $384 forward $325 $-1 #
-384 edge $-1 -1 -1 $-1 $385 0 $410 0.0054200000000006699 $383 $415 forward @7 unknown F #
-385 vertex $-1 -1 -1 $-1 $384 $416 #
-386 straight-curve $-1 -1 -1 $-1 6.4199999999997601 -15.299999999999606 13.699999999999688 -1.2372709187362465e-012 -1000 1.1450319973444513e-013 I I #
-387 point $-1 -1 -1 $-1 6.4199999999997601 -7.0386441790704346 13.699999999999688 #
-388 straight-curve $-1 -1 -1 $-1 24.359999999999886 -13.939999999999674 3.5527136788005009e-015 707.10678118654755 -707.10678118654755 -3.6977854932234735e-027 I I #
-389 point $-1 -1 -1 $-1 13.419999999999888 -2.9999999999995879 6.0396132539608516e-014 #
-390 point $-1 -1 -1 $-1 10.419999999999874 4.1922021409845911e-013 3.5527136788005009e-015 #
-391 integer_attrib-name_attrib-gen-attrib $-1 -1 $-1 $-1 $349 2 1 2 1 1 1 1 1 1 1 1 1 1 1 0 1 1 1 @10 Move Face1 0 #
-392 plane-surface $-1 -1 -1 $-1 -4.6895820560166612e-013 5.7000000000012747 2.4999999999995914 1 -8.9534114889125685e-016 -7.5275604234762065e-030 -8.953411488912635e-013 -1000.0000000000075 3.2540512340366737e-027 forward_v I I I I #
-393 straight-curve $-1 -1 -1 $-1 13.419999999999888 5.7000000000015802 3.1974423109204508e-014 -6.1629758220391081e-028 -1000 3.2540512340366493e-027 I I #
-394 vertex $-1 -1 -1 $-1 $404 $417 #
-395 straight-curve $-1 -1 -1 $-1 -9.9475983006414026e-013 -30.299999999999812 13.700000000000049 -8.9534114889125684e-013 -1000 1.1450319973444513e-013 I I #
-396 coedge $-1 -1 -1 $-1 $407 $409 $359 $397 reversed $369 $-1 #
-397 edge $-1 -1 -1 $-1 $399 0.0062489999199872416 $418 0.008261355820929182 $359 $419 forward @7 unknown F #
-398 coedge $-1 -1 -1 $-1 $383 $360 $362 $401 forward $325 $-1 #
-399 vertex $-1 -1 -1 $-1 $361 $420 #
-400 straight-curve $-1 -1 -1 $-1 6.4199999999997033 -21.548999919986848 13.699999999999688 1000 -1.2372709187362438e-012 9.1325644118790413e-014 I I #
-401 edge $-1 -1 -1 $-1 $363 -3.0142647570690526 $385 -0.1273278965207294 $398 $421 forward @7 unknown F #
-402 point $-1 -1 -1 $-1 6.4199999999997033 -21.548999919986848 13.699999999999688 #
-403 coedge $-1 -1 -1 $-1 $376 $375 $366 $404 forward $377 $-1 #
-404 edge $-1 -1 -1 $-1 $394 -0.001 $418 0 $403 $422 forward @7 unknown F #
-405 integer_attrib-name_attrib-gen-attrib $-1 -1 $-1 $-1 $368 2 1 2 1 1 1 1 1 1 1 1 1 1 1 0 1 1 1 @10 Move Face1 0 #
-406 cone-surface $-1 -1 -1 $-1 0.99999999999903366 -15.299999999999617 14.499999999999684 -1 8.9534114889125527e-016 7.5275604234762051e-030 1.3877787807814457e-014 8.3000000000000611 0 1 I I 0 1 8.3000000000000611 forward I I I I #
-407 coedge $-1 -1 -1 $-1 $373 $396 $371 $408 reversed $369 $-1 #
-408 edge $-1 -1 -1 $-1 $410 0.12732789652072923 $399 3.0142647570690624 $371 $423 forward @7 unknown F #
-409 coedge $-1 -1 -1 $-1 $396 $373 $376 $412 forward $369 $-1 #
-410 vertex $-1 -1 -1 $-1 $374 $424 #
-411 straight-curve $-1 -1 -1 $-1 0.99999999999903366 -15.299999999999592 13.699999999999688 -8.9534114889125684e-013 -1000 1.1450319973444513e-013 I I #
-412 edge $-1 -1 -1 $-1 $378 0.09653540927174406 $418 3.045057244318091 $409 $425 forward @7 unknown F #
-413 point $-1 -1 -1 $-1 0.99999999999909051 -7.038644179070392 13.699999999999688 #
-414 ellipse-curve $-1 -1 -1 $-1 -9.0949470177292824e-013 -15.299999999999617 14.499999999999684 1 -8.9534114889125527e-016 -7.5275604234762051e-030 -1.3877787807814457e-014 -8.3000000000000611 0 1 I I #
-415 straight-curve $-1 -1 -1 $-1 6.4199999999997601 -9.0510000800123613 13.699999999999688 -1000 1.2372709187362438e-012 -9.1325644118790413e-014 I I #
-416 point $-1 -1 -1 $-1 6.4199999999997601 -9.0510000800123613 13.699999999999688 #
-417 point $-1 -1 -1 $-1 -9.9475983006414026e-013 -23.561355820928775 13.700000000000049 #
-418 vertex $-1 -1 -1 $-1 $397 $426 #
-419 straight-curve $-1 -1 -1 $-1 0.99999999999903366 -15.299999999999592 13.699999999999688 -8.9534114889125684e-013 -1000 1.1450319973444513e-013 I I #
-420 point $-1 -1 -1 $-1 0.99999999999903366 -21.548999919986834 13.699999999999688 #
-421 ellipse-curve $-1 -1 -1 $-1 6.4199999999997601 -15.299999999999617 14.499999999999712 1 -1.2372709187362438e-015 9.1325644118790309e-017 1.3877787807814457e-014 6.3000000000000691 -3.2959746043559335e-014 1 I I #
-422 straight-curve $-1 -1 -1 $-1 0.99999999999900524 -23.561355820928775 13.700000000000049 1000 -8.9534114889125522e-013 -7.5275604234762045e-027 I I #
-423 ellipse-curve $-1 -1 -1 $-1 0.99999999999909051 -15.299999999999617 14.499999999999684 -1 1.2372709187362438e-015 -9.1325644118790309e-017 1.3877787807814457e-014 6.3000000000000691 0 1 I I #
-424 point $-1 -1 -1 $-1 0.99999999999909051 -9.0510000800123187 13.699999999999688 #
-425 ellipse-curve $-1 -1 -1 $-1 0.99999999999903366 -15.299999999999617 14.499999999999684 -1 8.9534114889125527e-016 7.5275604234762051e-030 1.3877787807814457e-014 8.3000000000000611 0 1 I I #
-426 point $-1 -1 -1 $-1 0.99999999999900524 -23.561355820928775 13.700000000000049 #
End-of-ACIS-data 