2200 0 1 0           
15 SolidWorks 2017 12 ACIS 22.0 NT 24 Fri Jan 05 08:36:54 2018 
1 9.9999999999999995e-007 1e-010 
-0 body $1 -1 -1 $-1 $2 $-1 $-1 F #
-1 name_attrib-gen-attrib $-1 -1 $-1 $-1 $0 2 1 1 1 1 1 1 1 1 1 1 1 1 1 0 1 1 1 @31 build platform-clip retainer-OH #
-2 lump $3 -1 -1 $-1 $-1 $4 $0 F #
-3 rgb_color-st-attrib $-1 -1 $-1 $-1 $2 2 1 2 1 1 1 1 1 1 1 1 1 1 1 0 1 1 1 1 0.93725490196078431 0.13725490196078433 #
-4 shell $-1 -1 -1 $-1 $-1 $-1 $5 $-1 $2 F #
-5 face $6 -1 -1 $-1 $7 $8 $4 $-1 $9 reversed single F T -0.92307692307689859 2.2371602234002125e-030 -3.1415926535897931 6.2577908346857468e-031 #
-6 integer_attrib-name_attrib-gen-attrib $-1 -1 $-1 $-1 $5 2 1 2 1 1 1 1 1 1 1 1 1 1 1 0 1 1 1 @55 <build platform-clip retainer>-<Stock-build platform-1> 0 #
-7 face $10 -1 -1 $-1 $11 $12 $4 $-1 $13 reversed single F T -2.2222222222221797 -1.6666666666666319 -3.1415926535897931 1.5065052009428769e-030 #
-8 loop $-1 -1 -1 $-1 $-1 $14 $5 F unknown #
-9 cone-surface $-1 -1 -1 $-1 -18.999999999999019 7.5000000000023022 3.9999999999993889 -2.2371602234002132e-030 6.7792734042430702e-031 1 3.2500000000000862 0 -0 1 I I 0 1 3.2500000000000862 forward I I I I #
-10 integer_attrib-name_attrib-gen-attrib $-1 -1 $-1 $-1 $7 2 1 2 1 1 1 1 1 1 1 1 1 1 1 0 1 1 1 @55 <build platform-clip retainer>-<Stock-build platform-1> 0 #
-11 face $15 -1 -1 $-1 $16 $17 $4 $-1 $18 reversed single F F #
-12 loop $-1 -1 -1 $-1 $-1 $19 $7 F unknown #
-13 cone-surface $-1 -1 -1 $-1 -18.999999999999019 7.5000000000023022 3.9999999999993889 -2.2371602234002132e-030 6.7792734042430702e-031 1 1.8000000000000376 0 -0 1 I I 0 1 1.8000000000000376 forward I I I I #
-14 coedge $-1 -1 -1 $-1 $20 $21 $22 $23 forward $8 $-1 #
-15 integer_attrib-name_attrib-gen-attrib $-1 -1 $-1 $-1 $11 2 1 2 1 1 1 1 1 1 1 1 1 1 1 0 1 1 1 @55 <build platform-clip retainer>-<Stock-build platform-1> 0 #
-16 face $24 -1 -1 $-1 $25 $26 $4 $-1 $27 reversed single F F #
-17 loop $-1 -1 -1 $-1 $-1 $28 $11 F unknown #
-18 plane-surface $-1 -1 -1 $-1 -12.207269137016596 1.9468870959826745e-012 3.9999999999993889 1 4.7704895589360916e-018 2.2371602234002132e-030 2.2371602234002132e-027 -6.7792734042430702e-028 -1000 forward_v I I I I #
-19 coedge $-1 -1 -1 $-1 $29 $30 $31 $32 forward $12 $-1 #
-20 coedge $-1 -1 -1 $-1 $33 $14 $34 $35 forward $8 $-1 #
-21 coedge $-1 -1 -1 $-1 $14 $33 $36 $37 reversed $8 $-1 #
-22 coedge $-1 -1 -1 $-1 $38 $38 $14 $23 reversed $39 $-1 #
-23 edge $-1 -1 -1 $-1 $40 0 $41 3.1415926535897931 $14 $42 forward @7 unknown F #
-24 integer_attrib-name_attrib-gen-attrib $-1 -1 $-1 $-1 $16 2 1 2 1 1 1 1 1 1 1 1 1 1 1 0 1 1 1 @55 <build platform-clip retainer>-<Stock-build platform-1> 0 #
-25 face $43 -1 -1 $-1 $44 $45 $4 $-1 $46 reversed single F F #
-26 loop $-1 -1 -1 $-1 $-1 $47 $16 F unknown #
-27 plane-surface $-1 -1 -1 $-1 -25.792730862988364 2.0632421794417155 3.9999999999993889 -4.7704895589360885e-018 1 -6.7792734042430702e-031 2.2371602234002132e-027 -6.7792734042430702e-028 -1000 forward_v I I I I #
-28 coedge $-1 -1 -1 $-1 $48 $49 $50 $51 reversed $17 $-1 #
-29 coedge $-1 -1 -1 $-1 $52 $19 $53 $54 forward $12 $-1 #
-30 coedge $-1 -1 -1 $-1 $19 $52 $55 $56 reversed $12 $-1 #
-31 coedge $-1 -1 -1 $-1 $57 $57 $19 $32 reversed $58 $-1 #
-32 edge $-1 -1 -1 $-1 $59 -3.4118196760865535e-076 $60 3.1415926535897931 $19 $61 forward @7 unknown F #
-33 coedge $-1 -1 -1 $-1 $21 $20 $62 $63 reversed $8 $-1 #
-34 coedge $-1 -1 -1 $-1 $64 $65 $20 $35 reversed $66 $-1 #
-35 edge $-1 -1 -1 $-1 $41 -0.0030000000000000001 $67 -1.9075175345621572e-046 $20 $68 forward @7 unknown F #
-36 coedge $-1 -1 -1 $-1 $65 $64 $21 $37 forward $66 $-1 #
-37 edge $-1 -1 -1 $-1 $40 -0.0030000000000000001 $69 0 $36 $70 forward @7 unknown F #
-38 coedge $-1 -1 -1 $-1 $22 $22 $64 $71 reversed $39 $-1 #
-39 loop $-1 -1 -1 $-1 $-1 $22 $72 F unknown #
-40 vertex $-1 -1 -1 $-1 $71 $73 #
-41 vertex $-1 -1 -1 $-1 $35 $74 #
-42 ellipse-curve $-1 -1 -1 $-1 -18.999999999999019 7.5000000000023022 0.99999999999938893 2.2371602234002132e-030 -6.7792734042430702e-031 -1 3.2500000000000862 0 -0 1 I I #
-43 integer_attrib-name_attrib-gen-attrib $-1 -1 $-1 $-1 $25 2 1 2 1 1 1 1 1 1 1 1 1 1 1 0 1 1 1 @55 <build platform-clip retainer>-<Stock-build platform-1> 0 #
-44 face $75 -1 -1 $-1 $76 $77 $4 $-1 $78 forward single F T -2.2371602234001925e-030 0.79999999999997851 -1.4115783001034665 -1.4210854715201115e-013 #
-45 loop $-1 -1 -1 $-1 $-1 $79 $25 F unknown #
-46 plane-surface $-1 -1 -1 $-1 -25.792730862988563 0.063242179440479163 3.9999999999993889 -1 -4.7704895589360916e-018 -2.2371602234002132e-030 -2.2371602234002132e-027 6.7792734042430702e-028 1000 forward_v I I I I #
-47 coedge $-1 -1 -1 $-1 $80 $81 $82 $83 reversed $26 $-1 #
-48 coedge $-1 -1 -1 $-1 $84 $28 $85 $86 reversed $17 $-1 #
-49 coedge $-1 -1 -1 $-1 $28 $84 $80 $87 forward $17 $-1 #
-50 coedge $-1 -1 -1 $-1 $82 $88 $28 $51 forward $89 $-1 #
-51 edge $-1 -1 -1 $-1 $90 0 $91 0.0020632421794402516 $50 $92 forward @7 unknown F #
-52 coedge $-1 -1 -1 $-1 $30 $29 $93 $94 reversed $12 $-1 #
-53 coedge $-1 -1 -1 $-1 $95 $96 $29 $54 reversed $97 $-1 #
-54 edge $-1 -1 -1 $-1 $60 -0.004000000000000007 $98 -0.0030000000000000001 $29 $99 forward @7 unknown F #
-55 coedge $-1 -1 -1 $-1 $96 $95 $30 $56 forward $97 $-1 #
-56 edge $-1 -1 -1 $-1 $59 -0.004000000000000007 $100 -0.0030000000000000001 $55 $101 forward @7 unknown F #
-57 coedge $-1 -1 -1 $-1 $31 $31 $95 $102 reversed $58 $-1 #
-58 loop $-1 -1 -1 $-1 $89 $31 $103 F unknown #
-59 vertex $-1 -1 -1 $-1 $102 $104 #
-60 vertex $-1 -1 -1 $-1 $54 $105 #
-61 ellipse-curve $-1 -1 -1 $-1 -18.999999999999019 7.5000000000023022 -6.1817218011128716e-013 2.2371602234002132e-030 -6.7792734042430702e-031 -1 1.8000000000000376 0 -0 1 I I #
-62 coedge $-1 -1 -1 $-1 $106 $106 $33 $63 forward $107 $-1 #
-63 edge $-1 -1 -1 $-1 $69 0 $67 3.1415926535897931 $62 $108 forward @7 unknown F #
-64 coedge $-1 -1 -1 $-1 $36 $34 $38 $71 forward $66 $-1 #
-65 coedge $-1 -1 -1 $-1 $34 $36 $106 $109 reversed $66 $-1 #
-66 loop $-1 -1 -1 $-1 $-1 $34 $110 F unknown #
-67 vertex $-1 -1 -1 $-1 $35 $111 #
-68 straight-curve $-1 -1 -1 $-1 -22.249999999999105 7.5000000000023022 3.9999999999993889 -2.2371602234002132e-027 6.7792734042430702e-028 1000 I I #
-69 vertex $-1 -1 -1 $-1 $109 $112 #
-70 straight-curve $-1 -1 -1 $-1 -15.749999999998934 7.5000000000023022 3.9999999999993889 -2.2371602234002132e-027 6.7792734042430702e-028 1000 I I #
-71 edge $-1 -1 -1 $-1 $41 -3.1415926535897931 $40 0 $64 $113 forward @7 unknown F #
-72 face $114 -1 -1 $-1 $110 $115 $4 $-1 $116 reversed single F F #
-73 point $-1 -1 -1 $-1 -15.749999999998934 7.5000000000023022 0.99999999999938893 #
-74 point $-1 -1 -1 $-1 -22.249999999999019 7.5000000000023022 0.99999999999938893 #
-75 integer_attrib-name_attrib-gen-attrib $-1 -1 $-1 $-1 $44 2 1 2 1 1 1 1 1 1 1 1 1 1 1 0 1 1 1 @55 <build platform-clip retainer>-<Stock-build platform-1> 0 #
-76 face $117 -1 -1 $-1 $118 $119 $4 $-1 $120 reversed single F F #
-77 loop $-1 -1 -1 $-1 $-1 $121 $44 F unknown #
-78 cone-surface $-1 -1 -1 $-1 -24.999999999999801 5.0000000000025011 3.9999999999993889 2.2371602234002132e-030 -6.7792734042430702e-031 -1 -5.000000000000143 0 0 1 I I 0 1 5.000000000000143 forward I I I I #
-79 coedge $-1 -1 -1 $-1 $122 $123 $124 $125 reversed $45 $-1 #
-80 coedge $-1 -1 -1 $-1 $126 $47 $49 $87 reversed $26 $-1 #
-81 coedge $-1 -1 -1 $-1 $47 $126 $122 $127 forward $26 $-1 #
-82 coedge $-1 -1 -1 $-1 $124 $50 $47 $83 forward $89 $-1 #
-83 edge $-1 -1 -1 $-1 $91 -0.0135854617259738 $128 0 $82 $129 forward @7 unknown F #
-84 coedge $-1 -1 -1 $-1 $49 $48 $130 $131 forward $17 $-1 #
-85 coedge $-1 -1 -1 $-1 $132 $133 $48 $86 forward $134 $-1 #
-86 edge $-1 -1 -1 $-1 $135 0 $90 0.004000000000000007 $85 $136 forward @7 unknown F #
-87 edge $-1 -1 -1 $-1 $137 0 $91 0.004000000000000007 $49 $138 forward @7 unknown F #
-88 coedge $-1 -1 -1 $-1 $50 $139 $132 $140 forward $89 $-1 #
-89 loop $-1 -1 -1 $-1 $-1 $50 $103 F unknown #
-90 vertex $-1 -1 -1 $-1 $140 $141 #
-91 vertex $-1 -1 -1 $-1 $83 $142 #
-92 straight-curve $-1 -1 -1 $-1 -12.207269137016596 2.0037305148434825e-012 -6.1817218011128716e-013 -4.7704895589360886e-015 1000 7.0257924371244463e-028 I I #
-93 coedge $-1 -1 -1 $-1 $143 $143 $52 $94 forward $115 $-1 #
-94 edge $-1 -1 -1 $-1 $100 1.7059098380432503e-076 $98 3.1415926535897931 $93 $144 forward @7 unknown F #
-95 coedge $-1 -1 -1 $-1 $55 $53 $57 $102 forward $97 $-1 #
-96 coedge $-1 -1 -1 $-1 $53 $55 $143 $145 reversed $97 $-1 #
-97 loop $-1 -1 -1 $-1 $-1 $53 $146 F unknown #
-98 vertex $-1 -1 -1 $-1 $54 $147 #
-99 straight-curve $-1 -1 -1 $-1 -20.799999999999059 7.5000000000023022 3.9999999999993889 -2.2371602234002132e-027 6.7792734042430702e-028 1000 I I #
-100 vertex $-1 -1 -1 $-1 $145 $148 #
-101 straight-curve $-1 -1 -1 $-1 -17.19999999999898 7.5000000000023022 3.9999999999993889 -2.2371602234002132e-027 6.7792734042430702e-028 1000 I I #
-102 edge $-1 -1 -1 $-1 $60 -3.1415926535897931 $59 -3.4118196760865535e-076 $95 $149 forward @7 unknown F #
-103 face $150 -1 -1 $-1 $146 $58 $4 $-1 $151 reversed single F F #
-104 point $-1 -1 -1 $-1 -17.19999999999898 7.5000000000023022 -6.1817218011128716e-013 #
-105 point $-1 -1 -1 $-1 -20.799999999999017 7.5000000000023022 -6.1817218011128716e-013 #
-106 coedge $-1 -1 -1 $-1 $62 $62 $65 $109 forward $107 $-1 #
-107 loop $-1 -1 -1 $-1 $152 $62 $153 F unknown #
-108 ellipse-curve $-1 -1 -1 $-1 -18.999999999999019 7.5000000000023022 3.9999999999993889 2.2371602234002132e-030 -6.7792734042430702e-031 -1 3.2500000000000862 0 -0 1 I I #
-109 edge $-1 -1 -1 $-1 $67 -3.1415926535897931 $69 0 $106 $154 forward @7 unknown F #
-110 face $155 -1 -1 $-1 $-1 $66 $4 $-1 $156 reversed single F T -0.92307692307689859 2.2371602234002125e-030 0 3.1415926535897931 #
-111 point $-1 -1 -1 $-1 -22.249999999999019 7.5000000000023022 3.9999999999993889 #
-112 point $-1 -1 -1 $-1 -15.749999999998934 7.5000000000023022 3.9999999999993889 #
-113 ellipse-curve $-1 -1 -1 $-1 -18.999999999999019 7.5000000000023022 0.99999999999938893 2.2371602234002132e-030 -6.7792734042430702e-031 -1 3.2500000000000862 0 -0 1 I I #
-114 integer_attrib-name_attrib-gen-attrib $-1 -1 $-1 $-1 $72 2 1 2 1 1 1 1 1 1 1 1 1 1 1 0 1 1 1 @55 <build platform-clip retainer>-<Stock-build platform-1> 0 #
-115 loop $-1 -1 -1 $-1 $39 $93 $72 F unknown #
-116 plane-surface $-1 -1 -1 $-1 -17.199999999999946 7.5000000000024443 0.99999999999938893 -2.2063453442899575e-030 -6.7792734042430702e-031 -1 -1000.0000000000271 -4.7704895589362211e-015 2.2063453442900174e-027 forward_v I I I I #
-117 integer_attrib-name_attrib-gen-attrib $-1 -1 $-1 $-1 $76 2 1 2 1 1 1 1 1 1 1 1 1 1 1 0 1 1 1 @55 <build platform-clip retainer>-<Stock-build platform-1> 0 #
-118 face $157 -1 -1 $-1 $158 $159 $4 $-1 $160 forward single F T -2.2371602234003197e-030 0.79999999999997851 -1.1368683772161279e-014 1.4115783001036548 #
-119 loop $-1 -1 -1 $-1 $-1 $161 $76 F unknown #
-120 plane-surface $-1 -1 -1 $-1 -30.000000000000114 5.0000000000017906 3.9999999999993889 1 4.7704895589360916e-018 2.2371602234002132e-030 2.2371602234002132e-027 -6.7792734042430702e-028 -1000 forward_v I I I I #
-121 coedge $-1 -1 -1 $-1 $162 $163 $164 $165 reversed $77 $-1 #
-122 coedge $-1 -1 -1 $-1 $166 $79 $81 $127 reversed $45 $-1 #
-123 coedge $-1 -1 -1 $-1 $79 $166 $162 $167 forward $45 $-1 #
-124 coedge $-1 -1 -1 $-1 $164 $82 $79 $125 forward $89 $-1 #
-125 edge $-1 -1 -1 $-1 $128 -0.0020000000000012365 $168 0 $124 $169 forward @7 unknown F #
-126 coedge $-1 -1 -1 $-1 $81 $80 $170 $171 forward $26 $-1 #
-127 edge $-1 -1 -1 $-1 $172 0 $128 0.004000000000000007 $81 $173 forward @7 unknown F #
-128 vertex $-1 -1 -1 $-1 $125 $174 #
-129 straight-curve $-1 -1 -1 $-1 -25.792730862988364 2.0632421794417155 -6.1817218011128716e-013 -1000 -4.7704895589360917e-015 2.2063453442899575e-027 I I #
-130 coedge $-1 -1 -1 $-1 $175 $170 $84 $131 reversed $152 $-1 #
-131 edge $-1 -1 -1 $-1 $135 0 $137 0.0020632421794403088 $84 $176 forward @7 unknown F #
-132 coedge $-1 -1 -1 $-1 $177 $85 $88 $140 reversed $134 $-1 #
-133 coedge $-1 -1 -1 $-1 $85 $177 $175 $178 forward $134 $-1 #
-134 loop $-1 -1 -1 $-1 $-1 $132 $179 F unknown #
-135 vertex $-1 -1 -1 $-1 $178 $180 #
-136 straight-curve $-1 -1 -1 $-1 -12.207269137016596 1.9468870959826745e-012 3.9999999999993889 2.2371602234002132e-027 -6.7792734042430702e-028 -1000 I I #
-137 vertex $-1 -1 -1 $-1 $171 $181 #
-138 straight-curve $-1 -1 -1 $-1 -12.207269137014563 2.0632421794422555 3.9999999999993889 2.2371602234002132e-027 -6.7792734042430702e-028 -1000 I I #
-139 coedge $-1 -1 -1 $-1 $88 $182 $183 $184 forward $89 $-1 #
-140 edge $-1 -1 -1 $-1 $185 0 $90 0.012207269137016396 $88 $186 forward @7 unknown F #
-141 point $-1 -1 -1 $-1 -12.207269137016596 2.0037305148434825e-012 -6.1817218011128716e-013 #
-142 point $-1 -1 -1 $-1 -12.207269137014563 2.0632421794422555 -6.1817218011128716e-013 #
-143 coedge $-1 -1 -1 $-1 $93 $93 $96 $145 forward $115 $-1 #
-144 ellipse-curve $-1 -1 -1 $-1 -18.999999999999019 7.5000000000023022 0.99999999999938893 2.2371602234002132e-030 -6.7792734042430702e-031 -1 1.8000000000000516 0 -0 1 I I #
-145 edge $-1 -1 -1 $-1 $98 -3.1415926535897931 $100 1.7059098380432503e-076 $143 $187 forward @7 unknown F #
-146 face $188 -1 -1 $-1 $72 $97 $4 $-1 $189 reversed single F T -2.2222222222221797 -1.6666666666666319 1.1298789007071467e-030 3.1415926535897931 #
-147 point $-1 -1 -1 $-1 -20.799999999999017 7.5000000000023022 0.99999999999938893 #
-148 point $-1 -1 -1 $-1 -17.199999999998965 7.5000000000023022 0.99999999999938893 #
-149 ellipse-curve $-1 -1 -1 $-1 -18.999999999999019 7.5000000000023022 -6.1817218011128716e-013 2.2371602234002132e-030 -6.7792734042430702e-031 -1 1.8000000000000376 0 -0 1 I I #
-150 integer_attrib-name_attrib-gen-attrib $-1 -1 $-1 $-1 $103 2 1 2 1 1 1 1 1 1 1 1 1 1 1 0 1 1 1 @55 <build platform-clip retainer>-<Stock-build platform-1> 0 #
-151 plane-surface $-1 -1 -1 $-1 -24.999999999999801 5.0000000000025011 -6.1817218011128716e-013 2.2063453442899575e-030 6.7792734042430702e-031 1 1000.0000000000271 4.7704895589362211e-015 -2.2063453442900174e-027 forward_v I I I I #
-152 loop $-1 -1 -1 $-1 $-1 $130 $153 F unknown #
-153 face $190 -1 -1 $-1 $103 $107 $4 $-1 $191 forward single F F #
-154 ellipse-curve $-1 -1 -1 $-1 -18.999999999999019 7.5000000000023022 3.9999999999993889 2.2371602234002132e-030 -6.7792734042430702e-031 -1 3.2500000000000862 0 -0 1 I I #
-155 integer_attrib-name_attrib-gen-attrib $-1 -1 $-1 $-1 $110 2 1 2 1 1 1 1 1 1 1 1 1 1 1 0 1 1 1 @55 <build platform-clip retainer>-<Stock-build platform-1> 0 #
-156 cone-surface $-1 -1 -1 $-1 -18.999999999999019 7.5000000000023022 3.9999999999993889 -2.2371602234002132e-030 6.7792734042430702e-031 1 3.2500000000000862 0 -0 1 I I 0 1 3.2500000000000862 forward I I I I #
-157 integer_attrib-name_attrib-gen-attrib $-1 -1 $-1 $-1 $118 2 1 2 1 1 1 1 1 1 1 1 1 1 1 0 1 1 1 @55 <build platform-clip retainer>-<Stock-build platform-1> 0 #
-158 face $192 -1 -1 $-1 $193 $194 $4 $-1 $195 reversed single F F #
-159 loop $-1 -1 -1 $-1 $-1 $196 $118 F unknown #
-160 cone-surface $-1 -1 -1 $-1 -24.999999999999972 10.000000000001791 3.9999999999993889 2.2371602234002132e-030 -6.7792734042430702e-031 -1 -5.000000000000143 0 0 1 I I 0 1 5.000000000000143 forward I I I I #
-161 coedge $-1 -1 -1 $-1 $197 $198 $199 $200 reversed $119 $-1 #
-162 coedge $-1 -1 -1 $-1 $201 $121 $123 $167 reversed $77 $-1 #
-163 coedge $-1 -1 -1 $-1 $121 $201 $197 $202 forward $77 $-1 #
-164 coedge $-1 -1 -1 $-1 $199 $124 $121 $165 forward $89 $-1 #
-165 edge $-1 -1 -1 $-1 $168 1.7300143534863266 $203 3.141592653589651 $164 $204 forward @7 unknown F #
-166 coedge $-1 -1 -1 $-1 $123 $122 $205 $206 forward $45 $-1 #
-167 edge $-1 -1 -1 $-1 $207 0 $168 0.004000000000000007 $123 $208 forward @7 unknown F #
-168 vertex $-1 -1 -1 $-1 $165 $209 #
-169 straight-curve $-1 -1 -1 $-1 -25.792730862988563 0.063242179440479163 -6.1817218011128716e-013 4.7704895589360886e-015 -1000 -7.0257924371244463e-028 I I #
-170 coedge $-1 -1 -1 $-1 $130 $205 $126 $171 reversed $152 $-1 #
-171 edge $-1 -1 -1 $-1 $137 -0.0135854617259738 $172 0 $126 $210 forward @7 unknown F #
-172 vertex $-1 -1 -1 $-1 $206 $211 #
-173 straight-curve $-1 -1 -1 $-1 -25.792730862988364 2.0632421794417155 3.9999999999993889 2.2371602234002132e-027 -6.7792734042430702e-028 -1000 I I #
-174 point $-1 -1 -1 $-1 -25.792730862988364 2.0632421794417155 -6.1817218011128716e-013 #
-175 coedge $-1 -1 -1 $-1 $212 $130 $133 $178 reversed $152 $-1 #
-176 straight-curve $-1 -1 -1 $-1 -12.207269137016596 1.9468870959826745e-012 3.9999999999993889 -4.7704895589360886e-015 1000 7.0257924371244463e-028 I I #
-177 coedge $-1 -1 -1 $-1 $133 $132 $213 $214 reversed $134 $-1 #
-178 edge $-1 -1 -1 $-1 $215 0 $135 0.012207269137016396 $133 $216 forward @7 unknown F #
-179 face $217 -1 -1 $-1 $153 $134 $4 $-1 $218 reversed single F F #
-180 point $-1 -1 -1 $-1 -12.207269137016596 1.9468870959826745e-012 3.9999999999993889 #
-181 point $-1 -1 -1 $-1 -12.207269137014563 2.0632421794422555 3.9999999999993889 #
-182 coedge $-1 -1 -1 $-1 $139 $219 $220 $221 forward $89 $-1 #
-183 coedge $-1 -1 -1 $-1 $222 $213 $139 $184 reversed $223 $-1 #
-184 edge $-1 -1 -1 $-1 $224 0 $185 0.01499999999999784 $139 $225 forward @7 unknown F #
-185 vertex $-1 -1 -1 $-1 $140 $226 #
-186 straight-curve $-1 -1 -1 $-1 -1.9895196601282805e-013 2.2737367544323206e-012 -6.1817218011128716e-013 -1000 -4.7704895589360917e-015 2.2063453442899575e-027 I I #
-187 ellipse-curve $-1 -1 -1 $-1 -18.999999999999019 7.5000000000023022 0.99999999999938893 2.2371602234002132e-030 -6.7792734042430702e-031 -1 1.8000000000000516 0 -0 1 I I #
-188 integer_attrib-name_attrib-gen-attrib $-1 -1 $-1 $-1 $146 2 1 2 1 1 1 1 1 1 1 1 1 1 1 0 1 1 1 @55 <build platform-clip retainer>-<Stock-build platform-1> 0 #
-189 cone-surface $-1 -1 -1 $-1 -18.999999999999019 7.5000000000023022 3.9999999999993889 -2.2371602234002132e-030 6.7792734042430702e-031 1 1.8000000000000376 0 -0 1 I I 0 1 1.8000000000000376 forward I I I I #
-190 integer_attrib-name_attrib-gen-attrib $-1 -1 $-1 $-1 $153 2 1 2 1 1 1 1 1 1 1 1 1 1 1 0 1 1 1 @55 <build platform-clip retainer>-<Stock-build platform-1> 0 #
-191 plane-surface $-1 -1 -1 $-1 -24.999999999999801 5.0000000000025011 3.9999999999993889 2.2063453442899575e-030 6.7792734042430702e-031 1 1000.0000000000271 4.7704895589362211e-015 -2.2063453442900174e-027 forward_v I I I I #
-192 integer_attrib-name_attrib-gen-attrib $-1 -1 $-1 $-1 $158 2 1 2 1 1 1 1 1 1 1 1 1 1 1 0 1 1 1 @55 <build platform-clip retainer>-<Stock-build platform-1> 0 #
-193 face $227 -1 -1 $-1 $179 $223 $4 $-1 $228 reversed single F F #
-194 loop $-1 -1 -1 $-1 $-1 $220 $158 F unknown #
-195 plane-surface $-1 -1 -1 $-1 -25.792730862987582 14.936757820562576 3.9999999999993889 0.0024519307269158779 -0.99999699401333719 -1.2387581402298363e-030 -999.99699401336431 -2.4519307269159443 2.0769228520271951e-027 forward_v I I I I #
-196 coedge $-1 -1 -1 $-1 $229 $230 $219 $231 reversed $159 $-1 #
-197 coedge $-1 -1 -1 $-1 $232 $161 $163 $202 reversed $119 $-1 #
-198 coedge $-1 -1 -1 $-1 $161 $232 $229 $233 forward $119 $-1 #
-199 coedge $-1 -1 -1 $-1 $219 $164 $161 $200 forward $89 $-1 #
-200 edge $-1 -1 -1 $-1 $203 0 $234 0.0050000000000000001 $199 $235 forward @7 unknown F #
-201 coedge $-1 -1 -1 $-1 $163 $162 $236 $237 forward $77 $-1 #
-202 edge $-1 -1 -1 $-1 $238 0 $203 0.004000000000000007 $163 $239 forward @7 unknown F #
-203 vertex $-1 -1 -1 $-1 $200 $240 #
-204 ellipse-curve $-1 -1 -1 $-1 -24.999999999999801 5.0000000000025011 -6.1817218011128716e-013 2.2371602234002132e-030 -6.7792734042430702e-031 -1 5.000000000000143 0 -0 1 I I #
-205 coedge $-1 -1 -1 $-1 $170 $236 $166 $206 reversed $152 $-1 #
-206 edge $-1 -1 -1 $-1 $172 -0.0020000000000012365 $207 0 $166 $241 forward @7 unknown F #
-207 vertex $-1 -1 -1 $-1 $237 $242 #
-208 straight-curve $-1 -1 -1 $-1 -25.792730862988563 0.063242179440479163 3.9999999999993889 2.2371602234002132e-027 -6.7792734042430702e-028 -1000 I I #
-209 point $-1 -1 -1 $-1 -25.792730862988563 0.063242179440479163 -6.1817218011128716e-013 #
-210 straight-curve $-1 -1 -1 $-1 -25.792730862988364 2.0632421794417155 3.9999999999993889 -1000 -4.7704895589360917e-015 2.2063453442899575e-027 I I #
-211 point $-1 -1 -1 $-1 -25.792730862988364 2.0632421794417155 3.9999999999993889 #
-212 coedge $-1 -1 -1 $-1 $243 $175 $244 $245 reversed $152 $-1 #
-213 coedge $-1 -1 -1 $-1 $183 $244 $177 $214 forward $223 $-1 #
-214 edge $-1 -1 -1 $-1 $215 0 $185 0.004000000000000007 $213 $246 forward @7 unknown F #
-215 vertex $-1 -1 -1 $-1 $178 $247 #
-216 straight-curve $-1 -1 -1 $-1 -1.9895196601282805e-013 2.2737367544323206e-012 3.9999999999993889 -1000 -4.7704895589360917e-015 2.2063453442899575e-027 I I #
-217 integer_attrib-name_attrib-gen-attrib $-1 -1 $-1 $-1 $179 2 1 2 1 1 1 1 1 1 1 1 1 1 1 0 1 1 1 @55 <build platform-clip retainer>-<Stock-build platform-1> 0 #
-218 plane-surface $-1 -1 -1 $-1 -1.9895196601282805e-013 2.2737367544323206e-012 3.9999999999993889 -4.7704895589360885e-018 1 -6.7792734042430702e-031 2.2371602234002132e-027 -6.7792734042430702e-028 -1000 forward_v I I I I #
-219 coedge $-1 -1 -1 $-1 $182 $199 $196 $231 forward $89 $-1 #
-220 coedge $-1 -1 -1 $-1 $248 $249 $182 $221 reversed $194 $-1 #
-221 edge $-1 -1 -1 $-1 $250 0 $224 0.025792808395825418 $182 $251 forward @7 unknown F #
-222 coedge $-1 -1 -1 $-1 $244 $183 $249 $252 reversed $223 $-1 #
-223 loop $-1 -1 -1 $-1 $-1 $183 $193 F unknown #
-224 vertex $-1 -1 -1 $-1 $184 $253 #
-225 straight-curve $-1 -1 -1 $-1 -1.9895196601282805e-013 15.000000000000114 -7.2475359047530219e-013 4.7704895589360886e-015 -1000 -7.0257924371244463e-028 I I #
-226 point $-1 -1 -1 $-1 -1.9895196601282805e-013 2.2737367544323206e-012 -6.1817218011128716e-013 #
-227 integer_attrib-name_attrib-gen-attrib $-1 -1 $-1 $-1 $193 2 1 2 1 1 1 1 1 1 1 1 1 1 1 0 1 1 1 @55 <build platform-clip retainer>-<Stock-build platform-1> 0 #
-228 plane-surface $-1 -1 -1 $-1 -1.9895196601282805e-013 15.000000000000114 3.9999999999992752 -1 -4.7704895589360916e-018 -2.2371602234002132e-030 -2.2371602234002132e-027 6.7792734042430702e-028 1000 forward_v I I I I #
-229 coedge $-1 -1 -1 $-1 $254 $196 $198 $233 reversed $159 $-1 #
-230 coedge $-1 -1 -1 $-1 $196 $254 $248 $255 forward $159 $-1 #
-231 edge $-1 -1 -1 $-1 $234 -3.1415926535897931 $250 -1.7300143534861383 $219 $256 forward @7 unknown F #
-232 coedge $-1 -1 -1 $-1 $198 $197 $257 $258 forward $119 $-1 #
-233 edge $-1 -1 -1 $-1 $259 0 $234 0.004000000000000007 $198 $260 forward @7 unknown F #
-234 vertex $-1 -1 -1 $-1 $231 $261 #
-235 straight-curve $-1 -1 -1 $-1 -30.000000000000114 5.0000000000017906 -6.1817218011128716e-013 -4.7704895589360886e-015 1000 7.0257924371244463e-028 I I #
-236 coedge $-1 -1 -1 $-1 $205 $257 $201 $237 reversed $152 $-1 #
-237 edge $-1 -1 -1 $-1 $207 1.7300143534863266 $238 3.141592653589651 $201 $262 forward @7 unknown F #
-238 vertex $-1 -1 -1 $-1 $258 $263 #
-239 straight-curve $-1 -1 -1 $-1 -30.000000000000114 5.0000000000017906 3.9999999999993889 2.2371602234002132e-027 -6.7792734042430702e-028 -1000 I I #
-240 point $-1 -1 -1 $-1 -30.000000000000114 5.0000000000017906 -6.1817218011128716e-013 #
-241 straight-curve $-1 -1 -1 $-1 -25.792730862988563 0.063242179440479163 3.9999999999993889 4.7704895589360886e-015 -1000 -7.0257924371244463e-028 I I #
-242 point $-1 -1 -1 $-1 -25.792730862988563 0.063242179440479163 3.9999999999993889 #
-243 coedge $-1 -1 -1 $-1 $264 $212 $265 $266 reversed $152 $-1 #
-244 coedge $-1 -1 -1 $-1 $213 $222 $212 $245 forward $223 $-1 #
-245 edge $-1 -1 -1 $-1 $267 0 $215 0.01499999999999784 $244 $268 forward @7 unknown F #
-246 straight-curve $-1 -1 -1 $-1 -1.9895196601282805e-013 2.2737367544323206e-012 3.9999999999993889 2.2371602234002132e-027 -6.7792734042430702e-028 -1000 I I #
-247 point $-1 -1 -1 $-1 -1.9895196601282805e-013 2.2737367544323206e-012 3.9999999999993889 #
-248 coedge $-1 -1 -1 $-1 $265 $220 $230 $255 reversed $194 $-1 #
-249 coedge $-1 -1 -1 $-1 $220 $265 $222 $252 forward $194 $-1 #
-250 vertex $-1 -1 -1 $-1 $221 $269 #
-251 straight-curve $-1 -1 -1 $-1 -25.792730862987582 14.936757820562576 -6.1817218011128716e-013 999.99699401333714 2.4519307269158785 -2.0769228520271388e-027 I I #
-252 edge $-1 -1 -1 $-1 $267 0 $224 0.0040000000000000001 $249 $270 forward @7 unknown F #
-253 point $-1 -1 -1 $-1 -1.9895196601282805e-013 15.000000000000114 -7.2475359047530219e-013 #
-254 coedge $-1 -1 -1 $-1 $230 $229 $264 $271 forward $159 $-1 #
-255 edge $-1 -1 -1 $-1 $272 0 $250 0.004000000000000007 $230 $273 forward @7 unknown F #
-256 ellipse-curve $-1 -1 -1 $-1 -24.999999999999972 10.000000000001791 -6.1817218011128716e-013 2.2371602234002132e-030 -6.7792734042430702e-031 -1 5.000000000000143 0 -0 1 I I #
-257 coedge $-1 -1 -1 $-1 $236 $264 $232 $258 reversed $152 $-1 #
-258 edge $-1 -1 -1 $-1 $238 0 $259 0.0049999999999999429 $232 $274 forward @7 unknown F #
-259 vertex $-1 -1 -1 $-1 $271 $275 #
-260 straight-curve $-1 -1 -1 $-1 -30.000000000000369 10.000000000001734 3.9999999999993889 2.2371602234002132e-027 -6.7792734042430702e-028 -1000 I I #
-261 point $-1 -1 -1 $-1 -30.000000000000369 10.000000000001791 -6.1817218011128716e-013 #
-262 ellipse-curve $-1 -1 -1 $-1 -24.999999999999801 5.0000000000025011 3.9999999999993889 2.2371602234002132e-030 -6.7792734042430702e-031 -1 5.000000000000143 0 -0 1 I I #
-263 point $-1 -1 -1 $-1 -30.000000000000114 5.0000000000017906 3.9999999999993889 #
-264 coedge $-1 -1 -1 $-1 $257 $243 $254 $271 reversed $152 $-1 #
-265 coedge $-1 -1 -1 $-1 $249 $248 $243 $266 forward $194 $-1 #
-266 edge $-1 -1 -1 $-1 $272 0 $267 0.025792808395825418 $265 $276 forward @7 unknown F #
-267 vertex $-1 -1 -1 $-1 $245 $277 #
-268 straight-curve $-1 -1 -1 $-1 -1.9895196601282805e-013 15.000000000000114 3.9999999999992752 4.7704895589360886e-015 -1000 -7.0257924371244463e-028 I I #
-269 point $-1 -1 -1 $-1 -25.792730862987582 14.936757820562576 -6.1817218011128716e-013 #
-270 straight-curve $-1 -1 -1 $-1 -1.9895196601282805e-013 15.000000000000114 3.9999999999992752 2.2371602234002132e-027 -6.7792734042430702e-028 -1000 I I #
-271 edge $-1 -1 -1 $-1 $259 -3.1415926535898047 $272 -1.7300143534861383 $254 $278 forward @7 unknown F #
-272 vertex $-1 -1 -1 $-1 $266 $279 #
-273 straight-curve $-1 -1 -1 $-1 -25.792730862987582 14.936757820562576 3.9999999999993889 2.2371602234002132e-027 -6.7792734042430702e-028 -1000 I I #
-274 straight-curve $-1 -1 -1 $-1 -30.000000000000114 5.0000000000017906 3.9999999999993889 -4.7704895589360886e-015 1000 7.0257924371244463e-028 I I #
-275 point $-1 -1 -1 $-1 -30.000000000000369 10.000000000001734 3.9999999999993889 #
-276 straight-curve $-1 -1 -1 $-1 -25.792730862987582 14.936757820562576 3.9999999999993889 999.99699401333714 2.4519307269158785 -2.0769228520271388e-027 I I #
-277 point $-1 -1 -1 $-1 -1.9895196601282805e-013 15.000000000000114 3.9999999999992752 #
-278 ellipse-curve $-1 -1 -1 $-1 -24.999999999999972 10.000000000001791 3.9999999999993889 2.2371602234002132e-030 -6.7792734042430702e-031 -1 5.000000000000143 0 -0 1 I I #
-279 point $-1 -1 -1 $-1 -25.792730862987582 14.936757820562576 3.9999999999993889 #
End-of-ACIS-data 