2200 0 1 0           
15 SolidWorks 2017 12 ACIS 22.0 NT 24 Fri Jan 05 08:35:42 2018 
1 9.9999999999999995e-007 1e-010 
-0 body $1 -1 -1 $-1 $2 $-1 $-1 F #
-1 name_attrib-gen-attrib $-1 -1 $-1 $-1 $0 2 1 1 1 1 1 1 1 1 1 1 1 1 1 0 1 1 1 @28 2Z bearing holder left cover #
-2 lump $3 -1 -1 $-1 $-1 $4 $0 F #
-3 rgb_color-st-attrib $-1 -1 $-1 $-1 $2 2 1 2 1 1 1 1 1 1 1 1 1 1 1 0 1 1 1 1 0.93725490196078431 0.13725490196078433 #
-4 shell $-1 -1 -1 $-1 $-1 $-1 $5 $-1 $2 F #
-5 face $6 -1 -1 $-1 $7 $8 $4 $-1 $9 reversed single F T -0.92307692307691647 2.2315661376540737e-029 -3.1415926535897931 1.9001894075316394e-016 #
-6 integer_attrib-name_attrib-gen-attrib $-1 -1 $-1 $-1 $5 2 1 2 1 1 1 1 1 1 1 1 1 1 1 0 1 1 1 @12 Cut-Extrude1 0 #
-7 face $10 -1 -1 $-1 $11 $12 $4 $-1 $13 reversed single F T -0.92307692307692302 2.2801114241292139e-029 -3.1415926535897931 -1.024821253500063e-016 #
-8 loop $-1 -1 -1 $-1 $-1 $14 $5 F unknown #
-9 cone-surface $-1 -1 -1 $-1 20.750000000000011 1.3877787807814457e-014 5.000000000000032 1.1635698352010077e-029 1 8.2090837949562648e-030 -3.249999999999996 -3.543711097672514e-029 -1.1275702593849246e-014 1 I I 0 1 3.249999999999996 forward I I I I #
-10 integer_attrib-name_attrib-gen-attrib $-1 -1 $-1 $-1 $7 2 1 2 1 1 1 1 1 1 1 1 1 1 1 0 1 1 1 @12 Cut-Extrude1 0 #
-11 face $15 -1 -1 $-1 $16 $17 $4 $-1 $18 reversed single F T -0.92307692307692502 2.7170190024054673e-029 -3.1415926535897931 -1.0248212535000681e-016 #
-12 loop $-1 -1 -1 $-1 $-1 $19 $7 F unknown #
-13 cone-surface $-1 -1 -1 $-1 20.750000000000018 6.9388939039072284e-015 70.000000000002998 1.1635698352010077e-029 1 8.2090837949562648e-030 -3.249999999999996 -3.6207482954480034e-029 -1.3877787807814457e-014 1 I I 0 1 3.249999999999996 forward I I I I #
-14 coedge $-1 -1 -1 $-1 $20 $21 $22 $23 reversed $8 $-1 #
-15 integer_attrib-name_attrib-gen-attrib $-1 -1 $-1 $-1 $11 2 1 2 1 1 1 1 1 1 1 1 1 1 1 0 1 1 1 @12 Cut-Extrude1 0 #
-16 face $24 -1 -1 $-1 $25 $26 $4 $-1 $27 reversed single F T -0.92307692307692457 2.717019002405465e-029 -3.1415926535897931 -8.3266726846877028e-017 #
-17 loop $-1 -1 -1 $-1 $-1 $28 $11 F unknown #
-18 cone-surface $-1 -1 -1 $-1 4.2500000000000036 3.8163916471489756e-013 70.000000000002998 1.1635698352010077e-029 1 8.2090837949562648e-030 -3.249999999999996 -4.9303806576313238e-029 -1.3877787807814457e-014 1 I I 0 1 3.249999999999996 forward I I I I #
-19 coedge $-1 -1 -1 $-1 $29 $30 $31 $32 reversed $12 $-1 #
-20 coedge $-1 -1 -1 $-1 $33 $14 $34 $35 forward $8 $-1 #
-21 coedge $-1 -1 -1 $-1 $14 $33 $36 $37 reversed $8 $-1 #
-22 coedge $-1 -1 -1 $-1 $38 $38 $14 $23 forward $39 $-1 #
-23 edge $-1 -1 -1 $-1 $40 -3.1415926535897931 $41 1.900189407531524e-016 $22 $42 forward @7 unknown F #
-24 integer_attrib-name_attrib-gen-attrib $-1 -1 $-1 $-1 $16 2 1 2 1 1 1 1 1 1 1 1 1 1 1 0 1 1 1 @12 Cut-Extrude1 0 #
-25 face $43 -1 -1 $-1 $44 $45 $4 $-1 $46 reversed single F T -6.1111111111113265 -1.6666666666666718 -3.1415926535897931 5.0166623191401163e-029 #
-26 loop $-1 -1 -1 $-1 $-1 $47 $16 F unknown #
-27 cone-surface $-1 -1 -1 $-1 4.2500000000000036 3.8857805861880479e-013 5.0000000000000044 1.1635698352010077e-029 1 8.2090837949562648e-030 -3.2499999999999978 -4.9303806576313238e-029 -1.1275702593849246e-014 1 I I 0 1 3.2499999999999978 forward I I I I #
-28 coedge $-1 -1 -1 $-1 $48 $49 $50 $51 reversed $17 $-1 #
-29 coedge $-1 -1 -1 $-1 $52 $19 $53 $54 forward $12 $-1 #
-30 coedge $-1 -1 -1 $-1 $19 $52 $55 $56 reversed $12 $-1 #
-31 coedge $-1 -1 -1 $-1 $57 $57 $19 $32 forward $58 $-1 #
-32 edge $-1 -1 -1 $-1 $59 -3.1415926535897931 $60 -1.0248212535001409e-016 $31 $61 forward @7 unknown F #
-33 coedge $-1 -1 -1 $-1 $21 $20 $62 $63 forward $8 $-1 #
-34 coedge $-1 -1 -1 $-1 $64 $65 $20 $35 reversed $66 $-1 #
-35 edge $-1 -1 -1 $-1 $40 -0.0029999999999999745 $67 -7.415292509077511e-032 $20 $68 forward @7 unknown F #
-36 coedge $-1 -1 -1 $-1 $65 $64 $21 $37 forward $66 $-1 #
-37 edge $-1 -1 -1 $-1 $41 -0.0029999999999999745 $69 0 $36 $70 forward @7 unknown F #
-38 coedge $-1 -1 -1 $-1 $22 $22 $64 $71 forward $39 $-1 #
-39 loop $-1 -1 -1 $-1 $-1 $38 $72 F unknown #
-40 vertex $-1 -1 -1 $-1 $35 $73 #
-41 vertex $-1 -1 -1 $-1 $23 $74 #
-42 ellipse-curve $-1 -1 -1 $-1 20.750000000000011 -2.9999999999999609 5.000000000000032 1.1635698352010077e-029 1 8.2090837949562648e-030 -3.2499999999999996 -0 -1.1275702593849246e-014 1 I I #
-43 integer_attrib-name_attrib-gen-attrib $-1 -1 $-1 $-1 $25 2 1 2 1 1 1 1 1 1 1 1 1 1 1 0 1 1 1 @12 Cut-Extrude1 0 #
-44 face $75 -1 -1 $-1 $76 $77 $4 $-1 $78 reversed single F T -6.1111111111111107 -1.6666666666666681 -3.1415926535897931 5.0166623191399953e-029 #
-45 loop $-1 -1 -1 $-1 $-1 $79 $25 F unknown #
-46 cone-surface $-1 -1 -1 $-1 4.2500000000000036 3.8163916471489756e-013 70.000000000002998 1.1635698352010077e-029 1 8.2090837949562648e-030 -1.799999999999996 0 0 1 I I 0 1 1.799999999999996 forward I I I I #
-47 coedge $-1 -1 -1 $-1 $80 $81 $82 $83 reversed $26 $-1 #
-48 coedge $-1 -1 -1 $-1 $84 $28 $85 $86 forward $17 $-1 #
-49 coedge $-1 -1 -1 $-1 $28 $84 $87 $88 reversed $17 $-1 #
-50 coedge $-1 -1 -1 $-1 $89 $89 $28 $51 forward $90 $-1 #
-51 edge $-1 -1 -1 $-1 $91 -3.1415926535897931 $92 -1.0248212535001529e-016 $50 $93 forward @7 unknown F #
-52 coedge $-1 -1 -1 $-1 $30 $29 $94 $95 forward $12 $-1 #
-53 coedge $-1 -1 -1 $-1 $96 $97 $29 $54 reversed $98 $-1 #
-54 edge $-1 -1 -1 $-1 $59 -0.0029999999999999962 $99 -7.3364064185554097e-032 $29 $100 forward @7 unknown F #
-55 coedge $-1 -1 -1 $-1 $97 $96 $30 $56 forward $98 $-1 #
-56 edge $-1 -1 -1 $-1 $60 -0.0029999999999999962 $101 0 $55 $102 forward @7 unknown F #
-57 coedge $-1 -1 -1 $-1 $31 $31 $96 $103 forward $58 $-1 #
-58 loop $-1 -1 -1 $-1 $-1 $57 $104 F unknown #
-59 vertex $-1 -1 -1 $-1 $54 $105 #
-60 vertex $-1 -1 -1 $-1 $32 $106 #
-61 ellipse-curve $-1 -1 -1 $-1 20.750000000000018 -2.9999999999999889 70.000000000002998 1.1635698352010077e-029 1 8.2090837949562648e-030 -3.249999999999996 -0 -1.3877787807814457e-014 1 I I #
-62 coedge $-1 -1 -1 $-1 $107 $107 $33 $63 reversed $108 $-1 #
-63 edge $-1 -1 -1 $-1 $67 -3.1415926535897931 $69 1.9001894075315284e-016 $33 $109 forward @7 unknown F #
-64 coedge $-1 -1 -1 $-1 $36 $34 $38 $71 reversed $66 $-1 #
-65 coedge $-1 -1 -1 $-1 $34 $36 $107 $110 forward $66 $-1 #
-66 loop $-1 -1 -1 $-1 $-1 $34 $111 F unknown #
-67 vertex $-1 -1 -1 $-1 $35 $112 #
-68 straight-curve $-1 -1 -1 $-1 24.000000000000007 1.3877787807814493e-014 5.0000000000000435 1.1635698352010076e-026 1000 8.2090837949562646e-027 I I #
-69 vertex $-1 -1 -1 $-1 $63 $113 #
-70 straight-curve $-1 -1 -1 $-1 17.500000000000014 1.3877787807814422e-014 5.0000000000000213 1.1635698352010076e-026 1000 8.2090837949562646e-027 I I #
-71 edge $-1 -1 -1 $-1 $41 1.900189407531524e-016 $40 3.1415926535897931 $38 $114 forward @7 unknown F #
-72 face $115 -1 -1 $-1 $111 $116 $4 $-1 $117 reversed single F F #
-73 point $-1 -1 -1 $-1 24.000000000000011 -2.9999999999999609 5.0000000000000435 #
-74 point $-1 -1 -1 $-1 17.500000000000011 -2.9999999999999609 5.0000000000000213 #
-75 integer_attrib-name_attrib-gen-attrib $-1 -1 $-1 $-1 $44 2 1 2 1 1 1 1 1 1 1 1 1 1 1 0 1 1 1 @12 Cut-Extrude1 0 #
-76 face $118 -1 -1 $-1 $119 $120 $4 $-1 $121 reversed single F T -6.1111111111113372 -1.6666666666666734 -3.1415926535897931 -8.0953762212200839e-017 #
-77 loop $-1 -1 -1 $-1 $-1 $122 $44 F unknown #
-78 cone-surface $-1 -1 -1 $-1 20.750000000000018 6.9388939039072284e-015 70.000000000002998 1.1635698352010077e-029 1 8.2090837949562648e-030 -1.799999999999996 -2.0029671421627253e-029 0 1 I I 0 1 1.799999999999996 forward I I I I #
-79 coedge $-1 -1 -1 $-1 $123 $124 $125 $126 reversed $45 $-1 #
-80 coedge $-1 -1 -1 $-1 $127 $47 $128 $129 forward $26 $-1 #
-81 coedge $-1 -1 -1 $-1 $47 $127 $130 $131 reversed $26 $-1 #
-82 coedge $-1 -1 -1 $-1 $132 $132 $47 $83 forward $133 $-1 #
-83 edge $-1 -1 -1 $-1 $134 -3.1415926535897931 $135 -8.3266726846887357e-017 $82 $136 forward @7 unknown F #
-84 coedge $-1 -1 -1 $-1 $49 $48 $137 $138 forward $17 $-1 #
-85 coedge $-1 -1 -1 $-1 $139 $140 $48 $86 reversed $141 $-1 #
-86 edge $-1 -1 -1 $-1 $91 -0.0030000000000000027 $142 -1.0097419586828951e-031 $48 $143 forward @7 unknown F #
-87 coedge $-1 -1 -1 $-1 $140 $139 $49 $88 forward $141 $-1 #
-88 edge $-1 -1 -1 $-1 $92 -0.0030000000000000027 $144 0 $87 $145 forward @7 unknown F #
-89 coedge $-1 -1 -1 $-1 $50 $50 $139 $146 forward $90 $-1 #
-90 loop $-1 -1 -1 $-1 $-1 $89 $147 F unknown #
-91 vertex $-1 -1 -1 $-1 $86 $148 #
-92 vertex $-1 -1 -1 $-1 $51 $149 #
-93 ellipse-curve $-1 -1 -1 $-1 4.2500000000000036 -2.9999999999996212 70.000000000002998 1.1635698352010077e-029 1 8.2090837949562648e-030 -3.249999999999996 -0 -1.3877787807814457e-014 1 I I #
-94 coedge $-1 -1 -1 $-1 $150 $150 $52 $95 reversed $151 $-1 #
-95 edge $-1 -1 -1 $-1 $99 -3.1415926535897931 $101 -1.0248212535001409e-016 $52 $152 forward @7 unknown F #
-96 coedge $-1 -1 -1 $-1 $55 $53 $57 $103 reversed $98 $-1 #
-97 coedge $-1 -1 -1 $-1 $53 $55 $150 $153 forward $98 $-1 #
-98 loop $-1 -1 -1 $-1 $-1 $53 $154 F unknown #
-99 vertex $-1 -1 -1 $-1 $54 $155 #
-100 straight-curve $-1 -1 -1 $-1 24.000000000000014 6.9388939039072639e-015 70.000000000003013 1.1635698352010076e-026 1000 8.2090837949562646e-027 I I #
-101 vertex $-1 -1 -1 $-1 $95 $156 #
-102 straight-curve $-1 -1 -1 $-1 17.500000000000021 6.9388939039071921e-015 70.000000000002984 1.1635698352010076e-026 1000 8.2090837949562646e-027 I I #
-103 edge $-1 -1 -1 $-1 $60 -1.0248212535001409e-016 $59 3.1415926535897931 $57 $157 forward @7 unknown F #
-104 face $158 -1 -1 $-1 $154 $159 $4 $-1 $160 reversed single F F #
-105 point $-1 -1 -1 $-1 24.000000000000014 -2.9999999999999889 70.000000000003013 #
-106 point $-1 -1 -1 $-1 17.500000000000021 -2.9999999999999889 70.000000000002984 #
-107 coedge $-1 -1 -1 $-1 $62 $62 $65 $110 reversed $108 $-1 #
-108 loop $-1 -1 -1 $-1 $151 $107 $161 F unknown #
-109 ellipse-curve $-1 -1 -1 $-1 20.750000000000011 1.3877787807814457e-014 5.000000000000032 1.1635698352010077e-029 1 8.2090837949562648e-030 -3.249999999999996 -3.543711097672514e-029 -1.1275702593849246e-014 1 I I #
-110 edge $-1 -1 -1 $-1 $69 1.9001894075315284e-016 $67 3.1415926535897931 $65 $162 forward @7 unknown F #
-111 face $163 -1 -1 $-1 $-1 $66 $4 $-1 $164 reversed single F T -0.92307692307691647 2.2315661376540737e-029 1.900189407531525e-016 3.1415926535897931 #
-112 point $-1 -1 -1 $-1 24.000000000000007 1.3877787807814419e-014 5.0000000000000435 #
-113 point $-1 -1 -1 $-1 17.500000000000014 1.3877787807814422e-014 5.0000000000000213 #
-114 ellipse-curve $-1 -1 -1 $-1 20.750000000000011 -2.9999999999999609 5.000000000000032 1.1635698352010077e-029 1 8.2090837949562648e-030 -3.2499999999999996 -0 -1.1275702593849246e-014 1 I I #
-115 integer_attrib-name_attrib-gen-attrib $-1 -1 $-1 $-1 $72 2 1 2 1 1 1 1 1 1 1 1 1 1 1 0 1 1 1 @12 Cut-Extrude1 0 #
-116 loop $-1 -1 -1 $-1 $39 $165 $72 F unknown #
-117 plane-surface $-1 -1 -1 $-1 20.750000000000011 -2.9999999999999609 6.8000000000000282 1.1044052673094193e-029 -1 -8.2090837949561877e-030 1000 1.1044052673094165e-026 3.4139358007223976e-012 forward_v I I I I #
-118 integer_attrib-name_attrib-gen-attrib $-1 -1 $-1 $-1 $76 2 1 2 1 1 1 1 1 1 1 1 1 1 1 0 1 1 1 @12 Cut-Extrude1 0 #
-119 face $166 -1 -1 $-1 $167 $168 $4 $-1 $169 reversed single F T -6.1111111111106835 -1.6666666666666563 -3.1415926535897931 -8.0953762212185506e-017 #
-120 loop $-1 -1 -1 $-1 $-1 $170 $76 F unknown #
-121 cone-surface $-1 -1 -1 $-1 4.2500000000000036 3.8857805861880479e-013 5.0000000000000044 1.1635698352010077e-029 1 8.2090837949562648e-030 -1.7999999999999943 -0 -6.0715321659188248e-015 1 I I 0 1 1.7999999999999943 forward I I I I #
-122 coedge $-1 -1 -1 $-1 $171 $172 $173 $174 reversed $77 $-1 #
-123 coedge $-1 -1 -1 $-1 $175 $79 $176 $177 forward $45 $-1 #
-124 coedge $-1 -1 -1 $-1 $79 $175 $178 $179 reversed $45 $-1 #
-125 coedge $-1 -1 -1 $-1 $180 $180 $79 $126 forward $181 $-1 #
-126 edge $-1 -1 -1 $-1 $182 -3.1415926535897931 $183 1.091782296347747e-074 $125 $184 forward @7 unknown F #
-127 coedge $-1 -1 -1 $-1 $81 $80 $185 $186 forward $26 $-1 #
-128 coedge $-1 -1 -1 $-1 $187 $188 $80 $129 reversed $189 $-1 #
-129 edge $-1 -1 -1 $-1 $134 -0.0030000000000000027 $190 -1.0097419586828954e-031 $80 $191 forward @7 unknown F #
-130 coedge $-1 -1 -1 $-1 $188 $187 $81 $131 forward $189 $-1 #
-131 edge $-1 -1 -1 $-1 $135 -0.0030000000000000027 $192 2.0669152348791323e-047 $130 $193 forward @7 unknown F #
-132 coedge $-1 -1 -1 $-1 $82 $82 $187 $194 forward $133 $-1 #
-133 loop $-1 -1 -1 $-1 $-1 $132 $195 F unknown #
-134 vertex $-1 -1 -1 $-1 $129 $196 #
-135 vertex $-1 -1 -1 $-1 $83 $197 #
-136 ellipse-curve $-1 -1 -1 $-1 4.2500000000000036 -2.9999999999996141 5.0000000000000044 1.1635698352010077e-029 1 8.2090837949562648e-030 -3.2499999999999996 -0 -1.1275702593849246e-014 1 I I #
-137 coedge $-1 -1 -1 $-1 $198 $198 $84 $138 reversed $199 $-1 #
-138 edge $-1 -1 -1 $-1 $142 -3.1415926535897931 $144 -1.0248212535001529e-016 $84 $200 forward @7 unknown F #
-139 coedge $-1 -1 -1 $-1 $87 $85 $89 $146 reversed $141 $-1 #
-140 coedge $-1 -1 -1 $-1 $85 $87 $198 $201 forward $141 $-1 #
-141 loop $-1 -1 -1 $-1 $-1 $85 $202 F unknown #
-142 vertex $-1 -1 -1 $-1 $86 $203 #
-143 straight-curve $-1 -1 -1 $-1 7.5 3.8163916471489761e-013 70.000000000003013 1.1635698352010076e-026 1000 8.2090837949562646e-027 I I #
-144 vertex $-1 -1 -1 $-1 $138 $204 #
-145 straight-curve $-1 -1 -1 $-1 1.0000000000000078 3.8163916471489751e-013 70.000000000002984 1.1635698352010076e-026 1000 8.2090837949562646e-027 I I #
-146 edge $-1 -1 -1 $-1 $92 -1.0248212535001529e-016 $91 3.1415926535897931 $89 $205 forward @7 unknown F #
-147 face $206 -1 -1 $-1 $202 $207 $4 $-1 $208 reversed single F F #
-148 point $-1 -1 -1 $-1 7.5 -2.9999999999996212 70.000000000003013 #
-149 point $-1 -1 -1 $-1 1.0000000000000078 -2.9999999999996212 70.000000000002984 #
-150 coedge $-1 -1 -1 $-1 $94 $94 $97 $153 reversed $151 $-1 #
-151 loop $-1 -1 -1 $-1 $199 $150 $161 F unknown #
-152 ellipse-curve $-1 -1 -1 $-1 20.750000000000018 6.9388939039072284e-015 70.000000000002998 1.1635698352010077e-029 1 8.2090837949562648e-030 -3.249999999999996 -3.6207482954480034e-029 -1.3877787807814457e-014 1 I I #
-153 edge $-1 -1 -1 $-1 $101 -1.0248212535001409e-016 $99 3.1415926535897931 $97 $209 forward @7 unknown F #
-154 face $210 -1 -1 $-1 $72 $98 $4 $-1 $211 reversed single F T -0.92307692307692302 2.2801114241292139e-029 -1.0248212535001406e-016 3.1415926535897931 #
-155 point $-1 -1 -1 $-1 24.000000000000014 6.9388939039071905e-015 70.000000000003013 #
-156 point $-1 -1 -1 $-1 17.500000000000021 6.9388939039071921e-015 70.000000000002984 #
-157 ellipse-curve $-1 -1 -1 $-1 20.750000000000018 -2.9999999999999889 70.000000000002998 1.1635698352010077e-029 1 8.2090837949562648e-030 -3.249999999999996 -0 -1.3877787807814457e-014 1 I I #
-158 integer_attrib-name_attrib-gen-attrib $-1 -1 $-1 $-1 $104 2 1 2 1 1 1 1 1 1 1 1 1 1 1 0 1 1 1 @12 Cut-Extrude1 0 #
-159 loop $-1 -1 -1 $-1 $58 $212 $104 F unknown #
-160 plane-surface $-1 -1 -1 $-1 20.750000000000018 -2.9999999999999889 71.800000000003024 1.1044052673094193e-029 -1 -8.2090837949561877e-030 1000 1.1044052673094165e-026 3.4139358007223976e-012 forward_v I I I I #
-161 face $213 -1 -1 $-1 $214 $108 $4 $-1 $215 forward single F F #
-162 ellipse-curve $-1 -1 -1 $-1 20.750000000000011 1.3877787807814457e-014 5.000000000000032 1.1635698352010077e-029 1 8.2090837949562648e-030 -3.249999999999996 -3.543711097672514e-029 -1.1275702593849246e-014 1 I I #
-163 integer_attrib-name_attrib-gen-attrib $-1 -1 $-1 $-1 $111 2 1 2 1 1 1 1 1 1 1 1 1 1 1 0 1 1 1 @12 Cut-Extrude1 0 #
-164 cone-surface $-1 -1 -1 $-1 20.750000000000011 1.3877787807814457e-014 5.000000000000032 1.1635698352010077e-029 1 8.2090837949562648e-030 -3.249999999999996 -3.543711097672514e-029 -1.1275702593849246e-014 1 I I 0 1 3.249999999999996 forward I I I I #
-165 coedge $-1 -1 -1 $-1 $216 $216 $217 $218 forward $116 $-1 #
-166 integer_attrib-name_attrib-gen-attrib $-1 -1 $-1 $-1 $119 2 1 2 1 1 1 1 1 1 1 1 1 1 1 0 1 1 1 @12 Cut-Extrude1 0 #
-167 face $219 -1 -1 $-1 $220 $221 $4 $-1 $222 reversed single F T -6.1111111111106835 -1.6666666666666563 -8.0953762212242526e-017 3.1415926535897931 #
-168 loop $-1 -1 -1 $-1 $-1 $223 $119 F unknown #
-169 cone-surface $-1 -1 -1 $-1 20.750000000000011 1.3877787807814457e-014 5.000000000000032 1.1635698352010077e-029 1 8.2090837949562648e-030 -1.799999999999996 -2.0029671421627253e-029 -6.0715321659188248e-015 1 I I 0 1 1.799999999999996 forward I I I I #
-170 coedge $-1 -1 -1 $-1 $224 $225 $226 $227 reversed $120 $-1 #
-171 coedge $-1 -1 -1 $-1 $228 $122 $229 $230 forward $77 $-1 #
-172 coedge $-1 -1 -1 $-1 $122 $228 $231 $232 reversed $77 $-1 #
-173 coedge $-1 -1 -1 $-1 $233 $233 $122 $174 forward $234 $-1 #
-174 edge $-1 -1 -1 $-1 $235 -3.1415926535897931 $236 0 $173 $237 forward @7 unknown F #
-175 coedge $-1 -1 -1 $-1 $124 $123 $238 $239 reversed $45 $-1 #
-176 coedge $-1 -1 -1 $-1 $240 $241 $123 $177 reversed $242 $-1 #
-177 edge $-1 -1 -1 $-1 $182 -0.011000000000000364 $243 -0.0030000000000000027 $123 $244 forward @7 unknown F #
-178 coedge $-1 -1 -1 $-1 $241 $240 $124 $179 forward $242 $-1 #
-179 edge $-1 -1 -1 $-1 $183 -0.011000000000000364 $245 -0.0030000000000000027 $178 $246 forward @7 unknown F #
-180 coedge $-1 -1 -1 $-1 $125 $125 $240 $247 forward $181 $-1 #
-181 loop $-1 -1 -1 $-1 $248 $180 $249 F unknown #
-182 vertex $-1 -1 -1 $-1 $177 $250 #
-183 vertex $-1 -1 -1 $-1 $126 $251 #
-184 ellipse-curve $-1 -1 -1 $-1 4.2500000000000036 -10.999999999999982 70.000000000002998 1.1635698352010077e-029 1 8.2090837949562648e-030 -1.799999999999996 0 0 1 I I #
-185 coedge $-1 -1 -1 $-1 $252 $252 $127 $186 reversed $253 $-1 #
-186 edge $-1 -1 -1 $-1 $190 -3.1415926535897931 $192 -8.3266726846887554e-017 $127 $254 forward @7 unknown F #
-187 coedge $-1 -1 -1 $-1 $130 $128 $132 $194 reversed $189 $-1 #
-188 coedge $-1 -1 -1 $-1 $128 $130 $252 $255 forward $189 $-1 #
-189 loop $-1 -1 -1 $-1 $-1 $128 $256 F unknown #
-190 vertex $-1 -1 -1 $-1 $129 $257 #
-191 straight-curve $-1 -1 -1 $-1 7.5000000000000018 3.8857805861880484e-013 5.000000000000016 1.1635698352010076e-026 1000 8.2090837949562646e-027 I I #
-192 vertex $-1 -1 -1 $-1 $186 $258 #
-193 straight-curve $-1 -1 -1 $-1 1.000000000000006 3.8857805861880474e-013 4.9999999999999929 1.1635698352010076e-026 1000 8.2090837949562646e-027 I I #
-194 edge $-1 -1 -1 $-1 $135 -8.3266726846887357e-017 $134 3.1415926535897931 $132 $259 forward @7 unknown F #
-195 face $260 -1 -1 $-1 $256 $261 $4 $-1 $262 reversed single F F #
-196 point $-1 -1 -1 $-1 7.5000000000000036 -2.9999999999996141 5.000000000000016 #
-197 point $-1 -1 -1 $-1 1.0000000000000044 -2.9999999999996141 4.9999999999999929 #
-198 coedge $-1 -1 -1 $-1 $137 $137 $140 $201 reversed $199 $-1 #
-199 loop $-1 -1 -1 $-1 $253 $198 $161 F unknown #
-200 ellipse-curve $-1 -1 -1 $-1 4.2500000000000036 3.8163916471489756e-013 70.000000000002998 1.1635698352010077e-029 1 8.2090837949562648e-030 -3.249999999999996 -4.9303806576313238e-029 -1.3877787807814457e-014 1 I I #
-201 edge $-1 -1 -1 $-1 $144 -1.0248212535001529e-016 $142 3.1415926535897931 $140 $263 forward @7 unknown F #
-202 face $264 -1 -1 $-1 $104 $141 $4 $-1 $265 reversed single F T -0.92307692307692502 2.7170190024054673e-029 -1.0248212535001507e-016 3.1415926535897931 #
-203 point $-1 -1 -1 $-1 7.5 3.8163916471489751e-013 70.000000000003013 #
-204 point $-1 -1 -1 $-1 1.0000000000000078 3.8163916471489751e-013 70.000000000002984 #
-205 ellipse-curve $-1 -1 -1 $-1 4.2500000000000036 -2.9999999999996212 70.000000000002998 1.1635698352010077e-029 1 8.2090837949562648e-030 -3.249999999999996 -0 -1.3877787807814457e-014 1 I I #
-206 integer_attrib-name_attrib-gen-attrib $-1 -1 $-1 $-1 $147 2 1 2 1 1 1 1 1 1 1 1 1 1 1 0 1 1 1 @12 Cut-Extrude1 0 #
-207 loop $-1 -1 -1 $-1 $90 $238 $147 F unknown #
-208 plane-surface $-1 -1 -1 $-1 4.2500000000000036 -2.9999999999996212 71.800000000003024 1.1044052673094193e-029 -1 -8.2090837949561877e-030 1000 1.1044052673094165e-026 3.4139358007223976e-012 forward_v I I I I #
-209 ellipse-curve $-1 -1 -1 $-1 20.750000000000018 6.9388939039072284e-015 70.000000000002998 1.1635698352010077e-029 1 8.2090837949562648e-030 -3.249999999999996 -3.6207482954480034e-029 -1.3877787807814457e-014 1 I I #
-210 integer_attrib-name_attrib-gen-attrib $-1 -1 $-1 $-1 $154 2 1 2 1 1 1 1 1 1 1 1 1 1 1 0 1 1 1 @12 Cut-Extrude1 0 #
-211 cone-surface $-1 -1 -1 $-1 20.750000000000018 6.9388939039072284e-015 70.000000000002998 1.1635698352010077e-029 1 8.2090837949562648e-030 -3.249999999999996 -3.6207482954480034e-029 -1.3877787807814457e-014 1 I I 0 1 3.249999999999996 forward I I I I #
-212 coedge $-1 -1 -1 $-1 $266 $266 $228 $267 forward $159 $-1 #
-213 integer_attrib-name_attrib-gen-attrib $-1 -1 $-1 $-1 $161 2 1 2 1 1 1 1 1 1 1 1 1 1 1 0 1 1 1 @12 Cut-Extrude1 0 #
-214 face $268 -1 -1 $-1 $269 $270 $4 $-1 $271 reversed single F T -5.3583123521204614 0.62852975314307913 -3.7396986092638073e-015 3.1415926535897949 #
-215 plane-surface $-1 -1 -1 $-1 12.500000000000011 4.163336342344337e-014 37.500000000001535 -1.1044052673094193e-029 1 8.2090837949561877e-030 -1000 -1.1044052673094165e-026 -3.4139358007223976e-012 forward_v I I I I #
-216 coedge $-1 -1 -1 $-1 $165 $165 $272 $273 forward $116 $-1 #
-217 coedge $-1 -1 -1 $-1 $274 $275 $165 $218 reversed $168 $-1 #
-218 edge $-1 -1 -1 $-1 $276 -3.1415926535897896 $277 3.4540271877227143e-015 $165 $278 forward @7 unknown F #
-219 integer_attrib-name_attrib-gen-attrib $-1 -1 $-1 $-1 $167 2 1 2 1 1 1 1 1 1 1 1 1 1 1 0 1 1 1 @12 Cut-Extrude1 0 #
-220 face $279 -1 -1 $-1 $280 $281 $4 $-1 $282 reversed single F T -6.1111111111113372 -1.6666666666666734 -8.0953762212238113e-017 3.1415926535897931 #
-221 loop $-1 -1 -1 $-1 $-1 $283 $167 F unknown #
-222 cone-surface $-1 -1 -1 $-1 20.750000000000011 1.3877787807814457e-014 5.000000000000032 1.1635698352010077e-029 1 8.2090837949562648e-030 -1.799999999999996 -2.0029671421627253e-029 -6.0715321659188248e-015 1 I I 0 1 1.799999999999996 forward I I I I #
-223 coedge $-1 -1 -1 $-1 $275 $274 $284 $285 reversed $168 $-1 #
-224 coedge $-1 -1 -1 $-1 $286 $170 $287 $288 forward $120 $-1 #
-225 coedge $-1 -1 -1 $-1 $170 $286 $289 $290 reversed $120 $-1 #
-226 coedge $-1 -1 -1 $-1 $291 $291 $170 $227 forward $248 $-1 #
-227 edge $-1 -1 -1 $-1 $292 -3.1415926535897931 $293 -8.0953762212251918e-017 $226 $294 forward @7 unknown F #
-228 coedge $-1 -1 -1 $-1 $172 $171 $212 $267 reversed $77 $-1 #
-229 coedge $-1 -1 -1 $-1 $295 $296 $171 $230 reversed $297 $-1 #
-230 edge $-1 -1 -1 $-1 $235 -0.010999999999999975 $298 -0.0029999999999999962 $171 $299 forward @7 unknown F #
-231 coedge $-1 -1 -1 $-1 $296 $295 $172 $232 forward $297 $-1 #
-232 edge $-1 -1 -1 $-1 $236 -0.010999999999999975 $300 -0.0029999999999999962 $231 $301 forward @7 unknown F #
-233 coedge $-1 -1 -1 $-1 $173 $173 $295 $302 forward $234 $-1 #
-234 loop $-1 -1 -1 $-1 $303 $233 $304 F unknown #
-235 vertex $-1 -1 -1 $-1 $230 $305 #
-236 vertex $-1 -1 -1 $-1 $174 $306 #
-237 ellipse-curve $-1 -1 -1 $-1 20.750000000000039 -10.999999999999968 70.000000000002998 1.1635698352010077e-029 1 8.2090837949562648e-030 -1.799999999999996 0 0 1 I I #
-238 coedge $-1 -1 -1 $-1 $307 $307 $175 $239 forward $207 $-1 #
-239 edge $-1 -1 -1 $-1 $245 -3.1415926535897931 $243 0 $238 $308 forward @7 unknown F #
-240 coedge $-1 -1 -1 $-1 $178 $176 $180 $247 reversed $242 $-1 #
-241 coedge $-1 -1 -1 $-1 $176 $178 $307 $309 reversed $242 $-1 #
-242 loop $-1 -1 -1 $-1 $-1 $176 $310 F unknown #
-243 vertex $-1 -1 -1 $-1 $177 $311 #
-244 straight-curve $-1 -1 -1 $-1 6.0499999999999998 3.8163916471489756e-013 70.000000000002998 1.1635698352010076e-026 1000 8.2090837949562646e-027 I I #
-245 vertex $-1 -1 -1 $-1 $309 $312 #
-246 straight-curve $-1 -1 -1 $-1 2.4500000000000077 3.8163916471489756e-013 70.000000000002998 1.1635698352010076e-026 1000 8.2090837949562646e-027 I I #
-247 edge $-1 -1 -1 $-1 $183 1.091782296347747e-074 $182 3.1415926535897931 $180 $313 forward @7 unknown F #
-248 loop $-1 -1 -1 $-1 $314 $291 $249 F unknown #
-249 face $315 -1 -1 $-1 $304 $181 $4 $-1 $316 reversed single F F #
-250 point $-1 -1 -1 $-1 6.0499999999999998 -10.999999999999982 70.000000000002998 #
-251 point $-1 -1 -1 $-1 2.4500000000000077 -10.999999999999982 70.000000000002998 #
-252 coedge $-1 -1 -1 $-1 $185 $185 $188 $255 reversed $253 $-1 #
-253 loop $-1 -1 -1 $-1 $317 $252 $161 F unknown #
-254 ellipse-curve $-1 -1 -1 $-1 4.2500000000000036 3.8857805861880479e-013 5.0000000000000044 1.1635698352010077e-029 1 8.2090837949562648e-030 -3.249999999999996 -4.9303806576313238e-029 -1.1275702593849246e-014 1 I I #
-255 edge $-1 -1 -1 $-1 $192 -8.3266726846887554e-017 $190 3.1415926535897931 $188 $318 forward @7 unknown F #
-256 face $319 -1 -1 $-1 $147 $189 $4 $-1 $320 reversed single F T -0.92307692307692457 2.717019002405465e-029 -8.3266726846888787e-017 3.1415926535897931 #
-257 point $-1 -1 -1 $-1 7.5 3.8857805861880474e-013 5.000000000000016 #
-258 point $-1 -1 -1 $-1 1.0000000000000078 3.8857805861880474e-013 4.9999999999999929 #
-259 ellipse-curve $-1 -1 -1 $-1 4.2500000000000036 -2.9999999999996141 5.0000000000000044 1.1635698352010077e-029 1 8.2090837949562648e-030 -3.2499999999999996 -0 -1.1275702593849246e-014 1 I I #
-260 integer_attrib-name_attrib-gen-attrib $-1 -1 $-1 $-1 $195 2 1 2 1 1 1 1 1 1 1 1 1 1 1 0 1 1 1 @12 Cut-Extrude1 0 #
-261 loop $-1 -1 -1 $-1 $133 $321 $195 F unknown #
-262 plane-surface $-1 -1 -1 $-1 4.2500000000000178 -2.9999999999996141 6.8000000000000007 1.1044052673094193e-029 -1 -8.2090837949561877e-030 1000 1.1044052673094165e-026 3.4139358007223976e-012 forward_v I I I I #
-263 ellipse-curve $-1 -1 -1 $-1 4.2500000000000036 3.8163916471489756e-013 70.000000000002998 1.1635698352010077e-029 1 8.2090837949562648e-030 -3.249999999999996 -4.9303806576313238e-029 -1.3877787807814457e-014 1 I I #
-264 integer_attrib-name_attrib-gen-attrib $-1 -1 $-1 $-1 $202 2 1 2 1 1 1 1 1 1 1 1 1 1 1 0 1 1 1 @12 Cut-Extrude1 0 #
-265 cone-surface $-1 -1 -1 $-1 4.2500000000000036 3.8163916471489756e-013 70.000000000002998 1.1635698352010077e-029 1 8.2090837949562648e-030 -3.249999999999996 -4.9303806576313238e-029 -1.3877787807814457e-014 1 I I 0 1 3.249999999999996 forward I I I I #
-266 coedge $-1 -1 -1 $-1 $212 $212 $296 $322 forward $159 $-1 #
-267 edge $-1 -1 -1 $-1 $300 -3.1415926535897931 $298 0 $212 $323 forward @7 unknown F #
-268 integer_attrib-name_attrib-gen-attrib $-1 -1 $-1 $-1 $214 2 1 2 1 1 1 1 1 1 1 1 1 1 1 0 1 1 1 @12 Cut-Extrude1 0 #
-269 face $324 -1 -1 $-1 $325 $326 $4 $-1 $327 forward single F F #
-270 loop $-1 -1 -1 $-1 $-1 $328 $214 F unknown #
-271 cone-surface $-1 -1 -1 $-1 12.499999999999996 -10.999999999999954 14.776826123887393 -3.1910437439239492e-015 -8.3782833718874159e-030 -1 -7.600000000000013 -0 -2.6020852139652106e-014 1 I I 0 1 7.600000000000013 forward I I I I #
-272 coedge $-1 -1 -1 $-1 $283 $329 $216 $273 reversed $221 $-1 #
-273 edge $-1 -1 -1 $-1 $277 3.4540271877227143e-015 $276 3.1415926535897967 $216 $330 forward @7 unknown F #
-274 coedge $-1 -1 -1 $-1 $223 $217 $329 $331 reversed $168 $-1 #
-275 coedge $-1 -1 -1 $-1 $217 $223 $283 $332 forward $168 $-1 #
-276 vertex $-1 -1 -1 $-1 $273 $333 #
-277 vertex $-1 -1 -1 $-1 $332 $334 #
-278 ellipse-curve $-1 -1 -1 $-1 20.750000000000004 -2.9999999999999609 5.000000000000032 -1.1635698352010077e-029 -1 -8.2090837949562648e-030 1.799999999999996 0 0 1 I I #
-279 integer_attrib-name_attrib-gen-attrib $-1 -1 $-1 $-1 $220 2 1 2 1 1 1 1 1 1 1 1 1 1 1 0 1 1 1 @12 Cut-Extrude1 0 #
-280 face $335 -1 -1 $-1 $310 $297 $4 $-1 $336 reversed single F T -6.1111111111111107 -1.6666666666666681 1.3681806324927136e-029 3.1415926535897931 #
-281 loop $-1 -1 -1 $-1 $-1 $287 $220 F unknown #
-282 cone-surface $-1 -1 -1 $-1 4.2500000000000036 3.8857805861880479e-013 5.0000000000000044 1.1635698352010077e-029 1 8.2090837949562648e-030 -1.7999999999999943 -0 -6.0715321659188248e-015 1 I I 0 1 1.7999999999999943 forward I I I I #
-283 coedge $-1 -1 -1 $-1 $337 $272 $275 $332 reversed $221 $-1 #
-284 coedge $-1 -1 -1 $-1 $338 $338 $223 $285 forward $339 $-1 #
-285 edge $-1 -1 -1 $-1 $340 -3.1415926535897931 $341 -8.0953762212249256e-017 $284 $342 forward @7 unknown F #
-286 coedge $-1 -1 -1 $-1 $225 $224 $321 $343 reversed $120 $-1 #
-287 coedge $-1 -1 -1 $-1 $344 $345 $224 $288 reversed $281 $-1 #
-288 edge $-1 -1 -1 $-1 $292 -0.011000000000000371 $346 -0.0030000000000000027 $224 $347 forward @7 unknown F #
-289 coedge $-1 -1 -1 $-1 $345 $344 $225 $290 forward $281 $-1 #
-290 edge $-1 -1 -1 $-1 $293 -0.011000000000000371 $348 -0.0030000000000000027 $289 $349 forward @7 unknown F #
-291 coedge $-1 -1 -1 $-1 $226 $226 $344 $350 forward $248 $-1 #
-292 vertex $-1 -1 -1 $-1 $288 $351 #
-293 vertex $-1 -1 -1 $-1 $227 $352 #
-294 ellipse-curve $-1 -1 -1 $-1 4.2500000000000036 -10.999999999999982 5.0000000000000044 1.1635698352010077e-029 1 8.2090837949562648e-030 -1.7999999999999943 -0 -6.0715321659188248e-015 1 I I #
-295 coedge $-1 -1 -1 $-1 $231 $229 $233 $302 reversed $297 $-1 #
-296 coedge $-1 -1 -1 $-1 $229 $231 $266 $322 reversed $297 $-1 #
-297 loop $-1 -1 -1 $-1 $-1 $229 $280 F unknown #
-298 vertex $-1 -1 -1 $-1 $230 $353 #
-299 straight-curve $-1 -1 -1 $-1 22.550000000000015 6.9388939039072481e-015 70.000000000002998 1.1635698352010076e-026 1000 8.2090837949562646e-027 I I #
-300 vertex $-1 -1 -1 $-1 $322 $354 #
-301 straight-curve $-1 -1 -1 $-1 18.950000000000024 6.9388939039072087e-015 70.000000000002998 1.1635698352010076e-026 1000 8.2090837949562646e-027 I I #
-302 edge $-1 -1 -1 $-1 $236 0 $235 3.1415926535897931 $233 $355 forward @7 unknown F #
-303 loop $-1 -1 -1 $-1 $-1 $356 $304 F unknown #
-304 face $357 -1 -1 $-1 $358 $339 $4 $-1 $359 reversed single F F #
-305 point $-1 -1 -1 $-1 22.550000000000036 -10.999999999999968 70.000000000002998 #
-306 point $-1 -1 -1 $-1 18.950000000000042 -10.999999999999968 70.000000000002998 #
-307 coedge $-1 -1 -1 $-1 $238 $238 $241 $309 forward $207 $-1 #
-308 ellipse-curve $-1 -1 -1 $-1 4.2500000000000036 -2.9999999999996212 70.000000000002998 -1.1635698352010077e-029 -1 -8.2090837949562648e-030 1.7999999999999952 0 0 1 I I #
-309 edge $-1 -1 -1 $-1 $243 0 $245 3.1415926535897931 $307 $360 forward @7 unknown F #
-310 face $361 -1 -1 $-1 $249 $242 $4 $-1 $362 reversed single F T -6.1111111111113265 -1.6666666666666718 1.3681806324927148e-029 3.1415926535897931 #
-311 point $-1 -1 -1 $-1 6.0499999999999989 -2.9999999999996212 70.000000000002998 #
-312 point $-1 -1 -1 $-1 2.4500000000000086 -2.9999999999996212 70.000000000002998 #
-313 ellipse-curve $-1 -1 -1 $-1 4.2500000000000036 -10.999999999999982 70.000000000002998 1.1635698352010077e-029 1 8.2090837949562648e-030 -1.799999999999996 0 0 1 I I #
-314 loop $-1 -1 -1 $-1 $-1 $363 $249 F unknown #
-315 integer_attrib-name_attrib-gen-attrib $-1 -1 $-1 $-1 $249 2 1 2 1 1 1 1 1 1 1 1 1 1 1 0 1 1 1 @12 Cut-Extrude1 0 #
-316 plane-surface $-1 -1 -1 $-1 12.499999999999996 -10.999999999999954 37.500000000001535 -1.1044052673094193e-029 1 8.2090837949561877e-030 -1000 -1.1044052673094165e-026 -3.4139358007223976e-012 forward_v I I I I #
-317 loop $-1 -1 -1 $-1 $-1 $364 $161 F unknown #
-318 ellipse-curve $-1 -1 -1 $-1 4.2500000000000036 3.8857805861880479e-013 5.0000000000000044 1.1635698352010077e-029 1 8.2090837949562648e-030 -3.249999999999996 -4.9303806576313238e-029 -1.1275702593849246e-014 1 I I #
-319 integer_attrib-name_attrib-gen-attrib $-1 -1 $-1 $-1 $256 2 1 2 1 1 1 1 1 1 1 1 1 1 1 0 1 1 1 @12 Cut-Extrude1 0 #
-320 cone-surface $-1 -1 -1 $-1 4.2500000000000036 3.8857805861880479e-013 5.0000000000000044 1.1635698352010077e-029 1 8.2090837949562648e-030 -3.2499999999999978 -4.9303806576313238e-029 -1.1275702593849246e-014 1 I I 0 1 3.2499999999999978 forward I I I I #
-321 coedge $-1 -1 -1 $-1 $365 $365 $286 $343 forward $261 $-1 #
-322 edge $-1 -1 -1 $-1 $298 0 $300 3.1415926535897931 $266 $366 forward @7 unknown F #
-323 ellipse-curve $-1 -1 -1 $-1 20.750000000000039 -2.9999999999999889 70.000000000002998 -1.1635698352010077e-029 -1 -8.2090837949562648e-030 1.799999999999996 0 0 1 I I #
-324 integer_attrib-name_attrib-gen-attrib $-1 -1 $-1 $-1 $269 2 1 2 1 1 1 1 1 1 1 1 1 1 1 0 1 1 1 @12 Cut-Extrude1 0 #
-325 face $367 -1 -1 $-1 $195 $368 $4 $-1 $369 reversed single F T -1.9826794919243513 -1.9736728277249904 -1.6611450618972493e-027 3.1415926535897931 #
-326 loop $-1 -1 -1 $-1 $-1 $370 $269 F unknown #
-327 plane-surface $-1 -1 -1 $-1 20.099999999999632 -10.999999999999192 10.000000000000037 -3.3592721013644685e-015 8.3782833718873445e-030 1 1000 1.1044052673094165e-026 3.3592721013644684e-012 forward_v I I I I #
-328 coedge $-1 -1 -1 $-1 $371 $372 $373 $374 forward $270 $-1 #
-329 coedge $-1 -1 -1 $-1 $272 $337 $274 $331 forward $221 $-1 #
-330 ellipse-curve $-1 -1 -1 $-1 20.750000000000004 -2.9999999999999609 5.000000000000032 -1.1635698352010077e-029 -1 -8.2090837949562648e-030 1.799999999999996 0 0 1 I I #
-331 edge $-1 -1 -1 $-1 $341 -0.010999999999999207 $276 -0.0029999999999999745 $329 $375 forward @7 unknown F #
-332 edge $-1 -1 -1 $-1 $340 -0.010999999999999207 $277 -0.0029999999999999745 $275 $376 forward @7 unknown F #
-333 point $-1 -1 -1 $-1 18.95000000000001 -2.9999999999999609 5.0000000000000258 #
-334 point $-1 -1 -1 $-1 22.550000000000001 -2.9999999999999609 5.0000000000000382 #
-335 integer_attrib-name_attrib-gen-attrib $-1 -1 $-1 $-1 $280 2 1 2 1 1 1 1 1 1 1 1 1 1 1 0 1 1 1 @12 Cut-Extrude1 0 #
-336 cone-surface $-1 -1 -1 $-1 20.750000000000018 6.9388939039072284e-015 70.000000000002998 1.1635698352010077e-029 1 8.2090837949562648e-030 -1.799999999999996 -2.0029671421627253e-029 0 1 I I 0 1 1.799999999999996 forward I I I I #
-337 coedge $-1 -1 -1 $-1 $329 $283 $338 $377 reversed $221 $-1 #
-338 coedge $-1 -1 -1 $-1 $284 $284 $337 $377 forward $339 $-1 #
-339 loop $-1 -1 -1 $-1 $234 $338 $304 F unknown #
-340 vertex $-1 -1 -1 $-1 $332 $378 #
-341 vertex $-1 -1 -1 $-1 $285 $379 #
-342 ellipse-curve $-1 -1 -1 $-1 20.750000000000004 -10.999999999999192 5.000000000000032 1.1635698352010077e-029 1 8.2090837949562648e-030 -1.799999999999996 -0 -6.0715321659188248e-015 1 I I #
-343 edge $-1 -1 -1 $-1 $348 -3.1415926535897896 $346 3.4540271877227198e-015 $321 $380 forward @7 unknown F #
-344 coedge $-1 -1 -1 $-1 $289 $287 $291 $350 reversed $281 $-1 #
-345 coedge $-1 -1 -1 $-1 $287 $289 $365 $381 reversed $281 $-1 #
-346 vertex $-1 -1 -1 $-1 $288 $382 #
-347 straight-curve $-1 -1 -1 $-1 6.049999999999998 3.8857805861880479e-013 5.0000000000000107 1.1635698352010076e-026 1000 8.2090837949562646e-027 I I #
-348 vertex $-1 -1 -1 $-1 $381 $383 #
-349 straight-curve $-1 -1 -1 $-1 2.4500000000000095 3.8857805861880479e-013 4.9999999999999982 1.1635698352010076e-026 1000 8.2090837949562646e-027 I I #
-350 edge $-1 -1 -1 $-1 $293 -8.0953762212251918e-017 $292 3.1415926535897931 $291 $384 forward @7 unknown F #
-351 point $-1 -1 -1 $-1 6.049999999999998 -10.999999999999982 5.0000000000000107 #
-352 point $-1 -1 -1 $-1 2.4500000000000095 -10.999999999999982 4.9999999999999982 #
-353 point $-1 -1 -1 $-1 22.550000000000036 -2.9999999999999889 70.000000000002998 #
-354 point $-1 -1 -1 $-1 18.950000000000042 -2.9999999999999889 70.000000000002998 #
-355 ellipse-curve $-1 -1 -1 $-1 20.750000000000039 -10.999999999999968 70.000000000002998 1.1635698352010077e-029 1 8.2090837949562648e-030 -1.799999999999996 0 0 1 I I #
-356 coedge $-1 -1 -1 $-1 $373 $385 $386 $387 reversed $303 $-1 #
-357 integer_attrib-name_attrib-gen-attrib $-1 -1 $-1 $-1 $304 2 1 2 1 1 1 1 1 1 1 1 1 1 1 0 1 1 1 @12 Cut-Extrude1 0 #
-358 face $388 -1 -1 $-1 $389 $390 $4 $-1 $391 reversed single F T -6.5503158452884204e-015 2.000000000000008 1.5241141682053979e-013 3.1415926535897993 #
-359 plane-surface $-1 -1 -1 $-1 12.499999999999996 -10.999999999999954 37.500000000001535 -1.1044052673094193e-029 1 8.2090837949561877e-030 -1000 -1.1044052673094165e-026 -3.4139358007223976e-012 forward_v I I I I #
-360 ellipse-curve $-1 -1 -1 $-1 4.2500000000000036 -2.9999999999996212 70.000000000002998 -1.1635698352010077e-029 -1 -8.2090837949562648e-030 1.7999999999999952 0 0 1 I I #
-361 integer_attrib-name_attrib-gen-attrib $-1 -1 $-1 $-1 $310 2 1 2 1 1 1 1 1 1 1 1 1 1 1 0 1 1 1 @12 Cut-Extrude1 0 #
-362 cone-surface $-1 -1 -1 $-1 4.2500000000000036 3.8163916471489756e-013 70.000000000002998 1.1635698352010077e-029 1 8.2090837949562648e-030 -1.799999999999996 0 0 1 I I 0 1 1.799999999999996 forward I I I I #
-363 coedge $-1 -1 -1 $-1 $392 $393 $370 $394 reversed $314 $-1 #
-364 coedge $-1 -1 -1 $-1 $395 $396 $397 $398 forward $317 $-1 #
-365 coedge $-1 -1 -1 $-1 $321 $321 $345 $381 forward $261 $-1 #
-366 ellipse-curve $-1 -1 -1 $-1 20.750000000000039 -2.9999999999999889 70.000000000002998 -1.1635698352010077e-029 -1 -8.2090837949562648e-030 1.799999999999996 0 0 1 I I #
-367 integer_attrib-name_attrib-gen-attrib $-1 -1 $-1 $-1 $325 2 1 2 1 1 1 1 1 1 1 1 1 1 1 0 1 1 1 @12 Cut-Extrude1 0 #
-368 loop $-1 -1 -1 $-1 $-1 $399 $325 F unknown #
-369 cone-surface $-1 -1 -1 $-1 12.499999999996806 -10.999999999999982 -931.33641386247359 -3.1910437439239492e-015 -8.3782833718874159e-030 -1 -577.35026918961023 0 1.7763568394002505e-012 1 I I 0.50000000000000111 0.86602540378443804 577.35026918961023 forward I I I I #
-370 coedge $-1 -1 -1 $-1 $400 $401 $363 $394 forward $326 $-1 #
-371 coedge $-1 -1 -1 $-1 $402 $328 $403 $404 reversed $270 $-1 #
-372 coedge $-1 -1 -1 $-1 $328 $402 $401 $405 forward $270 $-1 #
-373 coedge $-1 -1 -1 $-1 $406 $356 $328 $374 reversed $303 $-1 #
-374 edge $-1 -1 -1 $-1 $407 0 $408 0.045500000000001511 $328 $409 forward @7 unknown F #
-375 straight-curve $-1 -1 -1 $-1 18.950000000000017 1.3877787807814436e-014 5.0000000000000258 1.1635698352010076e-026 1000 8.2090837949562646e-027 I I #
-376 straight-curve $-1 -1 -1 $-1 22.550000000000008 1.3877787807814476e-014 5.0000000000000382 1.1635698352010076e-026 1000 8.2090837949562646e-027 I I #
-377 edge $-1 -1 -1 $-1 $341 -8.0953762212249256e-017 $340 3.1415926535897931 $338 $410 forward @7 unknown F #
-378 point $-1 -1 -1 $-1 22.550000000000001 -10.999999999999192 5.0000000000000382 #
-379 point $-1 -1 -1 $-1 18.95000000000001 -10.999999999999192 5.0000000000000258 #
-380 ellipse-curve $-1 -1 -1 $-1 4.2500000000000036 -2.9999999999996141 5.0000000000000044 -1.1635698352010077e-029 -1 -8.2090837949562648e-030 1.7999999999999943 0 0 1 I I #
-381 edge $-1 -1 -1 $-1 $346 3.4540271877227198e-015 $348 3.1415926535897967 $365 $411 forward @7 unknown F #
-382 point $-1 -1 -1 $-1 6.049999999999998 -2.9999999999996141 5.0000000000000107 #
-383 point $-1 -1 -1 $-1 2.4500000000000095 -2.9999999999996141 4.9999999999999982 #
-384 ellipse-curve $-1 -1 -1 $-1 4.2500000000000036 -10.999999999999982 5.0000000000000044 1.1635698352010077e-029 1 8.2090837949562648e-030 -1.7999999999999943 -0 -6.0715321659188248e-015 1 I I #
-385 coedge $-1 -1 -1 $-1 $356 $412 $413 $414 forward $303 $-1 #
-386 coedge $-1 -1 -1 $-1 $415 $403 $356 $387 forward $368 $-1 #
-387 edge $-1 -1 -1 $-1 $408 -0.015200000000001284 $416 -0.010000000000001303 $386 $417 forward @7 unknown F #
-388 integer_attrib-name_attrib-gen-attrib $-1 -1 $-1 $-1 $358 2 1 2 1 1 1 1 1 1 1 1 1 1 1 0 1 1 1 @12 Cut-Extrude1 0 #
-389 face $418 -1 -1 $-1 $419 $420 $4 $-1 $421 reversed single F T 12.000666419936103 15.00000000000059 8.1712414612406025e-015 3.1415926535897993 #
-390 loop $-1 -1 -1 $-1 $-1 $422 $358 F unknown #
-391 cone-surface $-1 -1 -1 $-1 12.500000000000011 -10.999999999999954 2.7755575615628914e-014 3.1363800445660227e-015 8.409380509172222e-030 1 5.0000000000000044 0 1.7069679003612003e-014 1 I I 0 1 5.0000000000000044 forward I I I I #
-392 coedge $-1 -1 -1 $-1 $423 $363 $402 $424 reversed $314 $-1 #
-393 coedge $-1 -1 -1 $-1 $363 $425 $426 $427 forward $314 $-1 #
-394 edge $-1 -1 -1 $-1 $428 -0.0076000000000000087 $429 -0.0049999999999999897 $370 $430 forward @7 unknown F #
-395 coedge $-1 -1 -1 $-1 $431 $364 $432 $433 forward $317 $-1 #
-396 coedge $-1 -1 -1 $-1 $364 $431 $434 $435 forward $317 $-1 #
-397 coedge $-1 -1 -1 $-1 $436 $437 $364 $398 reversed $438 $-1 #
-398 edge $-1 -1 -1 $-1 $439 -0 $440 0.02499999999999962 $364 $441 forward @7 unknown F #
-399 coedge $-1 -1 -1 $-1 $403 $415 $423 $442 forward $368 $-1 #
-400 coedge $-1 -1 -1 $-1 $443 $370 $422 $444 forward $326 $-1 #
-401 coedge $-1 -1 -1 $-1 $370 $443 $372 $405 reversed $326 $-1 #
-402 coedge $-1 -1 -1 $-1 $372 $371 $392 $424 forward $270 $-1 #
-403 coedge $-1 -1 -1 $-1 $386 $399 $371 $404 forward $368 $-1 #
-404 edge $-1 -1 -1 $-1 $445 -3.7396986092636795e-015 $408 3.1415926535897949 $403 $446 forward @7 unknown F #
-405 edge $-1 -1 -1 $-1 $428 -3.7396986092636779e-015 $407 3.1415926535896928 $372 $447 forward @7 unknown F #
-406 coedge $-1 -1 -1 $-1 $448 $373 $443 $449 reversed $303 $-1 #
-407 vertex $-1 -1 -1 $-1 $449 $450 #
-408 vertex $-1 -1 -1 $-1 $374 $451 #
-409 straight-curve $-1 -1 -1 $-1 20.099999999999632 -10.999999999999192 10.000000000000037 3.1910437439239491e-012 8.3782833718874166e-027 1000 I I #
-410 ellipse-curve $-1 -1 -1 $-1 20.750000000000004 -10.999999999999192 5.000000000000032 1.1635698352010077e-029 1 8.2090837949562648e-030 -1.799999999999996 -0 -6.0715321659188248e-015 1 I I #
-411 ellipse-curve $-1 -1 -1 $-1 4.2500000000000036 -2.9999999999996141 5.0000000000000044 -1.1635698352010077e-029 -1 -8.2090837949562648e-030 1.7999999999999943 0 0 1 I I #
-412 coedge $-1 -1 -1 $-1 $385 $452 $453 $454 reversed $303 $-1 #
-413 coedge $-1 -1 -1 $-1 $455 $456 $385 $414 reversed $420 $-1 #
-414 edge $-1 -1 -1 $-1 $457 -0.075000000000002981 $416 -0.06000333209968059 $385 $458 forward @7 unknown F #
-415 coedge $-1 -1 -1 $-1 $399 $386 $456 $459 forward $368 $-1 #
-416 vertex $-1 -1 -1 $-1 $387 $460 #
-417 straight-curve $-1 -1 -1 $-1 12.499999999999996 -10.999999999999982 68.663586137526494 -499.99999999998988 7.8886090522099396e-028 866.02540378444462 I I #
-418 integer_attrib-name_attrib-gen-attrib $-1 -1 $-1 $-1 $389 2 1 2 1 1 1 1 1 1 1 1 1 1 1 0 1 1 1 @12 Cut-Extrude1 0 #
-419 face $461 -1 -1 $-1 $462 $438 $4 $-1 $463 reversed single F F #
-420 loop $-1 -1 -1 $-1 $-1 $456 $389 F unknown #
-421 cone-surface $-1 -1 -1 $-1 12.500000000000011 -10.999999999999954 2.7755575615628914e-014 3.1363800445660227e-015 8.409380509172222e-030 1 5.0000000000000044 0 1.7069679003612003e-014 1 I I 0 1 5.0000000000000044 forward I I I I #
-422 coedge $-1 -1 -1 $-1 $426 $464 $400 $444 reversed $390 $-1 #
-423 coedge $-1 -1 -1 $-1 $465 $392 $399 $442 reversed $314 $-1 #
-424 edge $-1 -1 -1 $-1 $445 -0 $428 0.045500000000002983 $402 $466 forward @7 unknown F #
-425 coedge $-1 -1 -1 $-1 $393 $467 $468 $469 reversed $314 $-1 #
-426 coedge $-1 -1 -1 $-1 $470 $422 $393 $427 reversed $390 $-1 #
-427 edge $-1 -1 -1 $-1 $471 0 $429 0.010000000000000064 $393 $472 forward @7 unknown F #
-428 vertex $-1 -1 -1 $-1 $424 $473 #
-429 vertex $-1 -1 -1 $-1 $394 $474 #
-430 straight-curve $-1 -1 -1 $-1 12.499999999999996 -10.999999999999954 10.000000000000037 1000 1.1044052673094165e-026 3.3592721013644684e-012 I I #
-431 coedge $-1 -1 -1 $-1 $396 $395 $475 $476 forward $317 $-1 #
-432 coedge $-1 -1 -1 $-1 $477 $478 $395 $433 reversed $479 $-1 #
-433 edge $-1 -1 -1 $-1 $440 1.1623319171248657e-046 $480 0.075000000000003009 $395 $481 forward @7 unknown F #
-434 coedge $-1 -1 -1 $-1 $482 $483 $396 $435 reversed $484 $-1 #
-435 edge $-1 -1 -1 $-1 $485 -0 $439 0.075000000000001649 $396 $486 forward @7 unknown F #
-436 coedge $-1 -1 -1 $-1 $487 $397 $483 $488 forward $438 $-1 #
-437 coedge $-1 -1 -1 $-1 $397 $468 $477 $489 reversed $438 $-1 #
-438 loop $-1 -1 -1 $-1 $-1 $487 $419 F unknown #
-439 vertex $-1 -1 -1 $-1 $435 $490 #
-440 vertex $-1 -1 -1 $-1 $433 $491 #
-441 straight-curve $-1 -1 -1 $-1 24.99999999999962 4.0245584642661925e-013 0 -1000 -1.1044052673094165e-026 -3.4139358007223976e-012 I I #
-442 edge $-1 -1 -1 $-1 $492 0.0099999999999999794 $445 0.015200000000000021 $399 $493 forward @7 unknown F #
-443 coedge $-1 -1 -1 $-1 $401 $400 $406 $449 forward $326 $-1 #
-444 edge $-1 -1 -1 $-1 $429 -3.1415926535899512 $494 -3.0437319331610951e-013 $400 $495 forward @7 unknown F #
-445 vertex $-1 -1 -1 $-1 $442 $496 #
-446 ellipse-curve $-1 -1 -1 $-1 12.500000000000011 -10.999999999999954 55.500000000001549 -3.1910437439239492e-015 -8.3782833718874159e-030 -1 -7.6000000000000121 -0 -2.7755575615628914e-014 1 I I #
-447 ellipse-curve $-1 -1 -1 $-1 12.499999999999996 -10.999999999999954 10.000000000000037 -3.1910437439239492e-015 -8.3782833718874159e-030 -1 -7.6000000000000147 -0 -2.6020852139652106e-014 1 I I #
-448 coedge $-1 -1 -1 $-1 $497 $406 $464 $498 forward $303 $-1 #
-449 edge $-1 -1 -1 $-1 $494 0.0049999999999996306 $407 0.0075999999999996357 $443 $499 forward @7 unknown F #
-450 point $-1 -1 -1 $-1 20.099999999999632 -10.999999999999192 10.000000000000037 #
-451 point $-1 -1 -1 $-1 20.100000000000012 -10.999999999999968 55.500000000001549 #
-452 coedge $-1 -1 -1 $-1 $412 $497 $500 $501 reversed $303 $-1 #
-453 coedge $-1 -1 -1 $-1 $502 $503 $412 $454 forward $504 $-1 #
-454 edge $-1 -1 -1 $-1 $457 0.017500000000000002 $505 0.024999999999999994 $453 $506 forward @7 unknown F #
-455 coedge $-1 -1 -1 $-1 $507 $413 $503 $508 forward $420 $-1 #
-456 coedge $-1 -1 -1 $-1 $413 $507 $415 $459 reversed $420 $-1 #
-457 vertex $-1 -1 -1 $-1 $414 $509 #
-458 straight-curve $-1 -1 -1 $-1 17.5 -10.999999999999192 2.7755575615628914e-014 -3.1363800445660228e-012 -8.4093805091722214e-027 -1000 I I #
-459 edge $-1 -1 -1 $-1 $416 -3.141592653589635 $492 1.0888512314011212e-014 $415 $510 forward @7 unknown F #
-460 point $-1 -1 -1 $-1 17.500000000000028 -10.999999999999192 60.00333209968062 #
-461 integer_attrib-name_attrib-gen-attrib $-1 -1 $-1 $-1 $419 2 1 2 1 1 1 1 1 1 1 1 1 1 1 0 1 1 1 @12 Cut-Extrude1 0 #
-462 face $511 -1 -1 $-1 $512 $479 $4 $-1 $513 reversed single F F #
-463 plane-surface $-1 -1 -1 $-1 24.99999999999962 4.0245584642661925e-013 0 -3.4139358007223974e-015 8.4093805091721492e-030 1 1000 1.1044052673094165e-026 3.4139358007223976e-012 forward_v I I I I #
-464 coedge $-1 -1 -1 $-1 $422 $470 $448 $498 reversed $390 $-1 #
-465 coedge $-1 -1 -1 $-1 $514 $423 $507 $515 forward $314 $-1 #
-466 straight-curve $-1 -1 -1 $-1 4.9000000000000155 -10.999999999999982 55.500000000002991 -3.1910437439239491e-012 -8.3782833718874166e-027 -1000 I I #
-467 coedge $-1 -1 -1 $-1 $425 $514 $516 $517 reversed $314 $-1 #
-468 coedge $-1 -1 -1 $-1 $437 $518 $425 $469 forward $438 $-1 #
-469 edge $-1 -1 -1 $-1 $471 0.017499999999999984 $519 0.025000000000000008 $468 $520 forward @7 unknown F #
-470 coedge $-1 -1 -1 $-1 $464 $426 $518 $521 reversed $390 $-1 #
-471 vertex $-1 -1 -1 $-1 $427 $522 #
-472 straight-curve $-1 -1 -1 $-1 7.5000000000000071 -10.999999999999982 2.7755575615628914e-014 3.1363800445660228e-012 8.4093805091722214e-027 1000 I I #
-473 point $-1 -1 -1 $-1 4.8999999999999879 -10.999999999999982 10.000000000000009 #
-474 point $-1 -1 -1 $-1 7.5000000000000071 -10.999999999999982 10.000000000000092 #
-475 coedge $-1 -1 -1 $-1 $523 $502 $431 $476 reversed $504 $-1 #
-476 edge $-1 -1 -1 $-1 $480 0 $485 0.024999999999999977 $431 $524 forward @7 unknown F #
-477 coedge $-1 -1 -1 $-1 $516 $432 $437 $489 forward $479 $-1 #
-478 coedge $-1 -1 -1 $-1 $432 $516 $523 $525 reversed $479 $-1 #
-479 loop $-1 -1 -1 $-1 $-1 $516 $462 F unknown #
-480 vertex $-1 -1 -1 $-1 $433 $526 #
-481 straight-curve $-1 -1 -1 $-1 0 0 0 3.2751579226441637e-012 8.3754841421510061e-027 1000 I I #
-482 coedge $-1 -1 -1 $-1 $500 $434 $502 $527 forward $484 $-1 #
-483 coedge $-1 -1 -1 $-1 $434 $500 $436 $488 reversed $484 $-1 #
-484 loop $-1 -1 -1 $-1 $-1 $500 $528 F unknown #
-485 vertex $-1 -1 -1 $-1 $476 $529 #
-486 straight-curve $-1 -1 -1 $-1 24.999999999999993 1.3877787807814457e-014 75.000000000001648 -3.2520282762978076e-012 -8.3739433981954963e-027 -1000 I I #
-487 coedge $-1 -1 -1 $-1 $518 $436 $497 $530 forward $438 $-1 #
-488 edge $-1 -1 -1 $-1 $439 -0 $531 0.011000000000000371 $436 $532 forward @7 unknown F #
-489 edge $-1 -1 -1 $-1 $440 -1.3877787807814457e-017 $519 0.010999999999999982 $477 $533 forward @7 unknown F #
-490 point $-1 -1 -1 $-1 24.99999999999962 4.0245584642661925e-013 0 #
-491 point $-1 -1 -1 $-1 0 1.3877787807814457e-014 0 #
-492 vertex $-1 -1 -1 $-1 $459 $534 #
-493 straight-curve $-1 -1 -1 $-1 12.499999999999996 -10.999999999999982 68.663586137526494 -499.99999999998965 -1.3090160646010866e-026 -866.02540378444462 I I #
-494 vertex $-1 -1 -1 $-1 $444 $535 #
-495 ellipse-curve $-1 -1 -1 $-1 12.500000000000011 -10.999999999999954 10.000000000000037 -3.1910437439239492e-015 -8.3782833718874159e-030 -1 5.0000000000000044 -7.5980888247784151e-013 1.7347234759768071e-014 1 I I #
-496 point $-1 -1 -1 $-1 4.9000000000000155 -10.999999999999982 55.500000000002991 #
-497 coedge $-1 -1 -1 $-1 $452 $448 $487 $530 reversed $303 $-1 #
-498 edge $-1 -1 -1 $-1 $494 -0.010000000000000009 $536 -0 $448 $537 forward @7 unknown F #
-499 straight-curve $-1 -1 -1 $-1 12.499999999999996 -10.999999999999954 10.000000000000037 1000 1.1044052673094165e-026 3.3592721013644684e-012 I I #
-500 coedge $-1 -1 -1 $-1 $483 $482 $452 $501 forward $484 $-1 #
-501 edge $-1 -1 -1 $-1 $505 -0 $531 0.075000000000001649 $500 $538 forward @7 unknown F #
-502 coedge $-1 -1 -1 $-1 $475 $453 $482 $527 reversed $504 $-1 #
-503 coedge $-1 -1 -1 $-1 $453 $539 $455 $508 reversed $504 $-1 #
-504 loop $-1 -1 -1 $-1 $-1 $539 $512 F unknown #
-505 vertex $-1 -1 -1 $-1 $454 $540 #
-506 straight-curve $-1 -1 -1 $-1 1.3877787807814457e-014 -10.999999999999982 75.000000000003013 1000 1.1044052673094165e-026 3.4139358007223976e-012 I I #
-507 coedge $-1 -1 -1 $-1 $456 $455 $465 $515 reversed $420 $-1 #
-508 edge $-1 -1 -1 $-1 $457 8.1712414612411452e-015 $541 3.1415926535897993 $455 $542 forward @7 unknown F #
-509 point $-1 -1 -1 $-1 17.500000000000014 -10.999999999999913 75.000000000003013 #
-510 ellipse-curve $-1 -1 -1 $-1 12.500000000000025 -10.999999999999954 60.00333209968062 3.1910437439239492e-015 8.3782833718874159e-030 1 -5.0000000000000044 2.6020852139652106e-014 -1.3877787807814457e-014 1 I I #
-511 integer_attrib-name_attrib-gen-attrib $-1 -1 $-1 $-1 $462 2 1 2 1 1 1 1 1 1 1 1 1 1 1 0 1 1 1 @12 Cut-Extrude1 0 #
-512 face $543 -1 -1 $-1 $528 $504 $4 $-1 $544 reversed single F F #
-513 plane-surface $-1 -1 -1 $-1 0 0 0 1 1.1044052673094109e-029 -3.2751579226441637e-015 -3.2751579226442498e-012 -8.3754841421512271e-027 -1000.0000000000261 forward_v I I I I #
-514 coedge $-1 -1 -1 $-1 $467 $465 $539 $545 reversed $314 $-1 #
-515 edge $-1 -1 -1 $-1 $492 0.060003332099682088 $541 0.075000000000002981 $465 $546 forward @7 unknown F #
-516 coedge $-1 -1 -1 $-1 $478 $477 $467 $517 forward $479 $-1 #
-517 edge $-1 -1 -1 $-1 $519 0 $547 0.075000000000003009 $516 $548 forward @7 unknown F #
-518 coedge $-1 -1 -1 $-1 $468 $487 $470 $521 forward $438 $-1 #
-519 vertex $-1 -1 -1 $-1 $469 $549 #
-520 straight-curve $-1 -1 -1 $-1 24.999999999999993 -10.999999999999968 0 -1000 -1.1044052673094165e-026 -3.4139358007223976e-012 I I #
-521 edge $-1 -1 -1 $-1 $536 1.5241141682054136e-013 $471 3.1415926535897993 $518 $550 forward @7 unknown F #
-522 point $-1 -1 -1 $-1 7.5000000000000071 -10.999999999999982 2.7755575615628914e-014 #
-523 coedge $-1 -1 -1 $-1 $539 $475 $478 $525 forward $504 $-1 #
-524 straight-curve $-1 -1 -1 $-1 1.3877787807814457e-014 1.3877787807814457e-014 75.000000000003013 1000 1.1044052673094165e-026 3.4139358007223976e-012 I I #
-525 edge $-1 -1 -1 $-1 $480 -0 $547 0.010999999999999996 $523 $551 forward @7 unknown F #
-526 point $-1 -1 -1 $-1 1.3877787807814457e-014 1.3877787807814457e-014 75.000000000003013 #
-527 edge $-1 -1 -1 $-1 $485 -0 $505 0.010999999999999968 $482 $552 forward @7 unknown F #
-528 face $553 -1 -1 $-1 $161 $484 $4 $-1 $554 reversed single F F #
-529 point $-1 -1 -1 $-1 24.999999999999993 1.3877787807814457e-014 75.000000000001648 #
-530 edge $-1 -1 -1 $-1 $531 -0 $536 0.0074999999999999928 $487 $555 forward @7 unknown F #
-531 vertex $-1 -1 -1 $-1 $501 $556 #
-532 straight-curve $-1 -1 -1 $-1 24.99999999999962 4.0245584642661925e-013 0 -1.1635698352010076e-026 -1000 -8.2090837949562646e-027 I I #
-533 straight-curve $-1 -1 -1 $-1 0 0 0 -1.1635698352010076e-026 -1000 -8.2090837949562646e-027 I I #
-534 point $-1 -1 -1 $-1 7.5000000000000204 -10.999999999999982 60.003332099682119 #
-535 point $-1 -1 -1 $-1 17.499999999999627 -10.999999999999192 10.000000000000037 #
-536 vertex $-1 -1 -1 $-1 $498 $557 #
-537 straight-curve $-1 -1 -1 $-1 17.5 -10.999999999999192 2.7755575615628914e-014 -3.1363800445660228e-012 -8.4093805091722214e-027 -1000 I I #
-538 straight-curve $-1 -1 -1 $-1 25.000000000000007 -10.999999999999954 75.000000000001648 -3.2520282762978076e-012 -8.3739433981954963e-027 -1000 I I #
-539 coedge $-1 -1 -1 $-1 $503 $523 $514 $545 forward $504 $-1 #
-540 point $-1 -1 -1 $-1 25.000000000000007 -10.999999999999954 75.000000000001648 #
-541 vertex $-1 -1 -1 $-1 $515 $558 #
-542 ellipse-curve $-1 -1 -1 $-1 12.500000000000011 -10.999999999999954 75.000000000003013 3.1363800445660227e-015 8.409380509172222e-030 1 5.0000000000000044 0 1.3877787807814457e-014 1 I I #
-543 integer_attrib-name_attrib-gen-attrib $-1 -1 $-1 $-1 $512 2 1 2 1 1 1 1 1 1 1 1 1 1 1 0 1 1 1 @12 Cut-Extrude1 0 #
-544 plane-surface $-1 -1 -1 $-1 1.3877787807814457e-014 1.3877787807814457e-014 75.000000000003013 3.4139358007223974e-015 -8.4093805091721492e-030 -1 -1000 -1.1044052673094165e-026 -3.4139358007223976e-012 forward_v I I I I #
-545 edge $-1 -1 -1 $-1 $547 0 $541 0.0074999999999999928 $539 $559 forward @7 unknown F #
-546 straight-curve $-1 -1 -1 $-1 7.5000000000000071 -10.999999999999982 2.7755575615628914e-014 3.1363800445660228e-012 8.4093805091722214e-027 1000 I I #
-547 vertex $-1 -1 -1 $-1 $517 $560 #
-548 straight-curve $-1 -1 -1 $-1 -1.3877787807814457e-014 -10.999999999999982 0 3.2751579226441637e-012 8.3754841421510061e-027 1000 I I #
-549 point $-1 -1 -1 $-1 -1.3877787807814457e-014 -10.999999999999982 0 #
-550 ellipse-curve $-1 -1 -1 $-1 12.500000000000011 -10.999999999999954 2.7755575615628914e-014 3.1363800445660227e-015 8.409380509172222e-030 1 5.0000000000000044 0 1.7069679003612003e-014 1 I I #
-551 straight-curve $-1 -1 -1 $-1 1.3877787807814457e-014 1.3877787807814457e-014 75.000000000003013 -1.1635698352010076e-026 -1000 -8.2090837949562646e-027 I I #
-552 straight-curve $-1 -1 -1 $-1 24.999999999999993 1.3877787807814457e-014 75.000000000001648 -1.1635698352010076e-026 -1000 -8.2090837949562646e-027 I I #
-553 integer_attrib-name_attrib-gen-attrib $-1 -1 $-1 $-1 $528 2 1 2 1 1 1 1 1 1 1 1 1 1 1 0 1 1 1 @12 Cut-Extrude1 0 #
-554 plane-surface $-1 -1 -1 $-1 24.999999999999993 1.3877787807814457e-014 75.000000000001648 -1 -1.1044052673094111e-029 3.2520282762978076e-015 3.2520282762978929e-012 8.3739433981957173e-027 1000.0000000000261 forward_v I I I I #
-555 straight-curve $-1 -1 -1 $-1 24.999999999999993 -10.999999999999968 0 -1000 -1.1044052673094165e-026 -3.4139358007223976e-012 I I #
-556 point $-1 -1 -1 $-1 24.999999999999993 -10.999999999999968 0 #
-557 point $-1 -1 -1 $-1 17.5 -10.999999999999192 2.7755575615628914e-014 #
-558 point $-1 -1 -1 $-1 7.5000000000000071 -10.999999999999982 75.000000000003013 #
-559 straight-curve $-1 -1 -1 $-1 1.3877787807814457e-014 -10.999999999999982 75.000000000003013 1000 1.1044052673094165e-026 3.4139358007223976e-012 I I #
-560 point $-1 -1 -1 $-1 1.3877787807814457e-014 -10.999999999999982 75.000000000003013 #
End-of-ACIS-data 