2200 0 1 0           
15 SolidWorks 2017 12 ACIS 22.0 NT 24 Sun Dec 31 11:08:03 2017 
1 9.9999999999999995e-007 1e-010 
-0 body $1 -1 -1 $-1 $2 $-1 $-1 F #
-1 name_attrib-gen-attrib $-1 -1 $-1 $-1 $0 2 1 1 1 1 1 1 1 1 1 1 1 1 1 0 1 1 1 @28 2Z bearing holder left cover #
-2 lump $3 -1 -1 $-1 $-1 $4 $0 F #
-3 rgb_color-st-attrib $-1 -1 $-1 $-1 $2 2 1 2 1 1 1 1 1 1 1 1 1 1 1 0 1 1 1 1 0.93725490196078431 0.13725490196078433 #
-4 shell $-1 -1 -1 $-1 $-1 $-1 $5 $-1 $2 F #
-5 face $6 -1 -1 $-1 $7 $8 $4 $-1 $9 reversed single F T -0.92307692307691647 2.2315661376540737e-029 -3.1415926535897931 1.9001894075316394e-016 #
-6 integer_attrib-name_attrib-gen-attrib $-1 -1 $-1 $-1 $5 2 1 2 1 1 1 1 1 1 1 1 1 1 1 0 1 1 1 @10 Move Face1 0 #
-7 face $10 -1 -1 $-1 $11 $12 $4 $-1 $13 reversed single F T -0.92307692307692302 2.2801114241292139e-029 -3.1415926535897931 -1.024821253500063e-016 #
-8 loop $-1 -1 -1 $-1 $-1 $14 $5 F unknown #
-9 cone-surface $-1 -1 -1 $-1 20.750000000000011 1.3877787807814457e-014 5.000000000000032 1.1635698352010077e-029 1 8.2090837949562648e-030 -3.249999999999996 -3.543711097672514e-029 -1.1275702593849246e-014 1 I I 0 1 3.249999999999996 forward I I I I #
-10 integer_attrib-name_attrib-gen-attrib $-1 -1 $-1 $-1 $7 2 1 2 1 1 1 1 1 1 1 1 1 1 1 0 1 1 1 @10 Move Face1 0 #
-11 face $15 -1 -1 $-1 $16 $17 $4 $-1 $18 reversed single F T -0.92307692307692502 2.7170190024054673e-029 -3.1415926535897931 -1.0248212535000681e-016 #
-12 loop $-1 -1 -1 $-1 $-1 $19 $7 F unknown #
-13 cone-surface $-1 -1 -1 $-1 20.750000000000018 6.9388939039072284e-015 70.000000000002998 1.1635698352010077e-029 1 8.2090837949562648e-030 -3.249999999999996 -3.6207482954480034e-029 -1.3877787807814457e-014 1 I I 0 1 3.249999999999996 forward I I I I #
-14 coedge $-1 -1 -1 $-1 $20 $21 $22 $23 reversed $8 $-1 #
-15 integer_attrib-name_attrib-gen-attrib $-1 -1 $-1 $-1 $11 2 1 2 1 1 1 1 1 1 1 1 1 1 1 0 1 1 1 @10 Move Face1 0 #
-16 face $24 -1 -1 $-1 $25 $26 $4 $-1 $27 reversed single F T -0.92307692307692457 2.717019002405465e-029 -3.1415926535897931 -8.3266726846877028e-017 #
-17 loop $-1 -1 -1 $-1 $-1 $28 $11 F unknown #
-18 cone-surface $-1 -1 -1 $-1 4.2500000000000036 3.8163916471489756e-013 70.000000000002998 1.1635698352010077e-029 1 8.2090837949562648e-030 -3.249999999999996 -4.9303806576313238e-029 -1.3877787807814457e-014 1 I I 0 1 3.249999999999996 forward I I I I #
-19 coedge $-1 -1 -1 $-1 $29 $30 $31 $32 reversed $12 $-1 #
-20 coedge $-1 -1 -1 $-1 $33 $14 $34 $35 forward $8 $-1 #
-21 coedge $-1 -1 -1 $-1 $14 $33 $36 $37 reversed $8 $-1 #
-22 coedge $-1 -1 -1 $-1 $38 $38 $14 $23 forward $39 $-1 #
-23 edge $-1 -1 -1 $-1 $40 -3.1415926535897931 $41 1.900189407531524e-016 $22 $42 forward @7 unknown F #
-24 integer_attrib-name_attrib-gen-attrib $-1 -1 $-1 $-1 $16 2 1 2 1 1 1 1 1 1 1 1 1 1 1 0 1 1 1 @10 Move Face1 0 #
-25 face $43 -1 -1 $-1 $44 $45 $4 $-1 $46 reversed single F T -6.1111111111113265 -1.8888888888888931 -3.1415926535897931 5.0166623191401163e-029 #
-26 loop $-1 -1 -1 $-1 $-1 $47 $16 F unknown #
-27 cone-surface $-1 -1 -1 $-1 4.2500000000000036 3.8857805861880479e-013 5.0000000000000044 1.1635698352010077e-029 1 8.2090837949562648e-030 -3.2499999999999978 -4.9303806576313238e-029 -1.1275702593849246e-014 1 I I 0 1 3.2499999999999978 forward I I I I #
-28 coedge $-1 -1 -1 $-1 $48 $49 $50 $51 reversed $17 $-1 #
-29 coedge $-1 -1 -1 $-1 $52 $19 $53 $54 forward $12 $-1 #
-30 coedge $-1 -1 -1 $-1 $19 $52 $55 $56 reversed $12 $-1 #
-31 coedge $-1 -1 -1 $-1 $57 $57 $19 $32 forward $58 $-1 #
-32 edge $-1 -1 -1 $-1 $59 -3.1415926535897931 $60 -1.0248212535001409e-016 $31 $61 forward @7 unknown F #
-33 coedge $-1 -1 -1 $-1 $21 $20 $62 $63 forward $8 $-1 #
-34 coedge $-1 -1 -1 $-1 $64 $65 $20 $35 reversed $66 $-1 #
-35 edge $-1 -1 -1 $-1 $40 -0.0029999999999999745 $67 -7.415292509077511e-032 $20 $68 forward @7 unknown F #
-36 coedge $-1 -1 -1 $-1 $65 $64 $21 $37 forward $66 $-1 #
-37 edge $-1 -1 -1 $-1 $41 -0.0029999999999999745 $69 0 $36 $70 forward @7 unknown F #
-38 coedge $-1 -1 -1 $-1 $22 $22 $64 $71 forward $39 $-1 #
-39 loop $-1 -1 -1 $-1 $-1 $38 $72 F unknown #
-40 vertex $-1 -1 -1 $-1 $35 $73 #
-41 vertex $-1 -1 -1 $-1 $23 $74 #
-42 ellipse-curve $-1 -1 -1 $-1 20.750000000000011 -2.9999999999999609 5.000000000000032 1.1635698352010077e-029 1 8.2090837949562648e-030 -3.2499999999999996 -0 -1.1275702593849246e-014 1 I I #
-43 integer_attrib-name_attrib-gen-attrib $-1 -1 $-1 $-1 $25 2 1 2 1 1 1 1 1 1 1 1 1 1 1 0 1 1 1 @10 Move Face1 0 #
-44 face $75 -1 -1 $-1 $76 $77 $4 $-1 $78 reversed single F T -6.1111111111111107 -1.8888888888888893 -3.1415926535897931 5.0166623191399953e-029 #
-45 loop $-1 -1 -1 $-1 $-1 $79 $25 F unknown #
-46 cone-surface $-1 -1 -1 $-1 4.2500000000000036 3.8163916471489756e-013 70.000000000002998 1.1635698352010077e-029 1 8.2090837949562648e-030 -1.799999999999996 0 0 1 I I 0 1 1.799999999999996 forward I I I I #
-47 coedge $-1 -1 -1 $-1 $80 $81 $82 $83 reversed $26 $-1 #
-48 coedge $-1 -1 -1 $-1 $84 $28 $85 $86 forward $17 $-1 #
-49 coedge $-1 -1 -1 $-1 $28 $84 $87 $88 reversed $17 $-1 #
-50 coedge $-1 -1 -1 $-1 $89 $89 $28 $51 forward $90 $-1 #
-51 edge $-1 -1 -1 $-1 $91 -3.1415926535897931 $92 -1.0248212535001529e-016 $50 $93 forward @7 unknown F #
-52 coedge $-1 -1 -1 $-1 $30 $29 $94 $95 forward $12 $-1 #
-53 coedge $-1 -1 -1 $-1 $96 $97 $29 $54 reversed $98 $-1 #
-54 edge $-1 -1 -1 $-1 $59 -0.0029999999999999962 $99 -7.3364064185554097e-032 $29 $100 forward @7 unknown F #
-55 coedge $-1 -1 -1 $-1 $97 $96 $30 $56 forward $98 $-1 #
-56 edge $-1 -1 -1 $-1 $60 -0.0029999999999999962 $101 0 $55 $102 forward @7 unknown F #
-57 coedge $-1 -1 -1 $-1 $31 $31 $96 $103 forward $58 $-1 #
-58 loop $-1 -1 -1 $-1 $-1 $57 $104 F unknown #
-59 vertex $-1 -1 -1 $-1 $54 $105 #
-60 vertex $-1 -1 -1 $-1 $32 $106 #
-61 ellipse-curve $-1 -1 -1 $-1 20.750000000000018 -2.9999999999999889 70.000000000002998 1.1635698352010077e-029 1 8.2090837949562648e-030 -3.249999999999996 -0 -1.3877787807814457e-014 1 I I #
-62 coedge $-1 -1 -1 $-1 $107 $107 $33 $63 reversed $108 $-1 #
-63 edge $-1 -1 -1 $-1 $67 -3.1415926535897931 $69 1.9001894075315284e-016 $33 $109 forward @7 unknown F #
-64 coedge $-1 -1 -1 $-1 $36 $34 $38 $71 reversed $66 $-1 #
-65 coedge $-1 -1 -1 $-1 $34 $36 $107 $110 forward $66 $-1 #
-66 loop $-1 -1 -1 $-1 $-1 $34 $111 F unknown #
-67 vertex $-1 -1 -1 $-1 $35 $112 #
-68 straight-curve $-1 -1 -1 $-1 24.000000000000007 1.3877787807814493e-014 5.0000000000000435 1.1635698352010076e-026 1000 8.2090837949562646e-027 I I #
-69 vertex $-1 -1 -1 $-1 $63 $113 #
-70 straight-curve $-1 -1 -1 $-1 17.500000000000014 1.3877787807814422e-014 5.0000000000000213 1.1635698352010076e-026 1000 8.2090837949562646e-027 I I #
-71 edge $-1 -1 -1 $-1 $41 1.900189407531524e-016 $40 3.1415926535897931 $38 $114 forward @7 unknown F #
-72 face $115 -1 -1 $-1 $111 $39 $4 $-1 $116 reversed single F F #
-73 point $-1 -1 -1 $-1 24.000000000000011 -2.9999999999999609 5.0000000000000435 #
-74 point $-1 -1 -1 $-1 17.500000000000011 -2.9999999999999609 5.0000000000000213 #
-75 integer_attrib-name_attrib-gen-attrib $-1 -1 $-1 $-1 $44 2 1 2 1 1 1 1 1 1 1 1 1 1 1 0 1 1 1 @10 Move Face1 0 #
-76 face $117 -1 -1 $-1 $118 $119 $4 $-1 $120 reversed single F T -6.1111111111113372 -1.8888888888888951 -3.1415926535897931 -8.0953762212200839e-017 #
-77 loop $-1 -1 -1 $-1 $-1 $121 $44 F unknown #
-78 cone-surface $-1 -1 -1 $-1 20.750000000000018 6.9388939039072284e-015 70.000000000002998 1.1635698352010077e-029 1 8.2090837949562648e-030 -1.799999999999996 -2.0029671421627253e-029 0 1 I I 0 1 1.799999999999996 forward I I I I #
-79 coedge $-1 -1 -1 $-1 $122 $123 $124 $125 reversed $45 $-1 #
-80 coedge $-1 -1 -1 $-1 $126 $47 $127 $128 forward $26 $-1 #
-81 coedge $-1 -1 -1 $-1 $47 $126 $129 $130 reversed $26 $-1 #
-82 coedge $-1 -1 -1 $-1 $131 $131 $47 $83 forward $132 $-1 #
-83 edge $-1 -1 -1 $-1 $133 -3.1415926535897931 $134 -8.3266726846887357e-017 $82 $135 forward @7 unknown F #
-84 coedge $-1 -1 -1 $-1 $49 $48 $136 $137 forward $17 $-1 #
-85 coedge $-1 -1 -1 $-1 $138 $139 $48 $86 reversed $140 $-1 #
-86 edge $-1 -1 -1 $-1 $91 -0.0030000000000000027 $141 -1.0097419586828951e-031 $48 $142 forward @7 unknown F #
-87 coedge $-1 -1 -1 $-1 $139 $138 $49 $88 forward $140 $-1 #
-88 edge $-1 -1 -1 $-1 $92 -0.0030000000000000027 $143 0 $87 $144 forward @7 unknown F #
-89 coedge $-1 -1 -1 $-1 $50 $50 $138 $145 forward $90 $-1 #
-90 loop $-1 -1 -1 $-1 $-1 $89 $146 F unknown #
-91 vertex $-1 -1 -1 $-1 $86 $147 #
-92 vertex $-1 -1 -1 $-1 $51 $148 #
-93 ellipse-curve $-1 -1 -1 $-1 4.2500000000000036 -2.9999999999996212 70.000000000002998 1.1635698352010077e-029 1 8.2090837949562648e-030 -3.249999999999996 -0 -1.3877787807814457e-014 1 I I #
-94 coedge $-1 -1 -1 $-1 $149 $149 $52 $95 reversed $150 $-1 #
-95 edge $-1 -1 -1 $-1 $99 -3.1415926535897931 $101 -1.0248212535001409e-016 $52 $151 forward @7 unknown F #
-96 coedge $-1 -1 -1 $-1 $55 $53 $57 $103 reversed $98 $-1 #
-97 coedge $-1 -1 -1 $-1 $53 $55 $149 $152 forward $98 $-1 #
-98 loop $-1 -1 -1 $-1 $-1 $53 $153 F unknown #
-99 vertex $-1 -1 -1 $-1 $54 $154 #
-100 straight-curve $-1 -1 -1 $-1 24.000000000000014 6.9388939039072639e-015 70.000000000003013 1.1635698352010076e-026 1000 8.2090837949562646e-027 I I #
-101 vertex $-1 -1 -1 $-1 $95 $155 #
-102 straight-curve $-1 -1 -1 $-1 17.500000000000021 6.9388939039071921e-015 70.000000000002984 1.1635698352010076e-026 1000 8.2090837949562646e-027 I I #
-103 edge $-1 -1 -1 $-1 $60 -1.0248212535001409e-016 $59 3.1415926535897931 $57 $156 forward @7 unknown F #
-104 face $157 -1 -1 $-1 $153 $58 $4 $-1 $158 reversed single F F #
-105 point $-1 -1 -1 $-1 24.000000000000014 -2.9999999999999889 70.000000000003013 #
-106 point $-1 -1 -1 $-1 17.500000000000021 -2.9999999999999889 70.000000000002984 #
-107 coedge $-1 -1 -1 $-1 $62 $62 $65 $110 reversed $108 $-1 #
-108 loop $-1 -1 -1 $-1 $150 $107 $159 F unknown #
-109 ellipse-curve $-1 -1 -1 $-1 20.750000000000011 1.3877787807814457e-014 5.000000000000032 1.1635698352010077e-029 1 8.2090837949562648e-030 -3.249999999999996 -3.543711097672514e-029 -1.1275702593849246e-014 1 I I #
-110 edge $-1 -1 -1 $-1 $69 1.9001894075315284e-016 $67 3.1415926535897931 $65 $160 forward @7 unknown F #
-111 face $161 -1 -1 $-1 $162 $66 $4 $-1 $163 reversed single F T -0.92307692307691647 2.2315661376540737e-029 1.900189407531525e-016 3.1415926535897931 #
-112 point $-1 -1 -1 $-1 24.000000000000007 1.3877787807814419e-014 5.0000000000000435 #
-113 point $-1 -1 -1 $-1 17.500000000000014 1.3877787807814422e-014 5.0000000000000213 #
-114 ellipse-curve $-1 -1 -1 $-1 20.750000000000011 -2.9999999999999609 5.000000000000032 1.1635698352010077e-029 1 8.2090837949562648e-030 -3.2499999999999996 -0 -1.1275702593849246e-014 1 I I #
-115 integer_attrib-name_attrib-gen-attrib $-1 -1 $-1 $-1 $72 2 1 2 1 1 1 1 1 1 1 1 1 1 1 0 1 1 1 @10 Move Face1 0 #
-116 plane-surface $-1 -1 -1 $-1 20.750000000000011 -2.9999999999999609 6.8000000000000282 1.1044052673094193e-029 -1 -8.2090837949561877e-030 1000 1.1044052673094165e-026 3.4139358007223976e-012 forward_v I I I I #
-117 integer_attrib-name_attrib-gen-attrib $-1 -1 $-1 $-1 $76 2 1 2 1 1 1 1 1 1 1 1 1 1 1 0 1 1 1 @10 Move Face1 0 #
-118 face $164 -1 -1 $-1 $165 $166 $4 $-1 $167 reversed single F T -6.1111111111106835 -1.8888888888888777 -3.1415926535897931 -8.0953762212185506e-017 #
-119 loop $-1 -1 -1 $-1 $-1 $168 $76 F unknown #
-120 cone-surface $-1 -1 -1 $-1 4.2500000000000036 3.8857805861880479e-013 5.0000000000000044 1.1635698352010077e-029 1 8.2090837949562648e-030 -1.7999999999999943 -0 -6.0715321659188248e-015 1 I I 0 1 1.7999999999999943 forward I I I I #
-121 coedge $-1 -1 -1 $-1 $169 $170 $171 $172 reversed $77 $-1 #
-122 coedge $-1 -1 -1 $-1 $173 $79 $174 $175 forward $45 $-1 #
-123 coedge $-1 -1 -1 $-1 $79 $173 $176 $177 reversed $45 $-1 #
-124 coedge $-1 -1 -1 $-1 $178 $178 $79 $125 forward $179 $-1 #
-125 edge $-1 -1 -1 $-1 $180 -3.1415926535897931 $181 1.091782296347747e-074 $124 $182 forward @7 unknown F #
-126 coedge $-1 -1 -1 $-1 $81 $80 $183 $184 forward $26 $-1 #
-127 coedge $-1 -1 -1 $-1 $185 $186 $80 $128 reversed $187 $-1 #
-128 edge $-1 -1 -1 $-1 $133 -0.0030000000000000027 $188 -1.0097419586828954e-031 $80 $189 forward @7 unknown F #
-129 coedge $-1 -1 -1 $-1 $186 $185 $81 $130 forward $187 $-1 #
-130 edge $-1 -1 -1 $-1 $134 -0.0030000000000000027 $190 2.0669152348791323e-047 $129 $191 forward @7 unknown F #
-131 coedge $-1 -1 -1 $-1 $82 $82 $185 $192 forward $132 $-1 #
-132 loop $-1 -1 -1 $-1 $-1 $131 $193 F unknown #
-133 vertex $-1 -1 -1 $-1 $128 $194 #
-134 vertex $-1 -1 -1 $-1 $83 $195 #
-135 ellipse-curve $-1 -1 -1 $-1 4.2500000000000036 -2.9999999999996141 5.0000000000000044 1.1635698352010077e-029 1 8.2090837949562648e-030 -3.2499999999999996 -0 -1.1275702593849246e-014 1 I I #
-136 coedge $-1 -1 -1 $-1 $196 $196 $84 $137 reversed $197 $-1 #
-137 edge $-1 -1 -1 $-1 $141 -3.1415926535897931 $143 -1.0248212535001529e-016 $84 $198 forward @7 unknown F #
-138 coedge $-1 -1 -1 $-1 $87 $85 $89 $145 reversed $140 $-1 #
-139 coedge $-1 -1 -1 $-1 $85 $87 $196 $199 forward $140 $-1 #
-140 loop $-1 -1 -1 $-1 $-1 $85 $200 F unknown #
-141 vertex $-1 -1 -1 $-1 $86 $201 #
-142 straight-curve $-1 -1 -1 $-1 7.5 3.8163916471489761e-013 70.000000000003013 1.1635698352010076e-026 1000 8.2090837949562646e-027 I I #
-143 vertex $-1 -1 -1 $-1 $137 $202 #
-144 straight-curve $-1 -1 -1 $-1 1.0000000000000078 3.8163916471489751e-013 70.000000000002984 1.1635698352010076e-026 1000 8.2090837949562646e-027 I I #
-145 edge $-1 -1 -1 $-1 $92 -1.0248212535001529e-016 $91 3.1415926535897931 $89 $203 forward @7 unknown F #
-146 face $204 -1 -1 $-1 $200 $90 $4 $-1 $205 reversed single F F #
-147 point $-1 -1 -1 $-1 7.5 -2.9999999999996212 70.000000000003013 #
-148 point $-1 -1 -1 $-1 1.0000000000000078 -2.9999999999996212 70.000000000002984 #
-149 coedge $-1 -1 -1 $-1 $94 $94 $97 $152 reversed $150 $-1 #
-150 loop $-1 -1 -1 $-1 $197 $149 $159 F unknown #
-151 ellipse-curve $-1 -1 -1 $-1 20.750000000000018 6.9388939039072284e-015 70.000000000002998 1.1635698352010077e-029 1 8.2090837949562648e-030 -3.249999999999996 -3.6207482954480034e-029 -1.3877787807814457e-014 1 I I #
-152 edge $-1 -1 -1 $-1 $101 -1.0248212535001409e-016 $99 3.1415926535897931 $97 $206 forward @7 unknown F #
-153 face $207 -1 -1 $-1 $72 $98 $4 $-1 $208 reversed single F T -0.92307692307692302 2.2801114241292139e-029 -1.0248212535001406e-016 3.1415926535897931 #
-154 point $-1 -1 -1 $-1 24.000000000000014 6.9388939039071905e-015 70.000000000003013 #
-155 point $-1 -1 -1 $-1 17.500000000000021 6.9388939039071921e-015 70.000000000002984 #
-156 ellipse-curve $-1 -1 -1 $-1 20.750000000000018 -2.9999999999999889 70.000000000002998 1.1635698352010077e-029 1 8.2090837949562648e-030 -3.249999999999996 -0 -1.3877787807814457e-014 1 I I #
-157 integer_attrib-name_attrib-gen-attrib $-1 -1 $-1 $-1 $104 2 1 2 1 1 1 1 1 1 1 1 1 1 1 0 1 1 1 @10 Move Face1 0 #
-158 plane-surface $-1 -1 -1 $-1 20.750000000000018 -2.9999999999999889 71.800000000003024 1.1044052673094193e-029 -1 -8.2090837949561877e-030 1000 1.1044052673094165e-026 3.4139358007223976e-012 forward_v I I I I #
-159 face $209 -1 -1 $-1 $210 $108 $4 $-1 $211 forward single F F #
-160 ellipse-curve $-1 -1 -1 $-1 20.750000000000011 1.3877787807814457e-014 5.000000000000032 1.1635698352010077e-029 1 8.2090837949562648e-030 -3.249999999999996 -3.543711097672514e-029 -1.1275702593849246e-014 1 I I #
-161 integer_attrib-name_attrib-gen-attrib $-1 -1 $-1 $-1 $111 2 1 2 1 1 1 1 1 1 1 1 1 1 1 0 1 1 1 @10 Move Face1 0 #
-162 face $212 -1 -1 $-1 $213 $214 $4 $-1 $215 reversed single F F #
-163 cone-surface $-1 -1 -1 $-1 20.750000000000011 1.3877787807814457e-014 5.000000000000032 1.1635698352010077e-029 1 8.2090837949562648e-030 -3.249999999999996 -3.543711097672514e-029 -1.1275702593849246e-014 1 I I 0 1 3.249999999999996 forward I I I I #
-164 integer_attrib-name_attrib-gen-attrib $-1 -1 $-1 $-1 $118 2 1 2 1 1 1 1 1 1 1 1 1 1 1 0 1 1 1 @10 Move Face1 0 #
-165 face $216 -1 -1 $-1 $217 $218 $4 $-1 $219 reversed single F T -6.1111111111106835 -1.8888888888888777 -8.0953762212240751e-017 3.1415926535897931 #
-166 loop $-1 -1 -1 $-1 $-1 $220 $118 F unknown #
-167 cone-surface $-1 -1 -1 $-1 20.750000000000011 1.3877787807814457e-014 5.000000000000032 1.1635698352010077e-029 1 8.2090837949562648e-030 -1.799999999999996 -2.0029671421627253e-029 -6.0715321659188248e-015 1 I I 0 1 1.799999999999996 forward I I I I #
-168 coedge $-1 -1 -1 $-1 $221 $222 $223 $224 reversed $119 $-1 #
-169 coedge $-1 -1 -1 $-1 $225 $121 $226 $227 forward $77 $-1 #
-170 coedge $-1 -1 -1 $-1 $121 $225 $228 $229 reversed $77 $-1 #
-171 coedge $-1 -1 -1 $-1 $230 $230 $121 $172 forward $231 $-1 #
-172 edge $-1 -1 -1 $-1 $232 -3.1415926535897931 $233 0 $171 $234 forward @7 unknown F #
-173 coedge $-1 -1 -1 $-1 $123 $122 $235 $236 reversed $45 $-1 #
-174 coedge $-1 -1 -1 $-1 $237 $238 $122 $175 reversed $239 $-1 #
-175 edge $-1 -1 -1 $-1 $180 -0.011000000000000364 $240 -0.0033999999999999998 $122 $241 forward @7 unknown F #
-176 coedge $-1 -1 -1 $-1 $238 $237 $123 $177 forward $239 $-1 #
-177 edge $-1 -1 -1 $-1 $181 -0.011000000000000364 $242 -0.0033999999999999998 $176 $243 forward @7 unknown F #
-178 coedge $-1 -1 -1 $-1 $124 $124 $237 $244 forward $179 $-1 #
-179 loop $-1 -1 -1 $-1 $245 $178 $246 F unknown #
-180 vertex $-1 -1 -1 $-1 $175 $247 #
-181 vertex $-1 -1 -1 $-1 $125 $248 #
-182 ellipse-curve $-1 -1 -1 $-1 4.2500000000000036 -10.999999999999982 70.000000000002998 1.1635698352010077e-029 1 8.2090837949562648e-030 -1.799999999999996 0 0 1 I I #
-183 coedge $-1 -1 -1 $-1 $249 $249 $126 $184 reversed $250 $-1 #
-184 edge $-1 -1 -1 $-1 $188 -3.1415926535897931 $190 -8.3266726846887554e-017 $126 $251 forward @7 unknown F #
-185 coedge $-1 -1 -1 $-1 $129 $127 $131 $192 reversed $187 $-1 #
-186 coedge $-1 -1 -1 $-1 $127 $129 $249 $252 forward $187 $-1 #
-187 loop $-1 -1 -1 $-1 $-1 $127 $253 F unknown #
-188 vertex $-1 -1 -1 $-1 $128 $254 #
-189 straight-curve $-1 -1 -1 $-1 7.5000000000000018 3.8857805861880484e-013 5.000000000000016 1.1635698352010076e-026 1000 8.2090837949562646e-027 I I #
-190 vertex $-1 -1 -1 $-1 $184 $255 #
-191 straight-curve $-1 -1 -1 $-1 1.000000000000006 3.8857805861880474e-013 4.9999999999999929 1.1635698352010076e-026 1000 8.2090837949562646e-027 I I #
-192 edge $-1 -1 -1 $-1 $134 -8.3266726846887357e-017 $133 3.1415926535897931 $131 $256 forward @7 unknown F #
-193 face $257 -1 -1 $-1 $253 $132 $4 $-1 $258 reversed single F F #
-194 point $-1 -1 -1 $-1 7.5000000000000036 -2.9999999999996141 5.000000000000016 #
-195 point $-1 -1 -1 $-1 1.0000000000000044 -2.9999999999996141 4.9999999999999929 #
-196 coedge $-1 -1 -1 $-1 $136 $136 $139 $199 reversed $197 $-1 #
-197 loop $-1 -1 -1 $-1 $250 $196 $159 F unknown #
-198 ellipse-curve $-1 -1 -1 $-1 4.2500000000000036 3.8163916471489756e-013 70.000000000002998 1.1635698352010077e-029 1 8.2090837949562648e-030 -3.249999999999996 -4.9303806576313238e-029 -1.3877787807814457e-014 1 I I #
-199 edge $-1 -1 -1 $-1 $143 -1.0248212535001529e-016 $141 3.1415926535897931 $139 $259 forward @7 unknown F #
-200 face $260 -1 -1 $-1 $104 $140 $4 $-1 $261 reversed single F T -0.92307692307692502 2.7170190024054673e-029 -1.0248212535001507e-016 3.1415926535897931 #
-201 point $-1 -1 -1 $-1 7.5 3.8163916471489751e-013 70.000000000003013 #
-202 point $-1 -1 -1 $-1 1.0000000000000078 3.8163916471489751e-013 70.000000000002984 #
-203 ellipse-curve $-1 -1 -1 $-1 4.2500000000000036 -2.9999999999996212 70.000000000002998 1.1635698352010077e-029 1 8.2090837949562648e-030 -3.249999999999996 -0 -1.3877787807814457e-014 1 I I #
-204 integer_attrib-name_attrib-gen-attrib $-1 -1 $-1 $-1 $146 2 1 2 1 1 1 1 1 1 1 1 1 1 1 0 1 1 1 @10 Move Face1 0 #
-205 plane-surface $-1 -1 -1 $-1 4.2500000000000036 -2.9999999999996212 71.800000000003024 1.1044052673094193e-029 -1 -8.2090837949561877e-030 1000 1.1044052673094165e-026 3.4139358007223976e-012 forward_v I I I I #
-206 ellipse-curve $-1 -1 -1 $-1 20.750000000000018 6.9388939039072284e-015 70.000000000002998 1.1635698352010077e-029 1 8.2090837949562648e-030 -3.249999999999996 -3.6207482954480034e-029 -1.3877787807814457e-014 1 I I #
-207 integer_attrib-name_attrib-gen-attrib $-1 -1 $-1 $-1 $153 2 1 2 1 1 1 1 1 1 1 1 1 1 1 0 1 1 1 @10 Move Face1 0 #
-208 cone-surface $-1 -1 -1 $-1 20.750000000000018 6.9388939039072284e-015 70.000000000002998 1.1635698352010077e-029 1 8.2090837949562648e-030 -3.249999999999996 -3.6207482954480034e-029 -1.3877787807814457e-014 1 I I 0 1 3.249999999999996 forward I I I I #
-209 integer_attrib-name_attrib-gen-attrib $-1 -1 $-1 $-1 $159 2 1 2 1 1 1 1 1 1 1 1 1 1 1 0 1 1 1 @10 Move Face1 0 #
-210 face $262 -1 -1 $-1 $263 $264 $4 $-1 $265 reversed single F T -5.3583123521204614 0.62852975314307913 -3.7396986092638073e-015 3.1415926535897949 #
-211 plane-surface $-1 -1 -1 $-1 12.500000000000011 4.163336342344337e-014 37.500000000001535 -1.1044052673094193e-029 1 8.2090837949561877e-030 -1000 -1.1044052673094165e-026 -3.4139358007223976e-012 forward_v I I I I #
-212 integer_attrib-name_attrib-gen-attrib $-1 -1 $-1 $-1 $162 2 1 2 1 1 1 1 1 1 1 1 1 1 1 0 1 1 1 @10 Move Face1 0 #
-213 face $266 -1 -1 $-1 $267 $268 $4 $-1 $269 reversed single F F #
-214 loop $-1 -1 -1 $-1 $-1 $235 $162 F unknown #
-215 plane-surface $-1 -1 -1 $-1 4.2500000000000036 -3.3999999999996184 70.000000000002998 -1.1044052673094193e-029 1 8.2090837949561877e-030 -1000 -1.1044052673094165e-026 -3.4139358007223976e-012 forward_v I I I I #
-216 integer_attrib-name_attrib-gen-attrib $-1 -1 $-1 $-1 $165 2 1 2 1 1 1 1 1 1 1 1 1 1 1 0 1 1 1 @10 Move Face1 0 #
-217 face $270 -1 -1 $-1 $271 $272 $4 $-1 $273 reversed single F T -6.1111111111113372 -1.8888888888888951 -8.0953762212236363e-017 3.1415926535897931 #
-218 loop $-1 -1 -1 $-1 $-1 $274 $165 F unknown #
-219 cone-surface $-1 -1 -1 $-1 20.750000000000011 1.3877787807814457e-014 5.000000000000032 1.1635698352010077e-029 1 8.2090837949562648e-030 -1.799999999999996 -2.0029671421627253e-029 -6.0715321659188248e-015 1 I I 0 1 1.799999999999996 forward I I I I #
-220 coedge $-1 -1 -1 $-1 $275 $276 $277 $278 reversed $166 $-1 #
-221 coedge $-1 -1 -1 $-1 $279 $168 $280 $281 forward $119 $-1 #
-222 coedge $-1 -1 -1 $-1 $168 $279 $282 $283 reversed $119 $-1 #
-223 coedge $-1 -1 -1 $-1 $284 $284 $168 $224 forward $245 $-1 #
-224 edge $-1 -1 -1 $-1 $285 -3.1415926535897931 $286 -8.0953762212251918e-017 $223 $287 forward @7 unknown F #
-225 coedge $-1 -1 -1 $-1 $170 $169 $288 $289 reversed $77 $-1 #
-226 coedge $-1 -1 -1 $-1 $290 $291 $169 $227 reversed $292 $-1 #
-227 edge $-1 -1 -1 $-1 $232 -0.010999999999999975 $293 -0.0033999999999999933 $169 $294 forward @7 unknown F #
-228 coedge $-1 -1 -1 $-1 $291 $290 $170 $229 forward $292 $-1 #
-229 edge $-1 -1 -1 $-1 $233 -0.010999999999999975 $295 -0.0033999999999999933 $228 $296 forward @7 unknown F #
-230 coedge $-1 -1 -1 $-1 $171 $171 $290 $297 forward $231 $-1 #
-231 loop $-1 -1 -1 $-1 $298 $230 $299 F unknown #
-232 vertex $-1 -1 -1 $-1 $227 $300 #
-233 vertex $-1 -1 -1 $-1 $172 $301 #
-234 ellipse-curve $-1 -1 -1 $-1 20.750000000000039 -10.999999999999968 70.000000000002998 1.1635698352010077e-029 1 8.2090837949562648e-030 -1.799999999999996 0 0 1 I I #
-235 coedge $-1 -1 -1 $-1 $302 $302 $173 $236 forward $214 $-1 #
-236 edge $-1 -1 -1 $-1 $242 -7.7098821154524932e-015 $240 3.1415926535897851 $235 $303 forward @7 unknown F #
-237 coedge $-1 -1 -1 $-1 $176 $174 $178 $244 reversed $239 $-1 #
-238 coedge $-1 -1 -1 $-1 $174 $176 $302 $304 reversed $239 $-1 #
-239 loop $-1 -1 -1 $-1 $-1 $174 $305 F unknown #
-240 vertex $-1 -1 -1 $-1 $175 $306 #
-241 straight-curve $-1 -1 -1 $-1 6.0499999999999998 3.8163916471489756e-013 70.000000000002998 1.1635698352010076e-026 1000 8.2090837949562646e-027 I I #
-242 vertex $-1 -1 -1 $-1 $304 $307 #
-243 straight-curve $-1 -1 -1 $-1 2.4500000000000077 3.8163916471489756e-013 70.000000000002998 1.1635698352010076e-026 1000 8.2090837949562646e-027 I I #
-244 edge $-1 -1 -1 $-1 $181 1.091782296347747e-074 $180 3.1415926535897931 $178 $308 forward @7 unknown F #
-245 loop $-1 -1 -1 $-1 $309 $284 $246 F unknown #
-246 face $310 -1 -1 $-1 $299 $179 $4 $-1 $311 reversed single F F #
-247 point $-1 -1 -1 $-1 6.0499999999999998 -10.999999999999982 70.000000000002998 #
-248 point $-1 -1 -1 $-1 2.4500000000000077 -10.999999999999982 70.000000000002998 #
-249 coedge $-1 -1 -1 $-1 $183 $183 $186 $252 reversed $250 $-1 #
-250 loop $-1 -1 -1 $-1 $312 $249 $159 F unknown #
-251 ellipse-curve $-1 -1 -1 $-1 4.2500000000000036 3.8857805861880479e-013 5.0000000000000044 1.1635698352010077e-029 1 8.2090837949562648e-030 -3.249999999999996 -4.9303806576313238e-029 -1.1275702593849246e-014 1 I I #
-252 edge $-1 -1 -1 $-1 $190 -8.3266726846887554e-017 $188 3.1415926535897931 $186 $313 forward @7 unknown F #
-253 face $314 -1 -1 $-1 $146 $187 $4 $-1 $315 reversed single F T -0.92307692307692457 2.717019002405465e-029 -8.3266726846888787e-017 3.1415926535897931 #
-254 point $-1 -1 -1 $-1 7.5 3.8857805861880474e-013 5.000000000000016 #
-255 point $-1 -1 -1 $-1 1.0000000000000078 3.8857805861880474e-013 4.9999999999999929 #
-256 ellipse-curve $-1 -1 -1 $-1 4.2500000000000036 -2.9999999999996141 5.0000000000000044 1.1635698352010077e-029 1 8.2090837949562648e-030 -3.2499999999999996 -0 -1.1275702593849246e-014 1 I I #
-257 integer_attrib-name_attrib-gen-attrib $-1 -1 $-1 $-1 $193 2 1 2 1 1 1 1 1 1 1 1 1 1 1 0 1 1 1 @10 Move Face1 0 #
-258 plane-surface $-1 -1 -1 $-1 4.2500000000000178 -2.9999999999996141 6.8000000000000007 1.1044052673094193e-029 -1 -8.2090837949561877e-030 1000 1.1044052673094165e-026 3.4139358007223976e-012 forward_v I I I I #
-259 ellipse-curve $-1 -1 -1 $-1 4.2500000000000036 3.8163916471489756e-013 70.000000000002998 1.1635698352010077e-029 1 8.2090837949562648e-030 -3.249999999999996 -4.9303806576313238e-029 -1.3877787807814457e-014 1 I I #
-260 integer_attrib-name_attrib-gen-attrib $-1 -1 $-1 $-1 $200 2 1 2 1 1 1 1 1 1 1 1 1 1 1 0 1 1 1 @10 Move Face1 0 #
-261 cone-surface $-1 -1 -1 $-1 4.2500000000000036 3.8163916471489756e-013 70.000000000002998 1.1635698352010077e-029 1 8.2090837949562648e-030 -3.249999999999996 -4.9303806576313238e-029 -1.3877787807814457e-014 1 I I 0 1 3.249999999999996 forward I I I I #
-262 integer_attrib-name_attrib-gen-attrib $-1 -1 $-1 $-1 $210 2 1 2 1 1 1 1 1 1 1 1 1 1 1 0 1 1 1 @10 Move Face1 0 #
-263 face $316 -1 -1 $-1 $317 $318 $4 $-1 $319 forward single F F #
-264 loop $-1 -1 -1 $-1 $-1 $320 $210 F unknown #
-265 cone-surface $-1 -1 -1 $-1 12.499999999999996 -10.999999999999954 14.776826123887393 -3.1910437439239492e-015 -8.3782833718874159e-030 -1 -7.600000000000013 -0 -2.6020852139652106e-014 1 I I 0 1 7.600000000000013 forward I I I I #
-266 integer_attrib-name_attrib-gen-attrib $-1 -1 $-1 $-1 $213 2 1 2 1 1 1 1 1 1 1 1 1 1 1 0 1 1 1 @10 Move Face1 0 #
-267 face $321 -1 -1 $-1 $322 $323 $4 $-1 $324 reversed single F F #
-268 loop $-1 -1 -1 $-1 $-1 $288 $213 F unknown #
-269 plane-surface $-1 -1 -1 $-1 20.750000000000018 -3.3999999999999861 70.000000000002998 -1.1044052673094193e-029 1 8.2090837949561877e-030 -1000 -1.1044052673094165e-026 -3.4139358007223976e-012 forward_v I I I I #
-270 integer_attrib-name_attrib-gen-attrib $-1 -1 $-1 $-1 $217 2 1 2 1 1 1 1 1 1 1 1 1 1 1 0 1 1 1 @10 Move Face1 0 #
-271 face $325 -1 -1 $-1 $305 $292 $4 $-1 $326 reversed single F T -6.1111111111111107 -1.8888888888888893 1.5506047168250715e-029 3.1415926535897931 #
-272 loop $-1 -1 -1 $-1 $-1 $280 $217 F unknown #
-273 cone-surface $-1 -1 -1 $-1 4.2500000000000036 3.8857805861880479e-013 5.0000000000000044 1.1635698352010077e-029 1 8.2090837949562648e-030 -1.7999999999999943 -0 -6.0715321659188248e-015 1 I I 0 1 1.7999999999999943 forward I I I I #
-274 coedge $-1 -1 -1 $-1 $327 $328 $275 $329 reversed $218 $-1 #
-275 coedge $-1 -1 -1 $-1 $330 $220 $274 $329 forward $166 $-1 #
-276 coedge $-1 -1 -1 $-1 $220 $330 $331 $332 reversed $166 $-1 #
-277 coedge $-1 -1 -1 $-1 $333 $333 $220 $278 forward $334 $-1 #
-278 edge $-1 -1 -1 $-1 $335 -3.1415926535897931 $336 -8.0953762212249256e-017 $277 $337 forward @7 unknown F #
-279 coedge $-1 -1 -1 $-1 $222 $221 $338 $339 reversed $119 $-1 #
-280 coedge $-1 -1 -1 $-1 $340 $341 $221 $281 reversed $272 $-1 #
-281 edge $-1 -1 -1 $-1 $285 -0.011000000000000371 $342 -0.0034000000000000002 $221 $343 forward @7 unknown F #
-282 coedge $-1 -1 -1 $-1 $341 $340 $222 $283 forward $272 $-1 #
-283 edge $-1 -1 -1 $-1 $286 -0.011000000000000371 $344 -0.0034000000000000002 $282 $345 forward @7 unknown F #
-284 coedge $-1 -1 -1 $-1 $223 $223 $340 $346 forward $245 $-1 #
-285 vertex $-1 -1 -1 $-1 $281 $347 #
-286 vertex $-1 -1 -1 $-1 $224 $348 #
-287 ellipse-curve $-1 -1 -1 $-1 4.2500000000000036 -10.999999999999982 5.0000000000000044 1.1635698352010077e-029 1 8.2090837949562648e-030 -1.7999999999999943 -0 -6.0715321659188248e-015 1 I I #
-288 coedge $-1 -1 -1 $-1 $349 $349 $225 $289 forward $268 $-1 #
-289 edge $-1 -1 -1 $-1 $295 -7.7098821154524932e-015 $293 3.1415926535897851 $288 $350 forward @7 unknown F #
-290 coedge $-1 -1 -1 $-1 $228 $226 $230 $297 reversed $292 $-1 #
-291 coedge $-1 -1 -1 $-1 $226 $228 $349 $351 reversed $292 $-1 #
-292 loop $-1 -1 -1 $-1 $-1 $226 $271 F unknown #
-293 vertex $-1 -1 -1 $-1 $227 $352 #
-294 straight-curve $-1 -1 -1 $-1 22.550000000000015 6.9388939039072481e-015 70.000000000002998 1.1635698352010076e-026 1000 8.2090837949562646e-027 I I #
-295 vertex $-1 -1 -1 $-1 $351 $353 #
-296 straight-curve $-1 -1 -1 $-1 18.950000000000024 6.9388939039072087e-015 70.000000000002998 1.1635698352010076e-026 1000 8.2090837949562646e-027 I I #
-297 edge $-1 -1 -1 $-1 $233 0 $232 3.1415926535897931 $230 $354 forward @7 unknown F #
-298 loop $-1 -1 -1 $-1 $-1 $355 $299 F unknown #
-299 face $356 -1 -1 $-1 $357 $334 $4 $-1 $358 reversed single F F #
-300 point $-1 -1 -1 $-1 22.550000000000036 -10.999999999999968 70.000000000002998 #
-301 point $-1 -1 -1 $-1 18.950000000000042 -10.999999999999968 70.000000000002998 #
-302 coedge $-1 -1 -1 $-1 $235 $235 $238 $304 forward $214 $-1 #
-303 ellipse-curve $-1 -1 -1 $-1 4.2500000000000036 -3.3999999999996184 70.000000000002998 -1.1635698352010077e-029 -1 -8.2090837949562648e-030 -1.799999999999996 -0 -1.3877787807814457e-014 1 I I #
-304 edge $-1 -1 -1 $-1 $240 -3.1415926535898011 $242 -7.7098821154524932e-015 $302 $359 forward @7 unknown F #
-305 face $360 -1 -1 $-1 $246 $239 $4 $-1 $361 reversed single F T -6.1111111111113265 -1.8888888888888931 1.5506047168250754e-029 3.1415926535897931 #
-306 point $-1 -1 -1 $-1 6.0499999999999998 -3.3999999999996184 70.000000000002998 #
-307 point $-1 -1 -1 $-1 2.4500000000000077 -3.3999999999996184 70.000000000002998 #
-308 ellipse-curve $-1 -1 -1 $-1 4.2500000000000036 -10.999999999999982 70.000000000002998 1.1635698352010077e-029 1 8.2090837949562648e-030 -1.799999999999996 0 0 1 I I #
-309 loop $-1 -1 -1 $-1 $-1 $362 $246 F unknown #
-310 integer_attrib-name_attrib-gen-attrib $-1 -1 $-1 $-1 $246 2 1 2 1 1 1 1 1 1 1 1 1 1 1 0 1 1 1 @10 Move Face1 0 #
-311 plane-surface $-1 -1 -1 $-1 12.499999999999996 -10.999999999999954 37.500000000001535 -1.1044052673094193e-029 1 8.2090837949561877e-030 -1000 -1.1044052673094165e-026 -3.4139358007223976e-012 forward_v I I I I #
-312 loop $-1 -1 -1 $-1 $-1 $363 $159 F unknown #
-313 ellipse-curve $-1 -1 -1 $-1 4.2500000000000036 3.8857805861880479e-013 5.0000000000000044 1.1635698352010077e-029 1 8.2090837949562648e-030 -3.249999999999996 -4.9303806576313238e-029 -1.1275702593849246e-014 1 I I #
-314 integer_attrib-name_attrib-gen-attrib $-1 -1 $-1 $-1 $253 2 1 2 1 1 1 1 1 1 1 1 1 1 1 0 1 1 1 @10 Move Face1 0 #
-315 cone-surface $-1 -1 -1 $-1 4.2500000000000036 3.8857805861880479e-013 5.0000000000000044 1.1635698352010077e-029 1 8.2090837949562648e-030 -3.2499999999999978 -4.9303806576313238e-029 -1.1275702593849246e-014 1 I I 0 1 3.2499999999999978 forward I I I I #
-316 integer_attrib-name_attrib-gen-attrib $-1 -1 $-1 $-1 $263 2 1 2 1 1 1 1 1 1 1 1 1 1 1 0 1 1 1 @10 Move Face1 0 #
-317 face $364 -1 -1 $-1 $193 $365 $4 $-1 $366 reversed single F T -1.9826794919243513 -1.9736728277249904 -1.6611450618972493e-027 3.1415926535897931 #
-318 loop $-1 -1 -1 $-1 $-1 $367 $263 F unknown #
-319 plane-surface $-1 -1 -1 $-1 20.099999999999632 -10.999999999999192 10.000000000000037 -3.3592721013644685e-015 8.3782833718873445e-030 1 1000 1.1044052673094165e-026 3.3592721013644684e-012 forward_v I I I I #
-320 coedge $-1 -1 -1 $-1 $368 $369 $370 $371 forward $264 $-1 #
-321 integer_attrib-name_attrib-gen-attrib $-1 -1 $-1 $-1 $267 2 1 2 1 1 1 1 1 1 1 1 1 1 1 0 1 1 1 @10 Move Face1 0 #
-322 face $372 -1 -1 $-1 $-1 $373 $4 $-1 $374 reversed single F F #
-323 loop $-1 -1 -1 $-1 $-1 $338 $267 F unknown #
-324 plane-surface $-1 -1 -1 $-1 4.2500000000000036 -3.3999999999996118 5.0000000000000044 -1.1044052673094193e-029 1 8.2090837949561877e-030 -1000 -1.1044052673094165e-026 -3.4139358007223976e-012 forward_v I I I I #
-325 integer_attrib-name_attrib-gen-attrib $-1 -1 $-1 $-1 $271 2 1 2 1 1 1 1 1 1 1 1 1 1 1 0 1 1 1 @10 Move Face1 0 #
-326 cone-surface $-1 -1 -1 $-1 20.750000000000018 6.9388939039072284e-015 70.000000000002998 1.1635698352010077e-029 1 8.2090837949562648e-030 -1.799999999999996 -2.0029671421627253e-029 0 1 I I 0 1 1.799999999999996 forward I I I I #
-327 coedge $-1 -1 -1 $-1 $331 $274 $333 $375 reversed $218 $-1 #
-328 coedge $-1 -1 -1 $-1 $274 $331 $376 $377 reversed $218 $-1 #
-329 edge $-1 -1 -1 $-1 $335 -0.010999999999999207 $378 -0.0033999999999999725 $275 $379 forward @7 unknown F #
-330 coedge $-1 -1 -1 $-1 $276 $275 $380 $381 reversed $166 $-1 #
-331 coedge $-1 -1 -1 $-1 $328 $327 $276 $332 forward $218 $-1 #
-332 edge $-1 -1 -1 $-1 $336 -0.010999999999999207 $382 -0.0033999999999999725 $331 $383 forward @7 unknown F #
-333 coedge $-1 -1 -1 $-1 $277 $277 $327 $375 forward $334 $-1 #
-334 loop $-1 -1 -1 $-1 $231 $333 $299 F unknown #
-335 vertex $-1 -1 -1 $-1 $329 $384 #
-336 vertex $-1 -1 -1 $-1 $278 $385 #
-337 ellipse-curve $-1 -1 -1 $-1 20.750000000000004 -10.999999999999192 5.000000000000032 1.1635698352010077e-029 1 8.2090837949562648e-030 -1.799999999999996 -0 -6.0715321659188248e-015 1 I I #
-338 coedge $-1 -1 -1 $-1 $386 $386 $279 $339 forward $323 $-1 #
-339 edge $-1 -1 -1 $-1 $344 8.0953762212251918e-017 $342 3.1415926535897931 $338 $387 forward @7 unknown F #
-340 coedge $-1 -1 -1 $-1 $282 $280 $284 $346 reversed $272 $-1 #
-341 coedge $-1 -1 -1 $-1 $280 $282 $386 $388 reversed $272 $-1 #
-342 vertex $-1 -1 -1 $-1 $281 $389 #
-343 straight-curve $-1 -1 -1 $-1 6.049999999999998 3.8857805861880479e-013 5.0000000000000107 1.1635698352010076e-026 1000 8.2090837949562646e-027 I I #
-344 vertex $-1 -1 -1 $-1 $388 $390 #
-345 straight-curve $-1 -1 -1 $-1 2.4500000000000095 3.8857805861880479e-013 4.9999999999999982 1.1635698352010076e-026 1000 8.2090837949562646e-027 I I #
-346 edge $-1 -1 -1 $-1 $286 -8.0953762212251918e-017 $285 3.1415926535897931 $284 $391 forward @7 unknown F #
-347 point $-1 -1 -1 $-1 6.049999999999998 -10.999999999999982 5.0000000000000107 #
-348 point $-1 -1 -1 $-1 2.4500000000000095 -10.999999999999982 4.9999999999999982 #
-349 coedge $-1 -1 -1 $-1 $288 $288 $291 $351 forward $268 $-1 #
-350 ellipse-curve $-1 -1 -1 $-1 20.750000000000018 -3.3999999999999861 70.000000000002998 -1.1635698352010077e-029 -1 -8.2090837949562648e-030 -1.799999999999996 -0 -1.3877787807814457e-014 1 I I #
-351 edge $-1 -1 -1 $-1 $293 -3.1415926535898011 $295 -7.7098821154524932e-015 $349 $392 forward @7 unknown F #
-352 point $-1 -1 -1 $-1 22.550000000000015 -3.3999999999999861 70.000000000002998 #
-353 point $-1 -1 -1 $-1 18.950000000000024 -3.3999999999999861 70.000000000002998 #
-354 ellipse-curve $-1 -1 -1 $-1 20.750000000000039 -10.999999999999968 70.000000000002998 1.1635698352010077e-029 1 8.2090837949562648e-030 -1.799999999999996 0 0 1 I I #
-355 coedge $-1 -1 -1 $-1 $370 $393 $394 $395 reversed $298 $-1 #
-356 integer_attrib-name_attrib-gen-attrib $-1 -1 $-1 $-1 $299 2 1 2 1 1 1 1 1 1 1 1 1 1 1 0 1 1 1 @10 Move Face1 0 #
-357 face $396 -1 -1 $-1 $397 $398 $4 $-1 $399 reversed single F T -6.5503158452884204e-015 2.000000000000008 1.5241141682053979e-013 3.1415926535897993 #
-358 plane-surface $-1 -1 -1 $-1 12.499999999999996 -10.999999999999954 37.500000000001535 -1.1044052673094193e-029 1 8.2090837949561877e-030 -1000 -1.1044052673094165e-026 -3.4139358007223976e-012 forward_v I I I I #
-359 ellipse-curve $-1 -1 -1 $-1 4.2500000000000036 -3.3999999999996184 70.000000000002998 -1.1635698352010077e-029 -1 -8.2090837949562648e-030 -1.799999999999996 -0 -1.3877787807814457e-014 1 I I #
-360 integer_attrib-name_attrib-gen-attrib $-1 -1 $-1 $-1 $305 2 1 2 1 1 1 1 1 1 1 1 1 1 1 0 1 1 1 @10 Move Face1 0 #
-361 cone-surface $-1 -1 -1 $-1 4.2500000000000036 3.8163916471489756e-013 70.000000000002998 1.1635698352010077e-029 1 8.2090837949562648e-030 -1.799999999999996 0 0 1 I I 0 1 1.799999999999996 forward I I I I #
-362 coedge $-1 -1 -1 $-1 $400 $401 $367 $402 reversed $309 $-1 #
-363 coedge $-1 -1 -1 $-1 $403 $404 $405 $406 forward $312 $-1 #
-364 integer_attrib-name_attrib-gen-attrib $-1 -1 $-1 $-1 $317 2 1 2 1 1 1 1 1 1 1 1 1 1 1 0 1 1 1 @10 Move Face1 0 #
-365 loop $-1 -1 -1 $-1 $-1 $407 $317 F unknown #
-366 cone-surface $-1 -1 -1 $-1 12.499999999996806 -10.999999999999982 -931.33641386247359 -3.1910437439239492e-015 -8.3782833718874159e-030 -1 -577.35026918961023 0 1.7763568394002505e-012 1 I I 0.50000000000000111 0.86602540378443804 577.35026918961023 forward I I I I #
-367 coedge $-1 -1 -1 $-1 $408 $409 $362 $402 forward $318 $-1 #
-368 coedge $-1 -1 -1 $-1 $410 $320 $411 $412 reversed $264 $-1 #
-369 coedge $-1 -1 -1 $-1 $320 $410 $409 $413 forward $264 $-1 #
-370 coedge $-1 -1 -1 $-1 $414 $355 $320 $371 reversed $298 $-1 #
-371 edge $-1 -1 -1 $-1 $415 0 $416 0.045500000000001511 $320 $417 forward @7 unknown F #
-372 integer_attrib-name_attrib-gen-attrib $-1 -1 $-1 $-1 $322 2 1 2 1 1 1 1 1 1 1 1 1 1 1 0 1 1 1 @10 Move Face1 0 #
-373 loop $-1 -1 -1 $-1 $-1 $380 $322 F unknown #
-374 plane-surface $-1 -1 -1 $-1 20.750000000000011 -3.3999999999999586 5.000000000000032 -1.1044052673094193e-029 1 8.2090837949561877e-030 -1000 -1.1044052673094165e-026 -3.4139358007223976e-012 forward_v I I I I #
-375 edge $-1 -1 -1 $-1 $336 -8.0953762212249256e-017 $335 3.1415926535897931 $333 $418 forward @7 unknown F #
-376 coedge $-1 -1 -1 $-1 $380 $380 $328 $377 forward $373 $-1 #
-377 edge $-1 -1 -1 $-1 $378 -3.1415926535897931 $382 8.0953762212249256e-017 $376 $419 forward @7 unknown F #
-378 vertex $-1 -1 -1 $-1 $329 $420 #
-379 straight-curve $-1 -1 -1 $-1 22.550000000000008 1.3877787807814476e-014 5.0000000000000382 1.1635698352010076e-026 1000 8.2090837949562646e-027 I I #
-380 coedge $-1 -1 -1 $-1 $376 $376 $330 $381 forward $373 $-1 #
-381 edge $-1 -1 -1 $-1 $382 8.0953762212249256e-017 $378 3.1415926535897931 $380 $421 forward @7 unknown F #
-382 vertex $-1 -1 -1 $-1 $377 $422 #
-383 straight-curve $-1 -1 -1 $-1 18.950000000000017 1.3877787807814436e-014 5.0000000000000258 1.1635698352010076e-026 1000 8.2090837949562646e-027 I I #
-384 point $-1 -1 -1 $-1 22.550000000000001 -10.999999999999192 5.0000000000000382 #
-385 point $-1 -1 -1 $-1 18.95000000000001 -10.999999999999192 5.0000000000000258 #
-386 coedge $-1 -1 -1 $-1 $338 $338 $341 $388 forward $323 $-1 #
-387 ellipse-curve $-1 -1 -1 $-1 4.2500000000000036 -3.3999999999996118 5.0000000000000044 -1.1635698352010077e-029 -1 -8.2090837949562648e-030 -1.7999999999999943 -0 -6.0715321659188248e-015 1 I I #
-388 edge $-1 -1 -1 $-1 $342 -3.1415926535897931 $344 8.0953762212251918e-017 $386 $423 forward @7 unknown F #
-389 point $-1 -1 -1 $-1 6.049999999999998 -3.3999999999996118 5.0000000000000107 #
-390 point $-1 -1 -1 $-1 2.4500000000000095 -3.3999999999996118 4.9999999999999982 #
-391 ellipse-curve $-1 -1 -1 $-1 4.2500000000000036 -10.999999999999982 5.0000000000000044 1.1635698352010077e-029 1 8.2090837949562648e-030 -1.7999999999999943 -0 -6.0715321659188248e-015 1 I I #
-392 ellipse-curve $-1 -1 -1 $-1 20.750000000000018 -3.3999999999999861 70.000000000002998 -1.1635698352010077e-029 -1 -8.2090837949562648e-030 -1.799999999999996 -0 -1.3877787807814457e-014 1 I I #
-393 coedge $-1 -1 -1 $-1 $355 $424 $425 $426 forward $298 $-1 #
-394 coedge $-1 -1 -1 $-1 $427 $411 $355 $395 forward $365 $-1 #
-395 edge $-1 -1 -1 $-1 $416 -0.015200000000001284 $428 -0.010000000000001303 $394 $429 forward @7 unknown F #
-396 integer_attrib-name_attrib-gen-attrib $-1 -1 $-1 $-1 $357 2 1 2 1 1 1 1 1 1 1 1 1 1 1 0 1 1 1 @10 Move Face1 0 #
-397 face $430 -1 -1 $-1 $431 $432 $4 $-1 $433 reversed single F T 12.000666419936103 15.00000000000059 8.1712414612406025e-015 3.1415926535897993 #
-398 loop $-1 -1 -1 $-1 $-1 $434 $357 F unknown #
-399 cone-surface $-1 -1 -1 $-1 12.500000000000011 -10.999999999999954 2.7755575615628914e-014 3.1363800445660227e-015 8.409380509172222e-030 1 5.0000000000000044 0 1.7069679003612003e-014 1 I I 0 1 5.0000000000000044 forward I I I I #
-400 coedge $-1 -1 -1 $-1 $435 $362 $410 $436 reversed $309 $-1 #
-401 coedge $-1 -1 -1 $-1 $362 $437 $438 $439 forward $309 $-1 #
-402 edge $-1 -1 -1 $-1 $440 -0.0076000000000000087 $441 -0.0049999999999999897 $367 $442 forward @7 unknown F #
-403 coedge $-1 -1 -1 $-1 $443 $363 $444 $445 forward $312 $-1 #
-404 coedge $-1 -1 -1 $-1 $363 $443 $446 $447 forward $312 $-1 #
-405 coedge $-1 -1 -1 $-1 $448 $449 $363 $406 reversed $450 $-1 #
-406 edge $-1 -1 -1 $-1 $451 -0 $452 0.02499999999999962 $363 $453 forward @7 unknown F #
-407 coedge $-1 -1 -1 $-1 $411 $427 $435 $454 forward $365 $-1 #
-408 coedge $-1 -1 -1 $-1 $455 $367 $434 $456 forward $318 $-1 #
-409 coedge $-1 -1 -1 $-1 $367 $455 $369 $413 reversed $318 $-1 #
-410 coedge $-1 -1 -1 $-1 $369 $368 $400 $436 forward $264 $-1 #
-411 coedge $-1 -1 -1 $-1 $394 $407 $368 $412 forward $365 $-1 #
-412 edge $-1 -1 -1 $-1 $457 -3.7396986092636795e-015 $416 3.1415926535897949 $411 $458 forward @7 unknown F #
-413 edge $-1 -1 -1 $-1 $440 -3.7396986092636779e-015 $415 3.1415926535896928 $369 $459 forward @7 unknown F #
-414 coedge $-1 -1 -1 $-1 $460 $370 $455 $461 reversed $298 $-1 #
-415 vertex $-1 -1 -1 $-1 $461 $462 #
-416 vertex $-1 -1 -1 $-1 $371 $463 #
-417 straight-curve $-1 -1 -1 $-1 20.099999999999632 -10.999999999999192 10.000000000000037 3.1910437439239491e-012 8.3782833718874166e-027 1000 I I #
-418 ellipse-curve $-1 -1 -1 $-1 20.750000000000004 -10.999999999999192 5.000000000000032 1.1635698352010077e-029 1 8.2090837949562648e-030 -1.799999999999996 -0 -6.0715321659188248e-015 1 I I #
-419 ellipse-curve $-1 -1 -1 $-1 20.750000000000011 -3.3999999999999586 5.000000000000032 -1.1635698352010077e-029 -1 -8.2090837949562648e-030 -1.799999999999996 -0 -6.0715321659188248e-015 1 I I #
-420 point $-1 -1 -1 $-1 22.550000000000008 -3.3999999999999586 5.0000000000000382 #
-421 ellipse-curve $-1 -1 -1 $-1 20.750000000000011 -3.3999999999999586 5.000000000000032 -1.1635698352010077e-029 -1 -8.2090837949562648e-030 -1.799999999999996 -0 -6.0715321659188248e-015 1 I I #
-422 point $-1 -1 -1 $-1 18.950000000000017 -3.3999999999999586 5.0000000000000258 #
-423 ellipse-curve $-1 -1 -1 $-1 4.2500000000000036 -3.3999999999996118 5.0000000000000044 -1.1635698352010077e-029 -1 -8.2090837949562648e-030 -1.7999999999999943 -0 -6.0715321659188248e-015 1 I I #
-424 coedge $-1 -1 -1 $-1 $393 $464 $465 $466 reversed $298 $-1 #
-425 coedge $-1 -1 -1 $-1 $467 $468 $393 $426 reversed $432 $-1 #
-426 edge $-1 -1 -1 $-1 $469 -0.075000000000002981 $428 -0.06000333209968059 $393 $470 forward @7 unknown F #
-427 coedge $-1 -1 -1 $-1 $407 $394 $468 $471 forward $365 $-1 #
-428 vertex $-1 -1 -1 $-1 $395 $472 #
-429 straight-curve $-1 -1 -1 $-1 12.499999999999996 -10.999999999999982 68.663586137526494 -499.99999999998988 7.8886090522099396e-028 866.02540378444462 I I #
-430 integer_attrib-name_attrib-gen-attrib $-1 -1 $-1 $-1 $397 2 1 2 1 1 1 1 1 1 1 1 1 1 1 0 1 1 1 @10 Move Face1 0 #
-431 face $473 -1 -1 $-1 $474 $450 $4 $-1 $475 reversed single F F #
-432 loop $-1 -1 -1 $-1 $-1 $468 $397 F unknown #
-433 cone-surface $-1 -1 -1 $-1 12.500000000000011 -10.999999999999954 2.7755575615628914e-014 3.1363800445660227e-015 8.409380509172222e-030 1 5.0000000000000044 0 1.7069679003612003e-014 1 I I 0 1 5.0000000000000044 forward I I I I #
-434 coedge $-1 -1 -1 $-1 $438 $476 $408 $456 reversed $398 $-1 #
-435 coedge $-1 -1 -1 $-1 $477 $400 $407 $454 reversed $309 $-1 #
-436 edge $-1 -1 -1 $-1 $457 -0 $440 0.045500000000002983 $410 $478 forward @7 unknown F #
-437 coedge $-1 -1 -1 $-1 $401 $479 $480 $481 reversed $309 $-1 #
-438 coedge $-1 -1 -1 $-1 $482 $434 $401 $439 reversed $398 $-1 #
-439 edge $-1 -1 -1 $-1 $483 0 $441 0.010000000000000064 $401 $484 forward @7 unknown F #
-440 vertex $-1 -1 -1 $-1 $436 $485 #
-441 vertex $-1 -1 -1 $-1 $402 $486 #
-442 straight-curve $-1 -1 -1 $-1 12.499999999999996 -10.999999999999954 10.000000000000037 1000 1.1044052673094165e-026 3.3592721013644684e-012 I I #
-443 coedge $-1 -1 -1 $-1 $404 $403 $487 $488 forward $312 $-1 #
-444 coedge $-1 -1 -1 $-1 $489 $490 $403 $445 reversed $491 $-1 #
-445 edge $-1 -1 -1 $-1 $452 1.1623319171248657e-046 $492 0.075000000000003009 $403 $493 forward @7 unknown F #
-446 coedge $-1 -1 -1 $-1 $494 $495 $404 $447 reversed $496 $-1 #
-447 edge $-1 -1 -1 $-1 $497 -0 $451 0.075000000000001649 $404 $498 forward @7 unknown F #
-448 coedge $-1 -1 -1 $-1 $499 $405 $495 $500 forward $450 $-1 #
-449 coedge $-1 -1 -1 $-1 $405 $480 $489 $501 reversed $450 $-1 #
-450 loop $-1 -1 -1 $-1 $-1 $499 $431 F unknown #
-451 vertex $-1 -1 -1 $-1 $447 $502 #
-452 vertex $-1 -1 -1 $-1 $445 $503 #
-453 straight-curve $-1 -1 -1 $-1 24.99999999999962 4.0245584642661925e-013 0 -1000 -1.1044052673094165e-026 -3.4139358007223976e-012 I I #
-454 edge $-1 -1 -1 $-1 $504 0.0099999999999999794 $457 0.015200000000000021 $407 $505 forward @7 unknown F #
-455 coedge $-1 -1 -1 $-1 $409 $408 $414 $461 forward $318 $-1 #
-456 edge $-1 -1 -1 $-1 $441 -3.1415926535899512 $506 -3.0437319331610951e-013 $408 $507 forward @7 unknown F #
-457 vertex $-1 -1 -1 $-1 $454 $508 #
-458 ellipse-curve $-1 -1 -1 $-1 12.500000000000011 -10.999999999999954 55.500000000001549 -3.1910437439239492e-015 -8.3782833718874159e-030 -1 -7.6000000000000121 -0 -2.7755575615628914e-014 1 I I #
-459 ellipse-curve $-1 -1 -1 $-1 12.499999999999996 -10.999999999999954 10.000000000000037 -3.1910437439239492e-015 -8.3782833718874159e-030 -1 -7.6000000000000147 -0 -2.6020852139652106e-014 1 I I #
-460 coedge $-1 -1 -1 $-1 $509 $414 $476 $510 forward $298 $-1 #
-461 edge $-1 -1 -1 $-1 $506 0.0049999999999996306 $415 0.0075999999999996357 $455 $511 forward @7 unknown F #
-462 point $-1 -1 -1 $-1 20.099999999999632 -10.999999999999192 10.000000000000037 #
-463 point $-1 -1 -1 $-1 20.100000000000012 -10.999999999999968 55.500000000001549 #
-464 coedge $-1 -1 -1 $-1 $424 $509 $512 $513 reversed $298 $-1 #
-465 coedge $-1 -1 -1 $-1 $514 $515 $424 $466 forward $516 $-1 #
-466 edge $-1 -1 -1 $-1 $469 0.017500000000000002 $517 0.024999999999999994 $465 $518 forward @7 unknown F #
-467 coedge $-1 -1 -1 $-1 $519 $425 $515 $520 forward $432 $-1 #
-468 coedge $-1 -1 -1 $-1 $425 $519 $427 $471 reversed $432 $-1 #
-469 vertex $-1 -1 -1 $-1 $426 $521 #
-470 straight-curve $-1 -1 -1 $-1 17.5 -10.999999999999192 2.7755575615628914e-014 -3.1363800445660228e-012 -8.4093805091722214e-027 -1000 I I #
-471 edge $-1 -1 -1 $-1 $428 -3.141592653589635 $504 1.0888512314011212e-014 $427 $522 forward @7 unknown F #
-472 point $-1 -1 -1 $-1 17.500000000000028 -10.999999999999192 60.00333209968062 #
-473 integer_attrib-name_attrib-gen-attrib $-1 -1 $-1 $-1 $431 2 1 2 1 1 1 1 1 1 1 1 1 1 1 0 1 1 1 @10 Move Face1 0 #
-474 face $523 -1 -1 $-1 $524 $491 $4 $-1 $525 reversed single F F #
-475 plane-surface $-1 -1 -1 $-1 24.99999999999962 4.0245584642661925e-013 0 -3.4139358007223974e-015 8.4093805091721492e-030 1 1000 1.1044052673094165e-026 3.4139358007223976e-012 forward_v I I I I #
-476 coedge $-1 -1 -1 $-1 $434 $482 $460 $510 reversed $398 $-1 #
-477 coedge $-1 -1 -1 $-1 $526 $435 $519 $527 forward $309 $-1 #
-478 straight-curve $-1 -1 -1 $-1 4.9000000000000155 -10.999999999999982 55.500000000002991 -3.1910437439239491e-012 -8.3782833718874166e-027 -1000 I I #
-479 coedge $-1 -1 -1 $-1 $437 $526 $528 $529 reversed $309 $-1 #
-480 coedge $-1 -1 -1 $-1 $449 $530 $437 $481 forward $450 $-1 #
-481 edge $-1 -1 -1 $-1 $483 0.017499999999999984 $531 0.025000000000000008 $480 $532 forward @7 unknown F #
-482 coedge $-1 -1 -1 $-1 $476 $438 $530 $533 reversed $398 $-1 #
-483 vertex $-1 -1 -1 $-1 $439 $534 #
-484 straight-curve $-1 -1 -1 $-1 7.5000000000000071 -10.999999999999982 2.7755575615628914e-014 3.1363800445660228e-012 8.4093805091722214e-027 1000 I I #
-485 point $-1 -1 -1 $-1 4.8999999999999879 -10.999999999999982 10.000000000000009 #
-486 point $-1 -1 -1 $-1 7.5000000000000071 -10.999999999999982 10.000000000000092 #
-487 coedge $-1 -1 -1 $-1 $535 $514 $443 $488 reversed $516 $-1 #
-488 edge $-1 -1 -1 $-1 $492 0 $497 0.024999999999999977 $443 $536 forward @7 unknown F #
-489 coedge $-1 -1 -1 $-1 $528 $444 $449 $501 forward $491 $-1 #
-490 coedge $-1 -1 -1 $-1 $444 $528 $535 $537 reversed $491 $-1 #
-491 loop $-1 -1 -1 $-1 $-1 $528 $474 F unknown #
-492 vertex $-1 -1 -1 $-1 $445 $538 #
-493 straight-curve $-1 -1 -1 $-1 0 0 0 3.2751579226441637e-012 8.3754841421510061e-027 1000 I I #
-494 coedge $-1 -1 -1 $-1 $512 $446 $514 $539 forward $496 $-1 #
-495 coedge $-1 -1 -1 $-1 $446 $512 $448 $500 reversed $496 $-1 #
-496 loop $-1 -1 -1 $-1 $-1 $512 $540 F unknown #
-497 vertex $-1 -1 -1 $-1 $488 $541 #
-498 straight-curve $-1 -1 -1 $-1 24.999999999999993 1.3877787807814457e-014 75.000000000001648 -3.2520282762978076e-012 -8.3739433981954963e-027 -1000 I I #
-499 coedge $-1 -1 -1 $-1 $530 $448 $509 $542 forward $450 $-1 #
-500 edge $-1 -1 -1 $-1 $451 -0 $543 0.011000000000000371 $448 $544 forward @7 unknown F #
-501 edge $-1 -1 -1 $-1 $452 -1.3877787807814457e-017 $531 0.010999999999999982 $489 $545 forward @7 unknown F #
-502 point $-1 -1 -1 $-1 24.99999999999962 4.0245584642661925e-013 0 #
-503 point $-1 -1 -1 $-1 0 1.3877787807814457e-014 0 #
-504 vertex $-1 -1 -1 $-1 $471 $546 #
-505 straight-curve $-1 -1 -1 $-1 12.499999999999996 -10.999999999999982 68.663586137526494 -499.99999999998965 -1.3090160646010866e-026 -866.02540378444462 I I #
-506 vertex $-1 -1 -1 $-1 $456 $547 #
-507 ellipse-curve $-1 -1 -1 $-1 12.500000000000011 -10.999999999999954 10.000000000000037 -3.1910437439239492e-015 -8.3782833718874159e-030 -1 5.0000000000000044 -7.5980888247784151e-013 1.7347234759768071e-014 1 I I #
-508 point $-1 -1 -1 $-1 4.9000000000000155 -10.999999999999982 55.500000000002991 #
-509 coedge $-1 -1 -1 $-1 $464 $460 $499 $542 reversed $298 $-1 #
-510 edge $-1 -1 -1 $-1 $506 -0.010000000000000009 $548 -0 $460 $549 forward @7 unknown F #
-511 straight-curve $-1 -1 -1 $-1 12.499999999999996 -10.999999999999954 10.000000000000037 1000 1.1044052673094165e-026 3.3592721013644684e-012 I I #
-512 coedge $-1 -1 -1 $-1 $495 $494 $464 $513 forward $496 $-1 #
-513 edge $-1 -1 -1 $-1 $517 -0 $543 0.075000000000001649 $512 $550 forward @7 unknown F #
-514 coedge $-1 -1 -1 $-1 $487 $465 $494 $539 reversed $516 $-1 #
-515 coedge $-1 -1 -1 $-1 $465 $551 $467 $520 reversed $516 $-1 #
-516 loop $-1 -1 -1 $-1 $-1 $551 $524 F unknown #
-517 vertex $-1 -1 -1 $-1 $466 $552 #
-518 straight-curve $-1 -1 -1 $-1 1.3877787807814457e-014 -10.999999999999982 75.000000000003013 1000 1.1044052673094165e-026 3.4139358007223976e-012 I I #
-519 coedge $-1 -1 -1 $-1 $468 $467 $477 $527 reversed $432 $-1 #
-520 edge $-1 -1 -1 $-1 $469 8.1712414612411452e-015 $553 3.1415926535897993 $467 $554 forward @7 unknown F #
-521 point $-1 -1 -1 $-1 17.500000000000014 -10.999999999999913 75.000000000003013 #
-522 ellipse-curve $-1 -1 -1 $-1 12.500000000000025 -10.999999999999954 60.00333209968062 3.1910437439239492e-015 8.3782833718874159e-030 1 -5.0000000000000044 2.6020852139652106e-014 -1.3877787807814457e-014 1 I I #
-523 integer_attrib-name_attrib-gen-attrib $-1 -1 $-1 $-1 $474 2 1 2 1 1 1 1 1 1 1 1 1 1 1 0 1 1 1 @10 Move Face1 0 #
-524 face $555 -1 -1 $-1 $540 $516 $4 $-1 $556 reversed single F F #
-525 plane-surface $-1 -1 -1 $-1 0 0 0 1 1.1044052673094109e-029 -3.2751579226441637e-015 -3.2751579226442498e-012 -8.3754841421512271e-027 -1000.0000000000261 forward_v I I I I #
-526 coedge $-1 -1 -1 $-1 $479 $477 $551 $557 reversed $309 $-1 #
-527 edge $-1 -1 -1 $-1 $504 0.060003332099682088 $553 0.075000000000002981 $477 $558 forward @7 unknown F #
-528 coedge $-1 -1 -1 $-1 $490 $489 $479 $529 forward $491 $-1 #
-529 edge $-1 -1 -1 $-1 $531 0 $559 0.075000000000003009 $528 $560 forward @7 unknown F #
-530 coedge $-1 -1 -1 $-1 $480 $499 $482 $533 forward $450 $-1 #
-531 vertex $-1 -1 -1 $-1 $481 $561 #
-532 straight-curve $-1 -1 -1 $-1 24.999999999999993 -10.999999999999968 0 -1000 -1.1044052673094165e-026 -3.4139358007223976e-012 I I #
-533 edge $-1 -1 -1 $-1 $548 1.5241141682054136e-013 $483 3.1415926535897993 $530 $562 forward @7 unknown F #
-534 point $-1 -1 -1 $-1 7.5000000000000071 -10.999999999999982 2.7755575615628914e-014 #
-535 coedge $-1 -1 -1 $-1 $551 $487 $490 $537 forward $516 $-1 #
-536 straight-curve $-1 -1 -1 $-1 1.3877787807814457e-014 1.3877787807814457e-014 75.000000000003013 1000 1.1044052673094165e-026 3.4139358007223976e-012 I I #
-537 edge $-1 -1 -1 $-1 $492 -0 $559 0.010999999999999996 $535 $563 forward @7 unknown F #
-538 point $-1 -1 -1 $-1 1.3877787807814457e-014 1.3877787807814457e-014 75.000000000003013 #
-539 edge $-1 -1 -1 $-1 $497 -0 $517 0.010999999999999968 $494 $564 forward @7 unknown F #
-540 face $565 -1 -1 $-1 $159 $496 $4 $-1 $566 reversed single F F #
-541 point $-1 -1 -1 $-1 24.999999999999993 1.3877787807814457e-014 75.000000000001648 #
-542 edge $-1 -1 -1 $-1 $543 -0 $548 0.0074999999999999928 $499 $567 forward @7 unknown F #
-543 vertex $-1 -1 -1 $-1 $513 $568 #
-544 straight-curve $-1 -1 -1 $-1 24.99999999999962 4.0245584642661925e-013 0 -1.1635698352010076e-026 -1000 -8.2090837949562646e-027 I I #
-545 straight-curve $-1 -1 -1 $-1 0 0 0 -1.1635698352010076e-026 -1000 -8.2090837949562646e-027 I I #
-546 point $-1 -1 -1 $-1 7.5000000000000204 -10.999999999999982 60.003332099682119 #
-547 point $-1 -1 -1 $-1 17.499999999999627 -10.999999999999192 10.000000000000037 #
-548 vertex $-1 -1 -1 $-1 $510 $569 #
-549 straight-curve $-1 -1 -1 $-1 17.5 -10.999999999999192 2.7755575615628914e-014 -3.1363800445660228e-012 -8.4093805091722214e-027 -1000 I I #
-550 straight-curve $-1 -1 -1 $-1 25.000000000000007 -10.999999999999954 75.000000000001648 -3.2520282762978076e-012 -8.3739433981954963e-027 -1000 I I #
-551 coedge $-1 -1 -1 $-1 $515 $535 $526 $557 forward $516 $-1 #
-552 point $-1 -1 -1 $-1 25.000000000000007 -10.999999999999954 75.000000000001648 #
-553 vertex $-1 -1 -1 $-1 $527 $570 #
-554 ellipse-curve $-1 -1 -1 $-1 12.500000000000011 -10.999999999999954 75.000000000003013 3.1363800445660227e-015 8.409380509172222e-030 1 5.0000000000000044 0 1.3877787807814457e-014 1 I I #
-555 integer_attrib-name_attrib-gen-attrib $-1 -1 $-1 $-1 $524 2 1 2 1 1 1 1 1 1 1 1 1 1 1 0 1 1 1 @10 Move Face1 0 #
-556 plane-surface $-1 -1 -1 $-1 1.3877787807814457e-014 1.3877787807814457e-014 75.000000000003013 3.4139358007223974e-015 -8.4093805091721492e-030 -1 -1000 -1.1044052673094165e-026 -3.4139358007223976e-012 forward_v I I I I #
-557 edge $-1 -1 -1 $-1 $559 0 $553 0.0074999999999999928 $551 $571 forward @7 unknown F #
-558 straight-curve $-1 -1 -1 $-1 7.5000000000000071 -10.999999999999982 2.7755575615628914e-014 3.1363800445660228e-012 8.4093805091722214e-027 1000 I I #
-559 vertex $-1 -1 -1 $-1 $529 $572 #
-560 straight-curve $-1 -1 -1 $-1 -1.3877787807814457e-014 -10.999999999999982 0 3.2751579226441637e-012 8.3754841421510061e-027 1000 I I #
-561 point $-1 -1 -1 $-1 -1.3877787807814457e-014 -10.999999999999982 0 #
-562 ellipse-curve $-1 -1 -1 $-1 12.500000000000011 -10.999999999999954 2.7755575615628914e-014 3.1363800445660227e-015 8.409380509172222e-030 1 5.0000000000000044 0 1.7069679003612003e-014 1 I I #
-563 straight-curve $-1 -1 -1 $-1 1.3877787807814457e-014 1.3877787807814457e-014 75.000000000003013 -1.1635698352010076e-026 -1000 -8.2090837949562646e-027 I I #
-564 straight-curve $-1 -1 -1 $-1 24.999999999999993 1.3877787807814457e-014 75.000000000001648 -1.1635698352010076e-026 -1000 -8.2090837949562646e-027 I I #
-565 integer_attrib-name_attrib-gen-attrib $-1 -1 $-1 $-1 $540 2 1 2 1 1 1 1 1 1 1 1 1 1 1 0 1 1 1 @10 Move Face1 0 #
-566 plane-surface $-1 -1 -1 $-1 24.999999999999993 1.3877787807814457e-014 75.000000000001648 -1 -1.1044052673094111e-029 3.2520282762978076e-015 3.2520282762978929e-012 8.3739433981957173e-027 1000.0000000000261 forward_v I I I I #
-567 straight-curve $-1 -1 -1 $-1 24.999999999999993 -10.999999999999968 0 -1000 -1.1044052673094165e-026 -3.4139358007223976e-012 I I #
-568 point $-1 -1 -1 $-1 24.999999999999993 -10.999999999999968 0 #
-569 point $-1 -1 -1 $-1 17.5 -10.999999999999192 2.7755575615628914e-014 #
-570 point $-1 -1 -1 $-1 7.5000000000000071 -10.999999999999982 75.000000000003013 #
-571 straight-curve $-1 -1 -1 $-1 1.3877787807814457e-014 -10.999999999999982 75.000000000003013 1000 1.1044052673094165e-026 3.4139358007223976e-012 I I #
-572 point $-1 -1 -1 $-1 1.3877787807814457e-014 -10.999999999999982 75.000000000003013 #
End-of-ACIS-data 