2200 0 1 0           
15 SolidWorks 2017 12 ACIS 22.0 NT 24 Fri Jan 05 08:37:30 2018 
1 9.9999999999999995e-007 1e-010 
-0 body $1 -1 -1 $-1 $2 $-1 $-1 F #
-1 name_attrib-gen-attrib $-1 -1 $-1 $-1 $0 2 1 1 1 1 1 1 1 1 1 1 1 1 1 0 1 1 1 @12 truss center #
-2 lump $3 -1 -1 $-1 $-1 $4 $0 F #
-3 rgb_color-st-attrib $-1 -1 $-1 $-1 $2 2 1 2 1 1 1 1 1 1 1 1 1 1 1 0 1 1 1 0.29803921568627451 0.29803921568627451 0.29803921568627451 #
-4 shell $-1 -1 -1 $-1 $-1 $-1 $5 $-1 $2 F #
-5 face $6 -1 -1 $-1 $7 $8 $4 $-1 $9 reversed single F T -0.92307692307692513 4.6411098292199331e-030 -3.1415926535897931 -6.5061485133691864e-046 #
-6 integer_attrib-name_attrib-gen-attrib $-1 -1 $-1 $-1 $5 2 1 2 1 1 1 1 1 1 1 1 1 1 1 0 1 1 1 @10 Move Face3 0 #
-7 face $10 -1 -1 $-1 $11 $12 $4 $-1 $13 reversed single F T -3.5294117647058454 -1.7647058823529393 -3.1415926535897922 -5.9127463172382693e-016 #
-8 loop $-1 -1 -1 $-1 $-1 $14 $5 F unknown #
-9 cone-surface $-1 -1 -1 $-1 4.8056163582940733e-014 191.75000000001469 -22.000000000000146 -1 3.3505562464350421e-016 2.6992983702143623e-030 8.7727197031966571e-030 -2.9393490799765863e-045 -3.249999999999996 1 I I 0 1 3.249999999999996 forward I I I I #
-10 integer_attrib-name_attrib-gen-attrib $-1 -1 $-1 $-1 $7 2 1 2 1 1 1 1 1 1 1 1 1 1 1 0 1 1 1 @10 Move Face3 0 #
-11 face $15 -1 -1 $-1 $16 $17 $4 $-1 $18 reversed single F T -0.92307692307692513 4.6411098292199331e-030 -3.1415926535897931 -6.5061485133691864e-046 #
-12 loop $-1 -1 -1 $-1 $-1 $19 $7 F unknown #
-13 cone-surface $-1 -1 -1 $-1 4.8056163582940733e-014 191.75000000001469 -22.000000000000146 -1 3.3505562464350421e-016 2.6992983702143623e-030 4.5888072293644201e-030 -1.5375056726031427e-045 -1.7000000000000035 1 I I 0 1 1.7000000000000035 forward I I I I #
-14 coedge $-1 -1 -1 $-1 $20 $21 $22 $23 reversed $8 $-1 #
-15 integer_attrib-name_attrib-gen-attrib $-1 -1 $-1 $-1 $11 2 1 2 1 1 1 1 1 1 1 1 1 1 1 0 1 1 1 @10 Move Face3 0 #
-16 face $24 -1 -1 $-1 $25 $26 $4 $-1 $27 reversed single F T -3.5294117647058423 -1.7647058823529376 -3.1415926535897922 -5.9127463172382693e-016 #
-17 loop $-1 -1 -1 $-1 $-1 $28 $11 F unknown #
-18 cone-surface $-1 -1 -1 $-1 5.2746942327949242e-014 205.75000000001467 -8.000000000000135 -1 3.3505562464350421e-016 2.6992983702143623e-030 8.7727197031966571e-030 -2.9393490799765863e-045 -3.249999999999996 1 I I 0 1 3.249999999999996 forward I I I I #
-19 coedge $-1 -1 -1 $-1 $29 $30 $31 $32 forward $12 $-1 #
-20 coedge $-1 -1 -1 $-1 $33 $14 $34 $35 forward $8 $-1 #
-21 coedge $-1 -1 -1 $-1 $14 $33 $36 $37 reversed $8 $-1 #
-22 coedge $-1 -1 -1 $-1 $38 $38 $14 $23 forward $39 $-1 #
-23 edge $-1 -1 -1 $-1 $40 -3.1415926535897931 $41 0 $22 $42 forward @7 unknown F #
-24 integer_attrib-name_attrib-gen-attrib $-1 -1 $-1 $-1 $16 2 1 2 1 1 1 1 1 1 1 1 1 1 1 0 1 1 1 @10 Move Face3 0 #
-25 face $43 -1 -1 $-1 $44 $45 $4 $-1 $46 reversed single F T -0.92307692307692313 6.5829212882254944e-030 -3.1415926535897931 -1.3012297026738983e-045 #
-26 loop $-1 -1 -1 $-1 $-1 $47 $16 F unknown #
-27 cone-surface $-1 -1 -1 $-1 5.2746942327949242e-014 205.75000000001467 -8.000000000000135 -1 3.3505562464350421e-016 2.6992983702143623e-030 4.588807229364425e-030 -1.5375056726031442e-045 -1.7000000000000053 1 I I 0 1 1.7000000000000053 forward I I I I #
-28 coedge $-1 -1 -1 $-1 $48 $49 $50 $51 reversed $17 $-1 #
-29 coedge $-1 -1 -1 $-1 $52 $19 $53 $54 forward $12 $-1 #
-30 coedge $-1 -1 -1 $-1 $19 $52 $55 $56 reversed $12 $-1 #
-31 coedge $-1 -1 -1 $-1 $57 $57 $19 $32 reversed $58 $-1 #
-32 edge $-1 -1 -1 $-1 $59 -3.1415926535897931 $60 -1.076646241844484e-061 $19 $61 forward @7 unknown F #
-33 coedge $-1 -1 -1 $-1 $21 $20 $62 $63 forward $8 $-1 #
-34 coedge $-1 -1 -1 $-1 $64 $65 $20 $35 reversed $66 $-1 #
-35 edge $-1 -1 -1 $-1 $40 -0.0030000000000000031 $67 -1.8932661725304284e-032 $20 $68 forward @7 unknown F #
-36 coedge $-1 -1 -1 $-1 $65 $64 $21 $37 forward $66 $-1 #
-37 edge $-1 -1 -1 $-1 $41 -0.0030000000000000031 $69 0 $36 $70 forward @7 unknown F #
-38 coedge $-1 -1 -1 $-1 $22 $22 $64 $71 forward $39 $-1 #
-39 loop $-1 -1 -1 $-1 $-1 $38 $72 F unknown #
-40 vertex $-1 -1 -1 $-1 $35 $73 #
-41 vertex $-1 -1 -1 $-1 $23 $74 #
-42 ellipse-curve $-1 -1 -1 $-1 3.0000000000000511 191.75000000001469 -22.000000000000146 -1 3.3505562464350421e-016 2.6992983702143623e-030 0 0 -3.249999999999996 1 I I #
-43 integer_attrib-name_attrib-gen-attrib $-1 -1 $-1 $-1 $25 2 1 2 1 1 1 1 1 1 1 1 1 1 1 0 1 1 1 @10 Move Face3 0 #
-44 face $75 -1 -1 $-1 $76 $77 $4 $-1 $78 reversed single F T -3.5294117647058383 -1.7647058823529354 -3.1415926535897931 9.0728231231734478e-016 #
-45 loop $-1 -1 -1 $-1 $-1 $79 $25 F unknown #
-46 cone-surface $-1 -1 -1 $-1 4.6524094718643804e-014 21.500000000000085 -21.999999999999918 -1 3.3505562464350421e-016 2.6992983702143623e-030 1.2325951644078309e-029 -4.1298794274317992e-045 -3.2500000000000027 1 I I 0 1 3.2500000000000027 forward I I I I #
-47 coedge $-1 -1 -1 $-1 $80 $81 $82 $83 forward $26 $-1 #
-48 coedge $-1 -1 -1 $-1 $84 $28 $85 $86 forward $17 $-1 #
-49 coedge $-1 -1 -1 $-1 $28 $84 $87 $88 reversed $17 $-1 #
-50 coedge $-1 -1 -1 $-1 $89 $89 $28 $51 forward $90 $-1 #
-51 edge $-1 -1 -1 $-1 $91 -3.1415926535897931 $92 0 $50 $93 forward @7 unknown F #
-52 coedge $-1 -1 -1 $-1 $30 $29 $94 $95 forward $12 $-1 #
-53 coedge $-1 -1 -1 $-1 $96 $97 $29 $54 reversed $98 $-1 #
-54 edge $-1 -1 -1 $-1 $60 -0.005999999999999949 $99 -0.0030000000000000031 $29 $100 forward @7 unknown F #
-55 coedge $-1 -1 -1 $-1 $97 $96 $30 $56 forward $98 $-1 #
-56 edge $-1 -1 -1 $-1 $59 -0.005999999999999949 $101 -0.0030000000000000031 $55 $102 forward @7 unknown F #
-57 coedge $-1 -1 -1 $-1 $31 $31 $96 $103 reversed $58 $-1 #
-58 loop $-1 -1 -1 $-1 $104 $31 $105 F unknown #
-59 vertex $-1 -1 -1 $-1 $103 $106 #
-60 vertex $-1 -1 -1 $-1 $54 $107 #
-61 ellipse-curve $-1 -1 -1 $-1 5.9999999999999973 191.75000000001469 -22.000000000000146 1 -3.3505562464350421e-016 -2.6992983702143623e-030 0 -0 1.7000000000000035 1 I I #
-62 coedge $-1 -1 -1 $-1 $108 $108 $33 $63 reversed $109 $-1 #
-63 edge $-1 -1 -1 $-1 $67 -3.1415926535897931 $69 6.5061485133713209e-046 $33 $110 forward @7 unknown F #
-64 coedge $-1 -1 -1 $-1 $36 $34 $38 $71 reversed $66 $-1 #
-65 coedge $-1 -1 -1 $-1 $34 $36 $108 $111 forward $66 $-1 #
-66 loop $-1 -1 -1 $-1 $-1 $34 $112 F unknown #
-67 vertex $-1 -1 -1 $-1 $35 $113 #
-68 straight-curve $-1 -1 -1 $-1 4.8056163582940727e-014 191.75000000001469 -18.750000000000149 -1000 3.3505562464350423e-013 2.6992983702143625e-027 I I #
-69 vertex $-1 -1 -1 $-1 $63 $114 #
-70 straight-curve $-1 -1 -1 $-1 4.8056163582940746e-014 191.75000000001469 -25.250000000000142 -1000 3.3505562464350423e-013 2.6992983702143625e-027 I I #
-71 edge $-1 -1 -1 $-1 $41 0 $40 3.1415926535897931 $38 $115 forward @7 unknown F #
-72 face $116 -1 -1 $-1 $112 $117 $4 $-1 $118 reversed single F F #
-73 point $-1 -1 -1 $-1 3.0000000000000511 191.75000000001469 -18.750000000000149 #
-74 point $-1 -1 -1 $-1 3.0000000000000511 191.75000000001469 -25.250000000000142 #
-75 integer_attrib-name_attrib-gen-attrib $-1 -1 $-1 $-1 $44 2 1 2 1 1 1 1 1 1 1 1 1 1 1 0 1 1 1 @10 Move Face3 0 #
-76 face $119 -1 -1 $-1 $120 $121 $4 $-1 $122 reversed single F T -0.92307692307692313 6.5829212882254944e-030 -3.1415926535897931 -1.3012297026738986e-045 #
-77 loop $-1 -1 -1 $-1 $-1 $123 $44 F unknown #
-78 cone-surface $-1 -1 -1 $-1 4.6524094718643804e-014 21.500000000000085 -21.999999999999918 -1 3.3505562464350421e-016 2.6992983702143623e-030 0 0 -1.7000000000000071 1 I I 0 1 1.7000000000000071 forward I I I I #
-79 coedge $-1 -1 -1 $-1 $124 $125 $126 $127 reversed $45 $-1 #
-80 coedge $-1 -1 -1 $-1 $128 $47 $129 $130 forward $26 $-1 #
-81 coedge $-1 -1 -1 $-1 $47 $128 $131 $132 reversed $26 $-1 #
-82 coedge $-1 -1 -1 $-1 $133 $133 $47 $83 reversed $104 $-1 #
-83 edge $-1 -1 -1 $-1 $134 -3.1415926535897931 $135 0 $47 $136 forward @7 unknown F #
-84 coedge $-1 -1 -1 $-1 $49 $48 $137 $138 forward $17 $-1 #
-85 coedge $-1 -1 -1 $-1 $139 $140 $48 $86 reversed $141 $-1 #
-86 edge $-1 -1 -1 $-1 $91 -0.0030000000000000031 $142 -1.8932661725304284e-032 $48 $143 forward @7 unknown F #
-87 coedge $-1 -1 -1 $-1 $140 $139 $49 $88 forward $141 $-1 #
-88 edge $-1 -1 -1 $-1 $92 -0.0030000000000000031 $144 0 $87 $145 forward @7 unknown F #
-89 coedge $-1 -1 -1 $-1 $50 $50 $139 $146 forward $90 $-1 #
-90 loop $-1 -1 -1 $-1 $-1 $89 $147 F unknown #
-91 vertex $-1 -1 -1 $-1 $86 $148 #
-92 vertex $-1 -1 -1 $-1 $51 $149 #
-93 ellipse-curve $-1 -1 -1 $-1 3.000000000000056 205.75000000001467 -8.000000000000135 -1 3.3505562464350421e-016 2.6992983702143623e-030 0 0 -3.249999999999996 1 I I #
-94 coedge $-1 -1 -1 $-1 $150 $150 $52 $95 reversed $117 $-1 #
-95 edge $-1 -1 -1 $-1 $99 -3.1415926535897931 $101 1.0766462418444708e-061 $52 $151 forward @7 unknown F #
-96 coedge $-1 -1 -1 $-1 $55 $53 $57 $103 forward $98 $-1 #
-97 coedge $-1 -1 -1 $-1 $53 $55 $150 $152 forward $98 $-1 #
-98 loop $-1 -1 -1 $-1 $-1 $53 $153 F unknown #
-99 vertex $-1 -1 -1 $-1 $54 $154 #
-100 straight-curve $-1 -1 -1 $-1 4.8056163582940733e-014 191.75000000001469 -20.300000000000139 -1000 3.3505562464350423e-013 2.6992983702143625e-027 I I #
-101 vertex $-1 -1 -1 $-1 $95 $155 #
-102 straight-curve $-1 -1 -1 $-1 4.805616358294074e-014 191.75000000001469 -23.700000000000149 -1000 3.3505562464350423e-013 2.6992983702143625e-027 I I #
-103 edge $-1 -1 -1 $-1 $60 -1.076646241844484e-061 $59 3.1415926535897931 $96 $156 forward @7 unknown F #
-104 loop $-1 -1 -1 $-1 $157 $82 $105 F unknown #
-105 face $158 -1 -1 $-1 $159 $58 $4 $-1 $160 forward single F F #
-106 point $-1 -1 -1 $-1 5.9999999999999973 191.75000000001469 -23.700000000000149 #
-107 point $-1 -1 -1 $-1 5.9999999999999973 191.75000000001469 -20.300000000000139 #
-108 coedge $-1 -1 -1 $-1 $62 $62 $65 $111 reversed $109 $-1 #
-109 loop $-1 -1 -1 $-1 $161 $108 $162 F unknown #
-110 ellipse-curve $-1 -1 -1 $-1 4.8056163582940733e-014 191.75000000001469 -22.000000000000146 -1 3.3505562464350421e-016 2.6992983702143623e-030 8.7727197031966571e-030 -2.9393490799765863e-045 -3.249999999999996 1 I I #
-111 edge $-1 -1 -1 $-1 $69 6.5061485133713209e-046 $67 3.1415926535897931 $65 $163 forward @7 unknown F #
-112 face $164 -1 -1 $-1 $-1 $66 $4 $-1 $165 reversed single F T -0.92307692307692513 4.6411098292199331e-030 -3.0928211505554299e-016 3.1415926535897931 #
-113 point $-1 -1 -1 $-1 4.8056163582940746e-014 191.75000000001469 -18.750000000000149 #
-114 point $-1 -1 -1 $-1 4.8056163582940746e-014 191.75000000001469 -25.250000000000142 #
-115 ellipse-curve $-1 -1 -1 $-1 3.0000000000000511 191.75000000001469 -22.000000000000146 -1 3.3505562464350421e-016 2.6992983702143623e-030 0 0 -3.249999999999996 1 I I #
-116 integer_attrib-name_attrib-gen-attrib $-1 -1 $-1 $-1 $72 2 1 2 1 1 1 1 1 1 1 1 1 1 1 0 1 1 1 @10 Move Face3 0 #
-117 loop $-1 -1 -1 $-1 $39 $150 $72 F unknown #
-118 plane-surface $-1 -1 -1 $-1 3.0000000000000502 190.05000000001468 -22.000000000000128 1 -3.3505562464350421e-016 2.6992983702143592e-030 -2.6992983702143592e-027 9.0441510153125853e-043 1000 forward_v I I I I #
-119 integer_attrib-name_attrib-gen-attrib $-1 -1 $-1 $-1 $76 2 1 2 1 1 1 1 1 1 1 1 1 1 1 0 1 1 1 @10 Move Face3 0 #
-120 face $166 -1 -1 $-1 $167 $168 $4 $-1 $169 reversed single F T -3.5294117647058378 -1.7647058823529354 -3.1415926535897931 -6.8816737782581067e-017 #
-121 loop $-1 -1 -1 $-1 $-1 $170 $76 F unknown #
-122 cone-surface $-1 -1 -1 $-1 4.183331597363529e-014 7.5000000000000853 -7.9999999999999067 -1 3.3505562464350421e-016 2.6992983702143623e-030 1.2325951644078309e-029 -4.1298794274317992e-045 -3.2500000000000027 1 I I 0 1 3.2500000000000027 forward I I I I #
-123 coedge $-1 -1 -1 $-1 $171 $172 $173 $174 forward $77 $-1 #
-124 coedge $-1 -1 -1 $-1 $175 $79 $176 $177 forward $45 $-1 #
-125 coedge $-1 -1 -1 $-1 $79 $175 $178 $179 reversed $45 $-1 #
-126 coedge $-1 -1 -1 $-1 $180 $180 $79 $127 forward $181 $-1 #
-127 edge $-1 -1 -1 $-1 $182 -3.1415926535897931 $183 -1.1783224194766636e-061 $126 $184 forward @7 unknown F #
-128 coedge $-1 -1 -1 $-1 $81 $80 $185 $186 forward $26 $-1 #
-129 coedge $-1 -1 -1 $-1 $187 $188 $80 $130 reversed $189 $-1 #
-130 edge $-1 -1 -1 $-1 $135 -0.0059999999999999507 $190 -0.0030000000000000031 $80 $191 forward @7 unknown F #
-131 coedge $-1 -1 -1 $-1 $188 $187 $81 $132 forward $189 $-1 #
-132 edge $-1 -1 -1 $-1 $134 -0.0059999999999999507 $192 -0.0030000000000000031 $131 $193 forward @7 unknown F #
-133 coedge $-1 -1 -1 $-1 $82 $82 $187 $194 reversed $104 $-1 #
-134 vertex $-1 -1 -1 $-1 $194 $195 #
-135 vertex $-1 -1 -1 $-1 $130 $196 #
-136 ellipse-curve $-1 -1 -1 $-1 6.0000000000000027 205.75000000001467 -8.000000000000135 1 -3.3505562464350421e-016 -2.6992983702143623e-030 0 -0 1.7000000000000053 1 I I #
-137 coedge $-1 -1 -1 $-1 $197 $197 $84 $138 reversed $161 $-1 #
-138 edge $-1 -1 -1 $-1 $142 -3.1415926535897931 $144 6.5061485133713209e-046 $84 $198 forward @7 unknown F #
-139 coedge $-1 -1 -1 $-1 $87 $85 $89 $146 reversed $141 $-1 #
-140 coedge $-1 -1 -1 $-1 $85 $87 $197 $199 forward $141 $-1 #
-141 loop $-1 -1 -1 $-1 $-1 $85 $200 F unknown #
-142 vertex $-1 -1 -1 $-1 $86 $201 #
-143 straight-curve $-1 -1 -1 $-1 5.2746942327949229e-014 205.75000000001467 -4.7500000000001403 -1000 3.3505562464350423e-013 2.6992983702143625e-027 I I #
-144 vertex $-1 -1 -1 $-1 $138 $202 #
-145 straight-curve $-1 -1 -1 $-1 5.2746942327949248e-014 205.75000000001467 -11.250000000000131 -1000 3.3505562464350423e-013 2.6992983702143625e-027 I I #
-146 edge $-1 -1 -1 $-1 $92 0 $91 3.1415926535897931 $89 $203 forward @7 unknown F #
-147 face $204 -1 -1 $-1 $200 $205 $4 $-1 $206 reversed single F F #
-148 point $-1 -1 -1 $-1 3.000000000000056 205.75000000001467 -4.7500000000001403 #
-149 point $-1 -1 -1 $-1 3.000000000000056 205.75000000001467 -11.250000000000131 #
-150 coedge $-1 -1 -1 $-1 $94 $94 $97 $152 reversed $117 $-1 #
-151 ellipse-curve $-1 -1 -1 $-1 3.0000000000000511 191.75000000001469 -22.000000000000146 -1 3.3505562464350421e-016 2.6992983702143623e-030 0 0 -1.7000000000000139 1 I I #
-152 edge $-1 -1 -1 $-1 $101 1.0766462418444708e-061 $99 3.1415926535897931 $97 $207 forward @7 unknown F #
-153 face $208 -1 -1 $-1 $72 $98 $4 $-1 $209 reversed single F T -3.5294117647058454 -1.7647058823529393 -1.1825492634476499e-015 3.141592653589794 #
-154 point $-1 -1 -1 $-1 3.0000000000000511 191.75000000001469 -20.300000000000132 #
-155 point $-1 -1 -1 $-1 3.0000000000000511 191.75000000001469 -23.700000000000159 #
-156 ellipse-curve $-1 -1 -1 $-1 5.9999999999999973 191.75000000001469 -22.000000000000146 1 -3.3505562464350421e-016 -2.6992983702143623e-030 0 -0 1.7000000000000035 1 I I #
-157 loop $-1 -1 -1 $-1 $-1 $210 $105 F unknown #
-158 integer_attrib-name_attrib-gen-attrib $-1 -1 $-1 $-1 $105 2 1 2 1 1 1 1 1 1 1 1 1 1 1 0 1 1 1 @10 Move Face3 0 #
-159 face $211 -1 -1 $-1 $212 $213 $4 $-1 $214 forward single F F #
-160 plane-surface $-1 -1 -1 $-1 5.9999999999999947 184.00000000001467 -29.999999999999996 1 -3.3505562464350421e-016 2.6992983702143592e-030 -2.6992983702143592e-027 9.0441510153125853e-043 1000 forward_v I I I I #
-161 loop $-1 -1 -1 $-1 $215 $197 $162 F unknown #
-162 face $216 -1 -1 $-1 $217 $109 $4 $-1 $218 forward single F F #
-163 ellipse-curve $-1 -1 -1 $-1 4.8056163582940733e-014 191.75000000001469 -22.000000000000146 -1 3.3505562464350421e-016 2.6992983702143623e-030 8.7727197031966571e-030 -2.9393490799765863e-045 -3.249999999999996 1 I I #
-164 integer_attrib-name_attrib-gen-attrib $-1 -1 $-1 $-1 $112 2 1 2 1 1 1 1 1 1 1 1 1 1 1 0 1 1 1 @10 Move Face3 0 #
-165 cone-surface $-1 -1 -1 $-1 4.8056163582940733e-014 191.75000000001469 -22.000000000000146 -1 3.3505562464350421e-016 2.6992983702143623e-030 8.7727197031966571e-030 -2.9393490799765863e-045 -3.249999999999996 1 I I 0 1 3.249999999999996 forward I I I I #
-166 integer_attrib-name_attrib-gen-attrib $-1 -1 $-1 $-1 $120 2 1 2 1 1 1 1 1 1 1 1 1 1 1 0 1 1 1 @10 Move Face3 0 #
-167 face $219 -1 -1 $-1 $162 $220 $4 $-1 $221 forward single F F #
-168 loop $-1 -1 -1 $-1 $-1 $222 $120 F unknown #
-169 cone-surface $-1 -1 -1 $-1 4.183331597363529e-014 7.5000000000000853 -7.9999999999999067 -1 3.3505562464350421e-016 2.6992983702143623e-030 0 0 -1.7000000000000071 1 I I 0 1 1.7000000000000071 forward I I I I #
-170 coedge $-1 -1 -1 $-1 $223 $224 $225 $226 reversed $121 $-1 #
-171 coedge $-1 -1 -1 $-1 $227 $123 $228 $229 forward $77 $-1 #
-172 coedge $-1 -1 -1 $-1 $123 $227 $230 $231 reversed $77 $-1 #
-173 coedge $-1 -1 -1 $-1 $232 $232 $123 $174 reversed $233 $-1 #
-174 edge $-1 -1 -1 $-1 $234 -3.1415926535897931 $235 0 $123 $236 forward @7 unknown F #
-175 coedge $-1 -1 -1 $-1 $125 $124 $237 $238 forward $45 $-1 #
-176 coedge $-1 -1 -1 $-1 $239 $240 $124 $177 reversed $241 $-1 #
-177 edge $-1 -1 -1 $-1 $182 -0.0030000000000000027 $242 -1.8932661725304284e-032 $124 $243 forward @7 unknown F #
-178 coedge $-1 -1 -1 $-1 $240 $239 $125 $179 forward $241 $-1 #
-179 edge $-1 -1 -1 $-1 $183 -0.0030000000000000027 $244 0 $178 $245 forward @7 unknown F #
-180 coedge $-1 -1 -1 $-1 $126 $126 $239 $246 forward $181 $-1 #
-181 loop $-1 -1 -1 $-1 $-1 $180 $247 F unknown #
-182 vertex $-1 -1 -1 $-1 $177 $248 #
-183 vertex $-1 -1 -1 $-1 $127 $249 #
-184 ellipse-curve $-1 -1 -1 $-1 3.0000000000000493 21.500000000000085 -21.999999999999918 -1 3.3505562464350421e-016 2.6992983702143623e-030 0 0 -3.2500000000000027 1 I I #
-185 coedge $-1 -1 -1 $-1 $250 $250 $128 $186 reversed $205 $-1 #
-186 edge $-1 -1 -1 $-1 $190 -3.1415926535897931 $192 1.0766462418444708e-061 $128 $251 forward @7 unknown F #
-187 coedge $-1 -1 -1 $-1 $131 $129 $133 $194 forward $189 $-1 #
-188 coedge $-1 -1 -1 $-1 $129 $131 $250 $252 forward $189 $-1 #
-189 loop $-1 -1 -1 $-1 $-1 $129 $253 F unknown #
-190 vertex $-1 -1 -1 $-1 $130 $254 #
-191 straight-curve $-1 -1 -1 $-1 5.2746942327949235e-014 205.75000000001467 -6.3000000000001304 -1000 3.3505562464350423e-013 2.6992983702143625e-027 I I #
-192 vertex $-1 -1 -1 $-1 $186 $255 #
-193 straight-curve $-1 -1 -1 $-1 5.2746942327949242e-014 205.75000000001467 -9.7000000000001414 -1000 3.3505562464350423e-013 2.6992983702143625e-027 I I #
-194 edge $-1 -1 -1 $-1 $135 0 $134 3.1415926535897931 $187 $256 forward @7 unknown F #
-195 point $-1 -1 -1 $-1 6.0000000000000027 205.75000000001467 -9.7000000000001414 #
-196 point $-1 -1 -1 $-1 6.0000000000000027 205.75000000001467 -6.3000000000001304 #
-197 coedge $-1 -1 -1 $-1 $137 $137 $140 $199 reversed $161 $-1 #
-198 ellipse-curve $-1 -1 -1 $-1 5.2746942327949242e-014 205.75000000001467 -8.000000000000135 -1 3.3505562464350421e-016 2.6992983702143623e-030 8.7727197031966571e-030 -2.9393490799765863e-045 -3.249999999999996 1 I I #
-199 edge $-1 -1 -1 $-1 $144 6.5061485133713209e-046 $142 3.1415926535897931 $140 $257 forward @7 unknown F #
-200 face $258 -1 -1 $-1 $153 $141 $4 $-1 $259 reversed single F T -0.92307692307692513 4.6411098292199331e-030 -3.0928211505554299e-016 3.1415926535897931 #
-201 point $-1 -1 -1 $-1 5.2746942327949248e-014 205.75000000001467 -4.7500000000001403 #
-202 point $-1 -1 -1 $-1 5.2746942327949248e-014 205.75000000001467 -11.250000000000131 #
-203 ellipse-curve $-1 -1 -1 $-1 3.000000000000056 205.75000000001467 -8.000000000000135 -1 3.3505562464350421e-016 2.6992983702143623e-030 0 0 -3.249999999999996 1 I I #
-204 integer_attrib-name_attrib-gen-attrib $-1 -1 $-1 $-1 $147 2 1 2 1 1 1 1 1 1 1 1 1 1 1 0 1 1 1 @10 Move Face3 0 #
-205 loop $-1 -1 -1 $-1 $90 $250 $147 F unknown #
-206 plane-surface $-1 -1 -1 $-1 3.0000000000000551 204.05000000001468 -8.000000000000135 1 -3.3505562464350421e-016 2.6992983702143592e-030 -2.6992983702143592e-027 9.0441510153125853e-043 1000 forward_v I I I I #
-207 ellipse-curve $-1 -1 -1 $-1 3.0000000000000511 191.75000000001469 -22.000000000000146 -1 3.3505562464350421e-016 2.6992983702143623e-030 0 0 -1.7000000000000139 1 I I #
-208 integer_attrib-name_attrib-gen-attrib $-1 -1 $-1 $-1 $153 2 1 2 1 1 1 1 1 1 1 1 1 1 1 0 1 1 1 @10 Move Face3 0 #
-209 cone-surface $-1 -1 -1 $-1 4.8056163582940733e-014 191.75000000001469 -22.000000000000146 -1 3.3505562464350421e-016 2.6992983702143623e-030 4.5888072293644201e-030 -1.5375056726031427e-045 -1.7000000000000035 1 I I 0 1 1.7000000000000035 forward I I I I #
-210 coedge $-1 -1 -1 $-1 $260 $261 $262 $263 reversed $157 $-1 #
-211 integer_attrib-name_attrib-gen-attrib $-1 -1 $-1 $-1 $159 2 1 2 1 1 1 1 1 1 1 1 1 1 1 0 1 1 1 @10 Move Face3 0 #
-212 face $264 -1 -1 $-1 $265 $266 $4 $-1 $267 forward single F F #
-213 loop $-1 -1 -1 $-1 $-1 $268 $159 F unknown #
-214 plane-surface $-1 -1 -1 $-1 13.000000000000057 183.50000000001467 -29.999999999999996 -1.6474854907585461e-015 1 -2.1282712250285105e-058 -1000 -1.6474854907585461e-012 2.6992983702143614e-027 forward_v I I I I #
-215 loop $-1 -1 -1 $-1 $269 $270 $162 F unknown #
-216 integer_attrib-name_attrib-gen-attrib $-1 -1 $-1 $-1 $162 2 1 2 1 1 1 1 1 1 1 1 1 1 1 0 1 1 1 @10 Move Face3 0 #
-217 face $271 -1 -1 $-1 $272 $273 $4 $-1 $274 forward single F F #
-218 plane-surface $-1 -1 -1 $-1 1.7347234759767945e-015 53.499999999999972 -29.999999999999996 -1 -3.9492349067626904e-029 2.6992983702143613e-030 3.9492349067626904e-026 -1000 0 forward_v I I I I #
-219 integer_attrib-name_attrib-gen-attrib $-1 -1 $-1 $-1 $167 2 1 2 1 1 1 1 1 1 1 1 1 1 1 0 1 1 1 @10 Move Face3 0 #
-220 loop $-1 -1 -1 $-1 $-1 $275 $167 F unknown #
-221 plane-surface $-1 -1 -1 $-1 13.000000000000057 184.00000000001467 -29.999999999999996 1 -3.3505562464350421e-016 2.6992983702143592e-030 -2.6992983702143592e-027 9.0441510153125853e-043 1000 forward_v I I I I #
-222 coedge $-1 -1 -1 $-1 $276 $277 $278 $279 forward $168 $-1 #
-223 coedge $-1 -1 -1 $-1 $280 $170 $281 $282 forward $121 $-1 #
-224 coedge $-1 -1 -1 $-1 $170 $280 $283 $284 reversed $121 $-1 #
-225 coedge $-1 -1 -1 $-1 $285 $285 $170 $226 forward $286 $-1 #
-226 edge $-1 -1 -1 $-1 $287 -3.1415926535897931 $288 -1.178322419476664e-061 $225 $289 forward @7 unknown F #
-227 coedge $-1 -1 -1 $-1 $172 $171 $290 $291 forward $77 $-1 #
-228 coedge $-1 -1 -1 $-1 $292 $293 $171 $229 reversed $294 $-1 #
-229 edge $-1 -1 -1 $-1 $235 -0.0059999999999999507 $295 -0.0030000000000000027 $171 $296 forward @7 unknown F #
-230 coedge $-1 -1 -1 $-1 $293 $292 $172 $231 forward $294 $-1 #
-231 edge $-1 -1 -1 $-1 $234 -0.0059999999999999507 $297 -0.0030000000000000027 $230 $298 forward @7 unknown F #
-232 coedge $-1 -1 -1 $-1 $173 $173 $292 $299 reversed $233 $-1 #
-233 loop $-1 -1 -1 $-1 $300 $173 $265 F unknown #
-234 vertex $-1 -1 -1 $-1 $299 $301 #
-235 vertex $-1 -1 -1 $-1 $229 $302 #
-236 ellipse-curve $-1 -1 -1 $-1 5.9999999999999964 21.500000000000085 -21.999999999999918 1 -3.3505562464350421e-016 -2.699298370214362e-030 0 -0 1.7000000000000071 1 I I #
-237 coedge $-1 -1 -1 $-1 $270 $270 $175 $238 reversed $215 $-1 #
-238 edge $-1 -1 -1 $-1 $242 -3.1415926535897931 $244 6.5061485133717379e-046 $175 $303 forward @7 unknown F #
-239 coedge $-1 -1 -1 $-1 $178 $176 $180 $246 reversed $241 $-1 #
-240 coedge $-1 -1 -1 $-1 $176 $178 $270 $304 forward $241 $-1 #
-241 loop $-1 -1 -1 $-1 $-1 $176 $305 F unknown #
-242 vertex $-1 -1 -1 $-1 $177 $306 #
-243 straight-curve $-1 -1 -1 $-1 4.6524094718643798e-014 21.500000000000085 -18.749999999999915 -1000 3.3505562464350423e-013 2.6992983702143625e-027 I I #
-244 vertex $-1 -1 -1 $-1 $238 $307 #
-245 straight-curve $-1 -1 -1 $-1 4.6524094718643817e-014 21.500000000000085 -25.249999999999922 -1000 3.3505562464350423e-013 2.6992983702143625e-027 I I #
-246 edge $-1 -1 -1 $-1 $183 -1.1783224194766636e-061 $182 3.1415926535897931 $180 $308 forward @7 unknown F #
-247 face $309 -1 -1 $-1 $305 $310 $4 $-1 $311 reversed single F F #
-248 point $-1 -1 -1 $-1 3.0000000000000493 21.500000000000085 -18.749999999999915 #
-249 point $-1 -1 -1 $-1 3.0000000000000493 21.500000000000085 -25.249999999999922 #
-250 coedge $-1 -1 -1 $-1 $185 $185 $188 $252 reversed $205 $-1 #
-251 ellipse-curve $-1 -1 -1 $-1 3.000000000000056 205.75000000001467 -8.000000000000135 -1 3.3505562464350421e-016 2.6992983702143623e-030 0 0 -1.7000000000000139 1 I I #
-252 edge $-1 -1 -1 $-1 $192 1.0766462418444708e-061 $190 3.1415926535897931 $188 $312 forward @7 unknown F #
-253 face $313 -1 -1 $-1 $147 $189 $4 $-1 $314 reversed single F T -3.5294117647058423 -1.7647058823529376 -1.1825492634476487e-015 3.141592653589794 #
-254 point $-1 -1 -1 $-1 3.000000000000056 205.75000000001467 -6.3000000000001215 #
-255 point $-1 -1 -1 $-1 3.000000000000056 205.75000000001467 -9.7000000000001503 #
-256 ellipse-curve $-1 -1 -1 $-1 6.0000000000000027 205.75000000001467 -8.000000000000135 1 -3.3505562464350421e-016 -2.6992983702143623e-030 0 -0 1.7000000000000053 1 I I #
-257 ellipse-curve $-1 -1 -1 $-1 5.2746942327949242e-014 205.75000000001467 -8.000000000000135 -1 3.3505562464350421e-016 2.6992983702143623e-030 8.7727197031966571e-030 -2.9393490799765863e-045 -3.249999999999996 1 I I #
-258 integer_attrib-name_attrib-gen-attrib $-1 -1 $-1 $-1 $200 2 1 2 1 1 1 1 1 1 1 1 1 1 1 0 1 1 1 @10 Move Face3 0 #
-259 cone-surface $-1 -1 -1 $-1 5.2746942327949242e-014 205.75000000001467 -8.000000000000135 -1 3.3505562464350421e-016 2.6992983702143623e-030 8.7727197031966571e-030 -2.9393490799765863e-045 -3.249999999999996 1 I I 0 1 3.249999999999996 forward I I I I #
-260 coedge $-1 -1 -1 $-1 $315 $210 $316 $317 reversed $157 $-1 #
-261 coedge $-1 -1 -1 $-1 $210 $315 $318 $319 forward $157 $-1 #
-262 coedge $-1 -1 -1 $-1 $320 $321 $210 $263 forward $322 $-1 #
-263 edge $-1 -1 -1 $-1 $323 -0.00050000000000000001 $324 0.029249999999999433 $262 $325 forward @7 unknown F #
-264 integer_attrib-name_attrib-gen-attrib $-1 -1 $-1 $-1 $212 2 1 2 1 1 1 1 1 1 1 1 1 1 1 0 1 1 1 @10 Move Face3 0 #
-265 face $326 -1 -1 $-1 $327 $233 $4 $-1 $328 forward single F F #
-266 loop $-1 -1 -1 $-1 $-1 $329 $212 F unknown #
-267 plane-surface $-1 -1 -1 $-1 5.9999999999999885 -2.8421709430404007e-014 -29.999999999999996 -3.3505562464342532e-016 -1 1.0646854778944507e-058 2.6992983702143592e-027 -9.0441510153125853e-043 -1000 forward_v I I I I #
-268 coedge $-1 -1 -1 $-1 $330 $316 $321 $331 reversed $213 $-1 #
-269 loop $-1 -1 -1 $-1 $332 $333 $162 F unknown #
-270 coedge $-1 -1 -1 $-1 $237 $237 $240 $304 reversed $215 $-1 #
-271 integer_attrib-name_attrib-gen-attrib $-1 -1 $-1 $-1 $217 2 1 2 1 1 1 1 1 1 1 1 1 1 1 0 1 1 1 @10 Move Face3 0 #
-272 face $334 -1 -1 $-1 $335 $322 $4 $-1 $336 reversed single F F #
-273 loop $-1 -1 -1 $-1 $-1 $337 $217 F unknown #
-274 plane-surface $-1 -1 -1 $-1 8.064032307951768e-014 289.00000000001467 -29.999999999999996 2.6992983702143592e-030 -9.0441510153115215e-046 -1 3.3505562464342532e-013 1000 0 forward_v I I I I #
-275 coedge $-1 -1 -1 $-1 $338 $339 $340 $341 reversed $220 $-1 #
-276 coedge $-1 -1 -1 $-1 $342 $222 $343 $344 forward $168 $-1 #
-277 coedge $-1 -1 -1 $-1 $222 $342 $345 $346 reversed $168 $-1 #
-278 coedge $-1 -1 -1 $-1 $347 $347 $222 $279 reversed $300 $-1 #
-279 edge $-1 -1 -1 $-1 $348 -3.1415926535897931 $349 -1.0766462418444791e-061 $222 $350 forward @7 unknown F #
-280 coedge $-1 -1 -1 $-1 $224 $223 $351 $352 forward $121 $-1 #
-281 coedge $-1 -1 -1 $-1 $353 $354 $223 $282 reversed $355 $-1 #
-282 edge $-1 -1 -1 $-1 $287 -0.0030000000000000027 $356 -1.2621774483536189e-032 $223 $357 forward @7 unknown F #
-283 coedge $-1 -1 -1 $-1 $354 $353 $224 $284 forward $355 $-1 #
-284 edge $-1 -1 -1 $-1 $288 -0.0030000000000000027 $358 0 $283 $359 forward @7 unknown F #
-285 coedge $-1 -1 -1 $-1 $225 $225 $353 $360 forward $286 $-1 #
-286 loop $-1 -1 -1 $-1 $-1 $285 $361 F unknown #
-287 vertex $-1 -1 -1 $-1 $282 $362 #
-288 vertex $-1 -1 -1 $-1 $226 $363 #
-289 ellipse-curve $-1 -1 -1 $-1 3.0000000000000444 7.5000000000000853 -7.9999999999999067 -1 3.3505562464350421e-016 2.6992983702143623e-030 0 0 -3.2500000000000027 1 I I #
-290 coedge $-1 -1 -1 $-1 $364 $364 $227 $291 reversed $310 $-1 #
-291 edge $-1 -1 -1 $-1 $295 -3.1415926535897931 $297 -1.0766462418444795e-061 $227 $365 forward @7 unknown F #
-292 coedge $-1 -1 -1 $-1 $230 $228 $232 $299 forward $294 $-1 #
-293 coedge $-1 -1 -1 $-1 $228 $230 $364 $366 forward $294 $-1 #
-294 loop $-1 -1 -1 $-1 $-1 $228 $367 F unknown #
-295 vertex $-1 -1 -1 $-1 $229 $368 #
-296 straight-curve $-1 -1 -1 $-1 4.6524094718643798e-014 21.500000000000085 -20.299999999999912 -1000 3.3505562464350423e-013 2.6992983702143625e-027 I I #
-297 vertex $-1 -1 -1 $-1 $291 $369 #
-298 straight-curve $-1 -1 -1 $-1 4.6524094718643804e-014 21.500000000000085 -23.699999999999925 -1000 3.3505562464350423e-013 2.6992983702143625e-027 I I #
-299 edge $-1 -1 -1 $-1 $235 0 $234 3.1415926535897931 $292 $370 forward @7 unknown F #
-300 loop $-1 -1 -1 $-1 $371 $278 $265 F unknown #
-301 point $-1 -1 -1 $-1 5.9999999999999964 21.500000000000085 -23.699999999999925 #
-302 point $-1 -1 -1 $-1 5.9999999999999964 21.500000000000085 -20.299999999999912 #
-303 ellipse-curve $-1 -1 -1 $-1 4.6524094718643804e-014 21.500000000000085 -21.999999999999918 -1 3.3505562464350421e-016 2.6992983702143623e-030 1.2325951644078309e-029 -4.1298794274317992e-045 -3.2500000000000027 1 I I #
-304 edge $-1 -1 -1 $-1 $244 6.5061485133717379e-046 $242 3.1415926535897931 $240 $372 forward @7 unknown F #
-305 face $373 -1 -1 $-1 $253 $241 $4 $-1 $374 reversed single F T -0.92307692307692313 6.5829212882254944e-030 -3.092821150555423e-016 3.1415926535897931 #
-306 point $-1 -1 -1 $-1 4.6524094718643817e-014 21.500000000000085 -18.749999999999915 #
-307 point $-1 -1 -1 $-1 4.6524094718643817e-014 21.500000000000085 -25.249999999999922 #
-308 ellipse-curve $-1 -1 -1 $-1 3.0000000000000493 21.500000000000085 -21.999999999999918 -1 3.3505562464350421e-016 2.6992983702143623e-030 0 0 -3.2500000000000027 1 I I #
-309 integer_attrib-name_attrib-gen-attrib $-1 -1 $-1 $-1 $247 2 1 2 1 1 1 1 1 1 1 1 1 1 1 0 1 1 1 @10 Move Face3 0 #
-310 loop $-1 -1 -1 $-1 $181 $364 $247 F unknown #
-311 plane-surface $-1 -1 -1 $-1 3.0000000000000488 19.800000000000125 -21.999999999999918 1 -3.3505562464350421e-016 2.6992983702143592e-030 -2.6992983702143592e-027 9.0441510153125853e-043 1000 forward_v I I I I #
-312 ellipse-curve $-1 -1 -1 $-1 3.000000000000056 205.75000000001467 -8.000000000000135 -1 3.3505562464350421e-016 2.6992983702143623e-030 0 0 -1.7000000000000139 1 I I #
-313 integer_attrib-name_attrib-gen-attrib $-1 -1 $-1 $-1 $253 2 1 2 1 1 1 1 1 1 1 1 1 1 1 0 1 1 1 @10 Move Face3 0 #
-314 cone-surface $-1 -1 -1 $-1 5.2746942327949242e-014 205.75000000001467 -8.000000000000135 -1 3.3505562464350421e-016 2.6992983702143623e-030 4.588807229364425e-030 -1.5375056726031442e-045 -1.7000000000000053 1 I I 0 1 1.7000000000000053 forward I I I I #
-315 coedge $-1 -1 -1 $-1 $261 $260 $337 $375 forward $157 $-1 #
-316 coedge $-1 -1 -1 $-1 $268 $376 $260 $317 forward $213 $-1 #
-317 edge $-1 -1 -1 $-1 $377 0 $323 0.029999999999999992 $316 $378 forward @7 unknown F #
-318 coedge $-1 -1 -1 $-1 $379 $380 $261 $319 reversed $381 $-1 #
-319 edge $-1 -1 -1 $-1 $382 0 $324 0.029999999999999895 $261 $383 forward @7 unknown F #
-320 coedge $-1 -1 -1 $-1 $384 $262 $380 $385 forward $322 $-1 #
-321 coedge $-1 -1 -1 $-1 $262 $340 $268 $331 forward $322 $-1 #
-322 loop $-1 -1 -1 $-1 $-1 $386 $272 F unknown #
-323 vertex $-1 -1 -1 $-1 $317 $387 #
-324 vertex $-1 -1 -1 $-1 $319 $388 #
-325 straight-curve $-1 -1 -1 $-1 5.9999999999999947 184.00000000001523 -3.5527136788005009e-015 3.3505562464342532e-013 1000 0 I I #
-326 integer_attrib-name_attrib-gen-attrib $-1 -1 $-1 $-1 $265 2 1 2 1 1 1 1 1 1 1 1 1 1 1 0 1 1 1 @10 Move Face3 0 #
-327 face $389 -1 -1 $-1 $390 $391 $4 $-1 $392 forward single F F #
-328 plane-surface $-1 -1 -1 $-1 5.9999999999999885 -0.75 -29.99999999999989 1 -3.3505562464350421e-016 2.6992983702143592e-030 -2.6992983702143592e-027 9.0441510153125853e-043 1000 forward_v I I I I #
-329 coedge $-1 -1 -1 $-1 $393 $394 $395 $396 reversed $266 $-1 #
-330 coedge $-1 -1 -1 $-1 $376 $268 $339 $397 reversed $213 $-1 #
-331 edge $-1 -1 -1 $-1 $398 0 $323 0.0070000000000000626 $321 $399 forward @7 unknown F #
-332 loop $-1 -1 -1 $-1 $-1 $400 $162 F unknown #
-333 coedge $-1 -1 -1 $-1 $351 $351 $354 $401 reversed $269 $-1 #
-334 integer_attrib-name_attrib-gen-attrib $-1 -1 $-1 $-1 $272 2 1 2 1 1 1 1 1 1 1 1 1 1 1 0 1 1 1 @10 Move Face3 0 #
-335 face $402 -1 -1 $-1 $105 $381 $4 $-1 $403 forward single F F #
-336 plane-surface $-1 -1 -1 $-1 8.064032307951768e-014 289.00000000001467 3.5527136788005009e-015 2.6992983702143592e-030 -9.0441510153115215e-046 -1 3.3505562464342532e-013 1000 0 forward_v I I I I #
-337 coedge $-1 -1 -1 $-1 $404 $405 $315 $375 reversed $273 $-1 #
-338 coedge $-1 -1 -1 $-1 $406 $275 $407 $408 reversed $220 $-1 #
-339 coedge $-1 -1 -1 $-1 $275 $406 $330 $397 forward $220 $-1 #
-340 coedge $-1 -1 -1 $-1 $321 $409 $275 $341 forward $322 $-1 #
-341 edge $-1 -1 -1 $-1 $410 -0.15425000000001485 $398 -0.00050000000000000001 $340 $411 forward @7 unknown F #
-342 coedge $-1 -1 -1 $-1 $277 $276 $412 $413 forward $168 $-1 #
-343 coedge $-1 -1 -1 $-1 $414 $415 $276 $344 reversed $416 $-1 #
-344 edge $-1 -1 -1 $-1 $349 -0.005999999999999949 $417 -0.0030000000000000027 $276 $418 forward @7 unknown F #
-345 coedge $-1 -1 -1 $-1 $415 $414 $277 $346 forward $416 $-1 #
-346 edge $-1 -1 -1 $-1 $348 -0.005999999999999949 $419 -0.0030000000000000027 $345 $420 forward @7 unknown F #
-347 coedge $-1 -1 -1 $-1 $278 $278 $414 $421 reversed $300 $-1 #
-348 vertex $-1 -1 -1 $-1 $421 $422 #
-349 vertex $-1 -1 -1 $-1 $344 $423 #
-350 ellipse-curve $-1 -1 -1 $-1 5.9999999999999911 7.5000000000000853 -7.9999999999999067 1 -3.3505562464350421e-016 -2.699298370214362e-030 0 -0 1.7000000000000071 1 I I #
-351 coedge $-1 -1 -1 $-1 $333 $333 $280 $352 reversed $269 $-1 #
-352 edge $-1 -1 -1 $-1 $356 -3.1415926535897931 $358 6.5061485133717379e-046 $280 $424 forward @7 unknown F #
-353 coedge $-1 -1 -1 $-1 $283 $281 $285 $360 reversed $355 $-1 #
-354 coedge $-1 -1 -1 $-1 $281 $283 $333 $401 forward $355 $-1 #
-355 loop $-1 -1 -1 $-1 $-1 $281 $425 F unknown #
-356 vertex $-1 -1 -1 $-1 $282 $426 #
-357 straight-curve $-1 -1 -1 $-1 4.183331597363529e-014 7.5000000000000853 -4.7499999999999041 -1000 3.3505562464350423e-013 2.6992983702143625e-027 I I #
-358 vertex $-1 -1 -1 $-1 $352 $427 #
-359 straight-curve $-1 -1 -1 $-1 4.1833315973635302e-014 7.5000000000000853 -11.249999999999909 -1000 3.3505562464350423e-013 2.6992983702143625e-027 I I #
-360 edge $-1 -1 -1 $-1 $288 -1.178322419476664e-061 $287 3.1415926535897931 $285 $428 forward @7 unknown F #
-361 face $429 -1 -1 $-1 $425 $430 $4 $-1 $431 reversed single F F #
-362 point $-1 -1 -1 $-1 3.0000000000000444 7.5000000000000853 -4.7499999999999041 #
-363 point $-1 -1 -1 $-1 3.0000000000000444 7.5000000000000853 -11.249999999999909 #
-364 coedge $-1 -1 -1 $-1 $290 $290 $293 $366 reversed $310 $-1 #
-365 ellipse-curve $-1 -1 -1 $-1 3.0000000000000493 21.500000000000085 -21.999999999999918 -1 3.3505562464350421e-016 2.6992983702143623e-030 0 0 -1.7000000000000071 1 I I #
-366 edge $-1 -1 -1 $-1 $297 -1.0766462418444795e-061 $295 3.1415926535897931 $293 $432 forward @7 unknown F #
-367 face $433 -1 -1 $-1 $247 $294 $4 $-1 $434 reversed single F T -3.5294117647058383 -1.7647058823529354 -1.1825492634476476e-015 3.141592653589794 #
-368 point $-1 -1 -1 $-1 3.0000000000000493 21.500000000000085 -20.299999999999912 #
-369 point $-1 -1 -1 $-1 3.0000000000000493 21.500000000000085 -23.699999999999925 #
-370 ellipse-curve $-1 -1 -1 $-1 5.9999999999999964 21.500000000000085 -21.999999999999918 1 -3.3505562464350421e-016 -2.699298370214362e-030 0 -0 1.7000000000000071 1 I I #
-371 loop $-1 -1 -1 $-1 $-1 $435 $265 F unknown #
-372 ellipse-curve $-1 -1 -1 $-1 4.6524094718643804e-014 21.500000000000085 -21.999999999999918 -1 3.3505562464350421e-016 2.6992983702143623e-030 1.2325951644078309e-029 -4.1298794274317992e-045 -3.2500000000000027 1 I I #
-373 integer_attrib-name_attrib-gen-attrib $-1 -1 $-1 $-1 $305 2 1 2 1 1 1 1 1 1 1 1 1 1 1 0 1 1 1 @10 Move Face3 0 #
-374 cone-surface $-1 -1 -1 $-1 4.6524094718643804e-014 21.500000000000085 -21.999999999999918 -1 3.3505562464350421e-016 2.6992983702143623e-030 1.2325951644078309e-029 -4.1298794274317992e-045 -3.2500000000000027 1 I I 0 1 3.2500000000000027 forward I I I I #
-375 edge $-1 -1 -1 $-1 $377 -0.00050000000000000001 $382 0.029250000000000002 $315 $436 forward @7 unknown F #
-376 coedge $-1 -1 -1 $-1 $316 $330 $404 $437 forward $213 $-1 #
-377 vertex $-1 -1 -1 $-1 $317 $438 #
-378 straight-curve $-1 -1 -1 $-1 5.9999999999999947 183.50000000001467 -29.999999999999996 -2.6992983702143592e-027 9.0441510153125853e-043 1000 I I #
-379 coedge $-1 -1 -1 $-1 $439 $318 $405 $440 forward $381 $-1 #
-380 coedge $-1 -1 -1 $-1 $318 $439 $320 $385 reversed $381 $-1 #
-381 loop $-1 -1 -1 $-1 $-1 $380 $335 F unknown #
-382 vertex $-1 -1 -1 $-1 $319 $441 #
-383 straight-curve $-1 -1 -1 $-1 6.0000000000000053 213.25000000001467 -29.99999999999989 -2.6992983702143592e-027 9.0441510153125853e-043 1000 I I #
-384 coedge $-1 -1 -1 $-1 $395 $320 $442 $443 forward $322 $-1 #
-385 edge $-1 -1 -1 $-1 $324 0 $444 0.0060000000000000053 $320 $445 forward @7 unknown F #
-386 coedge $-1 -1 -1 $-1 $409 $395 $435 $446 forward $322 $-1 #
-387 point $-1 -1 -1 $-1 5.9999999999999947 183.50000000001523 -3.5527136788005009e-015 #
-388 point $-1 -1 -1 $-1 6.0000000000000053 213.25000000001467 3.5527136788005009e-015 #
-389 integer_attrib-name_attrib-gen-attrib $-1 -1 $-1 $-1 $327 2 1 2 1 1 1 1 1 1 1 1 1 1 1 0 1 1 1 @10 Move Face3 0 #
-390 face $447 -1 -1 $-1 $361 $416 $4 $-1 $448 reversed single F T -3.5294117647058378 -1.7647058823529354 -1.1825492634476468e-015 3.141592653589794 #
-391 loop $-1 -1 -1 $-1 $-1 $449 $327 F unknown #
-392 plane-surface $-1 -1 -1 $-1 13.000000000000004 29.750000000000142 -29.999999999999996 -3.3505562464342532e-016 -1 1.0646854778944507e-058 2.6992983702143592e-027 -9.0441510153125853e-043 -1000 forward_v I I I I #
-393 coedge $-1 -1 -1 $-1 $450 $329 $451 $452 reversed $266 $-1 #
-394 coedge $-1 -1 -1 $-1 $329 $450 $453 $454 forward $266 $-1 #
-395 coedge $-1 -1 -1 $-1 $386 $384 $329 $396 forward $322 $-1 #
-396 edge $-1 -1 -1 $-1 $455 -0.0060000000000000045 $456 0 $395 $457 forward @7 unknown F #
-397 edge $-1 -1 -1 $-1 $458 0 $398 0.029999999999999992 $339 $459 forward @7 unknown F #
-398 vertex $-1 -1 -1 $-1 $341 $460 #
-399 straight-curve $-1 -1 -1 $-1 13.000000000000057 183.50000000001498 -3.5527136788005009e-015 -1000 -1.6474854907585461e-012 2.6992983702143614e-027 I I #
-400 coedge $-1 -1 -1 $-1 $451 $461 $462 $463 forward $332 $-1 #
-401 edge $-1 -1 -1 $-1 $358 6.5061485133717379e-046 $356 3.1415926535897931 $354 $464 forward @7 unknown F #
-402 integer_attrib-name_attrib-gen-attrib $-1 -1 $-1 $-1 $335 2 1 2 1 1 1 1 1 1 1 1 1 1 1 0 1 1 1 @10 Move Face3 0 #
-403 plane-surface $-1 -1 -1 $-1 6.0000000000000053 213.25000000001467 -29.99999999999989 3.3505562464342532e-016 1 -1.0646854778944507e-058 -2.6992983702143592e-027 9.0441510153125853e-043 1000 forward_v I I I I #
-404 coedge $-1 -1 -1 $-1 $465 $337 $376 $437 reversed $273 $-1 #
-405 coedge $-1 -1 -1 $-1 $337 $462 $379 $440 reversed $273 $-1 #
-406 coedge $-1 -1 -1 $-1 $339 $338 $465 $466 forward $220 $-1 #
-407 coedge $-1 -1 -1 $-1 $449 $467 $338 $408 forward $391 $-1 #
-408 edge $-1 -1 -1 $-1 $468 0 $410 0.029999999999999992 $407 $469 forward @7 unknown F #
-409 coedge $-1 -1 -1 $-1 $340 $386 $449 $470 forward $322 $-1 #
-410 vertex $-1 -1 -1 $-1 $341 $471 #
-411 straight-curve $-1 -1 -1 $-1 13.000000000000057 184.00000000001498 -3.5527136788005009e-015 3.3505562464342532e-013 1000 0 I I #
-412 coedge $-1 -1 -1 $-1 $472 $472 $342 $413 reversed $430 $-1 #
-413 edge $-1 -1 -1 $-1 $417 -3.1415926535897931 $419 0 $342 $473 forward @7 unknown F #
-414 coedge $-1 -1 -1 $-1 $345 $343 $347 $421 forward $416 $-1 #
-415 coedge $-1 -1 -1 $-1 $343 $345 $472 $474 forward $416 $-1 #
-416 loop $-1 -1 -1 $-1 $-1 $343 $390 F unknown #
-417 vertex $-1 -1 -1 $-1 $344 $475 #
-418 straight-curve $-1 -1 -1 $-1 4.183331597363529e-014 7.5000000000000853 -6.2999999999998995 -1000 3.3505562464350423e-013 2.6992983702143625e-027 I I #
-419 vertex $-1 -1 -1 $-1 $413 $476 #
-420 straight-curve $-1 -1 -1 $-1 4.183331597363529e-014 7.5000000000000853 -9.699999999999914 -1000 3.3505562464350423e-013 2.6992983702143625e-027 I I #
-421 edge $-1 -1 -1 $-1 $349 -1.0766462418444791e-061 $348 3.1415926535897931 $414 $477 forward @7 unknown F #
-422 point $-1 -1 -1 $-1 5.9999999999999911 7.5000000000000853 -9.699999999999914 #
-423 point $-1 -1 -1 $-1 5.9999999999999911 7.5000000000000853 -6.2999999999998995 #
-424 ellipse-curve $-1 -1 -1 $-1 4.183331597363529e-014 7.5000000000000853 -7.9999999999999067 -1 3.3505562464350421e-016 2.6992983702143623e-030 1.2325951644078309e-029 -4.1298794274317992e-045 -3.2500000000000027 1 I I #
-425 face $478 -1 -1 $-1 $367 $355 $4 $-1 $479 reversed single F T -0.92307692307692313 6.5829212882254944e-030 -3.092821150555424e-016 3.1415926535897931 #
-426 point $-1 -1 -1 $-1 4.1833315973635302e-014 7.5000000000000853 -4.7499999999999041 #
-427 point $-1 -1 -1 $-1 4.1833315973635302e-014 7.5000000000000853 -11.249999999999909 #
-428 ellipse-curve $-1 -1 -1 $-1 3.0000000000000444 7.5000000000000853 -7.9999999999999067 -1 3.3505562464350421e-016 2.6992983702143623e-030 0 0 -3.2500000000000027 1 I I #
-429 integer_attrib-name_attrib-gen-attrib $-1 -1 $-1 $-1 $361 2 1 2 1 1 1 1 1 1 1 1 1 1 1 0 1 1 1 @10 Move Face3 0 #
-430 loop $-1 -1 -1 $-1 $286 $472 $361 F unknown #
-431 plane-surface $-1 -1 -1 $-1 3.000000000000044 5.8000000000000966 -7.9999999999999067 1 -3.3505562464350421e-016 2.6992983702143592e-030 -2.6992983702143592e-027 9.0441510153125853e-043 1000 forward_v I I I I #
-432 ellipse-curve $-1 -1 -1 $-1 3.0000000000000493 21.500000000000085 -21.999999999999918 -1 3.3505562464350421e-016 2.6992983702143623e-030 0 0 -1.7000000000000071 1 I I #
-433 integer_attrib-name_attrib-gen-attrib $-1 -1 $-1 $-1 $367 2 1 2 1 1 1 1 1 1 1 1 1 1 1 0 1 1 1 @10 Move Face3 0 #
-434 cone-surface $-1 -1 -1 $-1 4.6524094718643804e-014 21.500000000000085 -21.999999999999918 -1 3.3505562464350421e-016 2.6992983702143623e-030 0 0 -1.7000000000000071 1 I I 0 1 1.7000000000000071 forward I I I I #
-435 coedge $-1 -1 -1 $-1 $453 $480 $386 $446 reversed $371 $-1 #
-436 straight-curve $-1 -1 -1 $-1 5.9999999999999947 184.00000000001467 -29.999999999999996 3.3505562464342532e-013 1000 0 I I #
-437 edge $-1 -1 -1 $-1 $458 0 $377 0.0070000000000000626 $376 $481 forward @7 unknown F #
-438 point $-1 -1 -1 $-1 5.9999999999999947 183.50000000001467 -29.999999999999996 #
-439 coedge $-1 -1 -1 $-1 $380 $379 $461 $482 forward $381 $-1 #
-440 edge $-1 -1 -1 $-1 $382 0 $483 0.0060000000000000053 $379 $484 forward @7 unknown F #
-441 point $-1 -1 -1 $-1 6.0000000000000053 213.25000000001467 -29.99999999999989 #
-442 coedge $-1 -1 -1 $-1 $461 $451 $384 $443 reversed $332 $-1 #
-443 edge $-1 -1 -1 $-1 $444 -0.15975000000001469 $455 0.053500000000000027 $384 $485 forward @7 unknown F #
-444 vertex $-1 -1 -1 $-1 $482 $486 #
-445 straight-curve $-1 -1 -1 $-1 6.0000000000000053 213.25000000001467 3.5527136788005009e-015 -1000 3.3505562464350423e-013 2.6992983702143625e-027 I I #
-446 edge $-1 -1 -1 $-1 $456 0.00074999999999997161 $487 0.030500000000000142 $386 $488 forward @7 unknown F #
-447 integer_attrib-name_attrib-gen-attrib $-1 -1 $-1 $-1 $390 2 1 2 1 1 1 1 1 1 1 1 1 1 1 0 1 1 1 @10 Move Face3 0 #
-448 cone-surface $-1 -1 -1 $-1 4.183331597363529e-014 7.5000000000000853 -7.9999999999999067 -1 3.3505562464350421e-016 2.6992983702143623e-030 0 0 -1.7000000000000071 1 I I 0 1 1.7000000000000071 forward I I I I #
-449 coedge $-1 -1 -1 $-1 $489 $407 $409 $470 reversed $391 $-1 #
-450 coedge $-1 -1 -1 $-1 $394 $393 $490 $491 forward $266 $-1 #
-451 coedge $-1 -1 -1 $-1 $442 $400 $393 $452 forward $332 $-1 #
-452 edge $-1 -1 -1 $-1 $492 0 $455 0.029999999999999999 $451 $493 forward @7 unknown F #
-453 coedge $-1 -1 -1 $-1 $494 $435 $394 $454 reversed $371 $-1 #
-454 edge $-1 -1 -1 $-1 $495 0 $456 0.029999999999999999 $394 $496 forward @7 unknown F #
-455 vertex $-1 -1 -1 $-1 $443 $497 #
-456 vertex $-1 -1 -1 $-1 $454 $498 #
-457 straight-curve $-1 -1 -1 $-1 5.9999999999999885 -2.8421709430404007e-014 3.5527136788005009e-015 1000 -3.3505562464350423e-013 -2.6992983702143625e-027 I I #
-458 vertex $-1 -1 -1 $-1 $466 $499 #
-459 straight-curve $-1 -1 -1 $-1 13.000000000000057 183.50000000001467 -29.999999999999996 -2.6992983702143592e-027 9.0441510153125853e-043 1000 I I #
-460 point $-1 -1 -1 $-1 13.000000000000057 183.50000000001498 -3.5527136788005009e-015 #
-461 coedge $-1 -1 -1 $-1 $400 $442 $439 $482 reversed $332 $-1 #
-462 coedge $-1 -1 -1 $-1 $405 $490 $400 $463 reversed $273 $-1 #
-463 edge $-1 -1 -1 $-1 $483 -0.15975000000001471 $492 0.053499999999999999 $400 $500 forward @7 unknown F #
-464 ellipse-curve $-1 -1 -1 $-1 4.183331597363529e-014 7.5000000000000853 -7.9999999999999067 -1 3.3505562464350421e-016 2.6992983702143623e-030 1.2325951644078309e-029 -4.1298794274317992e-045 -3.2500000000000027 1 I I #
-465 coedge $-1 -1 -1 $-1 $501 $404 $406 $466 reversed $273 $-1 #
-466 edge $-1 -1 -1 $-1 $468 -0.15425000000001451 $458 -0.00050000000000000001 $406 $502 forward @7 unknown F #
-467 coedge $-1 -1 -1 $-1 $407 $489 $501 $503 forward $391 $-1 #
-468 vertex $-1 -1 -1 $-1 $466 $504 #
-469 straight-curve $-1 -1 -1 $-1 13.000000000000004 29.750000000000142 -29.999999999999996 -2.6992983702143592e-027 9.0441510153125853e-043 1000 I I #
-470 edge $-1 -1 -1 $-1 $487 -0.0070000000000000045 $410 0 $409 $505 forward @7 unknown F #
-471 point $-1 -1 -1 $-1 13.000000000000004 29.750000000000142 -3.5527136788005009e-015 #
-472 coedge $-1 -1 -1 $-1 $412 $412 $415 $474 reversed $430 $-1 #
-473 ellipse-curve $-1 -1 -1 $-1 3.0000000000000444 7.5000000000000853 -7.9999999999999067 -1 3.3505562464350421e-016 2.6992983702143623e-030 0 0 -1.7000000000000071 1 I I #
-474 edge $-1 -1 -1 $-1 $419 0 $417 3.1415926535897931 $415 $506 forward @7 unknown F #
-475 point $-1 -1 -1 $-1 3.0000000000000444 7.5000000000000853 -6.2999999999998995 #
-476 point $-1 -1 -1 $-1 3.0000000000000444 7.5000000000000853 -9.699999999999914 #
-477 ellipse-curve $-1 -1 -1 $-1 5.9999999999999911 7.5000000000000853 -7.9999999999999067 1 -3.3505562464350421e-016 -2.699298370214362e-030 0 -0 1.7000000000000071 1 I I #
-478 integer_attrib-name_attrib-gen-attrib $-1 -1 $-1 $-1 $425 2 1 2 1 1 1 1 1 1 1 1 1 1 1 0 1 1 1 @10 Move Face3 0 #
-479 cone-surface $-1 -1 -1 $-1 4.183331597363529e-014 7.5000000000000853 -7.9999999999999067 -1 3.3505562464350421e-016 2.6992983702143623e-030 1.2325951644078309e-029 -4.1298794274317992e-045 -3.2500000000000027 1 I I 0 1 3.2500000000000027 forward I I I I #
-480 coedge $-1 -1 -1 $-1 $435 $494 $489 $507 forward $371 $-1 #
-481 straight-curve $-1 -1 -1 $-1 13.000000000000057 183.50000000001467 -29.999999999999996 -1000 -1.6474854907585461e-012 2.6992983702143614e-027 I I #
-482 edge $-1 -1 -1 $-1 $483 -8.3649120724316496e-063 $444 0.029999999999999895 $439 $508 forward @7 unknown F #
-483 vertex $-1 -1 -1 $-1 $482 $509 #
-484 straight-curve $-1 -1 -1 $-1 6.0000000000000053 213.25000000001467 -29.99999999999989 -1000 3.3505562464350423e-013 2.6992983702143625e-027 I I #
-485 straight-curve $-1 -1 -1 $-1 1.7347234759768071e-015 53.5 6.5725203057809267e-014 3.9492349067626904e-026 -1000 0 I I #
-486 point $-1 -1 -1 $-1 -2.512917184825849e-016 213.25000000001469 3.5527136788005009e-015 #
-487 vertex $-1 -1 -1 $-1 $507 $510 #
-488 straight-curve $-1 -1 -1 $-1 5.9999999999999885 -0.75 3.5527136788005009e-015 3.3505562464342532e-013 1000 0 I I #
-489 coedge $-1 -1 -1 $-1 $467 $449 $480 $507 reversed $391 $-1 #
-490 coedge $-1 -1 -1 $-1 $462 $511 $450 $491 reversed $273 $-1 #
-491 edge $-1 -1 -1 $-1 $492 -0.0060000000000000045 $495 0 $450 $512 forward @7 unknown F #
-492 vertex $-1 -1 -1 $-1 $463 $513 #
-493 straight-curve $-1 -1 -1 $-1 -1.6190752442448563e-014 -2.8421709430404007e-014 -29.999999999999996 -2.6992983702143592e-027 9.0441510153125853e-043 1000 I I #
-494 coedge $-1 -1 -1 $-1 $480 $453 $511 $514 forward $371 $-1 #
-495 vertex $-1 -1 -1 $-1 $454 $515 #
-496 straight-curve $-1 -1 -1 $-1 5.9999999999999885 -2.8421709430404007e-014 -29.999999999999996 -2.6992983702143592e-027 9.0441510153125853e-043 1000 I I #
-497 point $-1 -1 -1 $-1 -1.6190752442448563e-014 -2.8421709430404007e-014 3.5527136788005009e-015 #
-498 point $-1 -1 -1 $-1 5.9999999999999885 -2.8421709430404007e-014 3.5527136788005009e-015 #
-499 point $-1 -1 -1 $-1 13.000000000000057 183.50000000001467 -29.999999999999996 #
-500 straight-curve $-1 -1 -1 $-1 1.7347234759767945e-015 53.499999999999972 -29.999999999999996 3.9492349067626904e-026 -1000 0 I I #
-501 coedge $-1 -1 -1 $-1 $511 $465 $467 $503 reversed $273 $-1 #
-502 straight-curve $-1 -1 -1 $-1 13.000000000000057 184.00000000001467 -29.999999999999996 3.3505562464342532e-013 1000 0 I I #
-503 edge $-1 -1 -1 $-1 $516 -0.0070000000000000045 $468 0 $467 $517 forward @7 unknown F #
-504 point $-1 -1 -1 $-1 13.000000000000004 29.750000000000142 -29.999999999999996 #
-505 straight-curve $-1 -1 -1 $-1 13.000000000000004 29.750000000000142 -3.5527136788005009e-015 1000 -3.3505562464350423e-013 -2.6992983702143625e-027 I I #
-506 ellipse-curve $-1 -1 -1 $-1 3.0000000000000444 7.5000000000000853 -7.9999999999999067 -1 3.3505562464350421e-016 2.6992983702143623e-030 0 0 -1.7000000000000071 1 I I #
-507 edge $-1 -1 -1 $-1 $516 0 $487 0.029999999999999992 $480 $518 forward @7 unknown F #
-508 straight-curve $-1 -1 -1 $-1 -2.5129171848259752e-016 213.25000000001467 -29.99999999999989 -2.6992983702143592e-027 9.0441510153125853e-043 1000 I I #
-509 point $-1 -1 -1 $-1 -2.512917184825849e-016 213.25000000001469 -29.99999999999989 #
-510 point $-1 -1 -1 $-1 5.9999999999999991 29.750000000000142 -3.5527136788005009e-015 #
-511 coedge $-1 -1 -1 $-1 $490 $501 $494 $514 reversed $273 $-1 #
-512 straight-curve $-1 -1 -1 $-1 5.9999999999999885 -2.8421709430404007e-014 -29.999999999999996 1000 -3.3505562464350423e-013 -2.6992983702143625e-027 I I #
-513 point $-1 -1 -1 $-1 -1.6190752442448563e-014 -2.8421709430404007e-014 -29.999999999999996 #
-514 edge $-1 -1 -1 $-1 $495 0.00074999999999997161 $516 0.030500000000000142 $494 $519 forward @7 unknown F #
-515 point $-1 -1 -1 $-1 5.9999999999999885 -2.8421709430404007e-014 -29.999999999999996 #
-516 vertex $-1 -1 -1 $-1 $507 $520 #
-517 straight-curve $-1 -1 -1 $-1 13.000000000000004 29.750000000000142 -29.999999999999996 1000 -3.3505562464350423e-013 -2.6992983702143625e-027 I I #
-518 straight-curve $-1 -1 -1 $-1 5.9999999999999991 29.750000000000142 -29.999999999999996 -2.6992983702143592e-027 9.0441510153125853e-043 1000 I I #
-519 straight-curve $-1 -1 -1 $-1 5.9999999999999885 -0.75 -29.99999999999989 3.3505562464342532e-013 1000 0 I I #
-520 point $-1 -1 -1 $-1 5.9999999999999991 29.750000000000142 -29.999999999999996 #
End-of-ACIS-data 