2200 0 1 0           
15 SolidWorks 2017 12 ACIS 22.0 NT 24 Fri Jan 05 08:36:52 2018 
1 9.9999999999999995e-007 1e-010 
-0 body $1 -1 -1 $-1 $2 $-1 $-1 F #
-1 name_attrib-gen-attrib $-1 -1 $-1 $-1 $0 2 1 1 1 1 1 1 1 1 1 1 1 1 1 0 1 1 1 @10 spring cup #
-2 lump $3 -1 -1 $-1 $-1 $4 $0 F #
-3 rgb_color-st-attrib $-1 -1 $-1 $-1 $2 2 1 2 1 1 1 1 1 1 1 1 1 1 1 0 1 1 1 0.29803921568627451 0.29803921568627451 0.29803921568627451 #
-4 shell $-1 -1 -1 $-1 $-1 $-1 $5 $-1 $2 F #
-5 face $6 -1 -1 $-1 $7 $8 $4 $-1 $9 reversed single F T -0.57142857142856285 8.920075523931508e-015 -3.1415926535897931 3.4571002147846719e-031 #
-6 integer_attrib-name_attrib-gen-attrib $-1 -1 $-1 $-1 $5 2 1 2 1 1 1 1 1 1 1 1 1 1 1 0 1 1 1 @28 Ø3.0mm Clearance Dowel Hole1 0 #
-7 face $10 -1 -1 $-1 $11 $12 $4 $-1 $13 reversed single F T -9.1421201288565299e-015 1.2499999999999689 -3.1415926535897931 7.6571373978539008e-016 #
-8 loop $-1 -1 -1 $-1 $-1 $14 $5 F unknown #
-9 cone-surface $-1 -1 -1 $-1 0 0 1 -4.4791834254310183e-015 -1.1241667599652454e-015 1 1.7500000000000553 5.0515147620444623e-015 -7.8385709945036192e-015 1 I I 0 1 1.7500000000000553 forward I I I I #
-10 integer_attrib-name_attrib-gen-attrib $-1 -1 $-1 $-1 $7 2 1 2 1 1 1 1 1 1 1 1 1 1 1 0 1 1 1 @28 Ø3.0mm Clearance Dowel Hole1 0 #
-11 face $15 -1 -1 $-1 $16 $17 $4 $-1 $18 forward single F T -8.9200755239315064e-015 1.1999999999999706 -1.3490001119582431e-015 3.1415926535897931 #
-12 loop $-1 -1 -1 $-1 $-1 $19 $7 F unknown #
-13 cone-surface $-1 -1 -1 $-1 0 0 5.9999999999999973 4.4791834254310183e-015 1.1241667599652454e-015 -1 -4.0000000000001261 -1.1546319456101626e-014 1.8214596497756474e-014 1 I I 0 1 4.0000000000001261 forward I I I I #
-14 coedge $-1 -1 -1 $-1 $20 $21 $22 $23 reversed $8 $-1 #
-15 integer_attrib-name_attrib-gen-attrib $-1 -1 $-1 $-1 $11 2 1 2 1 1 1 1 1 1 1 1 1 1 1 0 1 1 1 @28 Ø3.0mm Clearance Dowel Hole1 0 #
-16 face $24 -1 -1 $-1 $25 $26 $4 $-1 $27 forward single F F #
-17 loop $-1 -1 -1 $-1 $-1 $28 $11 F unknown #
-18 cone-surface $-1 -1 -1 $-1 0 0 5.9999999999999973 4.4791834254310183e-015 1.1241667599652454e-015 -1 -5.0000000000001581 -1.4432899320127032e-014 2.2551405187698492e-014 1 I I 0 1 5.0000000000001581 forward I I I I #
-19 coedge $-1 -1 -1 $-1 $29 $30 $31 $32 forward $12 $-1 #
-20 coedge $-1 -1 -1 $-1 $33 $14 $34 $35 forward $8 $-1 #
-21 coedge $-1 -1 -1 $-1 $14 $33 $36 $37 reversed $8 $-1 #
-22 coedge $-1 -1 -1 $-1 $38 $38 $14 $23 forward $39 $-1 #
-23 edge $-1 -1 -1 $-1 $40 -3.141592653589794 $41 -1.1639556850054059e-031 $22 $42 forward @7 unknown F #
-24 integer_attrib-name_attrib-gen-attrib $-1 -1 $-1 $-1 $16 2 1 2 1 1 1 1 1 1 1 1 1 1 1 0 1 1 1 @28 Ø3.0mm Clearance Dowel Hole1 0 #
-25 face $43 -1 -1 $-1 $44 $45 $4 $-1 $46 forward single F T -8.9200755239315064e-015 1.1999999999999706 -3.1415926535897931 7.6571373978538989e-016 #
-26 loop $-1 -1 -1 $-1 $47 $48 $16 F unknown #
-27 plane-surface $-1 -1 -1 $-1 0 0 5.9999999999999973 4.4791834254305008e-015 -1.1241667599652194e-015 1 1000.0000000000317 2.886579864025407e-012 -4.4791834254306395e-012 forward_v I I I I #
-28 coedge $-1 -1 -1 $-1 $49 $50 $51 $52 reversed $17 $-1 #
-29 coedge $-1 -1 -1 $-1 $53 $19 $54 $55 forward $12 $-1 #
-30 coedge $-1 -1 -1 $-1 $19 $53 $56 $57 reversed $12 $-1 #
-31 coedge $-1 -1 -1 $-1 $58 $58 $19 $32 reversed $47 $-1 #
-32 edge $-1 -1 -1 $-1 $59 -3.141592653589794 $60 8.2506890489290406e-016 $19 $61 forward @7 unknown F #
-33 coedge $-1 -1 -1 $-1 $21 $20 $62 $63 forward $8 $-1 #
-34 coedge $-1 -1 -1 $-1 $64 $65 $20 $35 reversed $66 $-1 #
-35 edge $-1 -1 -1 $-1 $40 -0.0010000000000000165 $67 -1.5654144647214955e-017 $20 $68 forward @7 unknown F #
-36 coedge $-1 -1 -1 $-1 $65 $64 $21 $37 forward $66 $-1 #
-37 edge $-1 -1 -1 $-1 $41 -0.0010000000000000009 $69 0 $36 $70 forward @7 unknown F #
-38 coedge $-1 -1 -1 $-1 $22 $22 $64 $71 forward $39 $-1 #
-39 loop $-1 -1 -1 $-1 $72 $38 $73 F unknown #
-40 vertex $-1 -1 -1 $-1 $35 $74 #
-41 vertex $-1 -1 -1 $-1 $23 $75 #
-42 ellipse-curve $-1 -1 -1 $-1 0 0 -8.8817841970012523e-016 -4.4791834254310183e-015 -1.1241667599652454e-015 1 1.7500000000000551 5.0515147620444615e-015 -7.8062556418956319e-015 1 I I #
-43 integer_attrib-name_attrib-gen-attrib $-1 -1 $-1 $-1 $25 2 1 2 1 1 1 1 1 1 1 1 1 1 1 0 1 1 1 @28 Ø3.0mm Clearance Dowel Hole1 0 #
-44 face $76 -1 -1 $-1 $77 $78 $4 $-1 $79 reversed single F T -9.1421201288565299e-015 1.2499999999999689 -3.9456535034163748e-016 3.141592653589794 #
-45 loop $-1 -1 -1 $-1 $-1 $80 $25 F unknown #
-46 cone-surface $-1 -1 -1 $-1 0 0 5.9999999999999973 4.4791834254310183e-015 1.1241667599652454e-015 -1 -5.0000000000001581 -1.4432899320127032e-014 2.2551405187698492e-014 1 I I 0 1 5.0000000000001581 forward I I I I #
-47 loop $-1 -1 -1 $-1 $-1 $31 $16 F unknown #
-48 coedge $-1 -1 -1 $-1 $51 $51 $81 $82 forward $26 $-1 #
-49 coedge $-1 -1 -1 $-1 $83 $28 $80 $84 forward $17 $-1 #
-50 coedge $-1 -1 -1 $-1 $28 $83 $85 $86 reversed $17 $-1 #
-51 coedge $-1 -1 -1 $-1 $48 $48 $28 $52 forward $26 $-1 #
-52 edge $-1 -1 -1 $-1 $87 7.9696473589376636e-016 $88 3.1415926535897922 $51 $89 forward @7 unknown F #
-53 coedge $-1 -1 -1 $-1 $30 $29 $90 $91 reversed $12 $-1 #
-54 coedge $-1 -1 -1 $-1 $92 $93 $29 $55 reversed $78 $-1 #
-55 edge $-1 -1 -1 $-1 $60 -3.6415315207705703e-017 $94 0.0049999999999999619 $29 $95 forward @7 unknown F #
-56 coedge $-1 -1 -1 $-1 $93 $92 $30 $57 forward $78 $-1 #
-57 edge $-1 -1 -1 $-1 $59 3.6415315207705709e-017 $96 0.0050000000000000339 $56 $97 forward @7 unknown F #
-58 coedge $-1 -1 -1 $-1 $31 $31 $92 $98 reversed $47 $-1 #
-59 vertex $-1 -1 -1 $-1 $98 $99 #
-60 vertex $-1 -1 -1 $-1 $55 $100 #
-61 ellipse-curve $-1 -1 -1 $-1 0 0 5.9999999999999973 -4.4791834254310183e-015 -1.1241667599652454e-015 1 4.0000000000001261 1.1546319456101626e-014 -1.8214596497756474e-014 1 I I #
-62 coedge $-1 -1 -1 $-1 $101 $101 $33 $63 reversed $102 $-1 #
-63 edge $-1 -1 -1 $-1 $67 -3.141592653589794 $69 3.9877890021519148e-031 $33 $103 forward @7 unknown F #
-64 coedge $-1 -1 -1 $-1 $36 $34 $38 $71 reversed $66 $-1 #
-65 coedge $-1 -1 -1 $-1 $34 $36 $101 $104 forward $66 $-1 #
-66 loop $-1 -1 -1 $-1 $-1 $34 $105 F unknown #
-67 vertex $-1 -1 -1 $-1 $35 $106 #
-68 straight-curve $-1 -1 -1 $-1 -1.7500000000000553 -4.8372015721936805e-015 1.0000000000000078 -4.4791834254310183e-012 -1.1241667599652454e-012 1000 I I #
-69 vertex $-1 -1 -1 $-1 $63 $107 #
-70 straight-curve $-1 -1 -1 $-1 1.7500000000000553 5.0515147620444623e-015 0.99999999999999212 -4.4791834254310183e-012 -1.1241667599652454e-012 1000 I I #
-71 edge $-1 -1 -1 $-1 $41 -1.1639556850054059e-031 $40 3.1415926535897922 $38 $108 forward @7 unknown F #
-72 loop $-1 -1 -1 $-1 $-1 $109 $73 F unknown #
-73 face $110 -1 -1 $-1 $105 $39 $4 $-1 $111 forward single F F #
-74 point $-1 -1 -1 $-1 -1.7499999999999996 -4.2751181922109092e-015 -8.659739592076221e-015 #
-75 point $-1 -1 -1 $-1 1.7500000000000551 5.0515147620444615e-015 -8.659739592076221e-015 #
-76 integer_attrib-name_attrib-gen-attrib $-1 -1 $-1 $-1 $44 2 1 2 1 1 1 1 1 1 1 1 1 1 1 0 1 1 1 @28 Ø3.0mm Clearance Dowel Hole1 0 #
-77 face $112 -1 -1 $-1 $73 $102 $4 $-1 $113 reversed single F F #
-78 loop $-1 -1 -1 $-1 $-1 $54 $44 F unknown #
-79 cone-surface $-1 -1 -1 $-1 0 0 5.9999999999999973 4.4791834254310183e-015 1.1241667599652454e-015 -1 -4.0000000000001261 -1.1546319456101626e-014 1.8214596497756474e-014 1 I I 0 1 4.0000000000001261 forward I I I I #
-80 coedge $-1 -1 -1 $-1 $81 $114 $49 $84 reversed $45 $-1 #
-81 coedge $-1 -1 -1 $-1 $85 $80 $48 $82 reversed $45 $-1 #
-82 edge $-1 -1 -1 $-1 $88 -3.141592653589794 $87 7.9696473589376636e-016 $48 $115 forward @7 unknown F #
-83 coedge $-1 -1 -1 $-1 $50 $49 $109 $116 reversed $17 $-1 #
-84 edge $-1 -1 -1 $-1 $87 -4.5297099404707093e-017 $117 0.0059999999999999542 $49 $118 forward @7 unknown F #
-85 coedge $-1 -1 -1 $-1 $114 $81 $50 $86 forward $45 $-1 #
-86 edge $-1 -1 -1 $-1 $88 4.5297099404707099e-017 $119 0.0059999999999999993 $85 $120 forward @7 unknown F #
-87 vertex $-1 -1 -1 $-1 $84 $121 #
-88 vertex $-1 -1 -1 $-1 $52 $122 #
-89 ellipse-curve $-1 -1 -1 $-1 0 0 5.9999999999999973 -4.4791834254310183e-015 -1.1241667599652454e-015 1 5.0000000000001581 1.4432899320127032e-014 -2.2551405187698492e-014 1 I I #
-90 coedge $-1 -1 -1 $-1 $123 $123 $53 $91 forward $124 $-1 #
-91 edge $-1 -1 -1 $-1 $96 -3.141592653589794 $94 8.2506890489298926e-016 $90 $125 forward @7 unknown F #
-92 coedge $-1 -1 -1 $-1 $56 $54 $58 $98 forward $78 $-1 #
-93 coedge $-1 -1 -1 $-1 $54 $56 $123 $126 reversed $78 $-1 #
-94 vertex $-1 -1 -1 $-1 $55 $127 #
-95 straight-curve $-1 -1 -1 $-1 4.0000000000001261 1.2036178175760554e-014 5.9999999999999796 4.4791834254310183e-012 1.1241667599652454e-012 -1000 I I #
-96 vertex $-1 -1 -1 $-1 $126 $128 #
-97 straight-curve $-1 -1 -1 $-1 -4.0000000000001261 -1.1546319456101626e-014 6.000000000000016 4.4791834254310183e-012 1.1241667599652454e-012 -1000 I I #
-98 edge $-1 -1 -1 $-1 $60 8.2506890489290406e-016 $59 3.1415926535897922 $92 $129 forward @7 unknown F #
-99 point $-1 -1 -1 $-1 -3.9999999999999991 -8.7359025561885603e-015 5.9999999999999796 #
-100 point $-1 -1 -1 $-1 3.9999999999999991 1.4846595075672838e-014 6.000000000000016 #
-101 coedge $-1 -1 -1 $-1 $62 $62 $65 $104 reversed $102 $-1 #
-102 loop $-1 -1 -1 $-1 $124 $101 $77 F unknown #
-103 ellipse-curve $-1 -1 -1 $-1 0 0 1 -4.4791834254310183e-015 -1.1241667599652454e-015 1 1.7500000000000553 5.0515147620444623e-015 -7.8385709945036192e-015 1 I I #
-104 edge $-1 -1 -1 $-1 $69 3.9877890021519148e-031 $67 3.1415926535897922 $65 $130 forward @7 unknown F #
-105 face $131 -1 -1 $-1 $-1 $66 $4 $-1 $132 reversed single F T -0.57142857142856285 8.9200755239315064e-015 -6.4238100569439719e-016 3.1415926535897931 #
-106 point $-1 -1 -1 $-1 -1.7499999999999998 -4.275118192210977e-015 0.99999999999999212 #
-107 point $-1 -1 -1 $-1 1.7500000000000553 5.0515147620444623e-015 0.99999999999999212 #
-108 ellipse-curve $-1 -1 -1 $-1 0 0 -8.8817841970012523e-016 -4.4791834254310183e-015 -1.1241667599652454e-015 1 1.7500000000000551 5.0515147620444615e-015 -7.8062556418956319e-015 1 I I #
-109 coedge $-1 -1 -1 $-1 $133 $133 $83 $116 forward $72 $-1 #
-110 integer_attrib-name_attrib-gen-attrib $-1 -1 $-1 $-1 $73 2 1 2 1 1 1 1 1 1 1 1 1 1 1 0 1 1 1 @28 Ø3.0mm Clearance Dowel Hole1 0 #
-111 plane-surface $-1 -1 -1 $-1 0 0 -8.8817841970012523e-016 -4.4791834254305008e-015 1.1241667599652194e-015 -1 -1000.0000000000317 -2.886579864025407e-012 4.4791834254306395e-012 forward_v I I I I #
-112 integer_attrib-name_attrib-gen-attrib $-1 -1 $-1 $-1 $77 2 1 2 1 1 1 1 1 1 1 1 1 1 1 0 1 1 1 @28 Ø3.0mm Clearance Dowel Hole1 0 #
-113 plane-surface $-1 -1 -1 $-1 0 0 1 -4.4791834254305008e-015 1.1241667599652194e-015 -1 -1000.0000000000317 -2.886579864025407e-012 4.4791834254306395e-012 forward_v I I I I #
-114 coedge $-1 -1 -1 $-1 $80 $85 $133 $134 reversed $45 $-1 #
-115 ellipse-curve $-1 -1 -1 $-1 0 0 5.9999999999999973 -4.4791834254310183e-015 -1.1241667599652454e-015 1 5.0000000000001581 1.4432899320127032e-014 -2.2551405187698492e-014 1 I I #
-116 edge $-1 -1 -1 $-1 $119 1.3360674757392996e-032 $117 3.1415926535897922 $109 $135 forward @7 unknown F #
-117 vertex $-1 -1 -1 $-1 $84 $136 #
-118 straight-curve $-1 -1 -1 $-1 5.0000000000001581 1.5045222719700692e-014 5.9999999999999751 4.4791834254310183e-012 1.1241667599652454e-012 -1000 I I #
-119 vertex $-1 -1 -1 $-1 $134 $137 #
-120 straight-curve $-1 -1 -1 $-1 -5.0000000000001581 -1.4432899320127032e-014 6.0000000000000204 4.4791834254310183e-012 1.1241667599652454e-012 -1000 I I #
-121 point $-1 -1 -1 $-1 4.9999999999999991 1.8417722999595357e-014 6.0000000000000204 #
-122 point $-1 -1 -1 $-1 -4.9999999999999991 -1.1060399040231382e-014 5.9999999999999751 #
-123 coedge $-1 -1 -1 $-1 $90 $90 $93 $126 forward $124 $-1 #
-124 loop $-1 -1 -1 $-1 $-1 $90 $77 F unknown #
-125 ellipse-curve $-1 -1 -1 $-1 0 0 1 -4.4791834254310183e-015 -1.1241667599652454e-015 1 4.0000000000001261 1.1546319456101626e-014 -1.7916733701722556e-014 1 I I #
-126 edge $-1 -1 -1 $-1 $94 8.2506890489298926e-016 $96 3.1415926535897922 $123 $138 forward @7 unknown F #
-127 point $-1 -1 -1 $-1 3.9999999999999991 1.4846595075673179e-014 1.000000000000018 #
-128 point $-1 -1 -1 $-1 -3.9999999999999991 -8.7359025561882211e-015 0.99999999999998213 #
-129 ellipse-curve $-1 -1 -1 $-1 0 0 5.9999999999999973 -4.4791834254310183e-015 -1.1241667599652454e-015 1 4.0000000000001261 1.1546319456101626e-014 -1.8214596497756474e-014 1 I I #
-130 ellipse-curve $-1 -1 -1 $-1 0 0 1 -4.4791834254310183e-015 -1.1241667599652454e-015 1 1.7500000000000553 5.0515147620444623e-015 -7.8385709945036192e-015 1 I I #
-131 integer_attrib-name_attrib-gen-attrib $-1 -1 $-1 $-1 $105 2 1 2 1 1 1 1 1 1 1 1 1 1 1 0 1 1 1 @28 Ø3.0mm Clearance Dowel Hole1 0 #
-132 cone-surface $-1 -1 -1 $-1 0 0 1 -4.4791834254310183e-015 -1.1241667599652454e-015 1 1.7500000000000553 5.0515147620444623e-015 -7.8385709945036192e-015 1 I I 0 1 1.7500000000000553 forward I I I I #
-133 coedge $-1 -1 -1 $-1 $109 $109 $114 $134 forward $72 $-1 #
-134 edge $-1 -1 -1 $-1 $117 -3.141592653589794 $119 1.3360674757392996e-032 $133 $139 forward @7 unknown F #
-135 ellipse-curve $-1 -1 -1 $-1 0 0 -8.8817841970012523e-016 4.4791834254310183e-015 1.1241667599652454e-015 -1 -5.0000000000001581 -1.4432899320127032e-014 2.2334564753201391e-014 1 I I #
-136 point $-1 -1 -1 $-1 4.9999999999999991 1.841772299959584e-014 2.1427304375265521e-014 #
-137 point $-1 -1 -1 $-1 -5.0000000000001581 -1.4432899320127032e-014 2.1427304375265521e-014 #
-138 ellipse-curve $-1 -1 -1 $-1 0 0 1 -4.4791834254310183e-015 -1.1241667599652454e-015 1 4.0000000000001261 1.1546319456101626e-014 -1.7916733701722556e-014 1 I I #
-139 ellipse-curve $-1 -1 -1 $-1 0 0 -8.8817841970012523e-016 4.4791834254310183e-015 1.1241667599652454e-015 -1 -5.0000000000001581 -1.4432899320127032e-014 2.2334564753201391e-014 1 I I #
End-of-ACIS-data 