2200 0 1 0           
15 SolidWorks 2017 12 ACIS 22.0 NT 24 Fri Jan 05 08:36:28 2018 
1 9.9999999999999995e-007 1e-010 
-0 body $1 -1 -1 $-1 $2 $-1 $-1 F #
-1 name_attrib-gen-attrib $-1 -1 $-1 $-1 $0 2 1 1 1 1 1 1 1 1 1 1 1 1 1 0 1 1 1 @29 5mm ID x 8mm OD x 6mm Flanged #
-2 lump $3 -1 -1 $-1 $-1 $4 $0 F #
-3 rgb_color-st-attrib $-1 -1 $-1 $-1 $2 2 1 2 1 1 1 1 1 1 1 1 1 1 1 0 1 1 1 0.61960784313725492 0.40392156862745099 0.20000000000000001 #
-4 shell $-1 -1 -1 $-1 $-1 $-1 $5 $-1 $2 F #
-5 face $6 -1 -1 $-1 $7 $8 $4 $-1 $9 forward single F T -0.17677669529664722 1.1037062373790917e-014 -6.9263428174777211e-017 3.1415926535897931 #
-6 integer_attrib-name_attrib-gen-attrib $-1 -1 $-1 $-1 $5 2 1 2 1 1 1 1 1 1 1 1 1 1 1 0 1 1 1 @10 Move Face1 0 #
-7 face $10 -1 -1 $-1 $11 $12 $4 $-1 $13 forward single F T -1.4549004956085282e-014 0.18181818181819936 -8.9643284684207033e-031 3.1415926535897931 #
-8 loop $-1 -1 -1 $-1 $-1 $14 $5 F unknown #
-9 cone-surface $-1 -1 -1 $-1 1.3770837002965581e-015 -8.8571454786977834e-032 5.5 -7.2820906130841439e-015 -4.8484399722343165e-016 -1 -3.9999999999999378 0 -2.9165038439860069e-014 1 I I 0.70710678118655002 0.70710678118654502 3.9999999999999378 forward I I I I #
-10 integer_attrib-name_attrib-gen-attrib $-1 -1 $-1 $-1 $7 2 1 2 1 1 1 1 1 1 1 1 1 1 1 0 1 1 1 @10 Move Face1 0 #
-11 face $15 -1 -1 $-1 $16 $17 $4 $-1 $18 reversed single F T -1.4536388785350904e-014 2.1818181818182323 -3.1415926535897931 7.6571373978539028e-016 #
-12 loop $-1 -1 -1 $-1 $-1 $19 $7 F unknown #
-13 cone-surface $-1 -1 -1 $-1 1.0155736443795717e-013 -6.9388939039072284e-014 0.99999999999999645 -7.2820906130841439e-015 -4.8484399722343165e-016 -1 -5.4999999999999138 0 -3.9898639947466563e-014 1 I I 0 1 5.4999999999999138 forward I I I I #
-14 coedge $-1 -1 -1 $-1 $20 $21 $22 $23 reversed $8 $-1 #
-15 integer_attrib-name_attrib-gen-attrib $-1 -1 $-1 $-1 $11 2 1 2 1 1 1 1 1 1 1 1 1 1 1 0 1 1 1 @10 Move Face1 0 #
-16 face $24 -1 -1 $-1 $25 $26 $4 $-1 $27 forward single F T 0.24999999999998945 1.3750000000000371 -1.2786218203333136e-016 3.1415926535897931 #
-17 loop $-1 -1 -1 $-1 $-1 $28 $11 F unknown #
-18 cone-surface $-1 -1 -1 $-1 8.7679576630142709e-014 6.9388939039072284e-014 -4.4408920985006262e-015 7.2820906130841439e-015 4.8484399722343165e-016 1 2.7499999999999578 0 1.9949319973733282e-014 1 I I 0 1 2.7499999999999578 forward I I I I #
-19 coedge $-1 -1 -1 $-1 $29 $30 $31 $32 forward $12 $-1 #
-20 coedge $-1 -1 -1 $-1 $33 $14 $34 $35 forward $8 $-1 #
-21 coedge $-1 -1 -1 $-1 $14 $33 $36 $37 reversed $8 $-1 #
-22 coedge $-1 -1 -1 $-1 $38 $38 $14 $23 forward $39 $-1 #
-23 edge $-1 -1 -1 $-1 $40 -3.1415926535897931 $41 -1.2262791459234712e-043 $22 $42 forward @7 unknown F #
-24 integer_attrib-name_attrib-gen-attrib $-1 -1 $-1 $-1 $16 2 1 2 1 1 1 1 1 1 1 1 1 1 1 0 1 1 1 @10 Move Face1 0 #
-25 face $43 -1 -1 $-1 $44 $45 $4 $-1 $46 forward single F T 0.24999999999998945 1.3750000000000371 -3.1415926535897931 5.8899158924773104e-016 #
-26 loop $-1 -1 -1 $-1 $-1 $47 $16 F unknown #
-27 cone-surface $-1 -1 -1 $-1 8.7679576630142709e-014 6.9388939039072284e-014 -4.4408920985006262e-015 7.2820906130841439e-015 4.8484399722343165e-016 1 3.9999999999999378 0 2.9490299091605721e-014 1 I I 0 1 3.9999999999999378 forward I I I I #
-28 coedge $-1 -1 -1 $-1 $48 $49 $50 $51 forward $17 $-1 #
-29 coedge $-1 -1 -1 $-1 $52 $19 $53 $54 forward $12 $-1 #
-30 coedge $-1 -1 -1 $-1 $19 $52 $55 $56 reversed $12 $-1 #
-31 coedge $-1 -1 -1 $-1 $57 $57 $19 $32 reversed $58 $-1 #
-32 edge $-1 -1 -1 $-1 $59 -1.5591845668629137e-031 $60 3.1415926535897931 $19 $61 forward @7 unknown F #
-33 coedge $-1 -1 -1 $-1 $21 $20 $62 $63 reversed $8 $-1 #
-34 coedge $-1 -1 -1 $-1 $64 $65 $20 $35 reversed $66 $-1 #
-35 edge $-1 -1 -1 $-1 $40 -0.00070710678118646641 $67 8.509901126066064e-017 $20 $68 forward @7 unknown F #
-36 coedge $-1 -1 -1 $-1 $65 $64 $21 $37 forward $66 $-1 #
-37 edge $-1 -1 -1 $-1 $41 -0.00070710678118654578 $69 3.14018491736955e-018 $36 $70 forward @7 unknown F #
-38 coedge $-1 -1 -1 $-1 $22 $22 $64 $71 forward $39 $-1 #
-39 loop $-1 -1 -1 $-1 $72 $38 $73 F unknown #
-40 vertex $-1 -1 -1 $-1 $35 $74 #
-41 vertex $-1 -1 -1 $-1 $23 $75 #
-42 ellipse-curve $-1 -1 -1 $-1 1.4855039175451085e-015 -8.8571454786977834e-032 6.0000000000000009 7.2820906130841439e-015 4.8484399722343165e-016 1 -3.4999999999999436 0 -2.5487317145793206e-014 1 I I #
-43 integer_attrib-name_attrib-gen-attrib $-1 -1 $-1 $-1 $25 2 1 2 1 1 1 1 1 1 1 1 1 1 1 0 1 1 1 @10 Move Face1 0 #
-44 face $76 -1 -1 $-1 $73 $77 $4 $-1 $78 forward single F F #
-45 loop $-1 -1 -1 $-1 $-1 $79 $25 F unknown #
-46 cone-surface $-1 -1 -1 $-1 8.7679576630142709e-014 6.9388939039072284e-014 -4.4408920985006262e-015 7.2820906130841439e-015 4.8484399722343165e-016 1 3.9999999999999378 0 2.9490299091605721e-014 1 I I 0 1 3.9999999999999378 forward I I I I #
-47 coedge $-1 -1 -1 $-1 $80 $81 $82 $83 reversed $26 $-1 #
-48 coedge $-1 -1 -1 $-1 $84 $28 $85 $86 forward $17 $-1 #
-49 coedge $-1 -1 -1 $-1 $28 $84 $87 $88 reversed $17 $-1 #
-50 coedge $-1 -1 -1 $-1 $89 $89 $28 $51 reversed $77 $-1 #
-51 edge $-1 -1 -1 $-1 $90 -3.141592653589794 $91 6.5138540415841632e-016 $28 $92 forward @7 unknown F #
-52 coedge $-1 -1 -1 $-1 $30 $29 $93 $94 reversed $12 $-1 #
-53 coedge $-1 -1 -1 $-1 $95 $96 $29 $54 reversed $97 $-1 #
-54 edge $-1 -1 -1 $-1 $60 7.9936057773010639e-017 $98 0.0010000000000000809 $29 $99 forward @7 unknown F #
-55 coedge $-1 -1 -1 $-1 $96 $95 $30 $56 forward $97 $-1 #
-56 edge $-1 -1 -1 $-1 $59 -0 $100 0.0010000000000000009 $55 $101 forward @7 unknown F #
-57 coedge $-1 -1 -1 $-1 $31 $31 $95 $102 reversed $58 $-1 #
-58 loop $-1 -1 -1 $-1 $-1 $31 $103 F unknown #
-59 vertex $-1 -1 -1 $-1 $102 $104 #
-60 vertex $-1 -1 -1 $-1 $54 $105 #
-61 ellipse-curve $-1 -1 -1 $-1 1.0155736443795717e-013 -6.9388939039072284e-014 0.99999999999999645 -7.2820906130841439e-015 -4.8484399722343165e-016 -1 -5.4999999999999138 0 -3.9898639947466563e-014 1 I I #
-62 coedge $-1 -1 -1 $-1 $81 $80 $33 $63 forward $26 $-1 #
-63 edge $-1 -1 -1 $-1 $69 1.7863635187427597e-014 $67 3.1415926535897754 $62 $106 forward @7 unknown F #
-64 coedge $-1 -1 -1 $-1 $36 $34 $38 $71 reversed $66 $-1 #
-65 coedge $-1 -1 -1 $-1 $34 $36 $107 $108 reversed $66 $-1 #
-66 loop $-1 -1 -1 $-1 $-1 $34 $109 F unknown #
-67 vertex $-1 -1 -1 $-1 $35 $110 #
-68 straight-curve $-1 -1 -1 $-1 3.9999999999999392 4.8985871965890598e-016 5.5000000000000293 707.1067811865646 -2.5624087263072726e-013 -707.10678118653072 I I #
-69 vertex $-1 -1 -1 $-1 $37 $111 #
-70 straight-curve $-1 -1 -1 $-1 -3.9999999999999365 -8.8571454786977834e-032 5.4999999999999716 -707.1067811865646 -3.4283647825426951e-013 -707.10678118653072 I I #
-71 edge $-1 -1 -1 $-1 $41 -1.2262791459234712e-043 $40 3.1415926535897931 $38 $112 forward @7 unknown F #
-72 loop $-1 -1 -1 $-1 $-1 $113 $73 F unknown #
-73 face $114 -1 -1 $-1 $115 $39 $4 $-1 $116 reversed single F F #
-74 point $-1 -1 -1 $-1 3.4999999999999996 5.8045354898613589e-016 5.9999999999999751 #
-75 point $-1 -1 -1 $-1 -3.4999999999999423 -8.8571454786977834e-032 5.9999999999999751 #
-76 integer_attrib-name_attrib-gen-attrib $-1 -1 $-1 $-1 $44 2 1 2 1 1 1 1 1 1 1 1 1 1 1 0 1 1 1 @10 Move Face1 0 #
-77 loop $-1 -1 -1 $-1 $117 $50 $44 F unknown #
-78 plane-surface $-1 -1 -1 $-1 8.7679576630142709e-014 6.9388939039072284e-014 -4.4408920985006262e-015 7.2820906130838914e-015 -4.8484399722343175e-016 -1 -999.99999999998442 0 -7.2820906130837771e-012 forward_v I I I I #
-79 coedge $-1 -1 -1 $-1 $118 $107 $80 $119 reversed $45 $-1 #
-80 coedge $-1 -1 -1 $-1 $62 $47 $79 $119 forward $26 $-1 #
-81 coedge $-1 -1 -1 $-1 $47 $62 $120 $121 reversed $26 $-1 #
-82 coedge $-1 -1 -1 $-1 $122 $122 $47 $83 forward $123 $-1 #
-83 edge $-1 -1 -1 $-1 $124 3.5210869947195497e-014 $125 3.1415926535897576 $82 $126 forward @7 unknown F #
-84 coedge $-1 -1 -1 $-1 $49 $48 $113 $127 reversed $17 $-1 #
-85 coedge $-1 -1 -1 $-1 $128 $129 $48 $86 reversed $130 $-1 #
-86 edge $-1 -1 -1 $-1 $91 3.90798504668052e-017 $131 0.0060000000000000452 $48 $132 forward @7 unknown F #
-87 coedge $-1 -1 -1 $-1 $129 $128 $49 $88 forward $130 $-1 #
-88 edge $-1 -1 -1 $-1 $90 -3.9079850466805194e-017 $133 0.0059999999999999654 $87 $134 forward @7 unknown F #
-89 coedge $-1 -1 -1 $-1 $50 $50 $128 $135 reversed $77 $-1 #
-90 vertex $-1 -1 -1 $-1 $135 $136 #
-91 vertex $-1 -1 -1 $-1 $86 $137 #
-92 ellipse-curve $-1 -1 -1 $-1 8.7679576630142709e-014 6.9388939039072284e-014 -4.4408920985006262e-015 -7.2820906130841439e-015 -4.8484399722343165e-016 -1 -2.7499999999999578 0 -1.9949319973733282e-014 1 I I #
-93 coedge $-1 -1 -1 $-1 $138 $138 $52 $94 forward $117 $-1 #
-94 edge $-1 -1 -1 $-1 $100 -1.6327658013627833e-031 $98 3.141592653589818 $93 $139 forward @7 unknown F #
-95 coedge $-1 -1 -1 $-1 $55 $53 $57 $102 forward $97 $-1 #
-96 coedge $-1 -1 -1 $-1 $53 $55 $138 $140 reversed $97 $-1 #
-97 loop $-1 -1 -1 $-1 $-1 $53 $141 F unknown #
-98 vertex $-1 -1 -1 $-1 $54 $142 #
-99 straight-curve $-1 -1 -1 $-1 5.5000000000000151 -6.8715383299541278e-014 1.0000000000000364 -7.2820906130841439e-012 -4.8484399722343162e-013 -1000 I I #
-100 vertex $-1 -1 -1 $-1 $140 $143 #
-101 straight-curve $-1 -1 -1 $-1 -5.4999999999998126 -6.9388939039072284e-014 0.99999999999995648 -7.2820906130841439e-012 -4.8484399722343162e-013 -1000 I I #
-102 edge $-1 -1 -1 $-1 $60 -3.1415926535897931 $59 -1.5591845668629137e-031 $95 $144 forward @7 unknown F #
-103 face $145 -1 -1 $-1 $109 $123 $4 $-1 $146 reversed single F F #
-104 point $-1 -1 -1 $-1 -5.4999999999998126 -6.9388939039072284e-014 0.99999999999995648 #
-105 point $-1 -1 -1 $-1 5.5000000000001013 -6.8957805298152984e-014 0.99999999999995648 #
-106 ellipse-curve $-1 -1 -1 $-1 1.3770837002965581e-015 -8.8571454786977834e-032 5.5 -7.2820906130841439e-015 -4.8484399722343165e-016 -1 -3.9999999999999378 0 -2.9165038439860069e-014 1 I I #
-107 coedge $-1 -1 -1 $-1 $79 $120 $65 $108 forward $45 $-1 #
-108 edge $-1 -1 -1 $-1 $67 -3.1415926535898109 $69 1.7863635187427597e-014 $107 $147 forward @7 unknown F #
-109 face $148 -1 -1 $-1 $-1 $66 $4 $-1 $149 forward single F T -0.17677669529664722 1.1037062373790917e-014 -3.1415926535897931 1.7863635187427597e-014 #
-110 point $-1 -1 -1 $-1 4.0000000000000018 7.0964682030048669e-014 5.4999999999999716 #
-111 point $-1 -1 -1 $-1 -3.9999999999999987 7.1454540749710411e-014 5.5000000000000293 #
-112 ellipse-curve $-1 -1 -1 $-1 1.4855039175451085e-015 -8.8571454786977834e-032 6.0000000000000009 7.2820906130841439e-015 4.8484399722343165e-016 1 -3.4999999999999436 0 -2.5487317145793206e-014 1 I I #
-113 coedge $-1 -1 -1 $-1 $150 $150 $84 $127 forward $72 $-1 #
-114 integer_attrib-name_attrib-gen-attrib $-1 -1 $-1 $-1 $73 2 1 2 1 1 1 1 1 1 1 1 1 1 1 0 1 1 1 @10 Move Face1 0 #
-115 face $151 -1 -1 $-1 $141 $130 $4 $-1 $152 reversed single F T -1.4536388785350904e-014 2.1818181818182323 -4.1054406602308872e-016 3.141592653589794 #
-116 plane-surface $-1 -1 -1 $-1 1.4855039175451085e-015 -8.8571454786977834e-032 6.0000000000000009 7.2820906130838914e-015 -4.8484399722343175e-016 -1 -999.99999999998442 0 -7.2820906130837771e-012 forward_v I I I I #
-117 loop $-1 -1 -1 $-1 $-1 $93 $44 F unknown #
-118 coedge $-1 -1 -1 $-1 $120 $79 $122 $153 reversed $45 $-1 #
-119 edge $-1 -1 -1 $-1 $124 0.0010000000000000594 $69 0.005500000000000063 $80 $154 forward @7 unknown F #
-120 coedge $-1 -1 -1 $-1 $107 $118 $81 $121 forward $45 $-1 #
-121 edge $-1 -1 -1 $-1 $125 0.00099999999999994234 $67 0.0054999999999999468 $120 $155 forward @7 unknown F #
-122 coedge $-1 -1 -1 $-1 $82 $82 $118 $153 forward $123 $-1 #
-123 loop $-1 -1 -1 $-1 $58 $122 $103 F unknown #
-124 vertex $-1 -1 -1 $-1 $119 $156 #
-125 vertex $-1 -1 -1 $-1 $83 $157 #
-126 ellipse-curve $-1 -1 -1 $-1 1.0155736443795717e-013 -6.9388939039072284e-014 0.99999999999999645 -7.2820906130841439e-015 -4.8484399722343165e-016 -1 -3.9999999999999378 0 -2.9490299091605721e-014 1 I I #
-127 edge $-1 -1 -1 $-1 $133 -3.1415926535898189 $131 2.5883726872913439e-014 $113 $158 forward @7 unknown F #
-128 coedge $-1 -1 -1 $-1 $87 $85 $89 $135 forward $130 $-1 #
-129 coedge $-1 -1 -1 $-1 $85 $87 $150 $159 reversed $130 $-1 #
-130 loop $-1 -1 -1 $-1 $-1 $85 $115 F unknown #
-131 vertex $-1 -1 -1 $-1 $86 $160 #
-132 straight-curve $-1 -1 -1 $-1 -2.7499999999998703 6.9725716908837774e-014 -2.3980817331903381e-014 7.2820906130841439e-012 4.8484399722343162e-013 1000 I I #
-133 vertex $-1 -1 -1 $-1 $159 $161 #
-134 straight-curve $-1 -1 -1 $-1 2.7500000000000453 6.9388939039072284e-014 1.5099033134902129e-014 7.2820906130841439e-012 4.8484399722343162e-013 1000 I I #
-135 edge $-1 -1 -1 $-1 $91 6.5138540415841632e-016 $90 3.1415926535897922 $128 $162 forward @7 unknown F #
-136 point $-1 -1 -1 $-1 2.7500000000000884 7.0843471030742418e-014 -2.3980817331903381e-014 #
-137 point $-1 -1 -1 $-1 -2.749999999999913 7.1180248900507946e-014 1.5099033134902129e-014 #
-138 coedge $-1 -1 -1 $-1 $93 $93 $96 $140 forward $117 $-1 #
-139 ellipse-curve $-1 -1 -1 $-1 8.7679576630142709e-014 6.9388939039072284e-014 -4.4408920985006262e-015 -7.2820906130841439e-015 -4.8484399722343165e-016 -1 -5.4999999999999138 0 -3.9898639947466563e-014 1 I I #
-140 edge $-1 -1 -1 $-1 $98 -3.1415926535897682 $100 -1.6327658013627833e-031 $138 $163 forward @7 unknown F #
-141 face $164 -1 -1 $-1 $103 $97 $4 $-1 $165 forward single F T -1.4549004956085282e-014 0.18181818181819936 -3.1415926535897931 2.5320494922794485e-014 #
-142 point $-1 -1 -1 $-1 5.5000000000000862 -6.8957805298155079e-014 -4.4408920985006262e-014 #
-143 point $-1 -1 -1 $-1 -5.4999999999998259 6.9388939039072284e-014 -4.4408920985006262e-014 #
-144 ellipse-curve $-1 -1 -1 $-1 1.0155736443795717e-013 -6.9388939039072284e-014 0.99999999999999645 -7.2820906130841439e-015 -4.8484399722343165e-016 -1 -5.4999999999999138 0 -3.9898639947466563e-014 1 I I #
-145 integer_attrib-name_attrib-gen-attrib $-1 -1 $-1 $-1 $103 2 1 2 1 1 1 1 1 1 1 1 1 1 1 0 1 1 1 @10 Move Face1 0 #
-146 plane-surface $-1 -1 -1 $-1 1.0155736443795717e-013 -6.9388939039072284e-014 0.99999999999999645 7.2820906130838914e-015 -4.8484399722343175e-016 -1 -999.99999999998442 0 -7.2820906130837771e-012 forward_v I I I I #
-147 ellipse-curve $-1 -1 -1 $-1 1.3770837002965581e-015 -8.8571454786977834e-032 5.5 -7.2820906130841439e-015 -4.8484399722343165e-016 -1 -3.9999999999999378 0 -2.9165038439860069e-014 1 I I #
-148 integer_attrib-name_attrib-gen-attrib $-1 -1 $-1 $-1 $109 2 1 2 1 1 1 1 1 1 1 1 1 1 1 0 1 1 1 @10 Move Face1 0 #
-149 cone-surface $-1 -1 -1 $-1 1.3770837002965581e-015 -8.8571454786977834e-032 5.5 -7.2820906130841439e-015 -4.8484399722343165e-016 -1 -3.9999999999999378 0 -2.9165038439860069e-014 1 I I 0.70710678118655002 0.70710678118654502 3.9999999999999378 forward I I I I #
-150 coedge $-1 -1 -1 $-1 $113 $113 $129 $159 forward $72 $-1 #
-151 integer_attrib-name_attrib-gen-attrib $-1 -1 $-1 $-1 $115 2 1 2 1 1 1 1 1 1 1 1 1 1 1 0 1 1 1 @10 Move Face1 0 #
-152 cone-surface $-1 -1 -1 $-1 8.7679576630142709e-014 6.9388939039072284e-014 -4.4408920985006262e-015 7.2820906130841439e-015 4.8484399722343165e-016 1 2.7499999999999578 0 1.9949319973733282e-014 1 I I 0 1 2.7499999999999578 forward I I I I #
-153 edge $-1 -1 -1 $-1 $125 -3.1415926535898286 $124 3.5210869947195497e-014 $122 $166 forward @7 unknown F #
-154 straight-curve $-1 -1 -1 $-1 -3.9999999999998503 6.9878797758731187e-014 -3.3750779948604759e-014 7.2820906130841439e-012 4.8484399722343162e-013 1000 I I #
-155 straight-curve $-1 -1 -1 $-1 4.0000000000000249 6.9388939039072284e-014 2.4868995751603507e-014 7.2820906130841439e-012 4.8484399722343162e-013 1000 I I #
-156 point $-1 -1 -1 $-1 -3.9999999999998992 7.1454540749709818e-014 1.0000000000000258 #
-157 point $-1 -1 -1 $-1 4.0000000000001013 7.0964682030050512e-014 0.99999999999996714 #
-158 ellipse-curve $-1 -1 -1 $-1 1.4855039175451085e-015 -8.8571454786977834e-032 6.0000000000000009 -7.2820906130841439e-015 -4.8484399722343165e-016 -1 -2.7499999999999578 0 -2.0025749185980395e-014 1 I I #
-159 edge $-1 -1 -1 $-1 $131 2.5883726872913439e-014 $133 3.1415926535897674 $150 $167 forward @7 unknown F #
-160 point $-1 -1 -1 $-1 -2.7499999999999996 7.1180248900511998e-014 6.0000000000000213 #
-161 point $-1 -1 -1 $-1 2.7500000000000022 7.0843471030742557e-014 5.9999999999999805 #
-162 ellipse-curve $-1 -1 -1 $-1 8.7679576630142709e-014 6.9388939039072284e-014 -4.4408920985006262e-015 -7.2820906130841439e-015 -4.8484399722343165e-016 -1 -2.7499999999999578 0 -1.9949319973733282e-014 1 I I #
-163 ellipse-curve $-1 -1 -1 $-1 8.7679576630142709e-014 6.9388939039072284e-014 -4.4408920985006262e-015 -7.2820906130841439e-015 -4.8484399722343165e-016 -1 -5.4999999999999138 0 -3.9898639947466563e-014 1 I I #
-164 integer_attrib-name_attrib-gen-attrib $-1 -1 $-1 $-1 $141 2 1 2 1 1 1 1 1 1 1 1 1 1 1 0 1 1 1 @10 Move Face1 0 #
-165 cone-surface $-1 -1 -1 $-1 1.0155736443795717e-013 -6.9388939039072284e-014 0.99999999999999645 -7.2820906130841439e-015 -4.8484399722343165e-016 -1 -5.4999999999999138 0 -3.9898639947466563e-014 1 I I 0 1 5.4999999999999138 forward I I I I #
-166 ellipse-curve $-1 -1 -1 $-1 1.0155736443795717e-013 -6.9388939039072284e-014 0.99999999999999645 -7.2820906130841439e-015 -4.8484399722343165e-016 -1 -3.9999999999999378 0 -2.9490299091605721e-014 1 I I #
-167 ellipse-curve $-1 -1 -1 $-1 1.4855039175451085e-015 -8.8571454786977834e-032 6.0000000000000009 -7.2820906130841439e-015 -4.8484399722343165e-016 -1 -2.7499999999999578 0 -2.0025749185980395e-014 1 I I #
End-of-ACIS-data 